<?xml version="1.0" encoding="UTF-8" standalone="no"?>
<!-- Created with Inkscape (http://www.inkscape.org/) -->

<svg
   xmlns:dc="http://purl.org/dc/elements/1.1/"
   xmlns:cc="http://creativecommons.org/ns#"
   xmlns:rdf="http://www.w3.org/1999/02/22-rdf-syntax-ns#"
   xmlns:svg="http://www.w3.org/2000/svg"
   xmlns="http://www.w3.org/2000/svg"
   xmlns:sodipodi="http://sodipodi.sourceforge.net/DTD/sodipodi-0.dtd"
   xmlns:inkscape="http://www.inkscape.org/namespaces/inkscape"
   width="39.355721mm"
   height="42.333332mm"
   viewBox="0 0 139.4494 149.99999"
   id="svg5521"
   version="1.1"
   inkscape:version="0.91 r13725"
   sodipodi:docname="action-time.svg">
  <defs
     id="defs5523">
    <filter
       inkscape:collect="always"
       style="color-interpolation-filters:sRGB"
       id="filter6481"
       x="-0.076026209"
       width="1.1520524"
       y="-0.049554076"
       height="1.0991081">
      <feGaussianBlur
         inkscape:collect="always"
         stdDeviation="2.0647531"
         id="feGaussianBlur6483" />
    </filter>
    <filter
       inkscape:collect="always"
       style="color-interpolation-filters:sRGB"
       id="filter6511"
       x="-0.1256806"
       width="1.2513613"
       y="-0.11481071"
       height="1.2296214">
      <feGaussianBlur
         inkscape:collect="always"
         stdDeviation="3.6697081"
         id="feGaussianBlur6513" />
    </filter>
  </defs>
  <sodipodi:namedview
     id="base"
     pagecolor="#ffffff"
     bordercolor="#666666"
     borderopacity="1.0"
     inkscape:pageopacity="0.0"
     inkscape:pageshadow="2"
     inkscape:zoom="1.4142136"
     inkscape:cx="48.067235"
     inkscape:cy="56.934977"
     inkscape:document-units="px"
     inkscape:current-layer="layer1"
     showgrid="false"
     inkscape:window-width="1366"
     inkscape:window-height="713"
     inkscape:window-x="0"
     inkscape:window-y="27"
     inkscape:window-maximized="1"
     fit-margin-top="0"
     fit-margin-left="0"
     fit-margin-right="0"
     fit-margin-bottom="0"
     showborder="false" />
  <metadata
     id="metadata5526">
    <rdf:RDF>
      <cc:Work
         rdf:about="">
        <dc:format>image/svg+xml</dc:format>
        <dc:type
           rdf:resource="http://purl.org/dc/dcmitype/StillImage" />
        <dc:title />
      </cc:Work>
    </rdf:RDF>
  </metadata>
  <g
     inkscape:label="Layer 1"
     inkscape:groupmode="layer"
     id="layer1"
     transform="translate(-258.58466,-262.06231)">
    <g
       id="g3570">
      <path
         transform="matrix(1.5902282,0,0,1.5902282,-152.62398,-243.21082)"
         inkscape:connector-curvature="0"
         style="clip-rule:evenodd;fill-rule:evenodd;filter:url(#filter6511)"
         d="m 337.46877,352.28949 c 0.003,-1.205 -0.134,-2.388 -0.513,-3.531 -1.104,-3.334 -2.96,-6.098 -6.07,-7.895 -7.226,-4.175 -14.458,-8.337 -21.667,-12.538 -1.96,-1.143 -4.048,-1.717 -6.292,-1.776 -2.474,-0.064 -4.824,0.382 -7,1.646 -7.277,4.224 -14.599,8.375 -21.843,12.655 -4.319,2.553 -6.592,6.476 -6.646,11.491 -0.088,8.381 -0.021,16.764 -0.027,25.146 -0.001,1.291 0.158,2.553 0.586,3.77 1.14,3.24 2.981,5.927 6.028,7.682 7.17,4.13 14.342,8.258 21.487,12.428 1.877,1.095 3.855,1.744 6.012,1.861 2.635,0.144 5.141,-0.284 7.461,-1.631 7.229,-4.195 14.459,-8.387 21.712,-12.542 2.023,-1.16 3.585,-2.738 4.772,-4.712 1.146,-1.905 1.953,-3.941 1.973,-6.19 0.037,-4.416 0.011,-8.832 0.011,-13.248 l 0.012,0 c 0,-4.207 -0.005,-8.412 0.004,-12.616 z"
         id="path6509" />
      <path
         id="path5545"
         d="m 384.02837,317.00986 c 0.005,-1.91622 -0.21309,-3.79746 -0.81578,-5.61509 -1.75561,-5.30183 -4.70708,-9.69722 -9.65269,-12.55486 -11.49099,-6.6392 -22.99152,-13.25773 -34.45547,-19.93828 -3.11685,-1.81763 -6.43725,-2.73042 -10.00572,-2.82424 -3.93422,-0.10178 -7.67126,0.60746 -11.1316,2.61751 -11.57209,6.71713 -23.21574,13.31816 -34.73535,20.12434 -6.8682,4.05985 -10.48278,10.29832 -10.56866,18.27331 -0.13994,13.32771 -0.0334,26.65859 -0.0429,39.98788 -0.002,2.05299 0.25125,4.05985 0.93187,5.99516 1.81286,5.15234 4.74047,9.42528 9.5859,12.21614 11.40193,6.56764 22.80705,13.1321 34.16923,19.76335 2.98486,1.7413 6.13033,2.77336 9.56045,2.95942 4.19025,0.22899 8.17537,-0.45163 11.86469,-2.59367 11.49576,-6.671 22.99311,-13.33724 34.52704,-19.94464 3.21703,-1.84466 5.70097,-4.35404 7.58857,-7.49315 1.8224,-3.02939 3.10571,-6.26709 3.13752,-9.84352 0.0588,-7.02244 0.0175,-14.04489 0.0175,-21.06734 l 0.0191,0 c 0,-6.69009 -0.008,-13.377 0.006,-20.06232 z"
         style="clip-rule:evenodd;fill-rule:evenodd"
         inkscape:connector-curvature="0" />
      <g
         id="g5663"
         transform="matrix(0.69448088,0,0,0.69448088,303.54338,302.27957)"
         style="fill:#f2f2f2;filter:url(#filter6481)">
        <path
           id="path5665"
           d="m 35.479,39.365 c -0.168,0.449 -0.277,0.91 -0.324,1.379 -0.053,0.518 -0.039,1.039 0.057,1.555 0.058,0.309 0.131,0.617 0.241,0.918 0.515,1.392 1.539,2.499 2.888,3.119 0.734,0.338 1.514,0.508 2.315,0.508 0.996,0 1.949,-0.279 2.781,-0.764 0.45,-0.262 0.863,-0.584 1.227,-0.964 0.325,-0.339 0.606,-0.725 0.839,-1.145 0.067,-0.121 0.143,-0.237 0.201,-0.365 0,0 11.078,-24.098 11.102,-24.147 0.023,-0.052 0.334,-0.974 0.4,-1.345 0.435,-2.428 -0.783,-4.941 -3.127,-6.02 -0.732,-0.338 -1.512,-0.508 -2.313,-0.508 -1.688,0 -3.258,0.78 -4.3,2.052 -0.293,0.359 -0.551,0.75 -0.748,1.183 10e-4,-0.004 0.002,-0.008 0.004,-0.011 l -0.006,0.012 c -10e-4,0.001 -0.002,0.004 -0.004,0.006 L 35.616,38.97 c -0.058,0.129 -0.089,0.263 -0.137,0.395 z"
           inkscape:connector-curvature="0"
           style="fill:#f2f2f2" />
        <path
           id="path5667"
           d="m 40.476,12.83 c 0.235,0.236 0.388,0.544 0.5,0.881 0.263,0.799 0.219,1.822 10e-4,2.859 -0.112,0.529 -0.262,1.054 -0.442,1.551 -0.068,0.191 -0.137,0.384 -0.214,0.564 -0.113,0.275 -0.262,0.595 -0.434,0.933 -1.504,2.975 -5.374,7.975 -14.463,8.285 -0.005,0 -0.012,0.001 -0.017,0.001 L 21.62,35.79 c 2.366,0.559 6.577,1.881 10.227,4.73 L 44.192,13.661 c 0.202,-0.438 0.32,-0.889 0.401,-1.344 C 45.025,9.886 43.81,7.372 41.466,6.295 40.732,5.959 39.952,5.787 39.153,5.787 c -1.688,0 -3.257,0.779 -4.298,2.052 -0.296,0.359 -0.554,0.751 -0.754,1.184 0.002,-0.004 0.002,-0.006 0.006,-0.01 l -0.006,0.01 -0.003,0.007 -1.56,3.395 7.532,0 0.406,0.405 z"
           inkscape:connector-curvature="0"
           style="fill:#f2f2f2" />
        <path
           id="path5669"
           d="m 25.861,12.424 1.352,0 2.268,0 2.087,-4.549 c 0.2,-0.438 0.319,-0.89 0.399,-1.344 C 32.4,4.102 31.185,1.588 28.841,0.51 28.105,0.174 27.327,0 26.527,0 c -1.688,0 -3.258,0.781 -4.299,2.053 -0.293,0.359 -0.552,0.751 -0.751,1.185 0,0.002 -0.004,0.004 -0.004,0.006 l -4.213,9.18 4.614,0 3.987,0 z"
           inkscape:connector-curvature="0"
           style="fill:#f2f2f2" />
        <polygon
           id="polygon5671"
           points="31.581,7.854 31.578,7.861 31.573,7.874 31.578,7.861 "
           style="fill:#f2f2f2" />
        <polygon
           id="polygon5673"
           points="55.55,28.841 55.551,28.84 55.55,28.84 "
           style="fill:#f2f2f2" />
        <polygon
           id="polygon5675"
           points="44.95,45.249 44.949,45.252 44.952,45.248 "
           style="fill:#f2f2f2" />
        <polygon
           id="polygon5677"
           points="44.952,45.246 44.954,45.241 44.952,45.245 "
           style="fill:#f2f2f2" />
        <path
           id="path5679"
           d="m 65.18,33.276 c 0,-0.624 -0.348,-1.915 -0.362,-1.927 -0.785,-2.115 -2.805,-3.628 -5.191,-3.628 -0.501,0 -0.979,0.088 -1.441,0.213 -0.803,0.216 -1.528,0.607 -2.145,1.131 -0.724,0.617 -1.282,1.405 -1.615,2.315 -0.004,0.012 -0.006,0.026 -0.012,0.038 l -6.939,14.99 0.002,0 c -0.205,0.447 -0.308,0.913 -0.332,1.377 -0.008,0.166 0,0.33 0.013,0.492 0.106,1.305 0.888,2.518 2.16,3.103 0.604,0.279 1.255,0.362 1.89,0.297 0.828,-0.086 1.627,-0.432 2.242,-0.996 0.295,-0.271 0.539,-0.6 0.731,-0.962 l 3.605,-7.787 2.521,1.163 0.25,-0.543 -3.742,8.143 -0.006,0.012 c -0.062,0.135 -0.137,0.259 -0.211,0.386 -0.155,0.278 -0.327,0.548 -0.518,0.799 -0.391,0.519 -0.86,0.967 -1.379,1.343 -1.006,0.733 -2.213,1.183 -3.494,1.247 -0.111,0.007 -0.218,0.021 -0.327,0.021 l -0.001,0 c -0.943,0 -1.859,-0.202 -2.723,-0.598 -1.292,-0.596 -2.284,-1.566 -2.936,-2.72 -0.314,-0.557 -0.537,-1.157 -0.678,-1.781 -0.053,-0.233 -0.096,-0.466 -0.123,-0.705 -0.43,0.22 -0.872,0.412 -1.337,0.555 -0.776,0.238 -1.593,0.368 -2.425,0.368 0,0 0,0 -10e-4,0 -0.965,0 -1.61,-0.172 -2.511,-0.497 0.512,1.676 0.831,3.528 0.831,5.63 l 0,10.526 -2.777,0 0,-10.526 c 0,-2.521 -0.788,-4.656 -1.598,-6.478 C 30.807,39.732 19.972,38.254 19.419,38.185 l -1.914,-0.24 6.146,-12.802 0.875,0 c 0.232,0 0.43,-0.029 0.652,-0.035 0.538,-0.016 1.074,-0.033 1.568,-0.084 5.297,-0.549 8.203,-3.018 9.739,-5.135 0.133,-0.183 0.249,-0.367 0.366,-0.548 0.272,-0.426 0.499,-0.842 0.69,-1.248 0.219,-0.463 0.389,-0.906 0.517,-1.313 0.195,-0.628 0.298,-1.174 0.328,-1.578 l -22.978,0 c -2.75,0 -5.154,1.458 -6.5,3.64 -0.314,0.51 -0.572,1.056 -0.762,1.635 L 0.928,35.957 0.557,36.753 C 0.201,37.635 0,38.597 0,39.608 c 0,1.382 0.373,2.675 1.014,3.794 l 0.781,1.12 17.738,23.491 0,31.984 33.331,0 0,0.003 2.777,0 0.002,-23.609 8.821,-17.957 c 0.124,-0.223 0.243,-0.446 0.337,-0.687 0.232,-0.594 0.367,-1.235 0.378,-1.908 0.002,-0.034 0.001,-22.563 0.001,-22.563 z"
           inkscape:connector-curvature="0"
           style="fill:#f2f2f2" />
      </g>
      <g
         style="fill:#f2f2f2"
         transform="matrix(0.69448088,0,0,0.69448088,303.54338,302.27957)"
         id="g5653">
        <path
           style="fill:#f2f2f2"
           inkscape:connector-curvature="0"
           d="m 35.479,39.365 c -0.168,0.449 -0.277,0.91 -0.324,1.379 -0.053,0.518 -0.039,1.039 0.057,1.555 0.058,0.309 0.131,0.617 0.241,0.918 0.515,1.392 1.539,2.499 2.888,3.119 0.734,0.338 1.514,0.508 2.315,0.508 0.996,0 1.949,-0.279 2.781,-0.764 0.45,-0.262 0.863,-0.584 1.227,-0.964 0.325,-0.339 0.606,-0.725 0.839,-1.145 0.067,-0.121 0.143,-0.237 0.201,-0.365 0,0 11.078,-24.098 11.102,-24.147 0.023,-0.052 0.334,-0.974 0.4,-1.345 0.435,-2.428 -0.783,-4.941 -3.127,-6.02 -0.732,-0.338 -1.512,-0.508 -2.313,-0.508 -1.688,0 -3.258,0.78 -4.3,2.052 -0.293,0.359 -0.551,0.75 -0.748,1.183 10e-4,-0.004 0.002,-0.008 0.004,-0.011 l -0.006,0.012 c -10e-4,0.001 -0.002,0.004 -0.004,0.006 L 35.616,38.97 c -0.058,0.129 -0.089,0.263 -0.137,0.395 z"
           id="path5631" />
        <path
           style="fill:#f2f2f2"
           inkscape:connector-curvature="0"
           d="m 40.476,12.83 c 0.235,0.236 0.388,0.544 0.5,0.881 0.263,0.799 0.219,1.822 10e-4,2.859 -0.112,0.529 -0.262,1.054 -0.442,1.551 -0.068,0.191 -0.137,0.384 -0.214,0.564 -0.113,0.275 -0.262,0.595 -0.434,0.933 -1.504,2.975 -5.374,7.975 -14.463,8.285 -0.005,0 -0.012,0.001 -0.017,0.001 L 21.62,35.79 c 2.366,0.559 6.577,1.881 10.227,4.73 L 44.192,13.661 c 0.202,-0.438 0.32,-0.889 0.401,-1.344 C 45.025,9.886 43.81,7.372 41.466,6.295 40.732,5.959 39.952,5.787 39.153,5.787 c -1.688,0 -3.257,0.779 -4.298,2.052 -0.296,0.359 -0.554,0.751 -0.754,1.184 0.002,-0.004 0.002,-0.006 0.006,-0.01 l -0.006,0.01 -0.003,0.007 -1.56,3.395 7.532,0 0.406,0.405 z"
           id="path5633" />
        <path
           style="fill:#f2f2f2"
           inkscape:connector-curvature="0"
           d="m 25.861,12.424 1.352,0 2.268,0 2.087,-4.549 c 0.2,-0.438 0.319,-0.89 0.399,-1.344 C 32.4,4.102 31.185,1.588 28.841,0.51 28.105,0.174 27.327,0 26.527,0 c -1.688,0 -3.258,0.781 -4.299,2.053 -0.293,0.359 -0.552,0.751 -0.751,1.185 0,0.002 -0.004,0.004 -0.004,0.006 l -4.213,9.18 4.614,0 3.987,0 z"
           id="path5635" />
        <polygon
           style="fill:#f2f2f2"
           points="31.578,7.861 31.581,7.854 31.578,7.861 31.573,7.874 "
           id="polygon5637" />
        <polygon
           style="fill:#f2f2f2"
           points="55.55,28.841 55.551,28.84 55.55,28.84 "
           id="polygon5639" />
        <polygon
           style="fill:#f2f2f2"
           points="44.95,45.249 44.949,45.252 44.952,45.248 "
           id="polygon5641" />
        <polygon
           style="fill:#f2f2f2"
           points="44.952,45.246 44.954,45.241 44.952,45.245 "
           id="polygon5643" />
        <path
           style="fill:#f2f2f2"
           inkscape:connector-curvature="0"
           d="m 65.18,33.276 c 0,-0.624 -0.348,-1.915 -0.362,-1.927 -0.785,-2.115 -2.805,-3.628 -5.191,-3.628 -0.501,0 -0.979,0.088 -1.441,0.213 -0.803,0.216 -1.528,0.607 -2.145,1.131 -0.724,0.617 -1.282,1.405 -1.615,2.315 -0.004,0.012 -0.006,0.026 -0.012,0.038 l -6.939,14.99 0.002,0 c -0.205,0.447 -0.308,0.913 -0.332,1.377 -0.008,0.166 0,0.33 0.013,0.492 0.106,1.305 0.888,2.518 2.16,3.103 0.604,0.279 1.255,0.362 1.89,0.297 0.828,-0.086 1.627,-0.432 2.242,-0.996 0.295,-0.271 0.539,-0.6 0.731,-0.962 l 3.605,-7.787 2.521,1.163 0.25,-0.543 -3.742,8.143 -0.006,0.012 c -0.062,0.135 -0.137,0.259 -0.211,0.386 -0.155,0.278 -0.327,0.548 -0.518,0.799 -0.391,0.519 -0.86,0.967 -1.379,1.343 -1.006,0.733 -2.213,1.183 -3.494,1.247 -0.111,0.007 -0.218,0.021 -0.327,0.021 l -0.001,0 c -0.943,0 -1.859,-0.202 -2.723,-0.598 -1.292,-0.596 -2.284,-1.566 -2.936,-2.72 -0.314,-0.557 -0.537,-1.157 -0.678,-1.781 -0.053,-0.233 -0.096,-0.466 -0.123,-0.705 -0.43,0.22 -0.872,0.412 -1.337,0.555 -0.776,0.238 -1.593,0.368 -2.425,0.368 0,0 0,0 -10e-4,0 -0.965,0 -1.61,-0.172 -2.511,-0.497 0.512,1.676 0.831,3.528 0.831,5.63 l 0,10.526 -2.777,0 0,-10.526 c 0,-2.521 -0.788,-4.656 -1.598,-6.478 C 30.807,39.732 19.972,38.254 19.419,38.185 l -1.914,-0.24 6.146,-12.802 0.875,0 c 0.232,0 0.43,-0.029 0.652,-0.035 0.538,-0.016 1.074,-0.033 1.568,-0.084 5.297,-0.549 8.203,-3.018 9.739,-5.135 0.133,-0.183 0.249,-0.367 0.366,-0.548 0.272,-0.426 0.499,-0.842 0.69,-1.248 0.219,-0.463 0.389,-0.906 0.517,-1.313 0.195,-0.628 0.298,-1.174 0.328,-1.578 l -22.978,0 c -2.75,0 -5.154,1.458 -6.5,3.64 -0.314,0.51 -0.572,1.056 -0.762,1.635 L 0.928,35.957 0.557,36.753 C 0.201,37.635 0,38.597 0,39.608 c 0,1.382 0.373,2.675 1.014,3.794 l 0.781,1.12 17.738,23.491 0,31.984 33.331,0 0,0.003 2.777,0 0.002,-23.609 8.821,-17.957 c 0.124,-0.223 0.243,-0.446 0.337,-0.687 0.232,-0.594 0.367,-1.235 0.378,-1.908 0.002,-0.034 0.001,-22.563 0.001,-22.563 z"
           id="path5645" />
      </g>
    </g>
  </g>
</svg>
