<?xml version="1.0" encoding="UTF-8" standalone="no"?>
<svg
   xmlns:dc="http://purl.org/dc/elements/1.1/"
   xmlns:cc="http://creativecommons.org/ns#"
   xmlns:rdf="http://www.w3.org/1999/02/22-rdf-syntax-ns#"
   xmlns:svg="http://www.w3.org/2000/svg"
   xmlns="http://www.w3.org/2000/svg"
   xmlns:sodipodi="http://sodipodi.sourceforge.net/DTD/sodipodi-0.dtd"
   xmlns:inkscape="http://www.inkscape.org/namespaces/inkscape"
   version="1.2"
   id="Layer_1"
   x="0px"
   y="0px"
   width="100px"
   height="100px"
   viewBox="0 0 100 100"
   xml:space="preserve"
   inkscape:version="0.91 r13725"
   sodipodi:docname="attribution.svg"><metadata
     id="metadata4512"><rdf:RDF><cc:Work
         rdf:about=""><dc:format>image/svg+xml</dc:format><dc:type
           rdf:resource="http://purl.org/dc/dcmitype/StillImage" /><dc:title></dc:title></cc:Work></rdf:RDF></metadata><defs
     id="defs4510" /><sodipodi:namedview
     pagecolor="#ffffff"
     bordercolor="#666666"
     borderopacity="1"
     objecttolerance="10"
     gridtolerance="10"
     guidetolerance="10"
     inkscape:pageopacity="0"
     inkscape:pageshadow="2"
     inkscape:window-width="1366"
     inkscape:window-height="768"
     id="namedview4508"
     showgrid="false"
     inkscape:zoom="5.9"
     inkscape:cx="50"
     inkscape:cy="50"
     inkscape:window-x="0"
     inkscape:window-y="0"
     inkscape:window-maximized="0"
     inkscape:current-layer="Layer_1" /><path
     d="m 96.898666,37.51231 c 1.921033,0 3.478064,-1.558027 3.478064,-3.479061 0,-1.920032 -1.557031,-3.478059 -3.478064,-3.478059 -1.921033,0 -3.47806,1.558027 -3.47806,3.478059 0,0.422009 0.079,0.825015 0.217004,1.200021 L 83.484434,43.88242 70.620212,36.315289 c 0.073,-0.297005 0.116003,-0.60701 0.116003,-0.927016 0,-2.142037 -1.736031,-3.878067 -3.878067,-3.878067 -0.869016,0 -1.668029,0.289005 -2.31404,0.772014 L 52.920906,23.053061 c 0.054,-0.220005 0.086,-0.448009 0.086,-0.684012 0,-1.581028 -1.281022,-2.86105 -2.861049,-2.86105 -1.580027,0 -2.861049,1.281022 -2.861049,2.86105 0,0.729012 0.275005,1.393024 0.724012,1.898033 L 42.17372,36.755297 c -0.260004,-0.045 -0.526008,-0.074 -0.800013,-0.074 -0.860016,0 -1.662029,0.239003 -2.351041,0.64701 L 23.5844,30.413187 c 0.036,-0.225003 0.06,-0.454007 0.06,-0.689012 0,-2.380041 -1.929034,-4.309074 -4.309074,-4.309074 -2.379042,0 -4.309075,1.929033 -4.309075,4.309074 0,2.380041 1.929033,4.309074 4.309075,4.309074 1.352022,0 2.556043,-0.62301 3.346057,-1.596027 l 14.682254,6.576114 c -0.384007,0.674012 -0.607011,1.452025 -0.607011,2.284039 0,0.852015 0.293005,1.605028 0.694012,2.29004 l -8.233143,8.237142 c -1.136019,-0.811014 -2.506043,-1.294023 -4.003069,-1.294023 -2.642045,0 -4.915084,1.501026 -6.082104,3.684064 l -0.096,-0.032 c -10e-4,0.012 -0.004,0.023 -0.005,0.035 L 7.5531239,49.001508 c 0.016,-0.134002 0.025,-0.271005 0.025,-0.409007 0,-1.989034 -1.6120278,-3.601062 -3.6010622,-3.601062 -1.9890343,0 -3.6010621,1.612028 -3.6010621,3.601062 0,1.989035 1.6120278,3.601062 3.6010621,3.601062 1.0540183,0 1.9990346,-0.455008 2.6570459,-1.17702 l 11.7232032,5.329091 c -0.005,0.013 -0.009,0.025 -0.015,0.037 l 0.056,0.019 c -0.054,0.348006 -0.108002,0.694012 -0.108002,1.055019 0,1.954033 0.813014,3.716063 2.115036,4.975085 l -0.017,0.013 c 0.004,0.005 0.008,0.01 0.012,0.014 l -5.973102,8.802152 c -0.155003,-0.027 -0.314006,-0.044 -0.478008,-0.044 -1.479026,0 -2.678047,1.198021 -2.678047,2.678047 0,1.479026 1.199021,2.678046 2.678047,2.678046 1.479025,0 2.678046,-1.19902 2.678046,-2.678046 0,-0.501009 -0.140003,-0.969017 -0.380007,-1.370024 l 5.364092,-7.904136 0.710012,-0.877016 c 0.881016,0.407008 1.859033,0.641012 2.89405,0.641012 1.902033,0 3.629064,-0.771014 4.883085,-2.016035 l 6.993121,4.991086 c -0.199004,0.514009 -0.334006,1.060018 -0.334006,1.641028 0,2.548045 2.065035,4.61708 4.61708,4.61708 2.159037,0 3.965068,-1.483026 4.471077,-3.48206 L 61.76206,65.212787 c 0.977017,1.815031 2.89305,3.050053 5.099088,3.050053 1.273022,0 2.447041,-0.417008 3.403058,-1.114019 l 7.120123,6.611114 c -0.038,0.193003 -0.059,0.393007 -0.059,0.59701 0,1.73403 1.406025,3.140054 3.140054,3.140054 1.73403,0 3.139054,-1.405024 3.139054,-3.140054 0,-1.73303 -1.405024,-3.139055 -3.139054,-3.139055 -0.707012,0 -1.358023,0.236005 -1.883032,0.631012 l -6.811119,-6.323109 c 0.552009,-0.887015 0.893016,-1.930033 0.893016,-3.050052 0,-2.815048 -1.661029,-5.16009 -4.661081,-5.677098 l 0,-17.695306 c 1.000017,-0.172003 1.082019,-0.478008 1.513026,-0.878015 l 13.332231,7.848136 11.179193,15.65527 c -0.092,0.230004 -0.146003,0.481008 -0.146003,0.745013 0,1.125019 0.910015,2.037035 2.035035,2.037035 1.12502,0 2.037035,-0.912016 2.037035,-2.037035 0,-1.125019 -0.913015,-2.037036 -2.038035,-2.037036 -0.03,0 -0.06,0.003 -0.09,0.005 L 85.095463,45.421446 95.026634,36.962301 c 0.54001,0.347005 1.182021,0.550009 1.872033,0.550009 z M 61.071048,62.473741 c 0,0.210003 0.013,0.416007 0.035,0.62001 l -15.275263,4.724082 c -0.52201,-1.975035 -2.316041,-3.435059 -4.458077,-3.435059 -1.12302,0 -2.114037,0.451007 -2.913051,1.113019 l -7.038122,-5.022087 c 0.447009,-0.920015 0.717014,-1.930034 0.717014,-3.017051 0,-1.492026 -0.487009,-2.87105 -1.290023,-3.99907 l 8.233142,-8.237142 c 0.686012,0.401007 1.438024,0.694012 2.29104,0.694012 1.642028,0 3.079053,-0.857015 3.897067,-2.147037 l 17.222297,14.914257 c -0.882015,1.017018 -1.421024,2.34004 -1.421024,3.792066 z m 4.930084,-5.677098 c -1.000017,0.100001 -1.135019,0.273005 -1.596027,0.502008 L 46.044789,41.452378 c 0.002,-0.052 -0.023,-0.102001 -0.023,-0.154003 0,-1.485026 -0.718012,-2.802048 -1.806031,-3.646062 l 5.7991,-12.428216 c 0.046,0.002 0.088,0.007 0.134003,0.007 0.530009,0 1.023018,-0.147003 1.449025,-0.399007 l 11.6212,9.22916 c -0.151002,0.415007 -0.113002,0.861014 -0.113002,1.328022 0,1.75703 0.895016,3.238056 2.89505,3.715064 l 0,17.692306 z"
     id="path4506"
     inkscape:connector-curvature="0"
     style="fill:#000000"
     inkscape:export-xdpi="90"
     inkscape:export-ydpi="90" /></svg>