<?xml version="1.0" encoding="UTF-8" standalone="no"?>
<!-- Created with Inkscape (http://www.inkscape.org/) -->

<svg
   xmlns:dc="http://purl.org/dc/elements/1.1/"
   xmlns:cc="http://creativecommons.org/ns#"
   xmlns:rdf="http://www.w3.org/1999/02/22-rdf-syntax-ns#"
   xmlns:svg="http://www.w3.org/2000/svg"
   xmlns="http://www.w3.org/2000/svg"
   xmlns:sodipodi="http://sodipodi.sourceforge.net/DTD/sodipodi-0.dtd"
   xmlns:inkscape="http://www.inkscape.org/namespaces/inkscape"
   width="33.866665mm"
   height="34.367058mm"
   viewBox="0 0 119.99999 121.77304"
   id="svg2"
   version="1.1"
   inkscape:version="0.91 r13725"
   sodipodi:docname="clap.svg">
  <defs
     id="defs4">
    <filter
       inkscape:collect="always"
       style="color-interpolation-filters:sRGB"
       id="filter4323"
       x="-0.06044326"
       width="1.1208865"
       y="-0.059563193"
       height="1.1191264">
      <feGaussianBlur
         inkscape:collect="always"
         stdDeviation="2.2265301"
         id="feGaussianBlur4325" />
    </filter>
  </defs>
  <sodipodi:namedview
     id="base"
     pagecolor="#ffffff"
     bordercolor="#666666"
     borderopacity="1.0"
     inkscape:pageopacity="0.0"
     inkscape:pageshadow="2"
     inkscape:zoom="0.73903846"
     inkscape:cx="201.20632"
     inkscape:cy="22.344481"
     inkscape:document-units="px"
     inkscape:current-layer="layer1"
     showgrid="false"
     inkscape:window-width="1366"
     inkscape:window-height="713"
     inkscape:window-x="0"
     inkscape:window-y="27"
     inkscape:window-maximized="1"
     showborder="false"
     fit-margin-top="0"
     fit-margin-left="0"
     fit-margin-right="0"
     fit-margin-bottom="0" />
  <metadata
     id="metadata7">
    <rdf:RDF>
      <cc:Work
         rdf:about="">
        <dc:format>image/svg+xml</dc:format>
        <dc:type
           rdf:resource="http://purl.org/dc/dcmitype/StillImage" />
        <dc:title></dc:title>
      </cc:Work>
    </rdf:RDF>
  </metadata>
  <g
     inkscape:label="Layer 1"
     inkscape:groupmode="layer"
     id="layer1"
     transform="translate(-173.79368,-438.64793)">
    <g
       id="g4327"
       transform="matrix(0.7434592,0,0,0.7434592,42.724429,145.63158)"
       inkscape:export-xdpi="90"
       inkscape:export-ydpi="90">
      <g
         style="filter:url(#filter4323)"
         id="g3497"
         transform="matrix(1.3573421,0,0,1.3573421,165.95287,431.74494)"
         inkscape:export-xdpi="90"
         inkscape:export-ydpi="90">
        <path
           inkscape:connector-curvature="0"
           d="m 35.5,34.7 c 0.4,0 0.9,0 1.3,0.1 -0.1,-2.6 1.4,-5.1 4,-6.1 0.7,-0.3 1.5,-0.4 2.3,-0.4 1.8,0 3.4,0.8 4.6,2 l 4.6,-4.8 c 1.4,-1.4 1.3,-3.7 -0.1,-5 -0.7,-0.7 -1.6,-1 -2.5,-1 -0.9,0 -1.9,0.4 -2.6,1.1 l -14,14.6 c 0.8,-0.3 1.6,-0.5 2.4,-0.5 l 0,0 z m 0,0"
           id="path3499" />
        <path
           inkscape:connector-curvature="0"
           d="m 27.5,67.4 c 0.8,-1.3 2,-2.3 3.4,-2.9 0.8,-0.3 1.7,-0.5 2.6,-0.5 1.3,0 2.6,0.4 3.7,1 l 1.4,0.9 -0.1,-0.2 -1,-2.7 0,0 -7.9,-19.7 C 29,41.9 29,40.3 29.5,38.9 l -1.2,1.2 0,0 -7.6,7.9 1.6,-12.5 C 22.5,34.1 22,32.7 21,31.8 c -0.7,-0.6 -1.5,-1.1 -2.5,-1.2 -0.2,0 -0.4,0 -0.6,0 -2.2,0 -4.1,1.6 -4.4,3.9 L 5.9,71.6 c -0.4,1.7 0.2,3.5 1.4,4.7 l 13.1,12.6 c 1,0.9 2.2,1.4 3.5,1.4 0.9,0 1.8,-0.2 2.6,-0.7 L 37.6,82.9 29.7,77.2 C 26.5,75 25.5,70.7 27.5,67.4 l 0,0 z m 0,0"
           id="path3501" />
        <path
           inkscape:connector-curvature="0"
           d="m 58.8,31.7 0.7,1.7 2.9,-3 c 1.4,-1.4 1.3,-3.7 -0.1,-5 -0.7,-0.7 -1.6,-1 -2.5,-1 -0.9,0 -1.9,0.4 -2.5,1.1 L 54.8,28 c 1.8,0.5 3.3,1.9 4,3.7 l 0,0 z m 0,0"
           id="path3503" />
        <path
           inkscape:connector-curvature="0"
           d="M 78.3,63.4 68.2,38.1 c -0.5,-1.2 -1.7,-2 -2.9,-2 -0.4,0 -0.8,0.1 -1.2,0.2 -1.6,0.6 -2.4,2.5 -1.7,4.1 l 4.9,12.2 c 0.2,0.4 0.1,0.8 0,1.2 -0.2,0.4 -0.5,0.7 -0.9,0.8 -0.2,0.1 -0.4,0.1 -0.6,0.1 -0.6,0 -1.2,-0.4 -1.5,-1 L 55.9,32.8 c -0.5,-1.2 -1.7,-2 -2.9,-2 -0.4,0 -0.8,0.1 -1.2,0.2 -1.6,0.6 -2.4,2.5 -1.8,4.1 L 58.4,56 c 0.2,0.4 0.1,0.8 0,1.2 -0.2,0.4 -0.5,0.7 -0.9,0.8 -0.2,0.1 -0.4,0.1 -0.6,0.1 -0.6,0 -1.2,-0.4 -1.5,-1 L 46,33.4 c -0.5,-1.2 -1.7,-2 -2.9,-2 -0.4,0 -0.8,0.1 -1.2,0.2 -1.6,0.6 -2.4,2.5 -1.8,4.1 l 9.5,23.8 c 0.2,0.4 0.1,0.8 0,1.2 -0.2,0.4 -0.5,0.7 -0.9,0.8 -0.2,0.1 -0.4,0.1 -0.6,0.1 -0.6,0 -1.2,-0.4 -1.5,-1 L 38.2,39.7 c -0.5,-1.2 -1.7,-2 -2.9,-2 -0.4,0 -0.8,0.1 -1.2,0.2 -1.6,0.6 -2.4,2.5 -1.8,4.1 l 8.9,22.4 0,0 3,7.5 c 0.1,0.2 0,0.5 -0.2,0.6 -0.1,0.1 -0.2,0.1 -0.4,0.1 -0.1,0 -0.2,0 -0.3,-0.1 l -8.1,-5 c -0.6,-0.4 -1.3,-0.6 -2,-0.6 -0.5,0 -1,0.1 -1.5,0.3 -0.8,0.3 -1.4,0.8 -1.9,1.6 -1.1,1.8 -0.6,4.3 1.3,5.4 l 27,19.6 c 0.9,0.6 1.9,1 3,1 0.6,0 1.3,-0.1 1.9,-0.4 l 14.2,-5.7 c 2.1,-0.8 3.4,-3 3.1,-5.3 l -2,-20 c 0,0 0,0 0,0 l 0,0 z m 0,0"
           id="path3505" />
        <path
           inkscape:connector-curvature="0"
           d="m 77.7,23.8 c -1.2,-0.6 -2.6,-0.1 -3.2,1.1 -0.6,1.2 -0.1,2.6 1.1,3.2 2.6,1.3 4.5,3.5 5.5,6.3 0.9,2.8 0.7,5.7 -0.6,8.3 -0.6,1.2 -0.1,2.6 1.1,3.2 0.3,0.2 0.7,0.2 1.1,0.2 0.9,0 1.7,-0.5 2.1,-1.3 1.9,-3.7 2.1,-8 0.8,-11.9 -1.4,-4 -4.2,-7.2 -7.9,-9.1 l 0,0 z m 0,0"
           id="path3507" />
        <path
           inkscape:connector-curvature="0"
           d="M 81.2,16.8 C 80,16.2 78.6,16.7 78,17.9 c -0.5,1.1 0,2.5 1.1,3.1 9.2,4.6 13,15.9 8.4,25.1 -0.6,1.2 -0.1,2.6 1.1,3.2 0.3,0.2 0.7,0.2 1,0.2 0.9,0 1.7,-0.5 2.1,-1.3 5.8,-11.6 1.1,-25.7 -10.5,-31.4 l 0,0 z m 0,0"
           id="path3509" />
        <path
           inkscape:connector-curvature="0"
           d="m 43.7,15.8 c 0.2,-1.3 -0.6,-2.5 -1.9,-2.7 -4.1,-0.7 -8.2,0.3 -11.6,2.7 -3.4,2.4 -5.6,6 -6.3,10.1 -0.2,1.3 0.6,2.5 1.9,2.7 0.1,0 0.3,0 0.4,0 1.1,0 2.1,-0.8 2.3,-2 0.5,-2.9 2.1,-5.4 4.4,-7 2.4,-1.7 5.2,-2.3 8.1,-1.9 1.3,0.2 2.5,-0.6 2.7,-1.9 l 0,0 z m 0,0"
           id="path3511" />
        <path
           inkscape:connector-curvature="0"
           d="m 18,27.3 c 0.1,0 0.3,0 0.4,0 1.1,0 2.1,-0.8 2.3,-2 C 22.5,15.2 32.1,8.3 42.3,10 43.6,10.2 44.8,9.4 45,8.1 45.2,6.8 44.3,5.6 43.1,5.4 c -6.2,-1 -12.4,0.4 -17.5,4 -5.1,3.6 -8.5,9 -9.5,15.2 -0.2,1.2 0.6,2.4 1.9,2.7 l 0,0 z m 0,0"
           id="path3513" />
      </g>
      <g
         inkscape:export-ydpi="90"
         inkscape:export-xdpi="90"
         transform="matrix(1.3573421,0,0,1.3573421,165.95287,431.74494)"
         id="g3445">
        <path
           id="path3447"
           d="m 35.5,34.7 c 0.4,0 0.9,0 1.3,0.1 -0.1,-2.6 1.4,-5.1 4,-6.1 0.7,-0.3 1.5,-0.4 2.3,-0.4 1.8,0 3.4,0.8 4.6,2 l 4.6,-4.8 c 1.4,-1.4 1.3,-3.7 -0.1,-5 -0.7,-0.7 -1.6,-1 -2.5,-1 -0.9,0 -1.9,0.4 -2.6,1.1 l -14,14.6 c 0.8,-0.3 1.6,-0.5 2.4,-0.5 l 0,0 z m 0,0"
           inkscape:connector-curvature="0" />
        <path
           id="path3449"
           d="m 27.5,67.4 c 0.8,-1.3 2,-2.3 3.4,-2.9 0.8,-0.3 1.7,-0.5 2.6,-0.5 1.3,0 2.6,0.4 3.7,1 l 1.4,0.9 -0.1,-0.2 -1,-2.7 0,0 -7.9,-19.7 C 29,41.9 29,40.3 29.5,38.9 l -1.2,1.2 0,0 -7.6,7.9 1.6,-12.5 C 22.5,34.1 22,32.7 21,31.8 c -0.7,-0.6 -1.5,-1.1 -2.5,-1.2 -0.2,0 -0.4,0 -0.6,0 -2.2,0 -4.1,1.6 -4.4,3.9 L 5.9,71.6 c -0.4,1.7 0.2,3.5 1.4,4.7 l 13.1,12.6 c 1,0.9 2.2,1.4 3.5,1.4 0.9,0 1.8,-0.2 2.6,-0.7 L 37.6,82.9 29.7,77.2 C 26.5,75 25.5,70.7 27.5,67.4 l 0,0 z m 0,0"
           inkscape:connector-curvature="0" />
        <path
           id="path3451"
           d="m 58.8,31.7 0.7,1.7 2.9,-3 c 1.4,-1.4 1.3,-3.7 -0.1,-5 -0.7,-0.7 -1.6,-1 -2.5,-1 -0.9,0 -1.9,0.4 -2.5,1.1 L 54.8,28 c 1.8,0.5 3.3,1.9 4,3.7 l 0,0 z m 0,0"
           inkscape:connector-curvature="0" />
        <path
           id="path3453"
           d="M 78.3,63.4 68.2,38.1 c -0.5,-1.2 -1.7,-2 -2.9,-2 -0.4,0 -0.8,0.1 -1.2,0.2 -1.6,0.6 -2.4,2.5 -1.7,4.1 l 4.9,12.2 c 0.2,0.4 0.1,0.8 0,1.2 -0.2,0.4 -0.5,0.7 -0.9,0.8 -0.2,0.1 -0.4,0.1 -0.6,0.1 -0.6,0 -1.2,-0.4 -1.5,-1 L 55.9,32.8 c -0.5,-1.2 -1.7,-2 -2.9,-2 -0.4,0 -0.8,0.1 -1.2,0.2 -1.6,0.6 -2.4,2.5 -1.8,4.1 L 58.4,56 c 0.2,0.4 0.1,0.8 0,1.2 -0.2,0.4 -0.5,0.7 -0.9,0.8 -0.2,0.1 -0.4,0.1 -0.6,0.1 -0.6,0 -1.2,-0.4 -1.5,-1 L 46,33.4 c -0.5,-1.2 -1.7,-2 -2.9,-2 -0.4,0 -0.8,0.1 -1.2,0.2 -1.6,0.6 -2.4,2.5 -1.8,4.1 l 9.5,23.8 c 0.2,0.4 0.1,0.8 0,1.2 -0.2,0.4 -0.5,0.7 -0.9,0.8 -0.2,0.1 -0.4,0.1 -0.6,0.1 -0.6,0 -1.2,-0.4 -1.5,-1 L 38.2,39.7 c -0.5,-1.2 -1.7,-2 -2.9,-2 -0.4,0 -0.8,0.1 -1.2,0.2 -1.6,0.6 -2.4,2.5 -1.8,4.1 l 8.9,22.4 0,0 3,7.5 c 0.1,0.2 0,0.5 -0.2,0.6 -0.1,0.1 -0.2,0.1 -0.4,0.1 -0.1,0 -0.2,0 -0.3,-0.1 l -8.1,-5 c -0.6,-0.4 -1.3,-0.6 -2,-0.6 -0.5,0 -1,0.1 -1.5,0.3 -0.8,0.3 -1.4,0.8 -1.9,1.6 -1.1,1.8 -0.6,4.3 1.3,5.4 l 27,19.6 c 0.9,0.6 1.9,1 3,1 0.6,0 1.3,-0.1 1.9,-0.4 l 14.2,-5.7 c 2.1,-0.8 3.4,-3 3.1,-5.3 l -2,-20 c 0,0 0,0 0,0 l 0,0 z m 0,0"
           inkscape:connector-curvature="0" />
        <path
           id="path3455"
           d="m 77.7,23.8 c -1.2,-0.6 -2.6,-0.1 -3.2,1.1 -0.6,1.2 -0.1,2.6 1.1,3.2 2.6,1.3 4.5,3.5 5.5,6.3 0.9,2.8 0.7,5.7 -0.6,8.3 -0.6,1.2 -0.1,2.6 1.1,3.2 0.3,0.2 0.7,0.2 1.1,0.2 0.9,0 1.7,-0.5 2.1,-1.3 1.9,-3.7 2.1,-8 0.8,-11.9 -1.4,-4 -4.2,-7.2 -7.9,-9.1 l 0,0 z m 0,0"
           inkscape:connector-curvature="0" />
        <path
           id="path3457"
           d="M 81.2,16.8 C 80,16.2 78.6,16.7 78,17.9 c -0.5,1.1 0,2.5 1.1,3.1 9.2,4.6 13,15.9 8.4,25.1 -0.6,1.2 -0.1,2.6 1.1,3.2 0.3,0.2 0.7,0.2 1,0.2 0.9,0 1.7,-0.5 2.1,-1.3 5.8,-11.6 1.1,-25.7 -10.5,-31.4 l 0,0 z m 0,0"
           inkscape:connector-curvature="0" />
        <path
           id="path3459"
           d="m 43.7,15.8 c 0.2,-1.3 -0.6,-2.5 -1.9,-2.7 -4.1,-0.7 -8.2,0.3 -11.6,2.7 -3.4,2.4 -5.6,6 -6.3,10.1 -0.2,1.3 0.6,2.5 1.9,2.7 0.1,0 0.3,0 0.4,0 1.1,0 2.1,-0.8 2.3,-2 0.5,-2.9 2.1,-5.4 4.4,-7 2.4,-1.7 5.2,-2.3 8.1,-1.9 1.3,0.2 2.5,-0.6 2.7,-1.9 l 0,0 z m 0,0"
           inkscape:connector-curvature="0" />
        <path
           id="path3461"
           d="m 18,27.3 c 0.1,0 0.3,0 0.4,0 1.1,0 2.1,-0.8 2.3,-2 C 22.5,15.2 32.1,8.3 42.3,10 43.6,10.2 44.8,9.4 45,8.1 45.2,6.8 44.3,5.6 43.1,5.4 c -6.2,-1 -12.4,0.4 -17.5,4 -5.1,3.6 -8.5,9 -9.5,15.2 -0.2,1.2 0.6,2.4 1.9,2.7 l 0,0 z m 0,0"
           inkscape:connector-curvature="0" />
      </g>
    </g>
  </g>
</svg>
