<?xml version="1.0" encoding="UTF-8" standalone="no"?>
<!-- Created with Inkscape (http://www.inkscape.org/) -->

<svg
   xmlns:dc="http://purl.org/dc/elements/1.1/"
   xmlns:cc="http://creativecommons.org/ns#"
   xmlns:rdf="http://www.w3.org/1999/02/22-rdf-syntax-ns#"
   xmlns:svg="http://www.w3.org/2000/svg"
   xmlns="http://www.w3.org/2000/svg"
   xmlns:sodipodi="http://sodipodi.sourceforge.net/DTD/sodipodi-0.dtd"
   xmlns:inkscape="http://www.inkscape.org/namespaces/inkscape"
   width="210mm"
   height="297mm"
   viewBox="0 0 744.09448819 1052.3622047"
   id="svg2"
   version="1.1"
   inkscape:version="0.91 r13725"
   sodipodi:docname="thumbs-up.svg">
  <defs
     id="defs4">
    <filter
       inkscape:collect="always"
       style="color-interpolation-filters:sRGB"
       id="filter4230"
       x="-0.054088191"
       width="1.1081764"
       y="-0.067362707"
       height="1.1347254">
      <feGaussianBlur
         inkscape:collect="always"
         stdDeviation="1.4920817"
         id="feGaussianBlur4232" />
    </filter>
  </defs>
  <sodipodi:namedview
     id="base"
     pagecolor="#ffffff"
     bordercolor="#666666"
     borderopacity="1.0"
     inkscape:pageopacity="0.0"
     inkscape:pageshadow="2"
     inkscape:zoom="4.2459552"
     inkscape:cx="336.29439"
     inkscape:cy="772.31158"
     inkscape:document-units="px"
     inkscape:current-layer="layer1"
     showgrid="false"
     inkscape:window-width="1366"
     inkscape:window-height="713"
     inkscape:window-x="0"
     inkscape:window-y="27"
     inkscape:window-maximized="1" />
  <metadata
     id="metadata7">
    <rdf:RDF>
      <cc:Work
         rdf:about="">
        <dc:format>image/svg+xml</dc:format>
        <dc:type
           rdf:resource="http://purl.org/dc/dcmitype/StillImage" />
        <dc:title></dc:title>
      </cc:Work>
    </rdf:RDF>
  </metadata>
  <g
     inkscape:label="Layer 1"
     inkscape:groupmode="layer"
     id="layer1">
    <g
       id="g4234"
       transform="matrix(1.3629808,0,0,1.3629808,-93.805507,-112.69946)"
       inkscape:export-xdpi="90"
       inkscape:export-ydpi="90">
      <path
         style="filter:url(#filter4230)"
         inkscape:connector-curvature="0"
         d="m 327.76845,276.38741 c -0.5437,-1.26518 -1.81556,-2.90518 -4.78889,-3.54074 -1.45259,-0.31037 -3.58667,-0.44815 -6.92,-0.44815 -1.45111,0 -2.97037,0.0259 -4.30963,0.0489 -0.6237,0.0111 -1.22963,0.0207 -1.79555,0.0281 0.023,-0.11037 0.0459,-0.22148 0.0696,-0.33185 0.42814,-2.06815 0.87259,-4.20741 0.60296,-6.54371 -0.64963,-5.66296 -4.03482,-11.64444 -8.57333,-11.85259 -0.0793,-0.004 -0.15778,-0.005 -0.23408,-0.005 l 0,0 0,0 c -1.27629,0 -2.46074,0.49407 -3.33778,1.39111 -1.80592,1.84815 -1.73926,4.72222 -1.68,7.25852 0.0156,0.65852 0.0393,1.63852 -0.0156,2.01333 -0.7563,2.0563 -2.58074,5.02593 -4.34593,7.9 -0.91407,1.48889 -1.79037,2.91481 -2.55185,4.26074 -0.17037,0.0215 -0.33259,0.043 -0.53704,0.0637 l 0.0674,-0.13407 0,-0.24815 c 0,-1.63111 -1.38296,-2.96074 -3.01407,-2.96074 l -14.54074,0 c -1.52963,0 -2.54223,1.16889 -2.6926,2.65926 l -7.15926,25.19111 0,0.24889 c 0,1.63037 0.82741,2.26963 2.45778,2.26963 l 14.54222,0 c 1.15334,0 2.15408,-0.32 2.64149,-1.28593 0.80592,-0.0185 1.72814,0.13926 2.63851,0.13926 2.14667,0 3.11112,0.16297 3.49778,0.21037 0.51408,0.35482 1.46667,1.23926 1.95704,1.67334 1.09778,0.97111 1.76074,1.57852 2.56815,1.91852 0.93259,0.39185 2.14074,0.58963 6.48,0.58963 1.6437,0 3.5474,-0.0222 5.3874,-0.0482 1.87778,-0.0274 3.81926,-0.0541 5.52667,-0.0541 1.73926,0 3.02074,0.0304 3.92074,0.0911 0.11259,0.007 0.22889,0.0126 0.34296,0.0126 2.44667,0 5.40075,-1.74223 6.72297,-3.96593 0.56296,-0.94592 0.60148,-1.91407 0.62222,-3.22074 1.59556,-1.14 2.64741,-2.42222 3.19333,-3.88593 0.46148,-1.24148 0.46445,-2.36963 0.35704,-3.24666 1.89778,-1.51334 2.89778,-3.59111 2.85037,-6.00519 -0.0259,-1.4074 -0.41259,-2.66518 -0.79555,-3.60963 0.87333,-1.59407 1.90592,-4.11037 0.84518,-6.58074 z m -55.48296,-0.13926 13.40963,0 -7.10445,24.44445 -13.40963,0 7.10445,-24.44445 z m 50.77852,6.53778 c 0.0274,0.45111 3.48963,5.29259 -1.44223,7.79259 -1.77259,0.89852 2.54074,3.76148 -3.56074,7.10519 -0.31407,0.17185 -0.0793,3.06592 -0.32963,3.48667 -0.79259,1.33259 -2.67333,2.28 -3.75852,2.28 -0.0378,0 -0.0756,0 -0.11259,-0.003 -1.0837,-0.0726 -2.52889,-0.097 -4.15111,-0.097 -3.42444,0 -7.63852,0.10814 -10.91407,0.10814 -2.57482,0 -4.56815,-0.0667 -5.14297,-0.30814 -0.66444,-0.27926 -3.15481,-2.89778 -4.55185,-3.57334 -0.56666,-0.27481 -2.67037,-0.35037 -4.80741,-0.35037 -0.54592,0 -1.09333,0.004 -1.61851,0.0133 l 5.60666,-19.06296 c 1.85482,-0.12518 3.76667,-0.35407 3.98297,-0.76592 2.22814,-4.22593 6.43111,-10.08445 7.8074,-13.94223 0.68889,-1.92666 -0.83481,-8.27703 1.74889,-8.27703 0.0259,0 0.0504,7.4e-4 0.0756,0.001 2.11407,0.0963 4.75703,4.03185 5.30518,8.79926 0.34148,2.97185 -0.87852,5.78074 -1.26296,9.67259 -0.02,0.21185 1.05037,0.27037 2.67333,0.27037 1.98519,0 4.79926,-0.0874 7.44963,-0.0874 2.47852,0 4.81334,0.0763 6.19926,0.37185 5.14667,1.1 0.77778,6.14667 0.80371,6.56593 z"
         id="path3428" />
      <path
         id="path3408"
         d="m 327.76845,276.38741 c -0.5437,-1.26518 -1.81556,-2.90518 -4.78889,-3.54074 -1.45259,-0.31037 -3.58667,-0.44815 -6.92,-0.44815 -1.45111,0 -2.97037,0.0259 -4.30963,0.0489 -0.6237,0.0111 -1.22963,0.0207 -1.79555,0.0281 0.023,-0.11037 0.0459,-0.22148 0.0696,-0.33185 0.42814,-2.06815 0.87259,-4.20741 0.60296,-6.54371 -0.64963,-5.66296 -4.03482,-11.64444 -8.57333,-11.85259 -0.0793,-0.004 -0.15778,-0.005 -0.23408,-0.005 l 0,0 0,0 c -1.27629,0 -2.46074,0.49407 -3.33778,1.39111 -1.80592,1.84815 -1.73926,4.72222 -1.68,7.25852 0.0156,0.65852 0.0393,1.63852 -0.0156,2.01333 -0.7563,2.0563 -2.58074,5.02593 -4.34593,7.9 -0.91407,1.48889 -1.79037,2.91481 -2.55185,4.26074 -0.17037,0.0215 -0.33259,0.043 -0.53704,0.0637 l 0.0674,-0.13407 0,-0.24815 c 0,-1.63111 -1.38296,-2.96074 -3.01407,-2.96074 l -14.54074,0 c -1.52963,0 -2.54223,1.16889 -2.6926,2.65926 l -7.15926,25.19111 0,0.24889 c 0,1.63037 0.82741,2.26963 2.45778,2.26963 l 14.54222,0 c 1.15334,0 2.15408,-0.32 2.64149,-1.28593 0.80592,-0.0185 1.72814,0.13926 2.63851,0.13926 2.14667,0 3.11112,0.16297 3.49778,0.21037 0.51408,0.35482 1.46667,1.23926 1.95704,1.67334 1.09778,0.97111 1.76074,1.57852 2.56815,1.91852 0.93259,0.39185 2.14074,0.58963 6.48,0.58963 1.6437,0 3.5474,-0.0222 5.3874,-0.0482 1.87778,-0.0274 3.81926,-0.0541 5.52667,-0.0541 1.73926,0 3.02074,0.0304 3.92074,0.0911 0.11259,0.007 0.22889,0.0126 0.34296,0.0126 2.44667,0 5.40075,-1.74223 6.72297,-3.96593 0.56296,-0.94592 0.60148,-1.91407 0.62222,-3.22074 1.59556,-1.14 2.64741,-2.42222 3.19333,-3.88593 0.46148,-1.24148 0.46445,-2.36963 0.35704,-3.24666 1.89778,-1.51334 2.89778,-3.59111 2.85037,-6.00519 -0.0259,-1.4074 -0.41259,-2.66518 -0.79555,-3.60963 0.87333,-1.59407 1.90592,-4.11037 0.84518,-6.58074 z m -55.48296,-0.13926 13.40963,0 -7.10445,24.44445 -13.40963,0 7.10445,-24.44445 z m 50.77852,6.53778 c 0.0274,0.45111 3.48963,5.29259 -1.44223,7.79259 -1.77259,0.89852 2.54074,3.76148 -3.56074,7.10519 -0.31407,0.17185 -0.0793,3.06592 -0.32963,3.48667 -0.79259,1.33259 -2.67333,2.28 -3.75852,2.28 -0.0378,0 -0.0756,0 -0.11259,-0.003 -1.0837,-0.0726 -2.52889,-0.097 -4.15111,-0.097 -3.42444,0 -7.63852,0.10814 -10.91407,0.10814 -2.57482,0 -4.56815,-0.0667 -5.14297,-0.30814 -0.66444,-0.27926 -3.15481,-2.89778 -4.55185,-3.57334 -0.56666,-0.27481 -2.67037,-0.35037 -4.80741,-0.35037 -0.54592,0 -1.09333,0.004 -1.61851,0.0133 l 5.60666,-19.06296 c 1.85482,-0.12518 3.76667,-0.35407 3.98297,-0.76592 2.22814,-4.22593 6.43111,-10.08445 7.8074,-13.94223 0.68889,-1.92666 -0.83481,-8.27703 1.74889,-8.27703 0.0259,0 0.0504,7.4e-4 0.0756,0.001 2.11407,0.0963 4.75703,4.03185 5.30518,8.79926 0.34148,2.97185 -0.87852,5.78074 -1.26296,9.67259 -0.02,0.21185 1.05037,0.27037 2.67333,0.27037 1.98519,0 4.79926,-0.0874 7.44963,-0.0874 2.47852,0 4.81334,0.0763 6.19926,0.37185 5.14667,1.1 0.77778,6.14667 0.80371,6.56593 z"
         inkscape:connector-curvature="0" />
    </g>
  </g>
</svg>
