<?xml version="1.0" encoding="UTF-8" standalone="no"?>
<!-- Generator: Adobe Illustrator 19.1.0, SVG Export Plug-In . SVG Version: 6.00 Build 0)  -->

<svg
   xmlns:dc="http://purl.org/dc/elements/1.1/"
   xmlns:cc="http://creativecommons.org/ns#"
   xmlns:rdf="http://www.w3.org/1999/02/22-rdf-syntax-ns#"
   xmlns:svg="http://www.w3.org/2000/svg"
   xmlns="http://www.w3.org/2000/svg"
   xmlns:sodipodi="http://sodipodi.sourceforge.net/DTD/sodipodi-0.dtd"
   xmlns:inkscape="http://www.inkscape.org/namespaces/inkscape"
   version="1.1"
   id="Capa_1"
   x="0px"
   y="0px"
   viewBox="0 0 150 116.64381"
   xml:space="preserve"
   inkscape:version="0.91 r13725"
   sodipodi:docname="UnderConstruction.svg"
   width="150"
   height="116.64381"><metadata
     id="metadata11236"><rdf:RDF><cc:Work
         rdf:about=""><dc:format>image/svg+xml</dc:format><dc:type
           rdf:resource="http://purl.org/dc/dcmitype/StillImage" /><dc:title></dc:title></cc:Work></rdf:RDF></metadata><defs
     id="defs11234" /><sodipodi:namedview
     pagecolor="#ffffff"
     bordercolor="#666666"
     borderopacity="1"
     objecttolerance="10"
     gridtolerance="10"
     guidetolerance="10"
     inkscape:pageopacity="0"
     inkscape:pageshadow="2"
     inkscape:window-width="1366"
     inkscape:window-height="713"
     id="namedview11232"
     showgrid="false"
     inkscape:showpageshadow="false"
     showborder="false"
     inkscape:zoom="2.332287"
     inkscape:cx="74.098518"
     inkscape:cy="67.953597"
     inkscape:window-x="0"
     inkscape:window-y="27"
     inkscape:window-maximized="1"
     inkscape:current-layer="Capa_1"
     fit-margin-top="0"
     fit-margin-left="0"
     fit-margin-right="0"
     fit-margin-bottom="0" /><g
     id="g11202"
     transform="translate(-42.310825,-116.16943)" /><g
     id="g11204"
     transform="translate(-42.310825,-116.16943)" /><g
     id="g11206"
     transform="translate(-42.310825,-116.16943)" /><g
     id="g11208"
     transform="translate(-42.310825,-116.16943)" /><g
     id="g11210"
     transform="translate(-42.310825,-116.16943)" /><g
     id="g11212"
     transform="translate(-42.310825,-116.16943)" /><g
     id="g11214"
     transform="translate(-42.310825,-116.16943)" /><g
     id="g11216"
     transform="translate(-42.310825,-116.16943)" /><g
     id="g11218"
     transform="translate(-42.310825,-116.16943)" /><g
     id="g11220"
     transform="translate(-42.310825,-116.16943)" /><g
     id="g11222"
     transform="translate(-42.310825,-116.16943)" /><g
     id="g11224"
     transform="translate(-42.310825,-116.16943)" /><g
     id="g11226"
     transform="translate(-42.310825,-116.16943)" /><g
     id="g11228"
     transform="translate(-42.310825,-116.16943)" /><g
     id="g11230"
     transform="translate(-42.310825,-116.16943)" /><g
     id="g11821"
     transform="matrix(0.69051872,0,0,0.69051872,0,-16.678099)"
     inkscape:export-xdpi="90"
     inkscape:export-ydpi="90"><g
       id="g11769"><g
         id="group-45svg"><path
           d="m 166.504,191.896 14.692,0 c 2.833,0 5.13,-1.333 5.13,-2.978 0,-1.644 -2.297,-2.978 -5.13,-2.978 l -0.683,0 c -2.833,0 -5.129,-1.333 -5.129,-2.978 0,-1.644 2.296,-2.978 5.129,-2.978 l 31.585,0 c 2.833,0 5.13,-1.333 5.13,-2.977 0,-1.645 -2.297,-2.979 -5.13,-2.979 l -37.957,0 -77.585,0 c -2.833,0 -5.129,1.334 -5.129,2.979 0,1.644 2.296,2.977 5.129,2.977 l 8.766,0 c 2.833,0 5.129,1.334 5.129,2.978 0,1.645 -2.296,2.978 -5.129,2.978 l -41.72,0 c -2.833,0 -5.129,1.334 -5.129,2.978 0,1.645 2.296,2.978 5.129,2.978 l 9.86,0 93.042,0 z"
           style="fill:#ff3a2f"
           id="path-1_100_"
           inkscape:connector-curvature="0" /><path
           d="m 45.387,186.511 c 3.19,0 5.776,1.469 5.776,3.282 0,1.813 -2.586,3.282 -5.776,3.282 l -17.701,0 c -3.191,0 -5.777,-1.469 -5.777,-3.282 0,-1.813 2.586,-3.282 5.777,-3.282 l 17.701,0 z"
           style="fill:#ff3a2f"
           id="path-2_100_"
           inkscape:connector-curvature="0" /><path
           d="m 28.433,143.303 c 0,-7.852 -14.217,-29.766 -14.217,-29.766 0,0 -14.216,21.914 -14.216,29.766 0,7.851 6.365,14.216 14.216,14.216 7.852,0 14.217,-6.365 14.217,-14.216 z"
           style="fill:#ff3a2f"
           id="path-3_100_"
           inkscape:connector-curvature="0" /><path
           d="m 14.216,113.537 c 0,0 -0.936,1.445 -2.32,3.71 4.184,7.115 9.911,17.757 9.911,22.742 0,7.853 -6.365,14.217 -14.217,14.217 -0.935,0 -1.844,-0.103 -2.729,-0.275 2.505,2.206 5.755,3.588 9.355,3.588 7.852,0 14.217,-6.364 14.217,-14.217 0,-7.851 -14.217,-29.765 -14.217,-29.765 z"
           style="opacity:0.35;enable-background:new"
           id="path-4_100_"
           inkscape:connector-curvature="0" /><path
           d="m 147.455,129.33 34.761,34.758 -16.152,16.151 -34.759,-34.759 16.15,-16.15 z"
           style="fill:#142a3b"
           id="path-5_99_"
           inkscape:connector-curvature="0" /><path
           d="m 147.455,129.33 8.808,8.807 -16.151,16.151 -8.807,-8.808 16.15,-16.15 z"
           style="opacity:0.35;enable-background:new"
           id="path-6_96_"
           inkscape:connector-curvature="0" /><path
           d="m 167.819,169.465 c -0.927,0 -1.852,-0.354 -2.56,-1.062 l -8.425,-8.427 c -1.415,-1.413 -1.415,-3.706 0,-5.119 1.414,-1.414 3.705,-1.414 5.119,0 l 8.426,8.427 c 1.414,1.414 1.414,3.707 0,5.119 -0.707,0.708 -1.634,1.062 -2.56,1.062 z"
           style="fill:#ffffff"
           id="path-7_93_"
           inkscape:connector-curvature="0" /><path
           d="M 157.286,91.213 89.873,158.624 36.812,105.565 103.918,38.549 157.286,91.213 Z"
           style="fill:#fbb713"
           id="path-8_72_"
           inkscape:connector-curvature="0" /><path
           d="m 76.443,66.022 -39.588,39.586 3.314,3.312 39.587,-39.585 -3.313,-3.313 z"
           style="opacity:0.35;enable-background:new"
           id="path-9_63_"
           inkscape:connector-curvature="0" /><path
           d="m 93.593,55.12 13.638,-13.259 -14.396,-14.396 -3.313,3.313 11.082,11.083 -15.097,15.098 11.63,11.629 c 3.404,3.403 2.635,7.928 -0.769,11.332 -0.846,0.847 -3.045,-0.383 -4.093,0.042 4.093,3.565 8.931,3.559 11.488,1.002 3.404,-3.403 5.567,-7.513 1.46,-14.214 L 93.593,55.12 Z"
           style="opacity:0.35;enable-background:new"
           id="path-10_57_"
           inkscape:connector-curvature="0" /><path
           d="m 89.522,24.153 -67.062,67.06 14.395,14.395 39.588,-39.586 11.631,11.63 c 3.403,3.403 8.972,3.403 12.376,0 3.403,-3.404 3.403,-8.974 0,-12.377 L 88.82,53.646 103.918,38.549 89.522,24.153 Z"
           style="fill:#ff3a2f"
           id="path-11_48_"
           inkscape:connector-curvature="0" /><path
           d="m 172.735,106.661 -67.413,67.41 -16.151,-16.149 67.413,-67.411 16.151,16.15 z"
           style="fill:#142a3b"
           id="path-12_42_"
           inkscape:connector-curvature="0" /><path
           d="m 156.659,90.586 -67.414,67.411 -1.793,-1.795 65.204,-69.619 4.003,4.003 z"
           style="opacity:0.35;enable-background:new"
           id="path-13_33_"
           inkscape:connector-curvature="0" /></g></g><g
       id="g11785" /><g
       id="g11787" /><g
       id="g11789" /><g
       id="g11791" /><g
       id="g11793" /><g
       id="g11795" /><g
       id="g11797" /><g
       id="g11799" /><g
       id="g11801" /><g
       id="g11803" /><g
       id="g11805" /><g
       id="g11807" /><g
       id="g11809" /><g
       id="g11811" /><g
       id="g11813" /></g></svg>