<?xml version="1.0" encoding="UTF-8" standalone="no"?>
<!-- Created with Inkscape (http://www.inkscape.org/) -->

<svg
   xmlns:dc="http://purl.org/dc/elements/1.1/"
   xmlns:cc="http://creativecommons.org/ns#"
   xmlns:rdf="http://www.w3.org/1999/02/22-rdf-syntax-ns#"
   xmlns:svg="http://www.w3.org/2000/svg"
   xmlns="http://www.w3.org/2000/svg"
   xmlns:sodipodi="http://sodipodi.sourceforge.net/DTD/sodipodi-0.dtd"
   xmlns:inkscape="http://www.inkscape.org/namespaces/inkscape"
   width="56.444447mm"
   height="56.444447mm"
   viewBox="0 0 200.00001 200"
   id="svg3644"
   version="1.1"
   inkscape:version="0.92pre2 r"
   sodipodi:docname="location.svg">
  <defs
     id="defs3646">
    <filter
       inkscape:collect="always"
       style="color-interpolation-filters:sRGB"
       id="filter43713"
       x="-0.031419788"
       width="1.0628396"
       y="-0.028702978"
       height="1.057406">
      <feGaussianBlur
         inkscape:collect="always"
         stdDeviation="0.91741647"
         id="feGaussianBlur43715" />
    </filter>
    <filter
       inkscape:collect="always"
       style="color-interpolation-filters:sRGB"
       id="filter1306"
       x="-0.096"
       width="1.192"
       y="-0.096"
       height="1.192">
      <feGaussianBlur
         inkscape:collect="always"
         stdDeviation="4"
         id="feGaussianBlur1308" />
    </filter>
  </defs>
  <sodipodi:namedview
     id="base"
     pagecolor="#ffffff"
     bordercolor="#666666"
     borderopacity="1.0"
     inkscape:pageopacity="0.0"
     inkscape:pageshadow="2"
     inkscape:zoom="1.8195733"
     inkscape:cx="90.303894"
     inkscape:cy="83.814364"
     inkscape:document-units="px"
     inkscape:current-layer="layer1"
     showgrid="false"
     inkscape:window-width="1366"
     inkscape:window-height="708"
     inkscape:window-x="0"
     inkscape:window-y="23"
     inkscape:window-maximized="1"
     fit-margin-top="0"
     fit-margin-left="0"
     fit-margin-right="0"
     fit-margin-bottom="0"
     showborder="false"
     inkscape:document-rotation="0" />
  <metadata
     id="metadata3649">
    <rdf:RDF>
      <cc:Work
         rdf:about="">
        <dc:format>image/svg+xml</dc:format>
        <dc:type
           rdf:resource="http://purl.org/dc/dcmitype/StillImage" />
        <dc:title></dc:title>
      </cc:Work>
    </rdf:RDF>
  </metadata>
  <g
     inkscape:label="Layer 1"
     inkscape:groupmode="layer"
     id="layer1"
     transform="translate(-474.07556,-194.37311)">
    <g
       id="g1347"
       inkscape:export-xdpi="95.995453"
       inkscape:export-ydpi="95.995453">
      <path
         transform="matrix(1.7118587,0,0,1.7118587,-21.911208,-323.22902)"
         id="path3676"
         d="m 383.52919,347.80159 c 0.003,-1.205 -0.134,-2.388 -0.513,-3.531 -1.104,-3.334 -2.96,-6.099 -6.07,-7.896 -7.226,-4.175 -14.458,-8.337 -21.667,-12.537 -1.96,-1.143 -4.048,-1.718 -6.292,-1.777 -2.474,-0.064 -4.824,0.383 -7,1.646 -7.277,4.223 -14.599,8.374 -21.843,12.654 -4.319,2.553 -6.592,6.477 -6.646,11.49 -0.088,8.382 -0.021,16.764 -0.027,25.146 -10e-4,1.291 0.158,2.553 0.586,3.77 1.14,3.24 2.981,5.927 6.028,7.682 7.17,4.13 14.342,8.258 21.487,12.428 1.877,1.096 3.855,1.744 6.012,1.861 2.635,0.145 5.141,-0.283 7.461,-1.631 7.229,-4.195 14.459,-8.387 21.712,-12.541 2.023,-1.16 3.585,-2.738 4.772,-4.713 1.146,-1.904 1.953,-3.94 1.973,-6.189 0.037,-4.416 0.011,-8.832 0.011,-13.248 h 0.012 c 0,-4.205 -0.005,-8.41 0.004,-12.614 z"
         style="clip-rule:evenodd;fill:none;fill-rule:evenodd;stroke:#000000;stroke-width:1.65804219;stroke-miterlimit:4;stroke-dasharray:none;stroke-opacity:1;filter:url(#filter43713)"
         inkscape:connector-curvature="0" />
      <path
         id="path4486"
         d="m 634.63624,272.15818 c 0.005,-2.0628 -0.22947,-4.08794 -0.87819,-6.04458 -1.8899,-5.70735 -5.06711,-10.44062 -10.39099,-13.51685 -12.36989,-7.14699 -24.75005,-14.27176 -37.09084,-21.46156 -3.35524,-1.95665 -6.92962,-2.94099 -10.77102,-3.04198 -4.23514,-0.10954 -8.258,0.65565 -11.98299,2.81773 -12.4572,7.22919 -24.99143,14.33511 -37.39214,21.66185 -7.3935,4.37038 -11.28456,11.08771 -11.37701,19.66926 -0.15059,14.34879 -0.0359,28.69761 -0.0462,43.0464 -0.002,2.21 0.27049,4.37037 1.00316,6.4537 1.9515,5.54642 5.10304,10.14619 10.31906,13.1505 12.27402,7.06998 24.55149,14.13651 36.78271,21.27498 3.21316,1.87621 6.59921,2.98547 10.29169,3.18576 4.51075,0.24824 8.80068,-0.48443 12.77218,-2.79203 12.37503,-7.18124 24.75177,-14.35737 37.16788,-21.46844 3.46308,-1.98575 6.13702,-4.68705 8.16898,-8.06796 1.96181,-3.25938 3.34327,-6.74474 3.3775,-10.5947 0.0633,-7.55957 0.0198,-15.11915 0.0198,-22.67869 h 0.0198 c 0,-7.19838 -0.007,-14.39674 0.007,-21.59339 z"
         style="clip-rule:evenodd;fill-rule:evenodd;stroke-width:1.34558058"
         inkscape:connector-curvature="0" />
      <g
         style="fill:#e6e6e6;filter:url(#filter1306)"
         id="g471"
         transform="matrix(0.70631852,0,0,0.70631852,225.53253,-443.50755)">
        <path
           id="path453"
           d="m 461.52709,993.79077 c -10.34493,0 -17.24141,8.96543 -17.24141,18.79313 0,5.8621 1.55176,9.1379 4.13789,14.6551 5.17246,11.3793 13.10352,23.6207 13.10352,23.6207 0,0 7.93105,-12.2414 13.10351,-23.6207 2.58613,-5.6896 4.13789,-8.7932 4.13789,-14.6551 0,-9.8277 -6.89668,-18.79313 -17.2414,-18.79313"
           style="fill:#e6e6e6"
           inkscape:connector-curvature="0" />
        <path
           id="path455"
           d="m 470.14779,1011.0322 c 0,-4.8276 -3.79316,-8.6207 -8.6207,-8.6207 -4.82754,0 -8.62071,3.7931 -8.62071,8.6207 0,4.8275 3.79317,8.6207 8.62071,8.6207 4.82754,0 8.6207,-3.7932 8.6207,-8.6207"
           style="fill:#e6e6e6"
           inkscape:connector-curvature="0" />
        <path
           id="path457"
           d="m 527.04427,1028.2736 c -10.34492,0 -17.2414,8.9654 -17.2414,18.7931 0,5.8622 1.55176,9.1379 4.13789,14.6553 5.17246,11.3793 13.10351,23.6207 13.10351,23.6207 0,0 7.93106,-12.2414 13.10352,-23.6207 2.58613,-5.6898 4.13789,-8.7933 4.13789,-14.6554 0,-9.8276 -6.89648,-18.793 -17.24141,-18.793"
           style="fill:#e6e6e6"
           inkscape:connector-curvature="0" />
        <path
           id="path459"
           d="m 535.66498,1045.515 c 0,-4.8276 -3.79317,-8.6207 -8.62071,-8.6207 -4.82754,0 -8.6207,3.7931 -8.6207,8.6207 0,4.8275 3.79316,8.6207 8.6207,8.6207 4.82754,0 8.62071,-3.7932 8.62071,-8.6207"
           style="fill:#e6e6e6"
           inkscape:connector-curvature="0" />
        <g
           style="fill:#e6e6e6"
           transform="matrix(0.1953125,0,0,0.1953125,444.28568,993.79077)"
           id="g469">
          <path
             id="path461"
             d="m 423.724,512 h -8.828 c -5.297,0 -8.828,-3.531 -8.828,-8.828 0,-5.297 3.531,-8.828 8.828,-8.828 h 8.828 c 5.297,0 8.828,3.531 8.828,8.828 0,5.297 -3.531,8.828 -8.828,8.828"
             style="fill:#e6e6e6"
             inkscape:connector-curvature="0" />
          <path
             id="path463"
             d="M 330.152,512 H 313.38 c -5.297,0 -8.828,-3.531 -8.828,-8.828 0,-5.297 3.531,-8.828 8.828,-8.828 h 16.772 c 5.297,0 8.828,3.531 8.828,8.828 0,5.297 -3.532,8.828 -8.828,8.828 m 51.2,0 H 364.58 c -5.297,0 -8.828,-3.531 -8.828,-8.828 0,-5.297 3.531,-8.828 8.828,-8.828 h 16.772 c 5.297,0 8.828,3.531 8.828,8.828 0,5.297 -4.414,8.828 -8.828,8.828"
             style="fill:#e6e6e6"
             inkscape:connector-curvature="0" />
          <path
             id="path465"
             d="m 148.303,335.448 h -16.772 c -5.297,0 -8.828,-3.531 -8.828,-8.828 0,-5.297 3.531,-8.828 8.828,-8.828 h 16.772 c 5.297,0 8.828,3.531 8.828,8.828 0,5.297 -4.414,8.828 -8.828,8.828 m 50.318,0 h -16.772 c -5.297,0 -8.828,-3.531 -8.828,-8.828 0,-5.297 3.531,-8.828 8.828,-8.828 h 16.772 c 5.297,0 8.828,3.531 8.828,8.828 0,5.297 -3.532,8.828 -8.828,8.828 m 42.372,22.069 c -2.648,0 -6.179,-1.766 -7.945,-4.414 -2.648,-3.531 -5.297,-7.062 -8.828,-10.593 -3.531,-2.648 -4.414,-8.828 -1.766,-12.359 2.648,-3.531 8.828,-4.414 12.359,-1.766 5.297,4.414 9.71,9.71 13.241,15.007 2.648,4.414 0.883,9.71 -3.531,12.359 0.001,1.766 -1.764,1.766 -3.53,1.766 m -2.648,47.669 c -1.766,0 -3.531,-0.883 -5.297,-1.766 -3.531,-2.648 -4.414,-8.828 -1.766,-12.359 2.648,-3.531 4.414,-7.945 5.297,-12.359 0.883,-4.414 6.179,-7.945 10.593,-6.179 4.414,0.883 7.945,6.179 6.179,10.593 -1.766,6.179 -4.414,12.359 -8.828,18.538 0.001,2.649 -3.53,3.532 -6.178,3.532 M 109.462,423.724 H 92.69 c -5.297,0 -8.828,-3.531 -8.828,-8.828 0,-5.297 3.531,-8.828 8.828,-8.828 h 16.772 c 5.297,0 8.828,3.531 8.828,8.828 0,5.297 -3.531,8.828 -8.828,8.828 m 50.317,0 h -16.772 c -5.297,0 -8.828,-3.531 -8.828,-8.828 0,-5.297 3.531,-8.828 8.828,-8.828 h 16.772 c 5.297,0 8.828,3.531 8.828,8.828 0,5.297 -3.531,8.828 -8.828,8.828 m 43.255,0 h -8.828 c -5.297,0 -8.828,-3.531 -8.828,-8.828 0,-5.297 3.531,-8.828 8.828,-8.828 h 8.828 c 1.766,0 4.414,0 6.179,-0.883 5.297,-0.883 9.71,2.648 10.593,7.062 0.883,4.414 -2.648,9.71 -7.062,10.593 -3.53,0.884 -7.061,0.884 -9.71,0.884 M 42.372,425.49 c -3.531,0 -7.945,-2.648 -8.828,-7.062 -0.883,-4.414 1.766,-9.71 6.179,-10.593 4.414,-0.883 8.828,-1.766 13.241,-1.766 h 6.179 c 5.297,0 8.828,3.531 8.828,8.828 0,5.297 -3.531,8.828 -8.828,8.828 h -6.179 c -2.648,0 -6.179,0 -8.828,0.883 -0.881,-10e-4 -1.764,0.882 -1.764,0.882 M 9.71,459.917 c -0.883,0 -0.883,0 -1.766,0 -4.414,-0.883 -7.945,-5.297 -7.062,-9.71 0.883,-7.062 3.531,-13.241 7.062,-18.538 2.648,-4.414 7.945,-5.297 12.359,-2.648 4.414,2.648 5.297,7.945 2.648,12.359 -2.648,3.531 -4.414,7.945 -4.414,12.359 -0.882,3.53 -4.413,6.178 -8.827,6.178 m 18.538,44.138 c -1.766,0 -3.531,-0.883 -5.297,-1.766 -5.297,-3.531 -10.593,-7.945 -14.124,-14.124 -2.648,-4.414 -1.766,-9.71 2.648,-12.359 4.414,-2.649 9.71,-1.766 12.359,2.648 2.649,4.414 5.297,7.062 8.828,9.71 4.414,2.648 5.297,7.945 2.648,12.359 -1.765,2.649 -4.413,3.532 -7.062,3.532 M 76.8,512 H 60.028 c -5.297,0 -8.828,-3.531 -8.828,-8.828 0,-5.297 3.531,-8.828 8.828,-8.828 H 76.8 c 5.297,0 8.828,3.531 8.828,8.828 0,5.297 -3.531,8.828 -8.828,8.828 m 51.2,0 h -16.772 c -5.297,0 -8.828,-3.531 -8.828,-8.828 0,-5.297 3.531,-8.828 8.828,-8.828 H 128 c 5.297,0 8.828,3.531 8.828,8.828 0,5.297 -4.414,8.828 -8.828,8.828 m 50.317,0 h -16.772 c -5.297,0 -8.828,-3.531 -8.828,-8.828 0,-5.297 3.531,-8.828 8.828,-8.828 h 16.772 c 5.297,0 8.828,3.531 8.828,8.828 0,5.297 -3.531,8.828 -8.828,8.828 m 51.2,0 h -17.655 c -5.297,0 -8.828,-3.531 -8.828,-8.828 0,-5.297 3.531,-8.828 8.828,-8.828 h 17.655 c 5.297,0 8.828,3.531 8.828,8.828 0,5.297 -4.414,8.828 -8.828,8.828 m 50.318,0 h -16.772 c -5.297,0 -8.828,-3.531 -8.828,-8.828 0,-5.297 3.531,-8.828 8.828,-8.828 h 16.772 c 5.297,0 8.828,3.531 8.828,8.828 0,5.297 -3.532,8.828 -8.828,8.828"
             style="fill:#e6e6e6"
             inkscape:connector-curvature="0" />
          <path
             id="path467"
             d="m 97.103,335.448 h -8.828 c -5.297,0 -8.828,-3.531 -8.828,-8.828 0,-5.297 3.531,-8.828 8.828,-8.828 h 8.828 c 5.297,0 8.828,3.531 8.828,8.828 0,5.297 -3.531,8.828 -8.828,8.828"
             style="fill:#e6e6e6"
             inkscape:connector-curvature="0" />
        </g>
      </g>
      <g
         transform="matrix(0.70631852,0,0,0.70631852,225.53253,-443.50754)"
         id="g10298">
        <path
           inkscape:connector-curvature="0"
           style="fill:#e6e6e6"
           d="m 461.52709,993.79077 c -10.34493,0 -17.24141,8.96543 -17.24141,18.79313 0,5.8621 1.55176,9.1379 4.13789,14.6551 5.17246,11.3793 13.10352,23.6207 13.10352,23.6207 0,0 7.93105,-12.2414 13.10351,-23.6207 2.58613,-5.6896 4.13789,-8.7932 4.13789,-14.6551 0,-9.8277 -6.89668,-18.79313 -17.2414,-18.79313"
           id="path20377" />
        <path
           inkscape:connector-curvature="0"
           style="fill:#666666"
           d="m 470.14779,1011.0322 c 0,-4.8276 -3.79316,-8.6207 -8.6207,-8.6207 -4.82754,0 -8.62071,3.7931 -8.62071,8.6207 0,4.8275 3.79317,8.6207 8.62071,8.6207 4.82754,0 8.6207,-3.7932 8.6207,-8.6207"
           id="path20379" />
        <path
           inkscape:connector-curvature="0"
           style="fill:#cccccc"
           d="m 527.04427,1028.2736 c -10.34492,0 -17.2414,8.9654 -17.2414,18.7931 0,5.8622 1.55176,9.1379 4.13789,14.6553 5.17246,11.3793 13.10351,23.6207 13.10351,23.6207 0,0 7.93106,-12.2414 13.10352,-23.6207 2.58613,-5.6898 4.13789,-8.7933 4.13789,-14.6554 0,-9.8276 -6.89648,-18.793 -17.24141,-18.793"
           id="path20381" />
        <path
           inkscape:connector-curvature="0"
           style="fill:#666666"
           d="m 535.66498,1045.515 c 0,-4.8276 -3.79317,-8.6207 -8.62071,-8.6207 -4.82754,0 -8.6207,3.7931 -8.6207,8.6207 0,4.8275 3.79316,8.6207 8.6207,8.6207 4.82754,0 8.62071,-3.7932 8.62071,-8.6207"
           id="path20383" />
        <g
           id="g20385"
           transform="matrix(0.1953125,0,0,0.1953125,444.28568,993.79077)"
           style="fill:#e6e6e6">
          <path
             inkscape:connector-curvature="0"
             style="fill:#e6e6e6"
             d="m 423.724,512 h -8.828 c -5.297,0 -8.828,-3.531 -8.828,-8.828 0,-5.297 3.531,-8.828 8.828,-8.828 h 8.828 c 5.297,0 8.828,3.531 8.828,8.828 0,5.297 -3.531,8.828 -8.828,8.828"
             id="path20387" />
          <path
             inkscape:connector-curvature="0"
             style="fill:#e6e6e6"
             d="M 330.152,512 H 313.38 c -5.297,0 -8.828,-3.531 -8.828,-8.828 0,-5.297 3.531,-8.828 8.828,-8.828 h 16.772 c 5.297,0 8.828,3.531 8.828,8.828 0,5.297 -3.532,8.828 -8.828,8.828 m 51.2,0 H 364.58 c -5.297,0 -8.828,-3.531 -8.828,-8.828 0,-5.297 3.531,-8.828 8.828,-8.828 h 16.772 c 5.297,0 8.828,3.531 8.828,8.828 0,5.297 -4.414,8.828 -8.828,8.828"
             id="path20389" />
          <path
             inkscape:connector-curvature="0"
             style="fill:#e6e6e6"
             d="m 148.303,335.448 h -16.772 c -5.297,0 -8.828,-3.531 -8.828,-8.828 0,-5.297 3.531,-8.828 8.828,-8.828 h 16.772 c 5.297,0 8.828,3.531 8.828,8.828 0,5.297 -4.414,8.828 -8.828,8.828 m 50.318,0 h -16.772 c -5.297,0 -8.828,-3.531 -8.828,-8.828 0,-5.297 3.531,-8.828 8.828,-8.828 h 16.772 c 5.297,0 8.828,3.531 8.828,8.828 0,5.297 -3.532,8.828 -8.828,8.828 m 42.372,22.069 c -2.648,0 -6.179,-1.766 -7.945,-4.414 -2.648,-3.531 -5.297,-7.062 -8.828,-10.593 -3.531,-2.648 -4.414,-8.828 -1.766,-12.359 2.648,-3.531 8.828,-4.414 12.359,-1.766 5.297,4.414 9.71,9.71 13.241,15.007 2.648,4.414 0.883,9.71 -3.531,12.359 0.001,1.766 -1.764,1.766 -3.53,1.766 m -2.648,47.669 c -1.766,0 -3.531,-0.883 -5.297,-1.766 -3.531,-2.648 -4.414,-8.828 -1.766,-12.359 2.648,-3.531 4.414,-7.945 5.297,-12.359 0.883,-4.414 6.179,-7.945 10.593,-6.179 4.414,0.883 7.945,6.179 6.179,10.593 -1.766,6.179 -4.414,12.359 -8.828,18.538 0.001,2.649 -3.53,3.532 -6.178,3.532 M 109.462,423.724 H 92.69 c -5.297,0 -8.828,-3.531 -8.828,-8.828 0,-5.297 3.531,-8.828 8.828,-8.828 h 16.772 c 5.297,0 8.828,3.531 8.828,8.828 0,5.297 -3.531,8.828 -8.828,8.828 m 50.317,0 h -16.772 c -5.297,0 -8.828,-3.531 -8.828,-8.828 0,-5.297 3.531,-8.828 8.828,-8.828 h 16.772 c 5.297,0 8.828,3.531 8.828,8.828 0,5.297 -3.531,8.828 -8.828,8.828 m 43.255,0 h -8.828 c -5.297,0 -8.828,-3.531 -8.828,-8.828 0,-5.297 3.531,-8.828 8.828,-8.828 h 8.828 c 1.766,0 4.414,0 6.179,-0.883 5.297,-0.883 9.71,2.648 10.593,7.062 0.883,4.414 -2.648,9.71 -7.062,10.593 -3.53,0.884 -7.061,0.884 -9.71,0.884 M 42.372,425.49 c -3.531,0 -7.945,-2.648 -8.828,-7.062 -0.883,-4.414 1.766,-9.71 6.179,-10.593 4.414,-0.883 8.828,-1.766 13.241,-1.766 h 6.179 c 5.297,0 8.828,3.531 8.828,8.828 0,5.297 -3.531,8.828 -8.828,8.828 h -6.179 c -2.648,0 -6.179,0 -8.828,0.883 -0.881,-10e-4 -1.764,0.882 -1.764,0.882 M 9.71,459.917 c -0.883,0 -0.883,0 -1.766,0 -4.414,-0.883 -7.945,-5.297 -7.062,-9.71 0.883,-7.062 3.531,-13.241 7.062,-18.538 2.648,-4.414 7.945,-5.297 12.359,-2.648 4.414,2.648 5.297,7.945 2.648,12.359 -2.648,3.531 -4.414,7.945 -4.414,12.359 -0.882,3.53 -4.413,6.178 -8.827,6.178 m 18.538,44.138 c -1.766,0 -3.531,-0.883 -5.297,-1.766 -5.297,-3.531 -10.593,-7.945 -14.124,-14.124 -2.648,-4.414 -1.766,-9.71 2.648,-12.359 4.414,-2.649 9.71,-1.766 12.359,2.648 2.649,4.414 5.297,7.062 8.828,9.71 4.414,2.648 5.297,7.945 2.648,12.359 -1.765,2.649 -4.413,3.532 -7.062,3.532 M 76.8,512 H 60.028 c -5.297,0 -8.828,-3.531 -8.828,-8.828 0,-5.297 3.531,-8.828 8.828,-8.828 H 76.8 c 5.297,0 8.828,3.531 8.828,8.828 0,5.297 -3.531,8.828 -8.828,8.828 m 51.2,0 h -16.772 c -5.297,0 -8.828,-3.531 -8.828,-8.828 0,-5.297 3.531,-8.828 8.828,-8.828 H 128 c 5.297,0 8.828,3.531 8.828,8.828 0,5.297 -4.414,8.828 -8.828,8.828 m 50.317,0 h -16.772 c -5.297,0 -8.828,-3.531 -8.828,-8.828 0,-5.297 3.531,-8.828 8.828,-8.828 h 16.772 c 5.297,0 8.828,3.531 8.828,8.828 0,5.297 -3.531,8.828 -8.828,8.828 m 51.2,0 h -17.655 c -5.297,0 -8.828,-3.531 -8.828,-8.828 0,-5.297 3.531,-8.828 8.828,-8.828 h 17.655 c 5.297,0 8.828,3.531 8.828,8.828 0,5.297 -4.414,8.828 -8.828,8.828 m 50.318,0 h -16.772 c -5.297,0 -8.828,-3.531 -8.828,-8.828 0,-5.297 3.531,-8.828 8.828,-8.828 h 16.772 c 5.297,0 8.828,3.531 8.828,8.828 0,5.297 -3.532,8.828 -8.828,8.828"
             id="path20391" />
          <path
             inkscape:connector-curvature="0"
             style="fill:#e6e6e6"
             d="m 97.103,335.448 h -8.828 c -5.297,0 -8.828,-3.531 -8.828,-8.828 0,-5.297 3.531,-8.828 8.828,-8.828 h 8.828 c 5.297,0 8.828,3.531 8.828,8.828 0,5.297 -3.531,8.828 -8.828,8.828"
             id="path20393" />
        </g>
      </g>
      <g
         transform="matrix(0.1953125,0,0,0.1953125,854.05644,271.63159)"
         id="g20395" />
      <g
         transform="matrix(0.1953125,0,0,0.1953125,854.05644,271.63159)"
         id="g20397" />
      <g
         transform="matrix(0.1953125,0,0,0.1953125,854.05644,271.63159)"
         id="g20399" />
      <g
         transform="matrix(0.1953125,0,0,0.1953125,854.05644,271.63159)"
         id="g20401" />
      <g
         transform="matrix(0.1953125,0,0,0.1953125,854.05644,271.63159)"
         id="g20403" />
      <g
         transform="matrix(0.1953125,0,0,0.1953125,854.05644,271.63159)"
         id="g20405" />
      <g
         transform="matrix(0.1953125,0,0,0.1953125,854.05644,271.63159)"
         id="g20407" />
      <g
         transform="matrix(0.1953125,0,0,0.1953125,854.05644,271.63159)"
         id="g20409" />
      <g
         transform="matrix(0.1953125,0,0,0.1953125,854.05644,271.63159)"
         id="g20411" />
      <g
         transform="matrix(0.1953125,0,0,0.1953125,854.05644,271.63159)"
         id="g20413" />
      <g
         transform="matrix(0.1953125,0,0,0.1953125,854.05644,271.63159)"
         id="g20415" />
      <g
         transform="matrix(0.1953125,0,0,0.1953125,854.05644,271.63159)"
         id="g20417" />
      <g
         transform="matrix(0.1953125,0,0,0.1953125,854.05644,271.63159)"
         id="g20419" />
      <g
         transform="matrix(0.1953125,0,0,0.1953125,854.05644,271.63159)"
         id="g20421" />
      <g
         transform="matrix(0.1953125,0,0,0.1953125,854.05644,271.63159)"
         id="g20423" />
    </g>
  </g>
</svg>
