<?xml version="1.0" encoding="UTF-8" standalone="no"?>
<!-- Created with Inkscape (http://www.inkscape.org/) -->

<svg
   xmlns:dc="http://purl.org/dc/elements/1.1/"
   xmlns:cc="http://creativecommons.org/ns#"
   xmlns:rdf="http://www.w3.org/1999/02/22-rdf-syntax-ns#"
   xmlns:svg="http://www.w3.org/2000/svg"
   xmlns="http://www.w3.org/2000/svg"
   xmlns:sodipodi="http://sodipodi.sourceforge.net/DTD/sodipodi-0.dtd"
   xmlns:inkscape="http://www.inkscape.org/namespaces/inkscape"
   width="56.444443mm"
   height="56.444443mm"
   viewBox="0 0 199.99999 199.99999"
   id="svg3644"
   version="1.1"
   inkscape:version="0.92.1 r"
   sodipodi:docname="mobile-phone.svg">
  <defs
     id="defs3646">
    <filter
       inkscape:collect="always"
       style="color-interpolation-filters:sRGB"
       id="filter12305"
       x="-0.83531076"
       width="2.6706214"
       y="-0.3367562"
       height="1.6735125">
      <feGaussianBlur
         inkscape:collect="always"
         stdDeviation="13.750955"
         id="feGaussianBlur12307" />
    </filter>
    <filter
       inkscape:collect="always"
       style="color-interpolation-filters:sRGB"
       id="filter41587"
       x="-0.031419788"
       width="1.0628396"
       y="-0.028702978"
       height="1.057406">
      <feGaussianBlur
         inkscape:collect="always"
         stdDeviation="0.91741647"
         id="feGaussianBlur41589" />
    </filter>
  </defs>
  <sodipodi:namedview
     id="base"
     pagecolor="#ffffff"
     bordercolor="#666666"
     borderopacity="1.0"
     inkscape:pageopacity="0.0"
     inkscape:pageshadow="2"
     inkscape:zoom="2.4421874"
     inkscape:cx="39.923215"
     inkscape:cy="106.66667"
     inkscape:document-units="px"
     inkscape:current-layer="layer1"
     showgrid="false"
     inkscape:window-width="1366"
     inkscape:window-height="708"
     inkscape:window-x="0"
     inkscape:window-y="23"
     inkscape:window-maximized="1"
     fit-margin-top="0"
     fit-margin-left="0"
     fit-margin-right="0"
     fit-margin-bottom="0"
     showborder="false" />
  <metadata
     id="metadata3649">
    <rdf:RDF>
      <cc:Work
         rdf:about="">
        <dc:format>image/svg+xml</dc:format>
        <dc:type
           rdf:resource="http://purl.org/dc/dcmitype/StillImage" />
        <dc:title />
      </cc:Work>
    </rdf:RDF>
  </metadata>
  <g
     inkscape:label="Layer 1"
     inkscape:groupmode="layer"
     id="layer1"
     transform="translate(-417.72364,-196.06779)">
    <g
       id="g41597"
       transform="matrix(0.40882084,0,0,0.40882084,268.72279,215.69952)"
       inkscape:export-xdpi="96"
       inkscape:export-ydpi="96">
      <path
         transform="matrix(1.6962776,0,0,1.6962776,-73.413522,-315.28686)"
         id="path3676"
         d="m 383.52919,347.80159 c 0.003,-1.205 -0.134,-2.388 -0.513,-3.531 -1.104,-3.334 -2.96,-6.099 -6.07,-7.896 -7.226,-4.175 -14.458,-8.337 -21.667,-12.537 -1.96,-1.143 -4.048,-1.718 -6.292,-1.777 -2.474,-0.064 -4.824,0.383 -7,1.646 -7.277,4.223 -14.599,8.374 -21.843,12.654 -4.319,2.553 -6.592,6.477 -6.646,11.49 -0.088,8.382 -0.021,16.764 -0.027,25.146 -10e-4,1.291 0.158,2.553 0.586,3.77 1.14,3.24 2.981,5.927 6.028,7.682 7.17,4.13 14.342,8.258 21.487,12.428 1.877,1.096 3.855,1.744 6.012,1.861 2.635,0.145 5.141,-0.283 7.461,-1.631 7.229,-4.195 14.459,-8.387 21.712,-12.541 2.023,-1.16 3.585,-2.738 4.772,-4.713 1.146,-1.904 1.953,-3.94 1.973,-6.189 0.037,-4.416 0.011,-8.832 0.011,-13.248 h 0.012 c 0,-4.205 -0.005,-8.41 0.004,-12.614 z"
         style="clip-rule:evenodd;fill:none;fill-rule:evenodd;stroke:#000000;stroke-width:1.65804219;stroke-miterlimit:4;stroke-dasharray:none;stroke-opacity:1;filter:url(#filter41587)"
         inkscape:connector-curvature="0" />
      <path
         id="path4486"
         d="m 577.15829,274.68119 c 0.005,-2.04402 -0.2273,-4.05072 -0.87019,-5.98956 -1.87269,-5.6554 -5.02099,-10.3456 -10.29641,-13.39381 -12.2573,-7.08196 -24.52478,-14.14187 -36.75324,-21.26623 -3.32471,-1.93885 -6.86654,-2.91421 -10.67298,-3.01429 -4.1966,-0.10853 -8.18285,0.64968 -11.87394,2.79208 -12.34381,7.16339 -24.76395,14.20463 -37.05179,21.46469 -7.32622,4.33059 -11.18186,10.98679 -11.27346,19.49023 -0.14927,14.2182 -0.0356,28.4364 -0.0457,42.6546 -0.003,2.18989 0.26802,4.3306 0.99402,6.39496 1.93374,5.49594 5.0566,10.05384 10.22516,13.0308 12.1623,7.00564 24.32801,14.00786 36.44791,21.08134 3.18392,1.85912 6.53915,2.95831 10.19802,3.15678 4.46969,0.24596 8.72057,-0.48004 12.65593,-2.76663 12.26239,-7.11589 24.52648,-14.22669 36.82957,-21.27303 3.43158,-1.96768 6.08116,-4.6444 8.09464,-7.99454 1.94394,-3.22972 3.31283,-6.68334 3.34676,-10.49827 0.0627,-7.49076 0.0187,-14.98152 0.0187,-22.47228 h 0.0204 c 0,-7.13285 -0.008,-14.26569 0.007,-21.39684 z"
         style="clip-rule:evenodd;fill-rule:evenodd;stroke-width:1.33333325"
         inkscape:connector-curvature="0" />
      <g
         style="fill:#ffffff;filter:url(#filter12305)"
         id="g12301"
         transform="matrix(0.77131263,0,0,0.77131263,479.15763,257.50196)">
        <path
           style="fill:#ffffff"
           inkscape:connector-curvature="0"
           d="m 61.008,1.305 c -7.916,-0.377 -14.4,-0.377 -19.83,-0.15 -6.182,0.15 -10.932,3.016 -10.932,8.52 0,27.445 0,48.934 0,73.966 0,9.425 3.543,13.646 10.631,14.777 1.961,0.377 3.996,0.377 5.881,0.527 4.373,0.151 8.596,0 12.893,-0.527 7.389,-1.357 10.104,-5.881 10.104,-12.969 0,-25.032 0,-49.234 0,-75.247 C 69.754,4.773 66.287,1.606 61.008,1.305 Z M 46.457,8.342 h 6.861 c 0.828,0 0.828,1.207 -0.152,1.131 h -6.559 c -0.904,0 -0.83,-1.131 -0.15,-1.131 z M 35.825,14.35 h 28.2 v 34.531 h -28.2 z m -1.804,42.504 c 0,-1.284 0.999,-2.426 2.426,-2.426 h 3.354 c 1.428,0 2.496,1.142 2.496,2.426 v 5.707 c 0,1.284 -1.068,2.283 -2.496,2.283 h -3.354 c -1.427,0 -2.426,-0.999 -2.426,-2.283 z m 9.846,31.625 c 0,1.071 -0.785,1.855 -1.713,1.855 h -6.491 c -0.856,0 -1.642,-0.784 -1.642,-1.855 v -1.284 c 0,-0.927 0.785,-1.641 1.642,-1.641 h 6.491 c 0.928,0 1.713,0.714 1.713,1.641 z m 0.071,-5.778 c 0,0.998 -0.713,1.783 -1.639,1.783 h -6.636 c -0.999,0 -1.783,-0.785 -1.783,-1.783 v -1.427 c 0,-1.071 0.784,-1.856 1.783,-1.856 h 6.636 c 0.926,0 1.639,0.785 1.639,1.856 z m 0,-6.136 c 0,0.927 -0.713,1.854 -1.639,1.854 h -6.636 c -0.999,0 -1.783,-0.928 -1.783,-1.854 v -1.427 c 0,-0.999 0.784,-1.784 1.783,-1.784 h 6.636 c 0.926,0 1.639,0.785 1.639,1.784 z m 0,-6.064 c 0,1.07 -0.713,1.855 -1.639,1.855 h -6.636 c -0.999,0 -1.783,-0.785 -1.783,-1.855 v -1.427 c 0,-0.928 0.784,-1.783 1.783,-1.783 h 6.636 c 0.926,0 1.639,0.855 1.639,1.783 z m 6.966,25.277 h -1.959 c -0.83,-0.076 -0.68,-1.206 0,-1.206 h 1.959 c 0.754,0 0.905,1.13 0,1.206 z m 4.093,-7.156 c 0,0.928 -0.785,1.783 -1.713,1.783 h -6.635 c -0.999,0 -1.784,-0.855 -1.784,-1.783 v -1.428 c 0,-0.999 0.785,-1.783 1.784,-1.783 h 6.635 c 0.928,0 1.713,0.784 1.713,1.783 z m 0,-5.921 c 0,0.998 -0.785,1.783 -1.713,1.783 h -6.635 c -0.999,0 -1.784,-0.785 -1.784,-1.783 v -1.427 c 0,-1.071 0.785,-1.856 1.784,-1.856 h 6.635 c 0.928,0 1.713,0.785 1.713,1.856 z m 0,-6.136 c 0,0.927 -0.785,1.854 -1.713,1.854 h -6.635 c -0.999,0 -1.784,-0.928 -1.784,-1.854 v -1.427 c 0,-0.999 0.785,-1.784 1.784,-1.784 h 6.635 c 0.928,0 1.713,0.785 1.713,1.784 z m 0,-6.064 c 0,1.07 -0.785,1.855 -1.713,1.855 h -6.635 c -0.999,0 -1.784,-0.785 -1.784,-1.855 v -1.427 c 0,-0.928 0.785,-1.783 1.784,-1.783 h 6.635 c 0.928,0 1.713,0.855 1.713,1.783 z m 0.642,-9.367 c 0,2.212 -1.998,4.139 -4.138,4.139 h -2.996 c -2.354,0 -4.139,-1.927 -4.139,-4.139 V 58.138 C 44.366,55.856 46.15,54 48.505,54 h 2.996 c 2.14,0 4.138,1.855 4.138,4.138 z m 10.343,27.345 c 0,1.071 -0.784,1.855 -1.854,1.855 h -6.351 c -0.998,0 -1.783,-0.784 -1.783,-1.855 v -1.284 c 0,-0.927 0.785,-1.641 1.783,-1.641 h 6.351 c 1.069,0 1.854,0.714 1.854,1.641 z m 0,-5.778 c 0,0.998 -0.784,1.783 -1.712,1.783 h -6.564 c -0.926,0 -1.854,-0.785 -1.854,-1.783 v -1.427 c 0,-1.071 0.928,-1.856 1.854,-1.856 h 6.564 c 0.928,0 1.712,0.785 1.712,1.856 z m 0,-6.136 c 0,0.927 -0.784,1.854 -1.712,1.854 h -6.564 c -0.926,0 -1.854,-0.928 -1.854,-1.854 v -1.427 c 0,-0.999 0.928,-1.784 1.854,-1.784 h 6.564 c 0.928,0 1.712,0.785 1.712,1.784 z m 0,-6.064 c 0,1.07 -0.784,1.855 -1.712,1.855 h -6.564 c -0.926,0 -1.854,-0.785 -1.854,-1.855 v -1.427 c 0,-0.928 0.928,-1.783 1.854,-1.783 h 6.564 c 0.928,0 1.712,0.855 1.712,1.783 z m 0.214,-7.94 c 0,1.284 -1.14,2.283 -2.425,2.283 h -3.496 c -1.284,0 -2.497,-0.999 -2.497,-2.283 v -5.707 c 0,-1.284 1.213,-2.426 2.497,-2.426 h 3.496 c 1.285,0 2.425,1.142 2.425,2.426 z"
           id="path12303" />
      </g>
      <g
         style="fill:#e6e6e6"
         transform="matrix(0.77131263,0,0,0.77131263,479.15763,257.50196)"
         id="Your_Icon">
        <path
           style="fill:#e6e6e6"
           id="path12177"
           d="m 61.008,1.305 c -7.916,-0.377 -14.4,-0.377 -19.83,-0.15 -6.182,0.15 -10.932,3.016 -10.932,8.52 0,27.445 0,48.934 0,73.966 0,9.425 3.543,13.646 10.631,14.777 1.961,0.377 3.996,0.377 5.881,0.527 4.373,0.151 8.596,0 12.893,-0.527 7.389,-1.357 10.104,-5.881 10.104,-12.969 0,-25.032 0,-49.234 0,-75.247 C 69.754,4.773 66.287,1.606 61.008,1.305 Z M 46.457,8.342 h 6.861 c 0.828,0 0.828,1.207 -0.152,1.131 h -6.559 c -0.904,0 -0.83,-1.131 -0.15,-1.131 z M 35.825,14.35 h 28.2 v 34.531 h -28.2 z m -1.804,42.504 c 0,-1.284 0.999,-2.426 2.426,-2.426 h 3.354 c 1.428,0 2.496,1.142 2.496,2.426 v 5.707 c 0,1.284 -1.068,2.283 -2.496,2.283 h -3.354 c -1.427,0 -2.426,-0.999 -2.426,-2.283 z m 9.846,31.625 c 0,1.071 -0.785,1.855 -1.713,1.855 h -6.491 c -0.856,0 -1.642,-0.784 -1.642,-1.855 v -1.284 c 0,-0.927 0.785,-1.641 1.642,-1.641 h 6.491 c 0.928,0 1.713,0.714 1.713,1.641 z m 0.071,-5.778 c 0,0.998 -0.713,1.783 -1.639,1.783 h -6.636 c -0.999,0 -1.783,-0.785 -1.783,-1.783 v -1.427 c 0,-1.071 0.784,-1.856 1.783,-1.856 h 6.636 c 0.926,0 1.639,0.785 1.639,1.856 z m 0,-6.136 c 0,0.927 -0.713,1.854 -1.639,1.854 h -6.636 c -0.999,0 -1.783,-0.928 -1.783,-1.854 v -1.427 c 0,-0.999 0.784,-1.784 1.783,-1.784 h 6.636 c 0.926,0 1.639,0.785 1.639,1.784 z m 0,-6.064 c 0,1.07 -0.713,1.855 -1.639,1.855 h -6.636 c -0.999,0 -1.783,-0.785 -1.783,-1.855 v -1.427 c 0,-0.928 0.784,-1.783 1.783,-1.783 h 6.636 c 0.926,0 1.639,0.855 1.639,1.783 z m 6.966,25.277 h -1.959 c -0.83,-0.076 -0.68,-1.206 0,-1.206 h 1.959 c 0.754,0 0.905,1.13 0,1.206 z m 4.093,-7.156 c 0,0.928 -0.785,1.783 -1.713,1.783 h -6.635 c -0.999,0 -1.784,-0.855 -1.784,-1.783 v -1.428 c 0,-0.999 0.785,-1.783 1.784,-1.783 h 6.635 c 0.928,0 1.713,0.784 1.713,1.783 z m 0,-5.921 c 0,0.998 -0.785,1.783 -1.713,1.783 h -6.635 c -0.999,0 -1.784,-0.785 -1.784,-1.783 v -1.427 c 0,-1.071 0.785,-1.856 1.784,-1.856 h 6.635 c 0.928,0 1.713,0.785 1.713,1.856 z m 0,-6.136 c 0,0.927 -0.785,1.854 -1.713,1.854 h -6.635 c -0.999,0 -1.784,-0.928 -1.784,-1.854 v -1.427 c 0,-0.999 0.785,-1.784 1.784,-1.784 h 6.635 c 0.928,0 1.713,0.785 1.713,1.784 z m 0,-6.064 c 0,1.07 -0.785,1.855 -1.713,1.855 h -6.635 c -0.999,0 -1.784,-0.785 -1.784,-1.855 v -1.427 c 0,-0.928 0.785,-1.783 1.784,-1.783 h 6.635 c 0.928,0 1.713,0.855 1.713,1.783 z m 0.642,-9.367 c 0,2.212 -1.998,4.139 -4.138,4.139 h -2.996 c -2.354,0 -4.139,-1.927 -4.139,-4.139 V 58.138 C 44.366,55.856 46.15,54 48.505,54 h 2.996 c 2.14,0 4.138,1.855 4.138,4.138 z m 10.343,27.345 c 0,1.071 -0.784,1.855 -1.854,1.855 h -6.351 c -0.998,0 -1.783,-0.784 -1.783,-1.855 v -1.284 c 0,-0.927 0.785,-1.641 1.783,-1.641 h 6.351 c 1.069,0 1.854,0.714 1.854,1.641 z m 0,-5.778 c 0,0.998 -0.784,1.783 -1.712,1.783 h -6.564 c -0.926,0 -1.854,-0.785 -1.854,-1.783 v -1.427 c 0,-1.071 0.928,-1.856 1.854,-1.856 h 6.564 c 0.928,0 1.712,0.785 1.712,1.856 z m 0,-6.136 c 0,0.927 -0.784,1.854 -1.712,1.854 h -6.564 c -0.926,0 -1.854,-0.928 -1.854,-1.854 v -1.427 c 0,-0.999 0.928,-1.784 1.854,-1.784 h 6.564 c 0.928,0 1.712,0.785 1.712,1.784 z m 0,-6.064 c 0,1.07 -0.784,1.855 -1.712,1.855 h -6.564 c -0.926,0 -1.854,-0.785 -1.854,-1.855 v -1.427 c 0,-0.928 0.928,-1.783 1.854,-1.783 h 6.564 c 0.928,0 1.712,0.855 1.712,1.783 z m 0.214,-7.94 c 0,1.284 -1.14,2.283 -2.425,2.283 h -3.496 c -1.284,0 -2.497,-0.999 -2.497,-2.283 v -5.707 c 0,-1.284 1.213,-2.426 2.497,-2.426 h 3.496 c 1.285,0 2.425,1.142 2.425,2.426 z"
           inkscape:connector-curvature="0" />
      </g>
    </g>
  </g>
</svg>
