<?xml version="1.0" encoding="UTF-8" standalone="no"?>
<!-- Created with Inkscape (http://www.inkscape.org/) -->

<svg
   xmlns:dc="http://purl.org/dc/elements/1.1/"
   xmlns:cc="http://creativecommons.org/ns#"
   xmlns:rdf="http://www.w3.org/1999/02/22-rdf-syntax-ns#"
   xmlns:svg="http://www.w3.org/2000/svg"
   xmlns="http://www.w3.org/2000/svg"
   xmlns:sodipodi="http://sodipodi.sourceforge.net/DTD/sodipodi-0.dtd"
   xmlns:inkscape="http://www.inkscape.org/namespaces/inkscape"
   width="66.145836mm"
   height="66.145836mm"
   viewBox="0 0 66.145836 66.145836"
   version="1.1"
   id="svg6333"
   inkscape:version="0.92.1 r"
   sodipodi:docname="rss-feed.svg">
  <defs
     id="defs6327">
    <filter
       inkscape:collect="always"
       style="color-interpolation-filters:sRGB"
       id="filter9727"
       x="-0.1206563"
       width="1.2413126"
       y="-0.1193508"
       height="1.2387016">
      <feGaussianBlur
         inkscape:collect="always"
         stdDeviation="4.9729501"
         id="feGaussianBlur9729" />
    </filter>
    <filter
       inkscape:collect="always"
       style="color-interpolation-filters:sRGB"
       id="filter42901"
       x="-0.031419788"
       width="1.0628396"
       y="-0.028702978"
       height="1.057406">
      <feGaussianBlur
         inkscape:collect="always"
         stdDeviation="0.91741647"
         id="feGaussianBlur42903" />
    </filter>
  </defs>
  <sodipodi:namedview
     id="base"
     pagecolor="#ffffff"
     bordercolor="#666666"
     borderopacity="1.0"
     inkscape:pageopacity="0.0"
     inkscape:pageshadow="2"
     inkscape:zoom="2.084"
     inkscape:cx="7.9174682"
     inkscape:cy="48.224589"
     inkscape:document-units="mm"
     inkscape:current-layer="layer1"
     showgrid="false"
     fit-margin-top="0"
     fit-margin-left="0"
     fit-margin-right="0"
     fit-margin-bottom="0"
     showborder="false"
     inkscape:window-width="1366"
     inkscape:window-height="708"
     inkscape:window-x="0"
     inkscape:window-y="23"
     inkscape:window-maximized="1" />
  <metadata
     id="metadata6330">
    <rdf:RDF>
      <cc:Work
         rdf:about="">
        <dc:format>image/svg+xml</dc:format>
        <dc:type
           rdf:resource="http://purl.org/dc/dcmitype/StillImage" />
        <dc:title />
      </cc:Work>
    </rdf:RDF>
  </metadata>
  <g
     inkscape:label="Layer 1"
     inkscape:groupmode="layer"
     id="layer1"
     transform="translate(-10.331347,-131.32044)">
    <g
       id="g42915"
       transform="matrix(0.34886048,0,0,0.34886048,14.658571,121.85815)"
       inkscape:export-xdpi="96"
       inkscape:export-ydpi="96">
      <path
         transform="matrix(0.56100844,0,0,0.56100844,-152.10203,-37.799449)"
         id="path3676"
         d="m 383.52919,347.80159 c 0.003,-1.205 -0.134,-2.388 -0.513,-3.531 -1.104,-3.334 -2.96,-6.099 -6.07,-7.896 -7.226,-4.175 -14.458,-8.337 -21.667,-12.537 -1.96,-1.143 -4.048,-1.718 -6.292,-1.777 -2.474,-0.064 -4.824,0.383 -7,1.646 -7.277,4.223 -14.599,8.374 -21.843,12.654 -4.319,2.553 -6.592,6.477 -6.646,11.49 -0.088,8.382 -0.021,16.764 -0.027,25.146 -10e-4,1.291 0.158,2.553 0.586,3.77 1.14,3.24 2.981,5.927 6.028,7.682 7.17,4.13 14.342,8.258 21.487,12.428 1.877,1.096 3.855,1.744 6.012,1.861 2.635,0.145 5.141,-0.283 7.461,-1.631 7.229,-4.195 14.459,-8.387 21.712,-12.541 2.023,-1.16 3.585,-2.738 4.772,-4.713 1.146,-1.904 1.953,-3.94 1.973,-6.189 0.037,-4.416 0.011,-8.832 0.011,-13.248 h 0.012 c 0,-4.205 -0.005,-8.41 0.004,-12.614 z"
         style="clip-rule:evenodd;fill:none;fill-rule:evenodd;stroke:#000000;stroke-width:1.41486287;stroke-miterlimit:4;stroke-dasharray:none;stroke-opacity:1;filter:url(#filter42901)"
         inkscape:connector-curvature="0" />
      <path
         id="path4486"
         d="m 63.061077,157.32018 c 0.0019,-0.67601 -0.07517,-1.33969 -0.287793,-1.98091 -0.619357,-1.87041 -1.660585,-3.42159 -3.405327,-4.42973 -4.053845,-2.34221 -8.111059,-4.67712 -12.155369,-7.03336 -1.099573,-0.64123 -2.270958,-0.96381 -3.529864,-0.99691 -1.387933,-0.0359 -2.706304,0.21486 -3.927059,0.92342 -4.08246,2.36914 -8.190163,4.69789 -12.25411,7.099 -2.422988,1.43225 -3.698161,3.63365 -3.728462,6.44598 -0.04934,4.70238 -0.01177,9.40475 -0.01515,14.10713 -6.62e-4,0.72426 0.08864,1.43225 0.328751,2.11499 0.639551,1.81767 1.672365,3.3251 3.381759,4.30967 4.022434,2.31697 8.045985,4.63281 12.054388,6.97221 1.053016,0.61487 2.162686,0.97841 3.372784,1.04404 1.478259,0.0813 2.884144,-0.15876 4.185682,-0.915 4.055533,-2.35343 8.111622,-4.70518 12.180615,-7.03561 1.134925,-0.65077 2.011217,-1.53604 2.677133,-2.64403 0.642919,-1.06816 1.095648,-2.21038 1.106872,-3.47208 0.02077,-2.47741 0.006,-4.95483 0.006,-7.43224 h 0.0067 c 0,-2.35904 -0.0026,-4.71808 0.0021,-7.07657 z"
         style="clip-rule:evenodd;fill-rule:evenodd;stroke-width:0.66145831"
         inkscape:connector-curvature="0" />
      <g
         id="g8920"
         transform="matrix(0.16145938,0,0,0.16145938,35.418645,156.32038)"
         style="fill:#ffffff;filter:url(#filter9727)">
        <ellipse
           id="ellipse8914"
           ry="13.714"
           rx="13.566"
           cy="86.286003"
           cx="13.566"
           style="fill:#ffffff" />
        <path
           id="path8916"
           d="M 65.569,100 H 46.35 C 46.35,74.121 25.598,53.142 0,53.142 v 0 -19.427 c 36.214,0 65.569,29.676 65.569,66.285 z"
           inkscape:connector-curvature="0"
           style="fill:#ffffff" />
        <path
           id="path8918"
           d="M 79.135,100 C 79.135,55.817 43.706,20 0,20 V 0 c 54.631,0 98.918,44.772 98.918,100 z"
           inkscape:connector-curvature="0"
           style="fill:#ffffff" />
      </g>
      <g
         style="fill:#ececec"
         transform="matrix(0.16145938,0,0,0.16145938,35.418645,156.32038)"
         id="g8912">
        <ellipse
           style="fill:#ececec"
           cx="13.566"
           cy="86.286003"
           rx="13.566"
           ry="13.714"
           id="ellipse8896" />
        <path
           style="fill:#ececec"
           inkscape:connector-curvature="0"
           d="M 65.569,100 H 46.35 C 46.35,74.121 25.598,53.142 0,53.142 v 0 -19.427 c 36.214,0 65.569,29.676 65.569,66.285 z"
           id="path8898" />
        <path
           style="fill:#ececec"
           inkscape:connector-curvature="0"
           d="M 79.135,100 C 79.135,55.817 43.706,20 0,20 V 0 c 54.631,0 98.918,44.772 98.918,100 z"
           id="path8900" />
      </g>
    </g>
  </g>
</svg>
