<?xml version="1.0" encoding="UTF-8" standalone="no"?>
<svg
   xmlns:dc="http://purl.org/dc/elements/1.1/"
   xmlns:cc="http://creativecommons.org/ns#"
   xmlns:rdf="http://www.w3.org/1999/02/22-rdf-syntax-ns#"
   xmlns:svg="http://www.w3.org/2000/svg"
   xmlns="http://www.w3.org/2000/svg"
   xmlns:sodipodi="http://sodipodi.sourceforge.net/DTD/sodipodi-0.dtd"
   xmlns:inkscape="http://www.inkscape.org/namespaces/inkscape"
   version="1.1"
   x="0px"
   y="0px"
   viewBox="0 0 150 150"
   enable-background="new 0 0 100 100"
   xml:space="preserve"
   id="svg3555"
   inkscape:version="0.91 r13725"
   sodipodi:docname="Books-Articles.svg"
   width="150"
   height="150"><metadata
     id="metadata3593"><rdf:RDF><cc:Work
         rdf:about=""><dc:format>image/svg+xml</dc:format><dc:type
           rdf:resource="http://purl.org/dc/dcmitype/StillImage" /><dc:title /></cc:Work></rdf:RDF></metadata><defs
     id="defs3591"><filter
       inkscape:collect="always"
       style="color-interpolation-filters:sRGB"
       id="filter11050"
       x="-0.07000031"
       width="1.1400006"
       y="-0.052499826"
       height="1.1049997"><feGaussianBlur
         inkscape:collect="always"
         stdDeviation="1.8666751"
         id="feGaussianBlur11052" /></filter></defs><sodipodi:namedview
     pagecolor="#ffffff"
     bordercolor="#666666"
     borderopacity="1"
     objecttolerance="10"
     gridtolerance="10"
     guidetolerance="10"
     inkscape:pageopacity="0"
     inkscape:pageshadow="2"
     inkscape:window-width="1366"
     inkscape:window-height="713"
     id="namedview3589"
     showgrid="false"
     showborder="false"
     inkscape:zoom="1"
     inkscape:cx="52.708224"
     inkscape:cy="74.432892"
     inkscape:window-x="0"
     inkscape:window-y="27"
     inkscape:window-maximized="1"
     inkscape:current-layer="svg3555"
     showguides="true"
     inkscape:guide-bbox="true"
     fit-margin-top="0"
     fit-margin-left="0"
     fit-margin-right="0"
     fit-margin-bottom="0" /><g
     id="g11086"
     inkscape:export-xdpi="90"
     inkscape:export-ydpi="90"><rect
       ry="0"
       rx="0"
       style="opacity:1;fill:#333333;fill-opacity:1;stroke:none;stroke-width:6.79094839;stroke-linecap:round;stroke-linejoin:round;stroke-miterlimit:4;stroke-dasharray:none;stroke-dashoffset:0;stroke-opacity:1"
       id="rect5453"
       width="150"
       height="150"
       x="-5.0000076"
       y="5.0000091" /><g
       transform="translate(-7.0000043,2.8782244)"
       id="g11054"><g
         style="fill:#cccccc;filter:url(#filter11050)"
         transform="matrix(1.1562499,0,0,1.1562499,-205.12498,20.710086)"
         id="g10220"><rect
           style="fill:#cccccc"
           x="270.18201"
           y="6.1215"
           width="1.939"
           height="85.333"
           id="rect10222" /><rect
           style="fill:#cccccc"
           x="274.061"
           y="6.1215"
           width="1.939"
           height="85.333"
           id="rect10224" /><path
           style="fill:#cccccc"
           inkscape:connector-curvature="0"
           d="m 266.303,6.1215 -53.333,0 c -0.536,0 -0.97,0.435 -0.97,0.97 l 0,83.394 c 0,0.535 0.434,0.97 0.97,0.97 l 53.333,0 c 0.535,0 0.97,-0.434 0.97,-0.97 l 0,-83.394 c 0,-0.535 -0.435,-0.97 -0.97,-0.97 z m -0.97,83.394 -51.394,0 0,-81.454 51.394,0 0,81.454 z"
           id="path10226" /><rect
           style="fill:#cccccc"
           x="223.636"
           y="36.6675"
           width="31.030001"
           height="0.97000003"
           id="rect10228" /><rect
           style="fill:#cccccc"
           x="223.636"
           y="40.546501"
           width="23.273001"
           height="0.97000003"
           id="rect10230" /><rect
           style="fill:#cccccc"
           x="223.636"
           y="44.424503"
           width="31.030001"
           height="0.97000003"
           id="rect10232" /><rect
           style="fill:#cccccc"
           x="223.636"
           y="48.303501"
           width="15.515"
           height="0.97000003"
           id="rect10234" /><rect
           style="fill:#cccccc"
           x="223.636"
           y="71.5765"
           width="15.515"
           height="0.97000003"
           id="rect10236" /><rect
           style="fill:#cccccc"
           x="223.636"
           y="75.455498"
           width="23.273001"
           height="0.97000003"
           id="rect10238" /><rect
           style="fill:#cccccc"
           x="223.636"
           y="52.182503"
           width="31.030001"
           height="0.97000003"
           id="rect10240" /><rect
           style="fill:#cccccc"
           x="223.636"
           y="56.061501"
           width="31.030001"
           height="0.97000003"
           id="rect10242" /><rect
           style="fill:#cccccc"
           x="223.636"
           y="59.940502"
           width="31.030001"
           height="0.97000003"
           id="rect10244" /><rect
           style="fill:#cccccc"
           x="223.636"
           y="63.818501"
           width="31.030001"
           height="0.97000003"
           id="rect10246" /><rect
           style="fill:#cccccc"
           x="223.636"
           y="20.6675"
           width="31.030001"
           height="1.939"
           id="rect10248" /></g><g
         id="g10204"
         transform="matrix(1.1562499,0,0,1.1562499,-205.12498,20.710086)"
         style="fill:#cccccc"><rect
           id="rect10132"
           height="85.333"
           width="1.939"
           y="6.1215"
           x="270.18201"
           style="fill:#cccccc" /><rect
           id="rect10134"
           height="85.333"
           width="1.939"
           y="6.1215"
           x="274.061"
           style="fill:#cccccc" /><path
           id="path10136"
           d="m 266.303,6.1215 -53.333,0 c -0.536,0 -0.97,0.435 -0.97,0.97 l 0,83.394 c 0,0.535 0.434,0.97 0.97,0.97 l 53.333,0 c 0.535,0 0.97,-0.434 0.97,-0.97 l 0,-83.394 c 0,-0.535 -0.435,-0.97 -0.97,-0.97 z m -0.97,83.394 -51.394,0 0,-81.454 51.394,0 0,81.454 z"
           inkscape:connector-curvature="0"
           style="fill:#cccccc" /><rect
           id="rect10138"
           height="0.97000003"
           width="31.030001"
           y="36.6675"
           x="223.636"
           style="fill:#cccccc" /><rect
           id="rect10140"
           height="0.97000003"
           width="23.273001"
           y="40.546501"
           x="223.636"
           style="fill:#cccccc" /><rect
           id="rect10142"
           height="0.97000003"
           width="31.030001"
           y="44.424503"
           x="223.636"
           style="fill:#cccccc" /><rect
           id="rect10144"
           height="0.97000003"
           width="15.515"
           y="48.303501"
           x="223.636"
           style="fill:#cccccc" /><rect
           id="rect10146"
           height="0.97000003"
           width="15.515"
           y="71.5765"
           x="223.636"
           style="fill:#cccccc" /><rect
           id="rect10148"
           height="0.97000003"
           width="23.273001"
           y="75.455498"
           x="223.636"
           style="fill:#cccccc" /><rect
           id="rect10150"
           height="0.97000003"
           width="31.030001"
           y="52.182503"
           x="223.636"
           style="fill:#cccccc" /><rect
           id="rect10152"
           height="0.97000003"
           width="31.030001"
           y="56.061501"
           x="223.636"
           style="fill:#cccccc" /><rect
           id="rect10154"
           height="0.97000003"
           width="31.030001"
           y="59.940502"
           x="223.636"
           style="fill:#cccccc" /><rect
           id="rect10156"
           height="0.97000003"
           width="31.030001"
           y="63.818501"
           x="223.636"
           style="fill:#cccccc" /><rect
           id="rect10158"
           height="1.939"
           width="31.030001"
           y="20.6675"
           x="223.636"
           style="fill:#cccccc" /></g></g></g></svg>