<?xml version="1.0" encoding="UTF-8" standalone="no"?>
<svg
   xmlns:dc="http://purl.org/dc/elements/1.1/"
   xmlns:cc="http://creativecommons.org/ns#"
   xmlns:rdf="http://www.w3.org/1999/02/22-rdf-syntax-ns#"
   xmlns:svg="http://www.w3.org/2000/svg"
   xmlns="http://www.w3.org/2000/svg"
   xmlns:sodipodi="http://sodipodi.sourceforge.net/DTD/sodipodi-0.dtd"
   xmlns:inkscape="http://www.inkscape.org/namespaces/inkscape"
   version="1.1"
   x="0px"
   y="0px"
   viewBox="0 0 150 150"
   enable-background="new 0 0 100 100"
   xml:space="preserve"
   id="svg3555"
   inkscape:version="0.91 r13725"
   sodipodi:docname="Community.svg"
   width="150"
   height="150"><metadata
     id="metadata3593"><rdf:RDF><cc:Work
         rdf:about=""><dc:format>image/svg+xml</dc:format><dc:type
           rdf:resource="http://purl.org/dc/dcmitype/StillImage" /><dc:title></dc:title></cc:Work></rdf:RDF></metadata><defs
     id="defs3591"><filter
       inkscape:collect="always"
       style="color-interpolation-filters:sRGB"
       id="filter4511"
       x="-0.047905935"
       width="1.0958119"
       y="-0.048094435"
       height="1.0961889"><feGaussianBlur
         inkscape:collect="always"
         stdDeviation="2.7561885"
         id="feGaussianBlur4513" /></filter></defs><sodipodi:namedview
     pagecolor="#ffffff"
     bordercolor="#666666"
     borderopacity="1"
     objecttolerance="10"
     gridtolerance="10"
     guidetolerance="10"
     inkscape:pageopacity="0"
     inkscape:pageshadow="2"
     inkscape:window-width="1366"
     inkscape:window-height="713"
     id="namedview3589"
     showgrid="false"
     showborder="false"
     inkscape:zoom="2"
     inkscape:cx="40.722257"
     inkscape:cy="62.518432"
     inkscape:window-x="0"
     inkscape:window-y="27"
     inkscape:window-maximized="1"
     inkscape:current-layer="svg3555"
     showguides="true"
     inkscape:guide-bbox="true"
     fit-margin-top="0"
     fit-margin-left="0"
     fit-margin-right="0"
     fit-margin-bottom="0" /><g
     id="g4549"><rect
       ry="0"
       rx="0"
       style="opacity:1;fill:#333333;fill-opacity:1;stroke:none;stroke-width:6.79094839;stroke-linecap:round;stroke-linejoin:round;stroke-miterlimit:4;stroke-dasharray:none;stroke-dashoffset:0;stroke-opacity:1"
       id="rect5453"
       width="150"
       height="150"
       x="-5.0000076"
       y="5.0000091" /><g
       transform="matrix(1.0139616,0,0,1.0139616,1.5825511,2.3196488)"
       id="g4515"><g
         style="fill:#ffffff;filter:url(#filter4511)"
         transform="matrix(0.65179598,0,0,0.65179598,150.56934,30.225713)"
         id="g3679"><path
           id="path3681"
           d="m -72.07002,42.704951 -0.48411,-0.53919 c 0,0 -0.0737,-0.0801 -0.21653,-0.22295 -1.16309,-1.16242 -7.4107,-6.86653 -18.22451,-7.11018 -0.20669,-2.74738 -1.33921,-12.44745 -7.27317,-18.380195 l -0.54056,-0.541654 -18.1999,18.198989 -0.58831,0.58992 0.63777,0.53435 c 0.003,0.002 0.25337,0.21548 0.66086,0.61992 2.07307,2.0729 6.8946,7.83296 6.89348,16.52135 l -0.001,0.88697 0.87616,-0.1303 c 0.0891,-0.0126 8.68368,-1.17789 17.40647,7.54493 l 0.54095,0.54018 18.00016,-17.99856 0.51221,-0.51353 z"
           inkscape:connector-curvature="0"
           style="fill:#ffffff" /><circle
           id="circle3683"
           r="5.968667"
           cy="-71.943039"
           cx="-45.233467"
           style="fill:#ffffff"
           transform="matrix(0.25881905,-0.96592582,0.96592582,0.25881905,0,0)" /><path
           id="path3685"
           d="m -182.54347,99.515121 0.48745,0.538509 c 0,0 0.0717,0.0813 0.21427,0.22551 1.16309,1.16243 7.41109,6.86504 18.22451,7.11017 0.2048,2.74847 1.33733,12.44854 7.26685,18.3801 l 0.54055,0.54166 18.20281,-18.19639 0.58844,-0.59165 -0.63777,-0.53435 c -0.001,-0.002 -0.25414,-0.21255 -0.66129,-0.61842 -2.07272,-2.07433 -6.89123,-7.833659 -6.88864,-16.521649 l 0.001,-0.88697 -0.87616,0.1303 c -0.0877,0.013 -8.68515,1.17751 -17.40497,-7.54452 l -0.54313,-0.54394 -17.99909,17.99588 -0.51448,0.51609 z"
           inkscape:connector-curvature="0"
           style="fill:#ffffff" /><circle
           id="circle3687"
           r="5.968667"
           cy="-137.18547"
           cx="-158.04094"
           style="fill:#ffffff"
           transform="matrix(0.25881905,-0.96592582,0.96592582,0.25881905,0,0)" /><circle
           id="circle3689"
           r="17.498177"
           cy="-104.68591"
           cx="-101.8176"
           style="fill:#ffffff"
           transform="matrix(0.25881905,-0.96592582,0.96592582,0.25881905,0,0)" /><path
           id="path3691"
           d="m -179.8509,37.578391 -0.22323,0.69097 c 0,0 -0.0337,0.10211 -0.0861,0.29756 -0.42617,1.59052 -2.24131,9.85157 2.95301,19.33843 -2.27839,1.55454 -10.11059,7.38588 -12.28156,15.48809 l -0.19802,0.73899 24.8605,6.66135 0.80455,0.21399 0.14467,-0.81836 c 0.002,-0.005 0.0584,-0.33038 0.20638,-0.88277 0.75911,-2.83304 3.33603,-9.88522 10.86059,-14.23079 l 0.768,-0.4434 -0.55215,-0.69394 c -0.0537,-0.0666 -5.36153,-6.93173 -2.16875,-18.84735 l 0.19722,-0.73603 -24.58356,-6.58715 -0.70197,-0.18809 z"
           inkscape:connector-curvature="0"
           style="fill:#ffffff" /><circle
           id="circle3693"
           r="5.968667"
           cy="-170.00822"
           cx="-101.77236"
           style="fill:#ffffff"
           transform="matrix(0.25881905,-0.96592582,0.96592582,0.25881905,0,0)" /><path
           id="path3695"
           d="m -130.44701,133.0552 0.71067,-0.15243 c 0,0 0.10454,-0.0228 0.30357,-0.0726 1.58889,-0.42662 9.64866,-2.98436 15.27003,-12.22866 2.4824,1.19689 11.44901,5.06453 19.55207,2.89616 l 0.74045,-0.19842 -6.66128,-24.863699 -0.21483,-0.80358 -0.78095,0.28439 c -0.005,0.002 -0.31617,0.11369 -0.86872,0.26246 -2.83031,0.75904 -10.23023,2.050759 -17.75178,-2.29315 l -0.76833,-0.44396 -0.32591,0.82535 c -0.0304,0.0839 -3.32066,8.110009 -15.23435,11.301729 l -0.74341,0.19762 6.58557,24.58945 0.1872,0.69936 z"
           inkscape:connector-curvature="0"
           style="fill:#ffffff" /><circle
           id="circle3697"
           r="5.968667"
           cy="-72.168686"
           cx="-158.02905"
           style="fill:#ffffff"
           transform="matrix(0.25881905,-0.96592582,0.96592582,0.25881905,0,0)" /><path
           style="fill:#ffffff"
           inkscape:connector-curvature="0"
           d="m -161.34178,19.069278 0.69097,-0.223237 c 0,0 0.10211,-0.03374 0.29756,-0.08608 1.59052,-0.426174 9.85157,-2.241313 19.33843,2.95301 1.55454,-2.278395 7.38588,-10.11059 15.48809,-12.281565 l 0.73899,-0.198015 6.66135,24.86049 0.21399,0.80455 -0.81836,0.14467 c -0.005,0.002 -0.33038,0.0584 -0.88277,0.20638 -2.83304,0.75911 -9.88522,3.33603 -14.23079,10.86059 l -0.4434,0.768 -0.69394,-0.55215 c -0.0666,-0.0537 -6.93173,-5.36153 -18.84735,-2.16875 l -0.73603,0.19722 -6.58715,-24.583554 -0.18809,-0.701968 z"
           id="path3699" /><circle
           transform="matrix(-0.96592582,0.25881905,0.25881905,0.96592582,0,0)"
           style="fill:#ffffff"
           cx="141.85411"
           cy="-29.350422"
           r="5.968667"
           id="circle3701" /><path
           style="fill:#ffffff"
           inkscape:connector-curvature="0"
           d="m -65.32379,67.928581 -0.15243,0.71067 c 0,0 -0.0228,0.10454 -0.0726,0.30357 -0.42662,1.58889 -2.98436,9.64866 -12.22866,15.27003 1.19689,2.4824 5.06453,11.44901 2.89616,19.552069 l -0.19842,0.74045 -24.8637,-6.661279 -0.80358,-0.21483 0.28439,-0.78095 c 0.002,-0.005 0.11369,-0.31617 0.26246,-0.86872 0.75904,-2.83031 2.05076,-10.23023 -2.29315,-17.75178 l -0.44396,-0.76833 0.82535,-0.32591 c 0.0839,-0.0304 8.11001,-3.32066 11.30173,-15.23435 l 0.19762,-0.74341 24.58945,6.58557 0.69936,0.1872 z"
           id="path3703" /><circle
           transform="matrix(-0.96592582,0.25881905,0.25881905,0.96592582,0,0)"
           style="fill:#ffffff"
           cx="84.933716"
           cy="68.103149"
           r="5.968667"
           id="circle3705" /><path
           transform="matrix(0.70710679,-0.70710677,0.70710677,0.70710679,0,0)"
           style="fill:#ffffff"
           id="path3707"
           sodipodi:type="arc"
           sodipodi:cx="-75.147285"
           sodipodi:cy="-39.678658"
           sodipodi:rx="5.968667"
           sodipodi:ry="5.968667"
           sodipodi:start="0"
           sodipodi:end="3.1377891"
           d="m -69.178618,-39.678658 a 5.968667,5.968667 0 0 1 -5.957316,5.968657 5.968667,5.968667 0 0 1 -5.979975,-5.945954 l 5.968624,-0.0227 z"
           inkscape:transform-center-x="-0.95098945"
           inkscape:transform-center-y="0.98593419" /><path
           inkscape:transform-center-y="0.98593419"
           inkscape:transform-center-x="-0.95098945"
           d="m -199.50043,-39.773979 a 5.968667,5.968667 0 0 1 -5.95327,5.968647 5.968667,5.968667 0 0 1 -5.98399,-5.93785"
           sodipodi:end="3.1364329"
           sodipodi:start="0"
           sodipodi:ry="5.968667"
           sodipodi:rx="5.968667"
           sodipodi:cy="-39.773979"
           sodipodi:cx="-205.4691"
           sodipodi:type="arc"
           id="path3709"
           style="fill:#ffffff"
           transform="matrix(0.70710679,-0.70710677,0.70710677,0.70710679,0,0)"
           sodipodi:open="true" /></g><g
         id="g3662"
         transform="matrix(0.65179598,0,0,0.65179598,150.56934,30.225713)"
         style="fill:#e6e6e6"><path
           style="fill:#e6e6e6"
           inkscape:connector-curvature="0"
           d="m -72.07002,42.704951 -0.48411,-0.53919 c 0,0 -0.0737,-0.0801 -0.21653,-0.22295 -1.16309,-1.16242 -7.4107,-6.86653 -18.22451,-7.11018 -0.20669,-2.74738 -1.33921,-12.44745 -7.27317,-18.380195 l -0.54056,-0.541654 -18.1999,18.198989 -0.58831,0.58992 0.63777,0.53435 c 0.003,0.002 0.25337,0.21548 0.66086,0.61992 2.07307,2.0729 6.8946,7.83296 6.89348,16.52135 l -0.001,0.88697 0.87616,-0.1303 c 0.0891,-0.0126 8.68368,-1.17789 17.40647,7.54493 l 0.54095,0.54018 18.00016,-17.99856 0.51221,-0.51353 z"
           id="path3774" /><circle
           transform="matrix(0.25881905,-0.96592582,0.96592582,0.25881905,0,0)"
           style="fill:#e6e6e6"
           cx="-45.233467"
           cy="-71.943039"
           r="5.968667"
           id="circle3776" /><path
           style="fill:#e6e6e6"
           inkscape:connector-curvature="0"
           d="m -182.54347,99.515121 0.48745,0.538509 c 0,0 0.0717,0.0813 0.21427,0.22551 1.16309,1.16243 7.41109,6.86504 18.22451,7.11017 0.2048,2.74847 1.33733,12.44854 7.26685,18.3801 l 0.54055,0.54166 18.20281,-18.19639 0.58844,-0.59165 -0.63777,-0.53435 c -0.001,-0.002 -0.25414,-0.21255 -0.66129,-0.61842 -2.07272,-2.07433 -6.89123,-7.833659 -6.88864,-16.521649 l 0.001,-0.88697 -0.87616,0.1303 c -0.0877,0.013 -8.68515,1.17751 -17.40497,-7.54452 l -0.54313,-0.54394 -17.99909,17.99588 -0.51448,0.51609 z"
           id="path3786" /><circle
           transform="matrix(0.25881905,-0.96592582,0.96592582,0.25881905,0,0)"
           style="fill:#e6e6e6"
           cx="-158.04094"
           cy="-137.18547"
           r="5.968667"
           id="circle3788" /><circle
           transform="matrix(0.25881905,-0.96592582,0.96592582,0.25881905,0,0)"
           style="fill:#e6e6e6"
           cx="-101.8176"
           cy="-104.68591"
           r="17.498177"
           id="circle3790" /><path
           style="fill:#e6e6e6"
           inkscape:connector-curvature="0"
           d="m -179.8509,37.578391 -0.22323,0.69097 c 0,0 -0.0337,0.10211 -0.0861,0.29756 -0.42617,1.59052 -2.24131,9.85157 2.95301,19.33843 -2.27839,1.55454 -10.11059,7.38588 -12.28156,15.48809 l -0.19802,0.73899 24.8605,6.66135 0.80455,0.21399 0.14467,-0.81836 c 0.002,-0.005 0.0584,-0.33038 0.20638,-0.88277 0.75911,-2.83304 3.33603,-9.88522 10.86059,-14.23079 l 0.768,-0.4434 -0.55215,-0.69394 c -0.0537,-0.0666 -5.36153,-6.93173 -2.16875,-18.84735 l 0.19722,-0.73603 -24.58356,-6.58715 -0.70197,-0.18809 z"
           id="path3766" /><circle
           transform="matrix(0.25881905,-0.96592582,0.96592582,0.25881905,0,0)"
           style="fill:#e6e6e6"
           cx="-101.77236"
           cy="-170.00822"
           r="5.968667"
           id="circle3768" /><path
           style="fill:#e6e6e6"
           inkscape:connector-curvature="0"
           d="m -130.44701,133.0552 0.71067,-0.15243 c 0,0 0.10454,-0.0228 0.30357,-0.0726 1.58889,-0.42662 9.64866,-2.98436 15.27003,-12.22866 2.4824,1.19689 11.44901,5.06453 19.55207,2.89616 l 0.74045,-0.19842 -6.66128,-24.863699 -0.21483,-0.80358 -0.78095,0.28439 c -0.005,0.002 -0.31617,0.11369 -0.86872,0.26246 -2.83031,0.75904 -10.23023,2.050759 -17.75178,-2.29315 l -0.76833,-0.44396 -0.32591,0.82535 c -0.0304,0.0839 -3.32066,8.110009 -15.23435,11.301729 l -0.74341,0.19762 6.58557,24.58945 0.1872,0.69936 z"
           id="path3782" /><circle
           transform="matrix(0.25881905,-0.96592582,0.96592582,0.25881905,0,0)"
           style="fill:#e6e6e6"
           cx="-158.02905"
           cy="-72.168686"
           r="5.968667"
           id="circle3784" /><path
           id="path3955"
           d="m -161.34178,19.069278 0.69097,-0.223237 c 0,0 0.10211,-0.03374 0.29756,-0.08608 1.59052,-0.426174 9.85157,-2.241313 19.33843,2.95301 1.55454,-2.278395 7.38588,-10.11059 15.48809,-12.281565 l 0.73899,-0.198015 6.66135,24.86049 0.21399,0.80455 -0.81836,0.14467 c -0.005,0.002 -0.33038,0.0584 -0.88277,0.20638 -2.83304,0.75911 -9.88522,3.33603 -14.23079,10.86059 l -0.4434,0.768 -0.69394,-0.55215 c -0.0666,-0.0537 -6.93173,-5.36153 -18.84735,-2.16875 l -0.73603,0.19722 -6.58715,-24.583554 -0.18809,-0.701968 z"
           inkscape:connector-curvature="0"
           style="fill:#e6e6e6" /><circle
           id="circle3957"
           r="5.968667"
           cy="-29.350422"
           cx="141.85411"
           style="fill:#e6e6e6"
           transform="matrix(-0.96592582,0.25881905,0.25881905,0.96592582,0,0)" /><path
           id="path3961"
           d="m -65.32379,67.928581 -0.15243,0.71067 c 0,0 -0.0228,0.10454 -0.0726,0.30357 -0.42662,1.58889 -2.98436,9.64866 -12.22866,15.27003 1.19689,2.4824 5.06453,11.44901 2.89616,19.552069 l -0.19842,0.74045 -24.8637,-6.661279 -0.80358,-0.21483 0.28439,-0.78095 c 0.002,-0.005 0.11369,-0.31617 0.26246,-0.86872 0.75904,-2.83031 2.05076,-10.23023 -2.29315,-17.75178 l -0.44396,-0.76833 0.82535,-0.32591 c 0.0839,-0.0304 8.11001,-3.32066 11.30173,-15.23435 l 0.19762,-0.74341 24.58945,6.58557 0.69936,0.1872 z"
           inkscape:connector-curvature="0"
           style="fill:#e6e6e6" /><circle
           id="circle3963"
           r="5.968667"
           cy="68.103149"
           cx="84.933716"
           style="fill:#e6e6e6"
           transform="matrix(-0.96592582,0.25881905,0.25881905,0.96592582,0,0)" /><path
           inkscape:transform-center-y="0.98593419"
           inkscape:transform-center-x="-0.95098945"
           d="m -69.178618,-39.678658 a 5.968667,5.968667 0 0 1 -5.957316,5.968657 5.968667,5.968667 0 0 1 -5.979975,-5.945954 l 5.968624,-0.0227 z"
           sodipodi:end="3.1377891"
           sodipodi:start="0"
           sodipodi:ry="5.968667"
           sodipodi:rx="5.968667"
           sodipodi:cy="-39.678658"
           sodipodi:cx="-75.147285"
           sodipodi:type="arc"
           id="circle4225"
           style="fill:#e6e6e6"
           transform="matrix(0.70710679,-0.70710677,0.70710677,0.70710679,0,0)" /><path
           sodipodi:open="true"
           transform="matrix(0.70710679,-0.70710677,0.70710677,0.70710679,0,0)"
           style="fill:#e6e6e6"
           id="path4232"
           sodipodi:type="arc"
           sodipodi:cx="-205.4691"
           sodipodi:cy="-39.773979"
           sodipodi:rx="5.968667"
           sodipodi:ry="5.968667"
           sodipodi:start="0"
           sodipodi:end="3.1364329"
           d="m -199.50043,-39.773979 a 5.968667,5.968667 0 0 1 -5.95327,5.968647 5.968667,5.968667 0 0 1 -5.98399,-5.93785"
           inkscape:transform-center-x="-0.95098945"
           inkscape:transform-center-y="0.98593419" /></g></g></g></svg>