<?xml version="1.0" encoding="UTF-8" standalone="no"?>
<!-- Created with Inkscape (http://www.inkscape.org/) -->

<svg
   xmlns:dc="http://purl.org/dc/elements/1.1/"
   xmlns:cc="http://creativecommons.org/ns#"
   xmlns:rdf="http://www.w3.org/1999/02/22-rdf-syntax-ns#"
   xmlns:svg="http://www.w3.org/2000/svg"
   xmlns="http://www.w3.org/2000/svg"
   xmlns:sodipodi="http://sodipodi.sourceforge.net/DTD/sodipodi-0.dtd"
   xmlns:inkscape="http://www.inkscape.org/namespaces/inkscape"
   width="33.866669mm"
   height="39.028782mm"
   viewBox="0 0 120.00001 138.29096"
   id="svg5744"
   version="1.1"
   inkscape:version="0.91 r13725"
   sodipodi:docname="Meetups-category.svg"
   inkscape:export-filename="/run/media/firebird/Management/5-Repositories/Websites/cosmobird.github.io/assets/pics/frontpage/Meetups-category.png"
   inkscape:export-xdpi="90"
   inkscape:export-ydpi="90">
  <defs
     id="defs5746">
    <filter
       inkscape:collect="always"
       style="color-interpolation-filters:sRGB"
       id="filter14265"
       x="-0.051118331"
       width="1.1022367"
       y="-0.072617003"
       height="1.145234">
      <feGaussianBlur
         inkscape:collect="always"
         stdDeviation="7.9549069"
         id="feGaussianBlur14267" />
    </filter>
    <filter
       inkscape:collect="always"
       style="color-interpolation-filters:sRGB"
       id="filter15071"
       x="-0.021266223"
       width="1.0425324"
       y="-0.027540312"
       height="1.0550806">
      <feGaussianBlur
         inkscape:collect="always"
         stdDeviation="1.1087555"
         id="feGaussianBlur15073" />
    </filter>
  </defs>
  <sodipodi:namedview
     id="base"
     pagecolor="#ffffff"
     bordercolor="#666666"
     borderopacity="1.0"
     inkscape:pageopacity="0.0"
     inkscape:pageshadow="2"
     inkscape:zoom="2.2763959"
     inkscape:cx="-30.895454"
     inkscape:cy="63.805595"
     inkscape:document-units="px"
     inkscape:current-layer="layer1"
     showgrid="false"
     inkscape:window-width="1366"
     inkscape:window-height="713"
     inkscape:window-x="0"
     inkscape:window-y="27"
     inkscape:window-maximized="1"
     showborder="false"
     fit-margin-top="0"
     fit-margin-left="0"
     fit-margin-right="0"
     fit-margin-bottom="0" />
  <metadata
     id="metadata5749">
    <rdf:RDF>
      <cc:Work
         rdf:about="">
        <dc:format>image/svg+xml</dc:format>
        <dc:type
           rdf:resource="http://purl.org/dc/dcmitype/StillImage" />
        <dc:title />
      </cc:Work>
    </rdf:RDF>
  </metadata>
  <g
     inkscape:label="Layer 1"
     inkscape:groupmode="layer"
     id="layer1"
     transform="translate(-164.6169,-512.15892)">
    <g
       id="g5597"
       transform="matrix(1.2,0,0,1.2,-678.95221,702.2043)" />
    <g
       id="g15950"
       inkscape:export-filename="/run/media/firebird/Management/5-Repositories/Websites/cosmobird.github.io/assets/pics/frontpage/g15950.png"
       inkscape:export-xdpi="90"
       inkscape:export-ydpi="90">
      <rect
         ry="0"
         rx="0"
         style="opacity:1;fill:#999999;fill-opacity:1;stroke:none;stroke-width:6.79094839;stroke-linecap:round;stroke-linejoin:round;stroke-miterlimit:4;stroke-dasharray:none;stroke-dashoffset:0;stroke-opacity:1"
         id="rect5453"
         width="120"
         height="120"
         x="104.28654"
         y="537.55975" />
      <g
         transform="matrix(0.72824476,0,0,0.72824476,24.397878,185.24503)"
         id="g15121">
        <g
           id="g15001"
           style="filter:url(#filter15071)">
          <g
             id="g15003"
             transform="matrix(0.15910687,0,0,0.15910687,124.25535,469.51115)">
            <path
               id="path15005"
               d="m 195.4669,523.25789 c 2.302,4.524 3.554,6.61 3.727,6.355 0.163,-0.24 -0.629,-2.552 -2.432,-6.923 -10.69,-27.975 -17.065,-57.896 -15.772,-87.258 0.374,-9.482 -0.343,-17.369 -3.117,-17.795 -2.662,-0.427 -5.864,7.593 -5.469,17.729 1.13,30.98 10.124,60.646 23.063,87.892 z"
               inkscape:connector-curvature="0" />
            <path
               id="path15007"
               d="m 116.1919,482.87689 c -8.668,-3.347 -16.609997,-2.578 -16.985997,0.095 -0.413,2.774 6.110997,5.686 14.306997,8.063 25.487,7.246 48.961,22.291 69.228,40.317 3.131,2.942 4.849,4.351 5.116,4.268 0.283,-0.087 -1.058,-1.844 -4.122,-5.274 -18.801,-19.862 -41.062,-37.311 -67.543,-47.469 z"
               inkscape:connector-curvature="0" />
            <path
               id="path15009"
               d="m 175.7279,509.30089 c 3.192,4.296 4.966,6.436 5.289,6.47 0.35,0.038 -0.994,-2.382 -4.142,-7.297 -19.399,-28.356 -44.169,-54.084 -75.58,-70.633 -10.252997,-5.448 -20.069997,-6.124 -20.755997,-3.536 -0.755,2.725 7.193,6.879 17.062,11.286 30.687997,13.475 56.987997,36.925 78.126997,63.71 z"
               inkscape:connector-curvature="0" />
            <path
               id="path15011"
               d="m 159.6389,463.25189 c 1.696,3.87 2.678,5.698 2.897,5.542 0.212,-0.151 -0.293,-2.169 -1.571,-6.035 -7.516,-24.213 -13.398,-49.323 -13.814,-74.128 -0.079,-7.98 -1.357,-14.494 -4.11,-14.826 -2.714,-0.341 -5.355,6.695 -4.463,15.29 2.935,26.138 11.275,50.577 21.061,74.157 z"
               inkscape:connector-curvature="0" />
            <polygon
               transform="translate(72.538903,236.80489)"
               id="polygon15013"
               points="125.5,226.01 129.039,227.871 128.363,223.93 131.227,221.139 127.27,220.564 125.5,216.979 123.73,220.564 119.773,221.139 122.637,223.93 121.961,227.871 " />
            <polygon
               transform="translate(72.538903,236.80489)"
               id="polygon15015"
               points="36.337,172.64 37.035,176.576 34.188,179.384 38.149,179.936 39.939,183.51 41.688,179.915 45.642,179.316 42.762,176.543 43.415,172.597 39.886,174.479 " />
            <polygon
               transform="translate(72.538903,236.80489)"
               id="polygon15017"
               points="37.332,140.167 41.167,141.298 39.732,137.566 41.995,134.269 38.001,134.479 35.564,131.31 34.53,135.171 30.762,136.51 34.117,138.688 34.226,142.683 " />
            <polygon
               transform="translate(72.538903,236.80489)"
               id="polygon15019"
               points="18.251,231.595 20,228 23.953,227.401 21.073,224.627 21.727,220.682 18.197,222.564 14.648,220.725 15.347,224.661 12.5,227.469 16.461,228.021 " />
            <polygon
               transform="translate(72.538903,236.80489)"
               id="polygon15021"
               points="7.5,267.5 11.453,266.901 8.573,264.127 9.227,260.182 5.697,262.064 2.148,260.225 2.847,264.161 0,266.969 3.961,267.521 5.751,271.095 " />
            <polygon
               transform="translate(72.538903,236.80489)"
               id="polygon15023"
               points="81.751,295.967 83.5,292.372 87.453,291.773 84.573,289 85.227,285.054 81.697,286.936 78.148,285.097 78.847,289.033 76,291.841 79.961,292.393 " />
            <polygon
               transform="translate(72.538903,236.80489)"
               id="polygon15025"
               points="126.535,162.633 129.005,165.777 129.998,161.904 133.752,160.527 130.375,158.385 130.225,154.39 127.146,156.939 123.299,155.847 124.771,159.565 122.545,162.885 " />
            <polygon
               transform="translate(72.538903,236.80489)"
               id="polygon15027"
               points="98.632,160.414 94.689,159.747 96.558,163.282 94.706,166.825 98.646,166.14 101.442,168.997 102.009,165.039 105.59,163.26 102,161.5 101.416,157.544 " />
            <g
               transform="translate(72.538903,236.80489)"
               id="g15029">
              <path
                 inkscape:connector-curvature="0"
                 d="M 150.906,97.576 C 149.199,80.378 135.028,69.581 120.249,63.18 c -7.088,-3.071 -13.156,-6.224 -16.563,-13.542 -0.63,-1.354 -1.04,-2.801 -1.4,-4.245 -0.18,-0.718 -0.284,-1.655 -0.345,-2.552 0.361,-2.628 0.969,-5.23 1.663,-7.777 C 105.992,26.305 110.028,17.608 115,10 c 1.548,-2.369 -1.503,-7.7 0,-10 -4.831,7.393 -8.588,15.714 -11.133,24.15 -1.893,6.271 -2.366,12.488 -2.366,18.995 0,6.626 0.041,12.965 3.426,18.891 4.149,7.266 12.029,9.524 19.118,12.857 7.794,3.664 15.012,8.742 20.241,15.649 2.266,2.993 3.909,6.399 5.108,9.942 0.551,1.629 0.907,3.316 1.218,5.004 0.114,0.622 0.197,1.25 0.268,1.88 -0.006,0.076 -0.012,0.152 -0.02,0.226 -1.005,10.136 -5.034,19.872 -9.526,28.905 -1.344,2.701 1.313,7.359 0,10 7.765,-15.611 11.299,-31.52 9.572,-48.923 z M 101.86,40.207 c 0.002,-0.375 0.01,-0.44 0,0 l 0,0 z m 49.044,66.785 c -0.344,-5.59 0.129,-2.531 0,0 l 0,0 z"
                 id="path15031" />
              <path
                 inkscape:connector-curvature="0"
                 d="m 214.18,117.666 c 3.203,-7.209 2.597,-16.096 2.187,-23.76 C 215.723,81.825 209.929,70.275 204,60.002 c 1.424,2.466 -1.461,7.468 0,10 4.634,8.028 8.728,16.4 11.028,25.416 0.402,1.578 0.695,3.182 0.949,4.789 0.036,0.228 0.066,0.477 0.092,0.735 -0.264,1.692 -0.669,3.363 -1.213,4.984 -2.426,7.237 -8.084,12.001 -13.745,16.702 -1.438,1.193 -3.362,2.646 -3.703,4.61 -0.439,2.527 -0.079,5.402 -0.064,7.948 0.008,1.39 -0.172,2.78 0.565,4.008 2.351,3.914 8.84,6.047 12.408,8.279 2.005,1.254 5.164,3.021 7.607,5.198 -3.792,2.043 -9.614,2.938 -12.143,3.708 -6.586,2.006 -15.809,5.013 -16.448,13.121 -0.815,10.333 -0.94,21.186 10.145,25.392 4.376,1.66 14.528,1.636 18.701,5.639 -0.478,0.668 -1.034,1.281 -1.621,1.846 -1.954,1.884 -4.625,2.978 -7.134,3.887 -6.098,2.211 -12.616,2.982 -18.706,5.238 -5.38,1.993 -9.29,5.54 -9.578,11.507 -0.246,5.096 -1.135,12.169 1.763,16.748 3.928,6.208 13.474,5.908 19.314,9.32 1.428,0.833 2.608,1.98 3.487,3.375 0.218,0.346 0.39,0.715 0.541,1.093 -1.942,8.35 -6.924,16.296 -11.247,23.454 -1.494,2.475 1.454,7.592 0,10 4.974,-8.235 10.625,-17.36 11.908,-27.1 0.655,-4.982 1.316,-12.349 -0.98,-17.048 -3.553,-7.27 -14.939,-6.373 -20.834,-10.775 -1.318,-0.984 -2.274,-2.299 -2.944,-3.775 0.37,-0.759 0.832,-1.475 1.35,-2.142 3.916,-5.051 11.989,-6.232 17.777,-7.629 5.968,-1.439 13.268,-2.855 17.048,-8.199 1.66,-2.347 1.703,-5.226 1.719,-7.976 0.019,-3.132 0.706,-7.21 -0.545,-10.193 -1.782,-4.251 -9.373,-4.683 -13.143,-5.451 -5.758,-1.173 -11.883,-2.82 -15.183,-8.105 -0.472,-0.757 -0.799,-1.588 -1.064,-2.438 0.821,-1.948 2.425,-3.491 4.091,-4.728 4.276,-3.177 9.85,-4.567 14.878,-6.041 3.714,-1.089 8.48,-1.953 11.365,-4.743 0.708,-0.686 0.918,-1.495 0.983,-2.362 0,-0.001 0,-0.001 0,-0.002 0.035,-0.474 0.029,-0.963 0.035,-1.461 0.033,-2.992 0.634,-6.682 -0.251,-9.594 -1.744,-5.741 -11.092,-9.969 -15.686,-12.659 -1.041,-0.609 -2.681,-1.349 -4.217,-2.277 0.981,-0.756 1.96,-1.435 2.687,-2.037 4.244,-3.513 7.93,-7.516 10.188,-12.598 z m 2.019,-12.748 c -0.004,0.029 -0.007,0.058 -0.01,0.086 -0.004,-0.121 -0.002,-0.521 0.015,-1.308 0.007,0.567 0.001,1.014 -0.005,1.222 z m -9.285,151.104 c 0.247,1.826 0.033,3.62 0,0 l 0,0 z"
                 id="path15033" />
            </g>
          </g>
          <g
             id="g15035"
             transform="matrix(-1,0,0,1,462.27533,-9.2251089)">
            <path
               inkscape:connector-curvature="0"
               d="m 227.17954,554.3026 c 0.36626,0.71979 0.56546,1.05169 0.59299,1.01112 0.0259,-0.0382 -0.10008,-0.40604 -0.38695,-1.1015 -1.70085,-4.45101 -2.71516,-9.21165 -2.50943,-13.88334 0.0595,-1.50866 -0.0546,-2.76353 -0.49594,-2.83131 -0.42354,-0.0679 -0.933,1.2081 -0.87016,2.8208 0.1798,4.92913 1.6108,9.6492 3.66949,13.98423 z"
               id="path15037" />
            <path
               inkscape:connector-curvature="0"
               d="m 214.56634,547.8777 c -1.37914,-0.53253 -2.64277,-0.41018 -2.70259,0.0151 -0.0657,0.44136 0.9723,0.90468 2.27634,1.28287 4.05516,1.15289 7.79003,3.54666 11.01465,6.41472 0.49817,0.46809 0.77151,0.69227 0.81399,0.67906 0.045,-0.0138 -0.16833,-0.29339 -0.65584,-0.83913 -2.99136,-3.16018 -6.53324,-5.93643 -10.74655,-7.55264 z"
               id="path15039" />
            <path
               inkscape:connector-curvature="0"
               d="m 224.03893,552.08194 c 0.50787,0.68352 0.79012,1.02401 0.84151,1.02942 0.0557,0.006 -0.15815,-0.37899 -0.65902,-1.161 -3.08651,-4.51164 -7.02759,-8.60514 -12.0253,-11.2382 -1.63132,-0.86681 -3.19327,-0.97437 -3.30242,-0.5626 -0.12012,0.43357 1.14446,1.0945 2.71468,1.79568 4.88268,2.14397 9.06719,5.87502 12.43055,10.1367 z"
               id="path15041" />
            <path
               inkscape:connector-curvature="0"
               d="m 221.47906,544.75523 c 0.26984,0.61574 0.42608,0.90659 0.46093,0.88177 0.0337,-0.024 -0.0466,-0.3451 -0.24996,-0.96021 -1.19585,-3.85246 -2.13171,-7.84763 -2.1979,-11.79428 -0.0126,-1.26967 -0.21591,-2.30609 -0.65393,-2.35891 -0.43182,-0.0543 -0.85202,1.06522 -0.71009,2.43274 0.46697,4.15874 1.79393,8.04715 3.35095,11.79889 z"
               id="path15043" />
            <polygon
               points="125.5,216.979 123.73,220.564 119.773,221.139 122.637,223.93 121.961,227.871 125.5,226.01 129.039,227.871 128.363,223.93 131.227,221.139 127.27,220.564 "
               id="polygon15045"
               transform="matrix(0.15910687,0,0,0.15910687,207.62085,508.72595)" />
            <polygon
               points="41.688,179.915 45.642,179.316 42.762,176.543 43.415,172.597 39.886,174.479 36.337,172.64 37.035,176.576 34.188,179.384 38.149,179.936 39.939,183.51 "
               id="polygon15047"
               transform="matrix(0.15910687,0,0,0.15910687,207.62085,508.72595)" />
            <polygon
               points="35.564,131.31 34.53,135.171 30.762,136.51 34.117,138.688 34.226,142.683 37.332,140.167 41.167,141.298 39.732,137.566 41.995,134.269 38.001,134.479 "
               id="polygon15049"
               transform="matrix(0.15910687,0,0,0.15910687,207.62085,508.72595)" />
            <polygon
               points="18.197,222.564 14.648,220.725 15.347,224.661 12.5,227.469 16.461,228.021 18.251,231.595 20,228 23.953,227.401 21.073,224.627 21.727,220.682 "
               id="polygon15051"
               transform="matrix(0.15910687,0,0,0.15910687,207.62085,508.72595)" />
            <polygon
               points="2.148,260.225 2.847,264.161 0,266.969 3.961,267.521 5.751,271.095 7.5,267.5 11.453,266.901 8.573,264.127 9.227,260.182 5.697,262.064 "
               id="polygon15053"
               transform="matrix(0.15910687,0,0,0.15910687,207.62085,508.72595)" />
            <polygon
               points="81.697,286.936 78.148,285.097 78.847,289.033 76,291.841 79.961,292.393 81.751,295.967 83.5,292.372 87.453,291.773 84.573,289 85.227,285.054 "
               id="polygon15055"
               transform="matrix(0.15910687,0,0,0.15910687,207.62085,508.72595)" />
            <polygon
               points="130.225,154.39 127.146,156.939 123.299,155.847 124.771,159.565 122.545,162.885 126.535,162.633 129.005,165.777 129.998,161.904 133.752,160.527 130.375,158.385 "
               id="polygon15057"
               transform="matrix(0.15910687,0,0,0.15910687,207.62085,508.72595)" />
            <polygon
               points="101.442,168.997 102.009,165.039 105.59,163.26 102,161.5 101.416,157.544 98.632,160.414 94.689,159.747 96.558,163.282 94.706,166.825 98.646,166.14 "
               id="polygon15059"
               transform="matrix(0.15910687,0,0,0.15910687,207.62085,508.72595)" />
            <path
               inkscape:connector-curvature="0"
               d="m 236.63052,540.85645 c 2.36297,-0.92512 3.30014,-3.29476 3.58977,-5.57054 0.13905,-1.09151 0.33225,-2.04703 1.22593,-2.80676 0.16536,-0.1405 0.35308,-0.25472 0.54244,-0.36199 0.0941,-0.0534 0.2224,-0.10538 0.34681,-0.1498 0.38701,-0.0565 0.78066,-0.0781 1.1701,-0.0858 1.33931,-0.0263 2.73858,0.17486 4.02275,0.5477 0.39987,0.11607 1.02716,-0.51508 1.41538,-0.40238 -1.24787,-0.36224 -2.58229,-0.54047 -3.88243,-0.54856 -0.96652,-0.006 -1.86619,0.1794 -2.78717,0.44123 -0.93783,0.26662 -1.8332,0.5277 -2.5309,1.22799 -0.85537,0.85896 -0.84633,2.0259 -1.02242,3.12809 -0.19355,1.21179 -0.61124,2.4018 -1.37076,3.3938 -0.32913,0.42988 -0.74268,0.79129 -1.19415,1.09759 -0.20757,0.14083 -0.4315,0.25729 -0.65746,0.36769 -0.0834,0.0405 -0.16868,0.0772 -0.25492,0.11221 -0.011,0.003 -0.0221,0.004 -0.0327,0.006 -1.47654,0.27061 -3.02257,0.11219 -4.48842,-0.13777 -0.43835,-0.0749 -0.98682,0.47542 -1.41537,0.40238 2.53338,0.43223 4.93248,0.27468 7.32362,-0.66143 z m 6.07439,-9.00613 c 0.0532,-0.0149 0.0628,-0.016 0,0 l 0,0 z m -7.40718,9.38475 c 0.77685,-0.27189 0.3636,-0.0843 0,0 l 0,0 z"
               id="path15061" />
          </g>
          <path
             id="path15063"
             d="m 210.72108,535.49362 c 0.007,-0.70399 -0.35657,-1.41074 -0.66125,-2.02421 -0.48013,-0.96711 -1.3634,-1.70855 -2.2126,-2.34058 0.20391,0.15169 0.14445,0.66359 0.35372,0.81938 0.66367,0.49388 1.29527,1.03506 1.80265,1.69245 0.0888,0.11507 0.16948,0.23616 0.24716,0.35884 0.0108,0.0175 0.0224,0.0367 0.0333,0.0571 0.0382,0.14799 0.0642,0.29922 0.0769,0.45128 0.0572,0.6788 -0.23788,1.2693 -0.53545,1.85473 -0.0756,0.14861 -0.18188,0.33573 -0.14035,0.50872 0.0534,0.2226 0.18466,0.44541 0.27563,0.65362 0.0497,0.11367 0.0842,0.2339 0.18805,0.30843 0.33109,0.23755 0.93823,0.18279 1.30954,0.23947 0.20865,0.0318 0.52999,0.0649 0.80717,0.15683 -0.23845,0.30154 -0.68383,0.5808 -0.86382,0.73335 -0.46868,0.39733 -1.11803,0.96997 -0.88359,1.65693 0.29875,0.87548 0.67237,1.76919 1.72944,1.72172 0.41728,-0.0188 1.24827,-0.37985 1.73179,-0.19946 -0.0156,0.0716 -0.0394,0.14155 -0.0675,0.2086 -0.0935,0.22349 -0.27363,0.40761 -0.44706,0.57084 -0.42145,0.39687 -0.92825,0.6906 -1.34745,1.09087 -0.37033,0.35361 -0.56525,0.78255 -0.37777,1.28166 0.16014,0.42623 0.33744,1.03726 0.73687,1.30994 0.54145,0.36973 1.31302,0.007 1.91222,0.0805 0.14646,0.0177 0.28373,0.07 0.40511,0.1532 0.0301,0.0205 0.0572,0.0448 0.083,0.0704 0.13624,0.75288 0.009,1.58019 -0.0919,2.31962 -0.0349,0.25563 0.38768,0.57064 0.35372,0.81938 0.11626,-0.8507 0.25653,-1.79828 0.0171,-2.64175 -0.12261,-0.43136 -0.32899,-1.05839 -0.68336,-1.3622 -0.54829,-0.47 -1.4495,0.006 -2.08823,-0.14593 -0.1428,-0.034 -0.26765,-0.10794 -0.37477,-0.20518 0.003,-0.0752 0.016,-0.15031 0.0349,-0.22326 0.1422,-0.55239 0.76192,-0.93472 1.18677,-1.25393 0.43809,-0.32901 0.98616,-0.70325 1.10685,-1.27484 0.053,-0.25102 -0.0453,-0.48845 -0.14128,-0.71434 -0.10895,-0.25742 -0.1972,-0.61575 -0.40517,-0.81593 -0.29638,-0.28529 -0.93365,-0.0522 -1.26972,0.0182 -0.5133,0.10756 -1.07343,0.18926 -1.53077,-0.12705 -0.0654,-0.0454 -0.12163,-0.10185 -0.17337,-0.16215 -0.002,-0.18866 0.0752,-0.37182 0.16797,-0.53211 0.23799,-0.41157 0.64554,-0.72263 1.00539,-1.02126 0.26579,-0.22061 0.62574,-0.45999 0.76345,-0.79064 0.0338,-0.0812 0.0223,-0.15496 -0.003,-0.2283 -4e-5,-8e-5 -4e-5,-8e-5 -7e-5,-1.6e-4 -0.014,-0.04 -0.0313,-0.0801 -0.0489,-0.1209 -0.10308,-0.24635 -0.18439,-0.56994 -0.35992,-0.77723 -0.34598,-0.40872 -1.26149,-0.4245 -1.73308,-0.48241 -0.10681,-0.013 -0.26738,-0.0157 -0.42607,-0.0374 0.0536,-0.0966 0.10985,-0.18691 0.14812,-0.26195 0.22347,-0.43798 0.38391,-0.89635 0.38917,-1.39263 z m -0.28549,-1.11597 c 8.5e-4,0.003 0.001,0.005 0.002,0.008 -0.005,-0.01 -0.0186,-0.0426 -0.0453,-0.10756 0.0206,0.0462 0.0359,0.083 0.0428,0.10029 z m 4.58412,12.70962 c 0.0848,0.14091 0.1308,0.29543 0,0 l 0,0 z"
             inkscape:connector-curvature="0" />
          <path
             inkscape:connector-curvature="0"
             d="m 136.55306,585.99644 c 0.49758,-0.49806 0.73235,-1.25738 0.94392,-1.90884 0.33367,-1.02689 0.22142,-2.17463 0.057,-3.22036 0.0395,0.25105 -0.36111,0.57517 -0.32061,0.83289 0.12858,0.81722 0.20115,1.64579 0.10367,2.47047 -0.0171,0.14434 -0.0442,0.2873 -0.0745,0.4293 -0.005,0.0201 -0.01,0.0419 -0.0162,0.0641 -0.0763,0.13246 -0.1635,0.25869 -0.26082,0.37622 -0.43409,0.52498 -1.05808,0.74038 -1.6803,0.95042 -0.158,0.0533 -0.36485,0.1126 -0.45622,0.26525 -0.11761,0.1964 -0.17973,0.44742 -0.26042,0.65983 -0.044,0.11598 -0.10351,0.22602 -0.0815,0.35193 0.0703,0.40138 0.5424,0.78707 0.76802,1.08737 0.12682,0.16871 0.33323,0.4172 0.46694,0.67683 -0.38135,0.0486 -0.89494,-0.0635 -1.13027,-0.0805 -0.61286,-0.0441 -1.47745,-0.0893 -1.79063,0.56552 -0.39913,0.83451 -0.75754,1.73443 0.0309,2.44015 0.31127,0.27854 1.15758,0.60204 1.37681,1.06923 -0.0612,0.0402 -0.12719,0.0736 -0.19418,0.10181 -0.22318,0.0942 -0.4807,0.0997 -0.71882,0.095 -0.57879,-0.0113 -1.14638,-0.1561 -1.72595,-0.16345 -0.51199,-0.006 -0.95138,0.16357 -1.16667,0.65133 -0.18382,0.41657 -0.48469,0.97717 -0.39012,1.45146 0.12813,0.643 0.93317,0.92372 1.30983,1.3955 0.0923,0.11512 0.15373,0.24853 0.18223,0.3929 0.007,0.0357 0.01,0.072 0.01,0.10838 -0.42945,0.63321 -1.09923,1.13524 -1.6887,1.59291 -0.20379,0.15821 -0.1223,0.67895 -0.32061,0.83289 0.6783,-0.52642 1.44154,-1.10526 1.86066,-1.87539 0.21422,-0.39397 0.50551,-0.98635 0.46491,-1.45135 -0.0628,-0.71943 -1.03977,-1.00993 -1.38979,-1.5654 -0.0782,-0.12421 -0.1157,-0.26439 -0.12419,-0.40881 0.0548,-0.0516 0.1166,-0.0962 0.18115,-0.13509 0.4881,-0.29515 1.19837,-0.13468 1.72525,-0.0655 0.54319,0.0715 1.19661,0.1876 1.68278,-0.13632 0.2135,-0.14225 0.3094,-0.38066 0.39889,-0.6092 0.10228,-0.26015 0.28995,-0.5779 0.28144,-0.86643 -0.0121,-0.4112 -0.63051,-0.69057 -0.91987,-0.87542 -0.44198,-0.28232 -0.89932,-0.61587 -1.00474,-1.16186 -0.015,-0.0782 -0.0156,-0.15787 -0.0104,-0.23715 0.13057,-0.13618 0.31389,-0.21302 0.49232,-0.26263 0.458,-0.12752 0.96682,-0.0646 1.43286,-0.0262 0.34425,0.0284 0.76891,0.1092 1.09865,-0.0307 0.081,-0.0344 0.12436,-0.0951 0.1576,-0.16521 3e-5,-8e-5 3e-5,-8e-5 6e-5,-1.6e-4 0.018,-0.0384 0.0337,-0.0791 0.0497,-0.12059 0.0987,-0.24813 0.26705,-0.5362 0.28669,-0.80712 0.0388,-0.53408 -0.60423,-1.18594 -0.90063,-1.55729 -0.0672,-0.084 -0.18004,-0.1983 -0.27823,-0.32484 0.10588,-0.0315 0.20926,-0.0567 0.28911,-0.0835 0.46611,-0.15654 0.90145,-0.37176 1.25246,-0.72264 z m 0.57688,-0.99705 c -0.001,0.003 -0.003,0.004 -0.004,0.007 0.003,-0.0106 0.0165,-0.0435 0.0429,-0.10854 -0.0176,0.0474 -0.0324,0.0844 -0.0396,0.1016 z m -5.61788,12.28772 c -0.038,0.16 -0.11327,0.30259 0,0 l 0,0 z"
             id="path15065" />
          <path
             id="path15067"
             d="m 243.36481,585.74976 c 0.39802,-0.58072 0.48985,-1.37018 0.57862,-2.04936 0.14009,-1.07061 -0.18033,-2.17842 -0.53336,-3.17639 0.0848,0.23958 -0.24974,0.63154 -0.16276,0.8775 0.27598,0.77988 0.49897,1.58117 0.55407,2.40976 0.01,0.14503 0.009,0.29054 0.005,0.43569 -10e-4,0.0207 -0.002,0.043 -0.004,0.066 -0.0508,0.14419 -0.11339,0.28424 -0.18755,0.4176 -0.33068,0.59556 -0.90471,0.92152 -1.47798,1.2419 -0.14557,0.0813 -0.33807,0.17747 -0.39996,0.34426 -0.0797,0.21461 -0.0948,0.47276 -0.13526,0.69635 -0.022,0.12207 -0.0604,0.24115 -0.0157,0.3609 0.14257,0.38174 0.67728,0.67451 0.95405,0.92844 0.15556,0.14265 0.40396,0.34917 0.58293,0.57994 -0.36601,0.11757 -0.89144,0.10137 -1.12591,0.12772 -0.61058,0.0688 -1.46884,0.18262 -1.65688,0.88369 -0.23966,0.89347 -0.42731,1.84378 0.47697,2.39328 0.357,0.21687 1.24822,0.38001 1.54925,0.79919 -0.0528,0.0507 -0.11157,0.0956 -0.17227,0.13563 -0.20217,0.13345 -0.45433,0.18599 -0.68929,0.22495 -0.57108,0.0948 -1.15558,0.0564 -1.72671,0.1552 -0.50444,0.0878 -0.90537,0.33493 -1.02776,0.85385 -0.10447,0.44318 -0.29766,1.04937 -0.11788,1.49834 0.24365,0.60869 1.08647,0.73733 1.54311,1.13221 0.11181,0.0963 0.19662,0.21619 0.25106,0.35291 0.0134,0.0338 0.023,0.0689 0.0297,0.10472 -0.3063,0.70111 -0.87289,1.31724 -1.36864,1.87507 -0.17139,0.19283 0.004,0.68986 -0.16276,0.8775 0.5705,-0.64167 1.21491,-1.35043 1.486,-2.18425 0.13849,-0.42653 0.31645,-1.06221 0.19143,-1.51193 -0.19341,-0.69578 -1.20705,-0.80257 -1.65282,-1.2846 -0.0996,-0.1078 -0.16213,-0.23875 -0.19691,-0.37917 0.0444,-0.0608 0.097,-0.11592 0.15336,-0.16596 0.42584,-0.3795 1.15348,-0.35174 1.68413,-0.38016 0.5471,-0.0291 1.21073,-0.0346 1.6294,-0.442 0.18386,-0.17892 0.23451,-0.43085 0.28066,-0.67191 0.0529,-0.27448 0.17928,-0.62121 0.11811,-0.90331 -0.0871,-0.40204 -0.74625,-0.56351 -1.06455,-0.69227 -0.48619,-0.19666 -0.99685,-0.44088 -1.20042,-0.95835 -0.0291,-0.0741 -0.0442,-0.15235 -0.0536,-0.23124 0.10345,-0.15778 0.26961,-0.26687 0.43594,-0.3483 0.42693,-0.20919 0.93867,-0.24046 1.40386,-0.288 0.34364,-0.0351 0.77591,-0.0334 1.07448,-0.23126 0.0733,-0.0486 0.10485,-0.11625 0.1247,-0.19126 1e-5,-9e-5 1e-5,-9e-5 3e-5,-1.7e-4 0.0107,-0.0411 0.0186,-0.0839 0.0268,-0.12765 0.0516,-0.262 0.1644,-0.57602 0.13413,-0.84596 -0.0596,-0.53216 -0.81108,-1.05532 -1.17044,-1.36615 -0.0814,-0.0703 -0.21329,-0.162 -0.33298,-0.26843 0.0983,-0.0503 0.19535,-0.094 0.26894,-0.135 0.42959,-0.23921 0.81819,-0.53047 1.09905,-0.93966 z m 0.38465,-1.08579 c -4.3e-4,0.003 -0.002,0.004 -0.003,0.008 10e-4,-0.011 0.008,-0.0458 0.0223,-0.11456 -0.009,0.0498 -0.0164,0.0889 -0.0203,0.10713 z m -3.27407,13.10836 c -0.008,0.16425 -0.056,0.31821 0,0 l 0,0 z"
             inkscape:connector-curvature="0" />
          <path
             inkscape:connector-curvature="0"
             d="m 189.74841,592.65758 c 0.30517,-0.44525 0.37558,-1.05054 0.44364,-1.57128 0.10741,-0.82086 -0.13826,-1.67024 -0.40893,-2.43541 0.065,0.1837 -0.19148,0.48422 -0.1248,0.6728 0.2116,0.59795 0.38257,1.21232 0.42482,1.84761 0.008,0.1112 0.007,0.22276 0.004,0.33405 -7.6e-4,0.0159 -0.002,0.033 -0.003,0.0506 -0.0389,0.11055 -0.0869,0.21793 -0.1438,0.32018 -0.25354,0.45663 -0.69366,0.70655 -1.1332,0.95219 -0.11161,0.0623 -0.2592,0.13607 -0.30665,0.26395 -0.0611,0.16455 -0.0727,0.36247 -0.10371,0.53391 -0.0169,0.0936 -0.0463,0.18489 -0.012,0.2767 0.10931,0.29269 0.51929,0.51717 0.73149,0.71186 0.11927,0.10937 0.30972,0.26771 0.44694,0.44465 -0.28062,0.0901 -0.68348,0.0777 -0.86325,0.0979 -0.46815,0.0527 -1.12619,0.14001 -1.27037,0.67754 -0.18375,0.68504 -0.32762,1.41366 0.36571,1.83497 0.27372,0.16628 0.95703,0.29136 1.18784,0.61276 -0.0405,0.0389 -0.0855,0.0733 -0.13209,0.10399 -0.155,0.10232 -0.34834,0.1426 -0.52849,0.17247 -0.43786,0.0727 -0.886,0.0433 -1.3239,0.119 -0.38677,0.0673 -0.69417,0.25679 -0.788,0.65466 -0.0801,0.3398 -0.22823,0.80457 -0.0904,1.14881 0.18682,0.46669 0.83302,0.56532 1.18314,0.86809 0.0857,0.0738 0.15075,0.16575 0.19249,0.27058 0.0103,0.0259 0.0176,0.0528 0.0228,0.0803 -0.23484,0.53755 -0.66926,1.00995 -1.04936,1.43765 -0.13141,0.14785 0.003,0.52893 -0.12479,0.6728 0.43741,-0.49198 0.93149,-1.0354 1.13934,-1.67471 0.10619,-0.32703 0.24263,-0.81442 0.14678,-1.15922 -0.1483,-0.53347 -0.92547,-0.61535 -1.26725,-0.98493 -0.0764,-0.0827 -0.12431,-0.18306 -0.15098,-0.29072 0.034,-0.0466 0.0744,-0.0889 0.11759,-0.12725 0.32649,-0.29097 0.88439,-0.26968 1.29125,-0.29147 0.41947,-0.0223 0.92829,-0.0265 1.24929,-0.33889 0.14097,-0.13718 0.17981,-0.33034 0.21519,-0.51517 0.0406,-0.21045 0.13746,-0.47629 0.0906,-0.69258 -0.0668,-0.30826 -0.57217,-0.43206 -0.81621,-0.53078 -0.37277,-0.15078 -0.76431,-0.33803 -0.92039,-0.73479 -0.0223,-0.0568 -0.0339,-0.11681 -0.0411,-0.17729 0.0793,-0.12098 0.20671,-0.20462 0.33424,-0.26705 0.32734,-0.16039 0.7197,-0.18437 1.07637,-0.22082 0.26347,-0.0269 0.5949,-0.0256 0.82382,-0.17731 0.0562,-0.0373 0.0804,-0.0891 0.0956,-0.14664 1e-5,-7e-5 1e-5,-7e-5 2e-5,-1.3e-4 0.008,-0.0315 0.0143,-0.0643 0.0206,-0.0979 0.0396,-0.20088 0.12605,-0.44165 0.10284,-0.64862 -0.0457,-0.40802 -0.62187,-0.80913 -0.8974,-1.04745 -0.0624,-0.0539 -0.16353,-0.12421 -0.2553,-0.20581 0.0754,-0.0386 0.14978,-0.0721 0.2062,-0.10351 0.32938,-0.18341 0.62733,-0.40672 0.84267,-0.72046 z m 0.29492,-0.8325 c -3.3e-4,0.002 -0.002,0.003 -0.002,0.006 7.7e-4,-0.008 0.006,-0.0351 0.0171,-0.0878 -0.007,0.0382 -0.0126,0.0682 -0.0156,0.0821 z m -2.51029,10.05044 c -0.006,0.12594 -0.0429,0.24398 0,0 l 0,0 z"
             id="path15069" />
        </g>
        <g
           id="g15075">
          <g
             id="g13417"
             transform="matrix(0.30491564,0,0,0.30491564,135.57161,541.83758)"
             style="fill:#1a1a1a;filter:url(#filter14265)">
            <path
               inkscape:connector-curvature="0"
               d="m 227.6,249.788 0,-0.24 c -6.927,3.311 -14.083,6.273 -21.376,9.079 2.256,2.405 5.454,3.916 9.011,3.916 4.976,0 9.253,-2.944 11.215,-7.181 -0.024,-0.289 -0.044,-0.58 -0.044,-0.875 -0.001,-1.7 0.44,-3.295 1.194,-4.699 z"
               id="path13419"
               style="fill:#1a1a1a" />
            <path
               inkscape:connector-curvature="0"
               d="m 283.797,58.646 c 4.286,0 8.311,1.098 11.815,3.025 4.899,-7.574 9.209,-16.926 12.3,-28.406 1.159,-4.263 -1.359,-8.658 -5.621,-9.817 -4.265,-1.159 -8.66,1.359 -9.817,5.621 -3.848,13.996 -9.325,23.646 -15.108,30.438 1.733,-0.471 3.542,-0.764 5.41,-0.841 0.341,-0.014 0.682,-0.02 1.021,-0.02 z"
               id="path13421"
               style="fill:#1a1a1a" />
            <path
               inkscape:connector-curvature="0"
               d="m 167.358,29.07 c -1.159,-4.265 -5.555,-6.78 -9.819,-5.622 -1.728,0.469 -3.162,1.477 -4.188,2.786 7.728,4.127 12.999,12.272 12.999,21.626 0,4.399 -1.172,8.528 -3.21,12.101 4.634,7.556 9.858,13.433 15.118,17.926 0.142,-2.907 0.228,-6.261 0.222,-10.14 0,-1.865 -0.023,-3.836 -0.058,-5.903 -0.034,-1.971 0.504,-3.867 1.534,-5.498 -4.839,-6.54 -9.315,-15.319 -12.598,-27.276 z"
               id="path13423"
               style="fill:#1a1a1a" />
            <path
               inkscape:connector-curvature="0"
               d="m 256.605,194.544 0.356,0.345 0,-3.187 c -1.731,-0.371 -3.408,-0.93 -5.008,-1.656 l 4.652,4.498 z"
               id="path13425"
               style="fill:#1a1a1a" />
            <path
               inkscape:connector-curvature="0"
               d="m 222.768,113.446 c -0.033,-4.687 3.75,-8.528 8.435,-8.568 l 25.76,-0.197 0,-13.756 c 1.02,-0.266 2.122,-0.59 3.284,-0.97 -0.531,-1.851 -0.854,-3.795 -0.938,-5.805 -0.181,-4.414 0.83,-8.603 2.736,-12.267 -3.609,1.878 -6.858,2.981 -9.305,3.606 -1.135,0.292 -2.091,0.481 -2.831,0.604 -0.223,-0.02 -0.447,-0.034 -0.675,-0.034 l -38.634,0 c -0.227,0 -0.451,0.014 -0.674,0.034 -2.23,-0.373 -6.479,-1.363 -11.484,-3.868 -0.11,6.561 -0.463,12.159 -1.067,16.959 2,0.744 3.85,1.311 5.497,1.741 l 0,84.756 c 12.668,-0.072 21.621,-1.444 22.624,-1.605 l 0.313,-0.049 c 0.58,-0.104 1.163,-0.152 1.741,-0.152 0.017,0 0.033,0.002 0.05,0.002 l 0,-13.97 4.635,0 0,14.419 c 2.299,0.376 4.694,1.212 6.295,2.738 l 1.516,1.465 c -2.583,-5.247 -3.206,-11.175 -1.73,-16.899 1.633,-6.336 5.637,-11.654 11.272,-14.98 2.299,-1.355 4.793,-2.314 7.375,-2.862 l 0,-22.107 -25.625,0.196 c -4.722,0.002 -8.533,-3.782 -8.57,-8.431 z"
               id="path13427"
               style="fill:#1a1a1a" />
            <path
               inkscape:connector-curvature="0"
               d="m 256.962,242.759 0,-11.171 c -6.147,4.889 -12.673,9.128 -19.492,12.894 9.243,-0.046 15.449,-0.852 19.492,-1.723 z"
               id="path13429"
               style="fill:#1a1a1a" />
            <path
               inkscape:connector-curvature="0"
               d="m 211.605,195.457 c -2.898,0.138 -5.82,0.207 -8.734,0.22 l 0,8.642 c 3.346,-2.482 6.193,-5.382 8.734,-8.862 z"
               id="path13431"
               style="fill:#1a1a1a" />
            <circle
               cx="229.916"
               cy="47.860001"
               r="22.5"
               id="circle13433"
               style="fill:#1a1a1a" />
            <path
               inkscape:connector-curvature="0"
               d="m 345.621,39.52 c 1.56,-3.232 0.204,-7.118 -3.028,-8.678 -3.234,-1.563 -7.117,-0.205 -8.68,3.027 l -26.127,54.144 c -2.19,10.786 -11.516,19.128 -22.994,19.601 -0.342,0.014 -0.686,0.022 -1.027,0.022 -2.544,0 -4.995,-0.389 -7.301,-1.105 l -45.244,0.348 c -3.589,0.028 -6.479,2.961 -6.451,6.55 0.028,3.57 2.932,6.448 6.497,6.449 0.019,0 0.037,0 0.056,-0.001 l 49.75,-0.382 c 9.053,25.168 13.381,50.846 13.395,75.721 4.803,-1.197 9.607,-2.394 14.41,-3.59 l 0,59.912 c 0,5.523 4.477,10 10,10 5.521,0 10,-4.477 10,-10 l 0,-64.896 c 1.11,-0.276 2.222,-0.554 3.332,-0.83 l 0,65.726 c 0,5.523 4.477,10 10,10 5.522,0 10,-4.477 10,-10 l 0,-70.708 c 7.091,-1.767 14.183,-3.533 21.273,-5.3 -13.873,-30.767 -32.511,-57.979 -54.456,-80.894 L 345.621,39.52 Z"
               id="path13435"
               style="fill:#1a1a1a" />
            <circle
               r="22.495001"
               transform="matrix(0.9992,-0.0412,0.0412,0.9992,-3.1845,11.7627)"
               cx="283.784"
               cy="83.140999"
               id="circle13437"
               style="fill:#1a1a1a" />
            <path
               inkscape:connector-curvature="0"
               d="m 158.022,225.414 c 0.627,0.09 1.243,0.185 1.855,0.283 l -1.472,-1.243 -0.383,0.96 z"
               id="path13439"
               style="fill:#1a1a1a" />
            <path
               inkscape:connector-curvature="0"
               d="m 158.38,254.861 c 2.2,4.79 7.325,7.809 12.825,7.095 1.687,-0.219 3.249,-0.768 4.631,-1.573 -2.587,-1.135 -4.963,-2.156 -5.771,-2.438 -3.004,-1.042 -6.934,-2.174 -11.685,-3.084 z"
               id="path13441"
               style="fill:#1a1a1a" />
            <path
               inkscape:connector-curvature="0"
               d="m 165.018,192.08 10.777,9.102 -0.959,-7.395 c -3.329,-0.481 -6.607,-1.044 -9.818,-1.707 z"
               id="path13443"
               style="fill:#1a1a1a" />
            <path
               inkscape:connector-curvature="0"
               d="m 131.092,214.649 7.098,-54.741 7.318,0 1.107,8.539 c 1.146,-0.453 2.386,-0.703 3.671,-0.703 1.1,0 2.19,0.183 3.238,0.543 6.252,2.143 12.551,3.682 18.626,4.791 l -3.255,-25.108 0,-39.774 c 1.136,0.953 2.381,1.854 3.862,2.621 1.703,0.874 3.796,1.601 6.269,1.644 0.065,0.001 0.128,0.007 0.193,0.007 0.02,0 0.039,0 0.059,0 1.723,0 3.58,-0.402 5.228,-1.196 2.96,-1.424 5.001,-3.788 6.422,-6.282 2.128,-3.798 3.322,-8.26 4.222,-14.234 0.869,-5.969 1.327,-13.452 1.332,-23.01 -0.003,-1.987 -0.023,-4.061 -0.063,-6.22 -0.08,-4.419 -3.725,-7.935 -8.143,-7.855 -4.417,0.08 -7.932,3.726 -7.853,8.143 0.036,2.079 0.058,4.058 0.058,5.933 0.022,13.74 -1.103,22.424 -2.411,26.69 -0.037,0.123 -0.073,0.241 -0.11,0.356 -0.216,-0.225 -0.439,-0.474 -0.661,-0.73 -0.04,-0.046 -0.079,-0.084 -0.119,-0.132 -1.789,-2.05 -3.669,-4.867 -5,-7.097 -0.672,-1.115 -1.218,-2.091 -1.585,-2.77 -0.185,-0.341 -0.325,-0.604 -0.417,-0.777 -0.09,-0.173 -0.112,-0.221 -0.115,-0.221 -0.462,-0.917 -1.082,-1.7 -1.803,-2.346 -1.188,-2.741 -3.914,-4.66 -7.092,-4.66 l -33.553,0 L 86.188,4.013 C 83.987,0.183 79.097,-1.135 75.266,1.066 71.436,3.268 70.117,8.159 72.319,11.989 l 28.108,48.887 c 8.469,4.145 14.155,13.015 13.745,23.02 -0.011,0.267 -0.033,0.53 -0.053,0.794 l 0.684,1.188 0,62.076 -10.41,80.292 c 7.656,-1.78 15.234,-2.987 22.708,-3.621 l 3.991,-9.976 z"
               id="path13445"
               style="fill:#1a1a1a" />
            <path
               inkscape:connector-curvature="0"
               d="m 118.643,254.947 c -4.51,0.782 -9.073,1.808 -13.685,3.084 1.902,2.083 4.519,3.533 7.534,3.924 3.238,0.42 6.339,-0.464 8.797,-2.232 -0.897,-1.073 -1.643,-2.281 -2.209,-3.603 -0.166,-0.385 -0.307,-0.779 -0.437,-1.173 z"
               id="path13447"
               style="fill:#1a1a1a" />
            <circle
               cx="141.849"
               cy="47.860001"
               r="22.5"
               id="circle13449"
               style="fill:#1a1a1a" />
            <circle
               r="22.495001"
               transform="matrix(0.8613,-0.508,0.508,0.8613,-48.8891,156.3871)"
               cx="262.034"
               cy="167.75101"
               id="circle13451"
               style="fill:#1a1a1a" />
            <path
               inkscape:connector-curvature="0"
               d="m 120.646,254.606 c 1.164,3.257 3.654,6.022 7.118,7.408 1.522,0.609 3.094,0.897 4.639,0.897 4.961,0 9.655,-2.975 11.611,-7.861 l 0.727,-1.815 c -1.736,-0.088 -3.529,-0.139 -5.387,-0.14 -6.107,0.003 -12.351,0.509 -18.708,1.511 z"
               id="path13453"
               style="fill:#1a1a1a" />
            <path
               inkscape:connector-curvature="0"
               d="m 237.149,178.514 c -1.651,-1.572 -4.824,-2.432 -7.818,-2.437 -1.012,-0.233 -2.085,-0.272 -3.172,-0.082 -0.003,0 -0.079,0.014 -0.349,0.056 -1.882,0.302 -11.099,1.638 -23.87,1.638 -13.813,0.008 -31.771,-1.585 -49.064,-7.512 -4.18,-1.432 -8.729,0.799 -10.157,4.98 -1.433,4.18 0.8,8.728 4.98,10.158 19.649,6.709 39.231,8.366 54.242,8.373 5.113,-10e-4 9.694,-0.197 13.572,-0.463 -5.679,9.155 -13.135,15.9 -27.684,20.741 l -27.357,-23.108 c -3.065,-2.588 -7.2,-3.55 -11.091,-2.579 -3.892,0.971 -7.091,3.761 -8.58,7.485 l -11.477,28.691 c 3.353,-0.234 6.686,-0.362 9.991,-0.362 5.995,0.002 11.558,0.393 16.663,1.04 l 1.599,-3.997 6.207,5.243 c 5.209,1.002 9.825,2.24 13.798,3.532 l 0.434,2.225 c -9.244,-3.115 -22.27,-6.036 -38.663,-6.041 -17.115,-0.006 -37.793,3.215 -61.227,12.528 -6.418,2.548 -9.553,9.814 -7.004,16.232 1.945,4.901 6.648,7.89 11.621,7.89 1.535,0 3.096,-0.284 4.611,-0.886 20.609,-8.178 37.992,-10.758 51.998,-10.765 13.816,0.002 24.377,2.537 31.369,4.962 3.492,1.214 6.088,2.401 7.721,3.228 0.816,0.414 1.393,0.739 1.723,0.931 0.162,0.094 0.264,0.156 0.301,0.182 l 0.01,0.004 c 2.96,1.914 6.428,2.408 9.614,1.667 0.942,-0.081 1.904,-0.287 2.858,-0.634 24.814,-9.002 49.304,-18.786 68.662,-36.407 0.168,0.202 0.336,0.403 0.503,0.609 1.854,2.274 3.579,4.767 4.723,7.035 1.169,2.267 1.657,4.25 1.634,5.36 -0.023,0.868 -0.138,1.221 -0.512,1.808 -0.528,0.825 -2.41,2.609 -7.507,4.103 -5.029,1.489 -12.913,2.556 -24.044,2.544 -4.419,0 -8,3.582 -8,8.001 0,4.418 3.581,8.002 8,8.002 16.153,-0.044 27.123,-1.847 35.173,-5.718 3.997,-1.952 7.322,-4.576 9.602,-7.921 2.296,-3.33 3.313,-7.255 3.289,-10.819 -0.03,-5.066 -1.704,-9.45 -3.747,-13.333 -3.114,-5.81 -7.314,-10.691 -10.765,-14.32 -2.106,-2.199 -3.938,-3.902 -5.084,-4.931 -0.202,-0.276 -0.409,-0.529 -0.626,-0.735 -9.033,-8.732 -18.064,-17.465 -27.1,-26.198 z"
               id="path13455"
               style="fill:#1a1a1a" />
            <path
               inkscape:connector-curvature="0"
               d="M 88.689,107.361 C 77.502,106.9 68.364,98.964 65.877,88.578 65.534,88.473 65.21,88.377 64.9,88.293 63.982,87.574 60.807,84.93 57.782,80.725 54.24,75.802 50.941,68.965 50.939,60.272 c 0.011,-6.504 1.807,-14.24 7.307,-23.48 1.84,-3.083 0.832,-7.073 -2.249,-8.913 -3.084,-1.84 -7.073,-0.832 -8.913,2.25 -6.535,10.926 -9.154,21.146 -9.145,30.144 0,12.49 4.949,22.236 9.753,28.678 2.032,2.726 4.042,4.897 5.72,6.524 C 31.92,118.158 13.653,144.996 0,175.276 c 7.091,1.767 14.183,3.534 21.273,5.3 l 0,70.708 c 0,5.524 4.479,10 10,10 5.523,0 10,-4.476 10,-10 l 0,-65.725 c 1.11,0.277 2.222,0.553 3.332,0.83 l 0,64.895 c 0,5.524 4.479,10 10,10 5.522,0 10,-4.476 10,-10 l 0,-59.912 c 4.804,1.197 9.606,2.394 14.41,3.59 0.009,-16.061 1.824,-32.456 5.535,-48.834 -0.926,-0.746 -1.908,-1.569 -2.976,-2.498 -4.208,-3.7 -9.131,-8.567 -15.056,-14.888 -1.553,-1.658 -2.368,-3.817 -2.295,-6.087 0.074,-2.269 1.027,-4.373 2.682,-5.925 1.582,-1.481 3.646,-2.3 5.813,-2.3 2.34,0 4.6,0.979 6.203,2.686 5.477,5.845 10.14,10.462 13.861,13.729 2.447,2.169 4.195,3.426 5.146,4.055 l -0.683,1.936 c -1.27,-0.795 -3.271,-2.26 -5.785,-4.486 -3.522,-3.093 -8.155,-7.628 -14.001,-13.865 -2.455,-2.615 -6.566,-2.751 -9.186,-0.296 -2.618,2.454 -2.751,6.566 -0.297,9.186 6.038,6.443 10.91,11.232 14.91,14.747 3.972,3.458 6.97,5.686 9.989,7.114 0.046,0.021 0.092,0.047 0.138,0.068 1.592,0.7 3.271,1.289 5.551,1.184 1.125,-0.063 2.404,-0.372 3.574,-1.022 1.171,-0.64 2.16,-1.6 2.813,-2.575 0.006,-0.009 0.01,-0.019 0.016,-0.027 1.431,-2.227 1.548,-4.131 1.581,-5.712 -0.044,-3.21 -0.865,-6.025 -1.864,-9.126 -3.046,-9.068 -8.619,-19.521 -8.688,-19.685 -0.18,-0.34 -0.391,-0.653 -0.619,-0.948 0.013,-0.03 0.023,-0.061 0.036,-0.092 -0.01,0.009 -0.83,-1.567 -2.876,-4.084 -0.927,0.105 -1.866,0.166 -2.821,0.166 -0.34,-10e-4 -0.684,-0.008 -1.027,-0.022 z"
               id="path13457"
               style="fill:#1a1a1a" />
            <circle
               r="22.495001"
               transform="matrix(0.0412,-0.9992,0.9992,0.0412,3.1851,169.0938)"
               cx="89.696999"
               cy="82.887001"
               id="circle13459"
               style="fill:#1a1a1a" />
          </g>
          <g
             style="fill:#cccccc"
             transform="matrix(0.30491564,0,0,0.30491564,135.57162,541.83758)"
             id="g13313">
            <path
               style="fill:#cccccc"
               id="path13315"
               d="m 227.6,249.788 0,-0.24 c -6.927,3.311 -14.083,6.273 -21.376,9.079 2.256,2.405 5.454,3.916 9.011,3.916 4.976,0 9.253,-2.944 11.215,-7.181 -0.024,-0.289 -0.044,-0.58 -0.044,-0.875 -0.001,-1.7 0.44,-3.295 1.194,-4.699 z"
               inkscape:connector-curvature="0" />
            <path
               style="fill:#cccccc"
               id="path13317"
               d="m 283.797,58.646 c 4.286,0 8.311,1.098 11.815,3.025 4.899,-7.574 9.209,-16.926 12.3,-28.406 1.159,-4.263 -1.359,-8.658 -5.621,-9.817 -4.265,-1.159 -8.66,1.359 -9.817,5.621 -3.848,13.996 -9.325,23.646 -15.108,30.438 1.733,-0.471 3.542,-0.764 5.41,-0.841 0.341,-0.014 0.682,-0.02 1.021,-0.02 z"
               inkscape:connector-curvature="0" />
            <path
               style="fill:#cccccc"
               id="path13319"
               d="m 167.358,29.07 c -1.159,-4.265 -5.555,-6.78 -9.819,-5.622 -1.728,0.469 -3.162,1.477 -4.188,2.786 7.728,4.127 12.999,12.272 12.999,21.626 0,4.399 -1.172,8.528 -3.21,12.101 4.634,7.556 9.858,13.433 15.118,17.926 0.142,-2.907 0.228,-6.261 0.222,-10.14 0,-1.865 -0.023,-3.836 -0.058,-5.903 -0.034,-1.971 0.504,-3.867 1.534,-5.498 -4.839,-6.54 -9.315,-15.319 -12.598,-27.276 z"
               inkscape:connector-curvature="0" />
            <path
               style="fill:#cccccc"
               id="path13321"
               d="m 256.605,194.544 0.356,0.345 0,-3.187 c -1.731,-0.371 -3.408,-0.93 -5.008,-1.656 l 4.652,4.498 z"
               inkscape:connector-curvature="0" />
            <path
               style="fill:#cccccc"
               id="path13323"
               d="m 222.768,113.446 c -0.033,-4.687 3.75,-8.528 8.435,-8.568 l 25.76,-0.197 0,-13.756 c 1.02,-0.266 2.122,-0.59 3.284,-0.97 -0.531,-1.851 -0.854,-3.795 -0.938,-5.805 -0.181,-4.414 0.83,-8.603 2.736,-12.267 -3.609,1.878 -6.858,2.981 -9.305,3.606 -1.135,0.292 -2.091,0.481 -2.831,0.604 -0.223,-0.02 -0.447,-0.034 -0.675,-0.034 l -38.634,0 c -0.227,0 -0.451,0.014 -0.674,0.034 -2.23,-0.373 -6.479,-1.363 -11.484,-3.868 -0.11,6.561 -0.463,12.159 -1.067,16.959 2,0.744 3.85,1.311 5.497,1.741 l 0,84.756 c 12.668,-0.072 21.621,-1.444 22.624,-1.605 l 0.313,-0.049 c 0.58,-0.104 1.163,-0.152 1.741,-0.152 0.017,0 0.033,0.002 0.05,0.002 l 0,-13.97 4.635,0 0,14.419 c 2.299,0.376 4.694,1.212 6.295,2.738 l 1.516,1.465 c -2.583,-5.247 -3.206,-11.175 -1.73,-16.899 1.633,-6.336 5.637,-11.654 11.272,-14.98 2.299,-1.355 4.793,-2.314 7.375,-2.862 l 0,-22.107 -25.625,0.196 c -4.722,0.002 -8.533,-3.782 -8.57,-8.431 z"
               inkscape:connector-curvature="0" />
            <path
               style="fill:#cccccc"
               id="path13325"
               d="m 256.962,242.759 0,-11.171 c -6.147,4.889 -12.673,9.128 -19.492,12.894 9.243,-0.046 15.449,-0.852 19.492,-1.723 z"
               inkscape:connector-curvature="0" />
            <path
               style="fill:#cccccc"
               id="path13327"
               d="m 211.605,195.457 c -2.898,0.138 -5.82,0.207 -8.734,0.22 l 0,8.642 c 3.346,-2.482 6.193,-5.382 8.734,-8.862 z"
               inkscape:connector-curvature="0" />
            <circle
               style="fill:#cccccc"
               id="circle13329"
               r="22.5"
               cy="47.860001"
               cx="229.916" />
            <path
               style="fill:#cccccc"
               id="path13331"
               d="m 345.621,39.52 c 1.56,-3.232 0.204,-7.118 -3.028,-8.678 -3.234,-1.563 -7.117,-0.205 -8.68,3.027 l -26.127,54.144 c -2.19,10.786 -11.516,19.128 -22.994,19.601 -0.342,0.014 -0.686,0.022 -1.027,0.022 -2.544,0 -4.995,-0.389 -7.301,-1.105 l -45.244,0.348 c -3.589,0.028 -6.479,2.961 -6.451,6.55 0.028,3.57 2.932,6.448 6.497,6.449 0.019,0 0.037,0 0.056,-0.001 l 49.75,-0.382 c 9.053,25.168 13.381,50.846 13.395,75.721 4.803,-1.197 9.607,-2.394 14.41,-3.59 l 0,59.912 c 0,5.523 4.477,10 10,10 5.521,0 10,-4.477 10,-10 l 0,-64.896 c 1.11,-0.276 2.222,-0.554 3.332,-0.83 l 0,65.726 c 0,5.523 4.477,10 10,10 5.522,0 10,-4.477 10,-10 l 0,-70.708 c 7.091,-1.767 14.183,-3.533 21.273,-5.3 -13.873,-30.767 -32.511,-57.979 -54.456,-80.894 L 345.621,39.52 Z"
               inkscape:connector-curvature="0" />
            <circle
               style="fill:#cccccc"
               id="ellipse13333"
               cy="83.140999"
               cx="283.784"
               transform="matrix(0.9992,-0.0412,0.0412,0.9992,-3.1845,11.7627)"
               r="22.495001" />
            <path
               style="fill:#cccccc"
               id="path13335"
               d="m 158.022,225.414 c 0.627,0.09 1.243,0.185 1.855,0.283 l -1.472,-1.243 -0.383,0.96 z"
               inkscape:connector-curvature="0" />
            <path
               style="fill:#cccccc"
               id="path13337"
               d="m 158.38,254.861 c 2.2,4.79 7.325,7.809 12.825,7.095 1.687,-0.219 3.249,-0.768 4.631,-1.573 -2.587,-1.135 -4.963,-2.156 -5.771,-2.438 -3.004,-1.042 -6.934,-2.174 -11.685,-3.084 z"
               inkscape:connector-curvature="0" />
            <path
               style="fill:#cccccc"
               id="path13339"
               d="m 165.018,192.08 10.777,9.102 -0.959,-7.395 c -3.329,-0.481 -6.607,-1.044 -9.818,-1.707 z"
               inkscape:connector-curvature="0" />
            <path
               style="fill:#cccccc"
               id="path13341"
               d="m 131.092,214.649 7.098,-54.741 7.318,0 1.107,8.539 c 1.146,-0.453 2.386,-0.703 3.671,-0.703 1.1,0 2.19,0.183 3.238,0.543 6.252,2.143 12.551,3.682 18.626,4.791 l -3.255,-25.108 0,-39.774 c 1.136,0.953 2.381,1.854 3.862,2.621 1.703,0.874 3.796,1.601 6.269,1.644 0.065,0.001 0.128,0.007 0.193,0.007 0.02,0 0.039,0 0.059,0 1.723,0 3.58,-0.402 5.228,-1.196 2.96,-1.424 5.001,-3.788 6.422,-6.282 2.128,-3.798 3.322,-8.26 4.222,-14.234 0.869,-5.969 1.327,-13.452 1.332,-23.01 -0.003,-1.987 -0.023,-4.061 -0.063,-6.22 -0.08,-4.419 -3.725,-7.935 -8.143,-7.855 -4.417,0.08 -7.932,3.726 -7.853,8.143 0.036,2.079 0.058,4.058 0.058,5.933 0.022,13.74 -1.103,22.424 -2.411,26.69 -0.037,0.123 -0.073,0.241 -0.11,0.356 -0.216,-0.225 -0.439,-0.474 -0.661,-0.73 -0.04,-0.046 -0.079,-0.084 -0.119,-0.132 -1.789,-2.05 -3.669,-4.867 -5,-7.097 -0.672,-1.115 -1.218,-2.091 -1.585,-2.77 -0.185,-0.341 -0.325,-0.604 -0.417,-0.777 -0.09,-0.173 -0.112,-0.221 -0.115,-0.221 -0.462,-0.917 -1.082,-1.7 -1.803,-2.346 -1.188,-2.741 -3.914,-4.66 -7.092,-4.66 l -33.553,0 L 86.188,4.013 C 83.987,0.183 79.097,-1.135 75.266,1.066 71.436,3.268 70.117,8.159 72.319,11.989 l 28.108,48.887 c 8.469,4.145 14.155,13.015 13.745,23.02 -0.011,0.267 -0.033,0.53 -0.053,0.794 l 0.684,1.188 0,62.076 -10.41,80.292 c 7.656,-1.78 15.234,-2.987 22.708,-3.621 l 3.991,-9.976 z"
               inkscape:connector-curvature="0" />
            <path
               style="fill:#cccccc"
               id="path13343"
               d="m 118.643,254.947 c -4.51,0.782 -9.073,1.808 -13.685,3.084 1.902,2.083 4.519,3.533 7.534,3.924 3.238,0.42 6.339,-0.464 8.797,-2.232 -0.897,-1.073 -1.643,-2.281 -2.209,-3.603 -0.166,-0.385 -0.307,-0.779 -0.437,-1.173 z"
               inkscape:connector-curvature="0" />
            <circle
               style="fill:#cccccc"
               id="circle13345"
               r="22.5"
               cy="47.860001"
               cx="141.849" />
            <circle
               style="fill:#cccccc"
               id="ellipse13347"
               cy="167.75101"
               cx="262.034"
               transform="matrix(0.8613,-0.508,0.508,0.8613,-48.8891,156.3871)"
               r="22.495001" />
            <path
               style="fill:#cccccc"
               id="path13349"
               d="m 120.646,254.606 c 1.164,3.257 3.654,6.022 7.118,7.408 1.522,0.609 3.094,0.897 4.639,0.897 4.961,0 9.655,-2.975 11.611,-7.861 l 0.727,-1.815 c -1.736,-0.088 -3.529,-0.139 -5.387,-0.14 -6.107,0.003 -12.351,0.509 -18.708,1.511 z"
               inkscape:connector-curvature="0" />
            <path
               style="fill:#cccccc"
               id="path13351"
               d="m 237.149,178.514 c -1.651,-1.572 -4.824,-2.432 -7.818,-2.437 -1.012,-0.233 -2.085,-0.272 -3.172,-0.082 -0.003,0 -0.079,0.014 -0.349,0.056 -1.882,0.302 -11.099,1.638 -23.87,1.638 -13.813,0.008 -31.771,-1.585 -49.064,-7.512 -4.18,-1.432 -8.729,0.799 -10.157,4.98 -1.433,4.18 0.8,8.728 4.98,10.158 19.649,6.709 39.231,8.366 54.242,8.373 5.113,-10e-4 9.694,-0.197 13.572,-0.463 -5.679,9.155 -13.135,15.9 -27.684,20.741 l -27.357,-23.108 c -3.065,-2.588 -7.2,-3.55 -11.091,-2.579 -3.892,0.971 -7.091,3.761 -8.58,7.485 l -11.477,28.691 c 3.353,-0.234 6.686,-0.362 9.991,-0.362 5.995,0.002 11.558,0.393 16.663,1.04 l 1.599,-3.997 6.207,5.243 c 5.209,1.002 9.825,2.24 13.798,3.532 l 0.434,2.225 c -9.244,-3.115 -22.27,-6.036 -38.663,-6.041 -17.115,-0.006 -37.793,3.215 -61.227,12.528 -6.418,2.548 -9.553,9.814 -7.004,16.232 1.945,4.901 6.648,7.89 11.621,7.89 1.535,0 3.096,-0.284 4.611,-0.886 20.609,-8.178 37.992,-10.758 51.998,-10.765 13.816,0.002 24.377,2.537 31.369,4.962 3.492,1.214 6.088,2.401 7.721,3.228 0.816,0.414 1.393,0.739 1.723,0.931 0.162,0.094 0.264,0.156 0.301,0.182 l 0.01,0.004 c 2.96,1.914 6.428,2.408 9.614,1.667 0.942,-0.081 1.904,-0.287 2.858,-0.634 24.814,-9.002 49.304,-18.786 68.662,-36.407 0.168,0.202 0.336,0.403 0.503,0.609 1.854,2.274 3.579,4.767 4.723,7.035 1.169,2.267 1.657,4.25 1.634,5.36 -0.023,0.868 -0.138,1.221 -0.512,1.808 -0.528,0.825 -2.41,2.609 -7.507,4.103 -5.029,1.489 -12.913,2.556 -24.044,2.544 -4.419,0 -8,3.582 -8,8.001 0,4.418 3.581,8.002 8,8.002 16.153,-0.044 27.123,-1.847 35.173,-5.718 3.997,-1.952 7.322,-4.576 9.602,-7.921 2.296,-3.33 3.313,-7.255 3.289,-10.819 -0.03,-5.066 -1.704,-9.45 -3.747,-13.333 -3.114,-5.81 -7.314,-10.691 -10.765,-14.32 -2.106,-2.199 -3.938,-3.902 -5.084,-4.931 -0.202,-0.276 -0.409,-0.529 -0.626,-0.735 -9.033,-8.732 -18.064,-17.465 -27.1,-26.198 z"
               inkscape:connector-curvature="0" />
            <path
               style="fill:#cccccc"
               id="path13353"
               d="M 88.689,107.361 C 77.502,106.9 68.364,98.964 65.877,88.578 65.534,88.473 65.21,88.377 64.9,88.293 63.982,87.574 60.807,84.93 57.782,80.725 54.24,75.802 50.941,68.965 50.939,60.272 c 0.011,-6.504 1.807,-14.24 7.307,-23.48 1.84,-3.083 0.832,-7.073 -2.249,-8.913 -3.084,-1.84 -7.073,-0.832 -8.913,2.25 -6.535,10.926 -9.154,21.146 -9.145,30.144 0,12.49 4.949,22.236 9.753,28.678 2.032,2.726 4.042,4.897 5.72,6.524 C 31.92,118.158 13.653,144.996 0,175.276 c 7.091,1.767 14.183,3.534 21.273,5.3 l 0,70.708 c 0,5.524 4.479,10 10,10 5.523,0 10,-4.476 10,-10 l 0,-65.725 c 1.11,0.277 2.222,0.553 3.332,0.83 l 0,64.895 c 0,5.524 4.479,10 10,10 5.522,0 10,-4.476 10,-10 l 0,-59.912 c 4.804,1.197 9.606,2.394 14.41,3.59 0.009,-16.061 1.824,-32.456 5.535,-48.834 -0.926,-0.746 -1.908,-1.569 -2.976,-2.498 -4.208,-3.7 -9.131,-8.567 -15.056,-14.888 -1.553,-1.658 -2.368,-3.817 -2.295,-6.087 0.074,-2.269 1.027,-4.373 2.682,-5.925 1.582,-1.481 3.646,-2.3 5.813,-2.3 2.34,0 4.6,0.979 6.203,2.686 5.477,5.845 10.14,10.462 13.861,13.729 2.447,2.169 4.195,3.426 5.146,4.055 l -0.683,1.936 c -1.27,-0.795 -3.271,-2.26 -5.785,-4.486 -3.522,-3.093 -8.155,-7.628 -14.001,-13.865 -2.455,-2.615 -6.566,-2.751 -9.186,-0.296 -2.618,2.454 -2.751,6.566 -0.297,9.186 6.038,6.443 10.91,11.232 14.91,14.747 3.972,3.458 6.97,5.686 9.989,7.114 0.046,0.021 0.092,0.047 0.138,0.068 1.592,0.7 3.271,1.289 5.551,1.184 1.125,-0.063 2.404,-0.372 3.574,-1.022 1.171,-0.64 2.16,-1.6 2.813,-2.575 0.006,-0.009 0.01,-0.019 0.016,-0.027 1.431,-2.227 1.548,-4.131 1.581,-5.712 -0.044,-3.21 -0.865,-6.025 -1.864,-9.126 -3.046,-9.068 -8.619,-19.521 -8.688,-19.685 -0.18,-0.34 -0.391,-0.653 -0.619,-0.948 0.013,-0.03 0.023,-0.061 0.036,-0.092 -0.01,0.009 -0.83,-1.567 -2.876,-4.084 -0.927,0.105 -1.866,0.166 -2.821,0.166 -0.34,-10e-4 -0.684,-0.008 -1.027,-0.022 z"
               inkscape:connector-curvature="0" />
            <circle
               style="fill:#cccccc"
               id="ellipse13355"
               cy="82.887001"
               cx="89.696999"
               transform="matrix(0.0412,-0.9992,0.9992,0.0412,3.1851,169.0938)"
               r="22.495001" />
          </g>
        </g>
        <g
           id="g14965">
          <g
             transform="matrix(0.15910687,0,0,0.15910687,124.25535,469.51115)"
             id="g14799">
            <path
               inkscape:connector-curvature="0"
               d="m 195.4669,523.25789 c 2.302,4.524 3.554,6.61 3.727,6.355 0.163,-0.24 -0.629,-2.552 -2.432,-6.923 -10.69,-27.975 -17.065,-57.896 -15.772,-87.258 0.374,-9.482 -0.343,-17.369 -3.117,-17.795 -2.662,-0.427 -5.864,7.593 -5.469,17.729 1.13,30.98 10.124,60.646 23.063,87.892 z"
               id="path14679" />
            <path
               inkscape:connector-curvature="0"
               d="m 116.1919,482.87689 c -8.668,-3.347 -16.609997,-2.578 -16.985997,0.095 -0.413,2.774 6.110997,5.686 14.306997,8.063 25.487,7.246 48.961,22.291 69.228,40.317 3.131,2.942 4.849,4.351 5.116,4.268 0.283,-0.087 -1.058,-1.844 -4.122,-5.274 -18.801,-19.862 -41.062,-37.311 -67.543,-47.469 z"
               id="path14681" />
            <path
               inkscape:connector-curvature="0"
               d="m 175.7279,509.30089 c 3.192,4.296 4.966,6.436 5.289,6.47 0.35,0.038 -0.994,-2.382 -4.142,-7.297 -19.399,-28.356 -44.169,-54.084 -75.58,-70.633 -10.252997,-5.448 -20.069997,-6.124 -20.755997,-3.536 -0.755,2.725 7.193,6.879 17.062,11.286 30.687997,13.475 56.987997,36.925 78.126997,63.71 z"
               id="path14683" />
            <path
               inkscape:connector-curvature="0"
               d="m 159.6389,463.25189 c 1.696,3.87 2.678,5.698 2.897,5.542 0.212,-0.151 -0.293,-2.169 -1.571,-6.035 -7.516,-24.213 -13.398,-49.323 -13.814,-74.128 -0.079,-7.98 -1.357,-14.494 -4.11,-14.826 -2.714,-0.341 -5.355,6.695 -4.463,15.29 2.935,26.138 11.275,50.577 21.061,74.157 z"
               id="path14685" />
            <polygon
               points="125.5,226.01 129.039,227.871 128.363,223.93 131.227,221.139 127.27,220.564 125.5,216.979 123.73,220.564 119.773,221.139 122.637,223.93 121.961,227.871 "
               id="polygon14687"
               transform="translate(72.538903,236.80489)" />
            <polygon
               points="36.337,172.64 37.035,176.576 34.188,179.384 38.149,179.936 39.939,183.51 41.688,179.915 45.642,179.316 42.762,176.543 43.415,172.597 39.886,174.479 "
               id="polygon14689"
               transform="translate(72.538903,236.80489)" />
            <polygon
               points="37.332,140.167 41.167,141.298 39.732,137.566 41.995,134.269 38.001,134.479 35.564,131.31 34.53,135.171 30.762,136.51 34.117,138.688 34.226,142.683 "
               id="polygon14691"
               transform="translate(72.538903,236.80489)" />
            <polygon
               points="18.251,231.595 20,228 23.953,227.401 21.073,224.627 21.727,220.682 18.197,222.564 14.648,220.725 15.347,224.661 12.5,227.469 16.461,228.021 "
               id="polygon14693"
               transform="translate(72.538903,236.80489)" />
            <polygon
               points="7.5,267.5 11.453,266.901 8.573,264.127 9.227,260.182 5.697,262.064 2.148,260.225 2.847,264.161 0,266.969 3.961,267.521 5.751,271.095 "
               id="polygon14695"
               transform="translate(72.538903,236.80489)" />
            <polygon
               points="81.751,295.967 83.5,292.372 87.453,291.773 84.573,289 85.227,285.054 81.697,286.936 78.148,285.097 78.847,289.033 76,291.841 79.961,292.393 "
               id="polygon14697"
               transform="translate(72.538903,236.80489)" />
            <polygon
               points="126.535,162.633 129.005,165.777 129.998,161.904 133.752,160.527 130.375,158.385 130.225,154.39 127.146,156.939 123.299,155.847 124.771,159.565 122.545,162.885 "
               id="polygon14699"
               transform="translate(72.538903,236.80489)" />
            <polygon
               points="98.632,160.414 94.689,159.747 96.558,163.282 94.706,166.825 98.646,166.14 101.442,168.997 102.009,165.039 105.59,163.26 102,161.5 101.416,157.544 "
               id="polygon14701"
               transform="translate(72.538903,236.80489)" />
            <g
               id="g14703"
               transform="translate(72.538903,236.80489)">
              <path
                 id="path14705"
                 d="M 150.906,97.576 C 149.199,80.378 135.028,69.581 120.249,63.18 c -7.088,-3.071 -13.156,-6.224 -16.563,-13.542 -0.63,-1.354 -1.04,-2.801 -1.4,-4.245 -0.18,-0.718 -0.284,-1.655 -0.345,-2.552 0.361,-2.628 0.969,-5.23 1.663,-7.777 C 105.992,26.305 110.028,17.608 115,10 c 1.548,-2.369 -1.503,-7.7 0,-10 -4.831,7.393 -8.588,15.714 -11.133,24.15 -1.893,6.271 -2.366,12.488 -2.366,18.995 0,6.626 0.041,12.965 3.426,18.891 4.149,7.266 12.029,9.524 19.118,12.857 7.794,3.664 15.012,8.742 20.241,15.649 2.266,2.993 3.909,6.399 5.108,9.942 0.551,1.629 0.907,3.316 1.218,5.004 0.114,0.622 0.197,1.25 0.268,1.88 -0.006,0.076 -0.012,0.152 -0.02,0.226 -1.005,10.136 -5.034,19.872 -9.526,28.905 -1.344,2.701 1.313,7.359 0,10 7.765,-15.611 11.299,-31.52 9.572,-48.923 z M 101.86,40.207 c 0.002,-0.375 0.01,-0.44 0,0 l 0,0 z m 49.044,66.785 c -0.344,-5.59 0.129,-2.531 0,0 l 0,0 z"
                 inkscape:connector-curvature="0" />
              <path
                 id="path14707"
                 d="m 214.18,117.666 c 3.203,-7.209 2.597,-16.096 2.187,-23.76 C 215.723,81.825 209.929,70.275 204,60.002 c 1.424,2.466 -1.461,7.468 0,10 4.634,8.028 8.728,16.4 11.028,25.416 0.402,1.578 0.695,3.182 0.949,4.789 0.036,0.228 0.066,0.477 0.092,0.735 -0.264,1.692 -0.669,3.363 -1.213,4.984 -2.426,7.237 -8.084,12.001 -13.745,16.702 -1.438,1.193 -3.362,2.646 -3.703,4.61 -0.439,2.527 -0.079,5.402 -0.064,7.948 0.008,1.39 -0.172,2.78 0.565,4.008 2.351,3.914 8.84,6.047 12.408,8.279 2.005,1.254 5.164,3.021 7.607,5.198 -3.792,2.043 -9.614,2.938 -12.143,3.708 -6.586,2.006 -15.809,5.013 -16.448,13.121 -0.815,10.333 -0.94,21.186 10.145,25.392 4.376,1.66 14.528,1.636 18.701,5.639 -0.478,0.668 -1.034,1.281 -1.621,1.846 -1.954,1.884 -4.625,2.978 -7.134,3.887 -6.098,2.211 -12.616,2.982 -18.706,5.238 -5.38,1.993 -9.29,5.54 -9.578,11.507 -0.246,5.096 -1.135,12.169 1.763,16.748 3.928,6.208 13.474,5.908 19.314,9.32 1.428,0.833 2.608,1.98 3.487,3.375 0.218,0.346 0.39,0.715 0.541,1.093 -1.942,8.35 -6.924,16.296 -11.247,23.454 -1.494,2.475 1.454,7.592 0,10 4.974,-8.235 10.625,-17.36 11.908,-27.1 0.655,-4.982 1.316,-12.349 -0.98,-17.048 -3.553,-7.27 -14.939,-6.373 -20.834,-10.775 -1.318,-0.984 -2.274,-2.299 -2.944,-3.775 0.37,-0.759 0.832,-1.475 1.35,-2.142 3.916,-5.051 11.989,-6.232 17.777,-7.629 5.968,-1.439 13.268,-2.855 17.048,-8.199 1.66,-2.347 1.703,-5.226 1.719,-7.976 0.019,-3.132 0.706,-7.21 -0.545,-10.193 -1.782,-4.251 -9.373,-4.683 -13.143,-5.451 -5.758,-1.173 -11.883,-2.82 -15.183,-8.105 -0.472,-0.757 -0.799,-1.588 -1.064,-2.438 0.821,-1.948 2.425,-3.491 4.091,-4.728 4.276,-3.177 9.85,-4.567 14.878,-6.041 3.714,-1.089 8.48,-1.953 11.365,-4.743 0.708,-0.686 0.918,-1.495 0.983,-2.362 0,-0.001 0,-0.001 0,-0.002 0.035,-0.474 0.029,-0.963 0.035,-1.461 0.033,-2.992 0.634,-6.682 -0.251,-9.594 -1.744,-5.741 -11.092,-9.969 -15.686,-12.659 -1.041,-0.609 -2.681,-1.349 -4.217,-2.277 0.981,-0.756 1.96,-1.435 2.687,-2.037 4.244,-3.513 7.93,-7.516 10.188,-12.598 z m 2.019,-12.748 c -0.004,0.029 -0.007,0.058 -0.01,0.086 -0.004,-0.121 -0.002,-0.521 0.015,-1.308 0.007,0.567 0.001,1.014 -0.005,1.222 z m -9.285,151.104 c 0.247,1.826 0.033,3.62 0,0 l 0,0 z"
                 inkscape:connector-curvature="0" />
            </g>
          </g>
          <g
             transform="matrix(-1,0,0,1,462.27533,-9.2251089)"
             id="g14865">
            <path
               id="path14818"
               d="m 227.17954,554.3026 c 0.36626,0.71979 0.56546,1.05169 0.59299,1.01112 0.0259,-0.0382 -0.10008,-0.40604 -0.38695,-1.1015 -1.70085,-4.45101 -2.71516,-9.21165 -2.50943,-13.88334 0.0595,-1.50866 -0.0546,-2.76353 -0.49594,-2.83131 -0.42354,-0.0679 -0.933,1.2081 -0.87016,2.8208 0.1798,4.92913 1.6108,9.6492 3.66949,13.98423 z"
               inkscape:connector-curvature="0" />
            <path
               id="path14820"
               d="m 214.56634,547.8777 c -1.37914,-0.53253 -2.64277,-0.41018 -2.70259,0.0151 -0.0657,0.44136 0.9723,0.90468 2.27634,1.28287 4.05516,1.15289 7.79003,3.54666 11.01465,6.41472 0.49817,0.46809 0.77151,0.69227 0.81399,0.67906 0.045,-0.0138 -0.16833,-0.29339 -0.65584,-0.83913 -2.99136,-3.16018 -6.53324,-5.93643 -10.74655,-7.55264 z"
               inkscape:connector-curvature="0" />
            <path
               id="path14822"
               d="m 224.03893,552.08194 c 0.50787,0.68352 0.79012,1.02401 0.84151,1.02942 0.0557,0.006 -0.15815,-0.37899 -0.65902,-1.161 -3.08651,-4.51164 -7.02759,-8.60514 -12.0253,-11.2382 -1.63132,-0.86681 -3.19327,-0.97437 -3.30242,-0.5626 -0.12012,0.43357 1.14446,1.0945 2.71468,1.79568 4.88268,2.14397 9.06719,5.87502 12.43055,10.1367 z"
               inkscape:connector-curvature="0" />
            <path
               id="path14824"
               d="m 221.47906,544.75523 c 0.26984,0.61574 0.42608,0.90659 0.46093,0.88177 0.0337,-0.024 -0.0466,-0.3451 -0.24996,-0.96021 -1.19585,-3.85246 -2.13171,-7.84763 -2.1979,-11.79428 -0.0126,-1.26967 -0.21591,-2.30609 -0.65393,-2.35891 -0.43182,-0.0543 -0.85202,1.06522 -0.71009,2.43274 0.46697,4.15874 1.79393,8.04715 3.35095,11.79889 z"
               inkscape:connector-curvature="0" />
            <polygon
               transform="matrix(0.15910687,0,0,0.15910687,207.62085,508.72595)"
               id="polygon14826"
               points="125.5,216.979 123.73,220.564 119.773,221.139 122.637,223.93 121.961,227.871 125.5,226.01 129.039,227.871 128.363,223.93 131.227,221.139 127.27,220.564 " />
            <polygon
               transform="matrix(0.15910687,0,0,0.15910687,207.62085,508.72595)"
               id="polygon14828"
               points="41.688,179.915 45.642,179.316 42.762,176.543 43.415,172.597 39.886,174.479 36.337,172.64 37.035,176.576 34.188,179.384 38.149,179.936 39.939,183.51 " />
            <polygon
               transform="matrix(0.15910687,0,0,0.15910687,207.62085,508.72595)"
               id="polygon14830"
               points="35.564,131.31 34.53,135.171 30.762,136.51 34.117,138.688 34.226,142.683 37.332,140.167 41.167,141.298 39.732,137.566 41.995,134.269 38.001,134.479 " />
            <polygon
               transform="matrix(0.15910687,0,0,0.15910687,207.62085,508.72595)"
               id="polygon14832"
               points="18.197,222.564 14.648,220.725 15.347,224.661 12.5,227.469 16.461,228.021 18.251,231.595 20,228 23.953,227.401 21.073,224.627 21.727,220.682 " />
            <polygon
               transform="matrix(0.15910687,0,0,0.15910687,207.62085,508.72595)"
               id="polygon14834"
               points="2.148,260.225 2.847,264.161 0,266.969 3.961,267.521 5.751,271.095 7.5,267.5 11.453,266.901 8.573,264.127 9.227,260.182 5.697,262.064 " />
            <polygon
               transform="matrix(0.15910687,0,0,0.15910687,207.62085,508.72595)"
               id="polygon14836"
               points="81.697,286.936 78.148,285.097 78.847,289.033 76,291.841 79.961,292.393 81.751,295.967 83.5,292.372 87.453,291.773 84.573,289 85.227,285.054 " />
            <polygon
               transform="matrix(0.15910687,0,0,0.15910687,207.62085,508.72595)"
               id="polygon14838"
               points="130.225,154.39 127.146,156.939 123.299,155.847 124.771,159.565 122.545,162.885 126.535,162.633 129.005,165.777 129.998,161.904 133.752,160.527 130.375,158.385 " />
            <polygon
               transform="matrix(0.15910687,0,0,0.15910687,207.62085,508.72595)"
               id="polygon14840"
               points="101.442,168.997 102.009,165.039 105.59,163.26 102,161.5 101.416,157.544 98.632,160.414 94.689,159.747 96.558,163.282 94.706,166.825 98.646,166.14 " />
            <path
               id="path14844"
               d="m 236.63052,540.85645 c 2.36297,-0.92512 3.30014,-3.29476 3.58977,-5.57054 0.13905,-1.09151 0.33225,-2.04703 1.22593,-2.80676 0.16536,-0.1405 0.35308,-0.25472 0.54244,-0.36199 0.0941,-0.0534 0.2224,-0.10538 0.34681,-0.1498 0.38701,-0.0565 0.78066,-0.0781 1.1701,-0.0858 1.33931,-0.0263 2.73858,0.17486 4.02275,0.5477 0.39987,0.11607 1.02716,-0.51508 1.41538,-0.40238 -1.24787,-0.36224 -2.58229,-0.54047 -3.88243,-0.54856 -0.96652,-0.006 -1.86619,0.1794 -2.78717,0.44123 -0.93783,0.26662 -1.8332,0.5277 -2.5309,1.22799 -0.85537,0.85896 -0.84633,2.0259 -1.02242,3.12809 -0.19355,1.21179 -0.61124,2.4018 -1.37076,3.3938 -0.32913,0.42988 -0.74268,0.79129 -1.19415,1.09759 -0.20757,0.14083 -0.4315,0.25729 -0.65746,0.36769 -0.0834,0.0405 -0.16868,0.0772 -0.25492,0.11221 -0.011,0.003 -0.0221,0.004 -0.0327,0.006 -1.47654,0.27061 -3.02257,0.11219 -4.48842,-0.13777 -0.43835,-0.0749 -0.98682,0.47542 -1.41537,0.40238 2.53338,0.43223 4.93248,0.27468 7.32362,-0.66143 z m 6.07439,-9.00613 c 0.0532,-0.0149 0.0628,-0.016 0,0 l 0,0 z m -7.40718,9.38475 c 0.77685,-0.27189 0.3636,-0.0843 0,0 l 0,0 z"
               inkscape:connector-curvature="0" />
          </g>
          <path
             inkscape:connector-curvature="0"
             d="m 210.72108,535.49362 c 0.007,-0.70399 -0.35657,-1.41074 -0.66125,-2.02421 -0.48013,-0.96711 -1.3634,-1.70855 -2.2126,-2.34058 0.20391,0.15169 0.14445,0.66359 0.35372,0.81938 0.66367,0.49388 1.29527,1.03506 1.80265,1.69245 0.0888,0.11507 0.16948,0.23616 0.24716,0.35884 0.0108,0.0175 0.0224,0.0367 0.0333,0.0571 0.0382,0.14799 0.0642,0.29922 0.0769,0.45128 0.0572,0.6788 -0.23788,1.2693 -0.53545,1.85473 -0.0756,0.14861 -0.18188,0.33573 -0.14035,0.50872 0.0534,0.2226 0.18466,0.44541 0.27563,0.65362 0.0497,0.11367 0.0842,0.2339 0.18805,0.30843 0.33109,0.23755 0.93823,0.18279 1.30954,0.23947 0.20865,0.0318 0.52999,0.0649 0.80717,0.15683 -0.23845,0.30154 -0.68383,0.5808 -0.86382,0.73335 -0.46868,0.39733 -1.11803,0.96997 -0.88359,1.65693 0.29875,0.87548 0.67237,1.76919 1.72944,1.72172 0.41728,-0.0188 1.24827,-0.37985 1.73179,-0.19946 -0.0156,0.0716 -0.0394,0.14155 -0.0675,0.2086 -0.0935,0.22349 -0.27363,0.40761 -0.44706,0.57084 -0.42145,0.39687 -0.92825,0.6906 -1.34745,1.09087 -0.37033,0.35361 -0.56525,0.78255 -0.37777,1.28166 0.16014,0.42623 0.33744,1.03726 0.73687,1.30994 0.54145,0.36973 1.31302,0.007 1.91222,0.0805 0.14646,0.0177 0.28373,0.07 0.40511,0.1532 0.0301,0.0205 0.0572,0.0448 0.083,0.0704 0.13624,0.75288 0.009,1.58019 -0.0919,2.31962 -0.0349,0.25563 0.38768,0.57064 0.35372,0.81938 0.11626,-0.8507 0.25653,-1.79828 0.0171,-2.64175 -0.12261,-0.43136 -0.32899,-1.05839 -0.68336,-1.3622 -0.54829,-0.47 -1.4495,0.006 -2.08823,-0.14593 -0.1428,-0.034 -0.26765,-0.10794 -0.37477,-0.20518 0.003,-0.0752 0.016,-0.15031 0.0349,-0.22326 0.1422,-0.55239 0.76192,-0.93472 1.18677,-1.25393 0.43809,-0.32901 0.98616,-0.70325 1.10685,-1.27484 0.053,-0.25102 -0.0453,-0.48845 -0.14128,-0.71434 -0.10895,-0.25742 -0.1972,-0.61575 -0.40517,-0.81593 -0.29638,-0.28529 -0.93365,-0.0522 -1.26972,0.0182 -0.5133,0.10756 -1.07343,0.18926 -1.53077,-0.12705 -0.0654,-0.0454 -0.12163,-0.10185 -0.17337,-0.16215 -0.002,-0.18866 0.0752,-0.37182 0.16797,-0.53211 0.23799,-0.41157 0.64554,-0.72263 1.00539,-1.02126 0.26579,-0.22061 0.62574,-0.45999 0.76345,-0.79064 0.0338,-0.0812 0.0223,-0.15496 -0.003,-0.2283 -4e-5,-8e-5 -4e-5,-8e-5 -7e-5,-1.6e-4 -0.014,-0.04 -0.0313,-0.0801 -0.0489,-0.1209 -0.10308,-0.24635 -0.18439,-0.56994 -0.35992,-0.77723 -0.34598,-0.40872 -1.26149,-0.4245 -1.73308,-0.48241 -0.10681,-0.013 -0.26738,-0.0157 -0.42607,-0.0374 0.0536,-0.0966 0.10985,-0.18691 0.14812,-0.26195 0.22347,-0.43798 0.38391,-0.89635 0.38917,-1.39263 z m -0.28549,-1.11597 c 8.5e-4,0.003 0.001,0.005 0.002,0.008 -0.005,-0.01 -0.0186,-0.0426 -0.0453,-0.10756 0.0206,0.0462 0.0359,0.083 0.0428,0.10029 z m 4.58412,12.70962 c 0.0848,0.14091 0.1308,0.29543 0,0 l 0,0 z"
             id="path14910" />
          <path
             id="path14929"
             d="m 136.55306,585.99644 c 0.49758,-0.49806 0.73235,-1.25738 0.94392,-1.90884 0.33367,-1.02689 0.22142,-2.17463 0.057,-3.22036 0.0395,0.25105 -0.36111,0.57517 -0.32061,0.83289 0.12858,0.81722 0.20115,1.64579 0.10367,2.47047 -0.0171,0.14434 -0.0442,0.2873 -0.0745,0.4293 -0.005,0.0201 -0.01,0.0419 -0.0162,0.0641 -0.0763,0.13246 -0.1635,0.25869 -0.26082,0.37622 -0.43409,0.52498 -1.05808,0.74038 -1.6803,0.95042 -0.158,0.0533 -0.36485,0.1126 -0.45622,0.26525 -0.11761,0.1964 -0.17973,0.44742 -0.26042,0.65983 -0.044,0.11598 -0.10351,0.22602 -0.0815,0.35193 0.0703,0.40138 0.5424,0.78707 0.76802,1.08737 0.12682,0.16871 0.33323,0.4172 0.46694,0.67683 -0.38135,0.0486 -0.89494,-0.0635 -1.13027,-0.0805 -0.61286,-0.0441 -1.47745,-0.0893 -1.79063,0.56552 -0.39913,0.83451 -0.75754,1.73443 0.0309,2.44015 0.31127,0.27854 1.15758,0.60204 1.37681,1.06923 -0.0612,0.0402 -0.12719,0.0736 -0.19418,0.10181 -0.22318,0.0942 -0.4807,0.0997 -0.71882,0.095 -0.57879,-0.0113 -1.14638,-0.1561 -1.72595,-0.16345 -0.51199,-0.006 -0.95138,0.16357 -1.16667,0.65133 -0.18382,0.41657 -0.48469,0.97717 -0.39012,1.45146 0.12813,0.643 0.93317,0.92372 1.30983,1.3955 0.0923,0.11512 0.15373,0.24853 0.18223,0.3929 0.007,0.0357 0.01,0.072 0.01,0.10838 -0.42945,0.63321 -1.09923,1.13524 -1.6887,1.59291 -0.20379,0.15821 -0.1223,0.67895 -0.32061,0.83289 0.6783,-0.52642 1.44154,-1.10526 1.86066,-1.87539 0.21422,-0.39397 0.50551,-0.98635 0.46491,-1.45135 -0.0628,-0.71943 -1.03977,-1.00993 -1.38979,-1.5654 -0.0782,-0.12421 -0.1157,-0.26439 -0.12419,-0.40881 0.0548,-0.0516 0.1166,-0.0962 0.18115,-0.13509 0.4881,-0.29515 1.19837,-0.13468 1.72525,-0.0655 0.54319,0.0715 1.19661,0.1876 1.68278,-0.13632 0.2135,-0.14225 0.3094,-0.38066 0.39889,-0.6092 0.10228,-0.26015 0.28995,-0.5779 0.28144,-0.86643 -0.0121,-0.4112 -0.63051,-0.69057 -0.91987,-0.87542 -0.44198,-0.28232 -0.89932,-0.61587 -1.00474,-1.16186 -0.015,-0.0782 -0.0156,-0.15787 -0.0104,-0.23715 0.13057,-0.13618 0.31389,-0.21302 0.49232,-0.26263 0.458,-0.12752 0.96682,-0.0646 1.43286,-0.0262 0.34425,0.0284 0.76891,0.1092 1.09865,-0.0307 0.081,-0.0344 0.12436,-0.0951 0.1576,-0.16521 3e-5,-8e-5 3e-5,-8e-5 6e-5,-1.6e-4 0.018,-0.0384 0.0337,-0.0791 0.0497,-0.12059 0.0987,-0.24813 0.26705,-0.5362 0.28669,-0.80712 0.0388,-0.53408 -0.60423,-1.18594 -0.90063,-1.55729 -0.0672,-0.084 -0.18004,-0.1983 -0.27823,-0.32484 0.10588,-0.0315 0.20926,-0.0567 0.28911,-0.0835 0.46611,-0.15654 0.90145,-0.37176 1.25246,-0.72264 z m 0.57688,-0.99705 c -0.001,0.003 -0.003,0.004 -0.004,0.007 0.003,-0.0106 0.0165,-0.0435 0.0429,-0.10854 -0.0176,0.0474 -0.0324,0.0844 -0.0396,0.1016 z m -5.61788,12.28772 c -0.038,0.16 -0.11327,0.30259 0,0 l 0,0 z"
             inkscape:connector-curvature="0" />
          <path
             inkscape:connector-curvature="0"
             d="m 243.36481,585.74976 c 0.39802,-0.58072 0.48985,-1.37018 0.57862,-2.04936 0.14009,-1.07061 -0.18033,-2.17842 -0.53336,-3.17639 0.0848,0.23958 -0.24974,0.63154 -0.16276,0.8775 0.27598,0.77988 0.49897,1.58117 0.55407,2.40976 0.01,0.14503 0.009,0.29054 0.005,0.43569 -10e-4,0.0207 -0.002,0.043 -0.004,0.066 -0.0508,0.14419 -0.11339,0.28424 -0.18755,0.4176 -0.33068,0.59556 -0.90471,0.92152 -1.47798,1.2419 -0.14557,0.0813 -0.33807,0.17747 -0.39996,0.34426 -0.0797,0.21461 -0.0948,0.47276 -0.13526,0.69635 -0.022,0.12207 -0.0604,0.24115 -0.0157,0.3609 0.14257,0.38174 0.67728,0.67451 0.95405,0.92844 0.15556,0.14265 0.40396,0.34917 0.58293,0.57994 -0.36601,0.11757 -0.89144,0.10137 -1.12591,0.12772 -0.61058,0.0688 -1.46884,0.18262 -1.65688,0.88369 -0.23966,0.89347 -0.42731,1.84378 0.47697,2.39328 0.357,0.21687 1.24822,0.38001 1.54925,0.79919 -0.0528,0.0507 -0.11157,0.0956 -0.17227,0.13563 -0.20217,0.13345 -0.45433,0.18599 -0.68929,0.22495 -0.57108,0.0948 -1.15558,0.0564 -1.72671,0.1552 -0.50444,0.0878 -0.90537,0.33493 -1.02776,0.85385 -0.10447,0.44318 -0.29766,1.04937 -0.11788,1.49834 0.24365,0.60869 1.08647,0.73733 1.54311,1.13221 0.11181,0.0963 0.19662,0.21619 0.25106,0.35291 0.0134,0.0338 0.023,0.0689 0.0297,0.10472 -0.3063,0.70111 -0.87289,1.31724 -1.36864,1.87507 -0.17139,0.19283 0.004,0.68986 -0.16276,0.8775 0.5705,-0.64167 1.21491,-1.35043 1.486,-2.18425 0.13849,-0.42653 0.31645,-1.06221 0.19143,-1.51193 -0.19341,-0.69578 -1.20705,-0.80257 -1.65282,-1.2846 -0.0996,-0.1078 -0.16213,-0.23875 -0.19691,-0.37917 0.0444,-0.0608 0.097,-0.11592 0.15336,-0.16596 0.42584,-0.3795 1.15348,-0.35174 1.68413,-0.38016 0.5471,-0.0291 1.21073,-0.0346 1.6294,-0.442 0.18386,-0.17892 0.23451,-0.43085 0.28066,-0.67191 0.0529,-0.27448 0.17928,-0.62121 0.11811,-0.90331 -0.0871,-0.40204 -0.74625,-0.56351 -1.06455,-0.69227 -0.48619,-0.19666 -0.99685,-0.44088 -1.20042,-0.95835 -0.0291,-0.0741 -0.0442,-0.15235 -0.0536,-0.23124 0.10345,-0.15778 0.26961,-0.26687 0.43594,-0.3483 0.42693,-0.20919 0.93867,-0.24046 1.40386,-0.288 0.34364,-0.0351 0.77591,-0.0334 1.07448,-0.23126 0.0733,-0.0486 0.10485,-0.11625 0.1247,-0.19126 1e-5,-9e-5 1e-5,-9e-5 3e-5,-1.7e-4 0.0107,-0.0411 0.0186,-0.0839 0.0268,-0.12765 0.0516,-0.262 0.1644,-0.57602 0.13413,-0.84596 -0.0596,-0.53216 -0.81108,-1.05532 -1.17044,-1.36615 -0.0814,-0.0703 -0.21329,-0.162 -0.33298,-0.26843 0.0983,-0.0503 0.19535,-0.094 0.26894,-0.135 0.42959,-0.23921 0.81819,-0.53047 1.09905,-0.93966 z m 0.38465,-1.08579 c -4.3e-4,0.003 -0.002,0.004 -0.003,0.008 10e-4,-0.011 0.008,-0.0458 0.0223,-0.11456 -0.009,0.0498 -0.0164,0.0889 -0.0203,0.10713 z m -3.27407,13.10836 c -0.008,0.16425 -0.056,0.31821 0,0 l 0,0 z"
             id="path14931" />
          <path
             id="path14963"
             d="m 189.74841,592.65758 c 0.30517,-0.44525 0.37558,-1.05054 0.44364,-1.57128 0.10741,-0.82086 -0.13826,-1.67024 -0.40893,-2.43541 0.065,0.1837 -0.19148,0.48422 -0.1248,0.6728 0.2116,0.59795 0.38257,1.21232 0.42482,1.84761 0.008,0.1112 0.007,0.22276 0.004,0.33405 -7.6e-4,0.0159 -0.002,0.033 -0.003,0.0506 -0.0389,0.11055 -0.0869,0.21793 -0.1438,0.32018 -0.25354,0.45663 -0.69366,0.70655 -1.1332,0.95219 -0.11161,0.0623 -0.2592,0.13607 -0.30665,0.26395 -0.0611,0.16455 -0.0727,0.36247 -0.10371,0.53391 -0.0169,0.0936 -0.0463,0.18489 -0.012,0.2767 0.10931,0.29269 0.51929,0.51717 0.73149,0.71186 0.11927,0.10937 0.30972,0.26771 0.44694,0.44465 -0.28062,0.0901 -0.68348,0.0777 -0.86325,0.0979 -0.46815,0.0527 -1.12619,0.14001 -1.27037,0.67754 -0.18375,0.68504 -0.32762,1.41366 0.36571,1.83497 0.27372,0.16628 0.95703,0.29136 1.18784,0.61276 -0.0405,0.0389 -0.0855,0.0733 -0.13209,0.10399 -0.155,0.10232 -0.34834,0.1426 -0.52849,0.17247 -0.43786,0.0727 -0.886,0.0433 -1.3239,0.119 -0.38677,0.0673 -0.69417,0.25679 -0.788,0.65466 -0.0801,0.3398 -0.22823,0.80457 -0.0904,1.14881 0.18682,0.46669 0.83302,0.56532 1.18314,0.86809 0.0857,0.0738 0.15075,0.16575 0.19249,0.27058 0.0103,0.0259 0.0176,0.0528 0.0228,0.0803 -0.23484,0.53755 -0.66926,1.00995 -1.04936,1.43765 -0.13141,0.14785 0.003,0.52893 -0.12479,0.6728 0.43741,-0.49198 0.93149,-1.0354 1.13934,-1.67471 0.10619,-0.32703 0.24263,-0.81442 0.14678,-1.15922 -0.1483,-0.53347 -0.92547,-0.61535 -1.26725,-0.98493 -0.0764,-0.0827 -0.12431,-0.18306 -0.15098,-0.29072 0.034,-0.0466 0.0744,-0.0889 0.11759,-0.12725 0.32649,-0.29097 0.88439,-0.26968 1.29125,-0.29147 0.41947,-0.0223 0.92829,-0.0265 1.24929,-0.33889 0.14097,-0.13718 0.17981,-0.33034 0.21519,-0.51517 0.0406,-0.21045 0.13746,-0.47629 0.0906,-0.69258 -0.0668,-0.30826 -0.57217,-0.43206 -0.81621,-0.53078 -0.37277,-0.15078 -0.76431,-0.33803 -0.92039,-0.73479 -0.0223,-0.0568 -0.0339,-0.11681 -0.0411,-0.17729 0.0793,-0.12098 0.20671,-0.20462 0.33424,-0.26705 0.32734,-0.16039 0.7197,-0.18437 1.07637,-0.22082 0.26347,-0.0269 0.5949,-0.0256 0.82382,-0.17731 0.0562,-0.0373 0.0804,-0.0891 0.0956,-0.14664 1e-5,-7e-5 1e-5,-7e-5 2e-5,-1.3e-4 0.008,-0.0315 0.0143,-0.0643 0.0206,-0.0979 0.0396,-0.20088 0.12605,-0.44165 0.10284,-0.64862 -0.0457,-0.40802 -0.62187,-0.80913 -0.8974,-1.04745 -0.0624,-0.0539 -0.16353,-0.12421 -0.2553,-0.20581 0.0754,-0.0386 0.14978,-0.0721 0.2062,-0.10351 0.32938,-0.18341 0.62733,-0.40672 0.84267,-0.72046 z m 0.29492,-0.8325 c -3.3e-4,0.002 -0.002,0.003 -0.002,0.006 7.7e-4,-0.008 0.006,-0.0351 0.0171,-0.0878 -0.007,0.0382 -0.0126,0.0682 -0.0156,0.0821 z m -2.51029,10.05044 c -0.006,0.12594 -0.0429,0.24398 0,0 l 0,0 z"
             inkscape:connector-curvature="0" />
        </g>
      </g>
    </g>
  </g>
</svg>
