<?xml version="1.0" encoding="UTF-8" standalone="no"?>
<svg
   xmlns:dc="http://purl.org/dc/elements/1.1/"
   xmlns:cc="http://creativecommons.org/ns#"
   xmlns:rdf="http://www.w3.org/1999/02/22-rdf-syntax-ns#"
   xmlns:svg="http://www.w3.org/2000/svg"
   xmlns="http://www.w3.org/2000/svg"
   xmlns:sodipodi="http://sodipodi.sourceforge.net/DTD/sodipodi-0.dtd"
   xmlns:inkscape="http://www.inkscape.org/namespaces/inkscape"
   version="1.1"
   x="0px"
   y="0px"
   viewBox="0 0 150 150"
   enable-background="new 0 0 100 100"
   xml:space="preserve"
   id="svg3555"
   inkscape:version="0.91 r13725"
   sodipodi:docname="Papers.svg"
   width="150"
   height="150"><metadata
     id="metadata3593"><rdf:RDF><cc:Work
         rdf:about=""><dc:format>image/svg+xml</dc:format><dc:type
           rdf:resource="http://purl.org/dc/dcmitype/StillImage" /><dc:title /></cc:Work></rdf:RDF></metadata><defs
     id="defs3591"><filter
       inkscape:collect="always"
       style="color-interpolation-filters:sRGB"
       id="filter6872"
       x="-0.07125"
       width="1.1425"
       y="-0.051818182"
       height="1.1036364"><feGaussianBlur
         inkscape:collect="always"
         stdDeviation="1.9"
         id="feGaussianBlur6874" /></filter></defs><sodipodi:namedview
     pagecolor="#ffffff"
     bordercolor="#666666"
     borderopacity="1"
     objecttolerance="10"
     gridtolerance="10"
     guidetolerance="10"
     inkscape:pageopacity="0"
     inkscape:pageshadow="2"
     inkscape:window-width="1366"
     inkscape:window-height="713"
     id="namedview3589"
     showgrid="false"
     showborder="false"
     inkscape:zoom="2.8284271"
     inkscape:cx="56.371537"
     inkscape:cy="74.843885"
     inkscape:window-x="0"
     inkscape:window-y="27"
     inkscape:window-maximized="1"
     inkscape:current-layer="svg3555"
     showguides="true"
     inkscape:guide-bbox="true"
     fit-margin-top="0"
     fit-margin-left="0"
     fit-margin-right="0"
     fit-margin-bottom="0" /><g
     id="g6902"><rect
       ry="0"
       rx="0"
       style="opacity:1;fill:#333333;fill-opacity:1;stroke:none;stroke-width:6.79094839;stroke-linecap:round;stroke-linejoin:round;stroke-miterlimit:4;stroke-dasharray:none;stroke-dashoffset:0;stroke-opacity:1"
       id="rect5453"
       width="150"
       height="150"
       x="-5.0000076"
       y="5.0000091" /><g
       id="g6876"><g
         style="fill:#cccccc;filter:url(#filter6872)"
         transform="matrix(1.15625,0,0,1.15625,219.15624,28.598915)"
         id="g6044"><path
           style="fill:#cccccc"
           inkscape:connector-curvature="0"
           d="m -98,0.455 -11,0 -8,0 -43,0 c -0.552,0 -1,0.448 -1,1 l 0,86 c 0,0.552 0.448,1 1,1 l 62,0 c 0.552,0 1,-0.448 1,-1 l 0,-86 c 0,-0.552 -0.448,-1 -1,-1 z m -1,86 -60,0 0,-84 42,0 0,17.5 -36,0 0,1 36,0 0,3 -36,0 0,1 36,0 0,3 -36,0 0,1 36,0 0,3 -36,0 0,1 36,0 0,11 -7.2,0 0,1 7.2,0 0,3 -7.2,0 0,1 7.2,0 0,3 -7.2,0 0,1 7.2,0 0,3 -7.2,0 0,1 7.2,0 0,11.5 4,-4 4,4 0,-11.5 4,0 0,-1 -4,0 0,-3 4,0 0,-1 -4,0 0,-3 4,0 0,-1 -4,0 0,-3 4,0 0,-1 -4,0 0,-11 4,0 0,-1 -4,0 0,-3 4,0 0,-1 -4,0 0,-3 4,0 0,-1 -4,0 0,-3 4,0 0,-1 -4,0 0,-17.5 10,0 0,84 z"
           id="path6046" /><rect
           style="fill:#cccccc"
           x="-153"
           y="11.455"
           width="24"
           height="2"
           id="rect6048" /><rect
           style="fill:#cccccc"
           x="-153"
           y="35.955002"
           width="32"
           height="1"
           id="rect6050" /><rect
           style="fill:#cccccc"
           x="-153"
           y="43.955002"
           width="24"
           height="1"
           id="rect6052" /><rect
           style="fill:#cccccc"
           x="-153"
           y="47.955002"
           width="24"
           height="1"
           id="rect6054" /><rect
           style="fill:#cccccc"
           x="-153"
           y="51.955002"
           width="24"
           height="1"
           id="rect6056" /><rect
           style="fill:#cccccc"
           x="-153"
           y="55.955002"
           width="24"
           height="1"
           id="rect6058" /><rect
           style="fill:#cccccc"
           x="-153"
           y="59.955002"
           width="24"
           height="1"
           id="rect6060" /><rect
           style="fill:#cccccc"
           x="-153"
           y="63.955002"
           width="24"
           height="1"
           id="rect6062" /><rect
           style="fill:#cccccc"
           x="-153"
           y="67.955002"
           width="24"
           height="1"
           id="rect6064" /><rect
           style="fill:#cccccc"
           x="-153"
           y="71.955002"
           width="12"
           height="1"
           id="rect6066" /></g><g
         id="g6031"
         transform="matrix(1.15625,0,0,1.15625,219.15624,28.598915)"
         style="fill:#cccccc"><path
           id="path5971"
           d="m -98,0.455 -11,0 -8,0 -43,0 c -0.552,0 -1,0.448 -1,1 l 0,86 c 0,0.552 0.448,1 1,1 l 62,0 c 0.552,0 1,-0.448 1,-1 l 0,-86 c 0,-0.552 -0.448,-1 -1,-1 z m -1,86 -60,0 0,-84 42,0 0,17.5 -36,0 0,1 36,0 0,3 -36,0 0,1 36,0 0,3 -36,0 0,1 36,0 0,3 -36,0 0,1 36,0 0,11 -7.2,0 0,1 7.2,0 0,3 -7.2,0 0,1 7.2,0 0,3 -7.2,0 0,1 7.2,0 0,3 -7.2,0 0,1 7.2,0 0,11.5 4,-4 4,4 0,-11.5 4,0 0,-1 -4,0 0,-3 4,0 0,-1 -4,0 0,-3 4,0 0,-1 -4,0 0,-3 4,0 0,-1 -4,0 0,-11 4,0 0,-1 -4,0 0,-3 4,0 0,-1 -4,0 0,-3 4,0 0,-1 -4,0 0,-3 4,0 0,-1 -4,0 0,-17.5 10,0 0,84 z"
           inkscape:connector-curvature="0"
           style="fill:#cccccc" /><rect
           id="rect5973"
           height="2"
           width="24"
           y="11.455"
           x="-153"
           style="fill:#cccccc" /><rect
           id="rect5975"
           height="1"
           width="32"
           y="35.955002"
           x="-153"
           style="fill:#cccccc" /><rect
           id="rect5977"
           height="1"
           width="24"
           y="43.955002"
           x="-153"
           style="fill:#cccccc" /><rect
           id="rect5979"
           height="1"
           width="24"
           y="47.955002"
           x="-153"
           style="fill:#cccccc" /><rect
           id="rect5981"
           height="1"
           width="24"
           y="51.955002"
           x="-153"
           style="fill:#cccccc" /><rect
           id="rect5983"
           height="1"
           width="24"
           y="55.955002"
           x="-153"
           style="fill:#cccccc" /><rect
           id="rect5985"
           height="1"
           width="24"
           y="59.955002"
           x="-153"
           style="fill:#cccccc" /><rect
           id="rect5987"
           height="1"
           width="24"
           y="63.955002"
           x="-153"
           style="fill:#cccccc" /><rect
           id="rect5989"
           height="1"
           width="24"
           y="67.955002"
           x="-153"
           style="fill:#cccccc" /><rect
           id="rect5991"
           height="1"
           width="12"
           y="71.955002"
           x="-153"
           style="fill:#cccccc" /></g></g></g></svg>