<?xml version="1.0" encoding="UTF-8" standalone="no"?>
<!-- Created with Inkscape (http://www.inkscape.org/) -->

<svg
   xmlns:dc="http://purl.org/dc/elements/1.1/"
   xmlns:cc="http://creativecommons.org/ns#"
   xmlns:rdf="http://www.w3.org/1999/02/22-rdf-syntax-ns#"
   xmlns:svg="http://www.w3.org/2000/svg"
   xmlns="http://www.w3.org/2000/svg"
   xmlns:sodipodi="http://sodipodi.sourceforge.net/DTD/sodipodi-0.dtd"
   xmlns:inkscape="http://www.inkscape.org/namespaces/inkscape"
   width="42.333332mm"
   height="42.333332mm"
   viewBox="0 0 149.99999 150"
   id="svg4759"
   version="1.1"
   inkscape:version="0.91 r13725"
   sodipodi:docname="Philosophy.svg">
  <defs
     id="defs4761">
    <filter
       inkscape:collect="always"
       style="color-interpolation-filters:sRGB"
       id="filter4510"
       x="-0.074321555"
       width="1.1486431"
       y="-0.050306147"
       height="1.1006123">
      <feGaussianBlur
         inkscape:collect="always"
         stdDeviation="2.767473"
         id="feGaussianBlur4512" />
    </filter>
  </defs>
  <sodipodi:namedview
     id="base"
     pagecolor="#ffffff"
     bordercolor="#666666"
     borderopacity="1.0"
     inkscape:pageopacity="0.0"
     inkscape:pageshadow="2"
     inkscape:zoom="2"
     inkscape:cx="99.729082"
     inkscape:cy="55.246945"
     inkscape:document-units="px"
     inkscape:current-layer="layer1"
     showgrid="false"
     fit-margin-top="0"
     fit-margin-left="0"
     fit-margin-right="0"
     fit-margin-bottom="0"
     inkscape:window-width="1366"
     inkscape:window-height="713"
     inkscape:window-x="0"
     inkscape:window-y="27"
     inkscape:window-maximized="1"
     showborder="false"
     showguides="true"
     inkscape:guide-bbox="true" />
  <metadata
     id="metadata4764">
    <rdf:RDF>
      <cc:Work
         rdf:about="">
        <dc:format>image/svg+xml</dc:format>
        <dc:type
           rdf:resource="http://purl.org/dc/dcmitype/StillImage" />
        <dc:title></dc:title>
      </cc:Work>
    </rdf:RDF>
  </metadata>
  <g
     inkscape:label="Layer 1"
     inkscape:groupmode="layer"
     id="layer1"
     transform="translate(-263.37482,-945.53693)">
    <g
       transform="matrix(1.5,0,0,1.5,-648.23515,1165.7004)"
       id="g5617">
      <g
         id="g5597" />
    </g>
    <g
       id="g4528">
      <rect
         ry="0"
         rx="0"
         style="opacity:1;fill:#333333;fill-opacity:1;stroke:none;stroke-width:6.79094839;stroke-linecap:round;stroke-linejoin:round;stroke-miterlimit:4;stroke-dasharray:none;stroke-dashoffset:0;stroke-opacity:1"
         id="rect5453"
         width="150"
         height="150"
         x="263.37482"
         y="945.53693" />
      <g
         transform="translate(6.0007425,-0.82185378)"
         id="g4514">
        <g
           style="fill:#ffffff;filter:url(#filter4510)"
           transform="matrix(0.78328209,0,0,0.78328209,205.04542,200.82997)"
           id="g3698">
          <g
             transform="matrix(1.7707725,0,0,1.7707725,60.189075,945.86531)"
             style="fill:#ffffff"
             id="g3700">
            <path
               inkscape:connector-curvature="0"
               id="path3702"
               d="m 55.486576,47.673321 0.464994,-0.611992 0.468994,-0.601993 0.481994,-0.594992 3.094961,8.663891 2.149973,0 0.068,0.088 0.068,0.087 0.069,0.087 0.068,0.084 0.071,0.083 0.073,0.079 0.075,0.079 0.076,0.08 0.076,0.08 0.079,0.075 0.08,0.075 0.082,0.073 0.083,0.072 0.084,0.071 0.083,0.067 0.088,0.069 0.087,0.064 0.087,0.068 0.09,0.061 0.091,0.061 0.091,0.06 0.09,0.06 0.096,0.058 0.094,0.053 0.095,0.053 0.098,0.054 0.099,0.047 0.094,0.05 0.102999,0.045 0.098,0.046 0.098,0.046 0.101999,0.041 0.102999,0.038 0.101998,0.037 0.105999,0.038 0.101999,0.034 0.106999,0.031 0.103998,0.033 0.102999,0.027 0.105999,0.027 0.106998,0.026 0.108999,0.023 0.105999,0.023 0.109998,0.018 0.105999,0.016 0.108999,0.019 0.105998,0.011 0.109999,0.016 0.109998,0.008 0.109999,0.007 0.108999,0.007 0.109998,0.003 0.109999,0.004 0.105999,0 0.109998,0 0.108999,-0.004 0.110999,-0.007 0.109998,-0.006 0.108999,-0.008 0.109998,-0.013 0.105999,-0.011 0.108999,-0.015 0.105998,-0.015 0.109999,-0.018 0.105999,-0.023 0.109998,-0.02 0.105999,-0.027 0.105999,-0.022 0.104998,-0.03 0.105999,-0.03 0.106999,-0.031 0.102998,-0.034 0.104999,-0.033 0.101999,-0.039 0.101999,-0.038 0.101998,-0.042 0.099,-0.041 0.101999,-0.042 0.098,-0.044 0.099,-0.049 0.098,-0.05 0.098,-0.049 0.095,-0.053 0.095,-0.053 0.094,-0.057 0.095,-0.057 0.091,-0.061 0.091,-0.061 0.09,-0.059 0.091,-0.065 0.088,-0.064 0.087,-0.069 0.083,-0.068 0.086,-0.067 0.08,-0.073 0.083,-0.071 0.08,-0.076 0.08,-0.075 0.08,-0.076 0.075,-0.08 0.075,-0.08 0.076,-0.08 0.072,-0.083 0.072,-0.083 0.257996,-0.309996 3.344959,0 0.049,0 0.05,0.004 0.049,0 0.045,0.004 0.049,0.004 0.049,0.003 0.051,0.004 0.045,0.007 0.048,0.009 0.045,0.008 0.049,0.007 0.047,0.01 0.049,0.012 0.045,0.012 0.051,0.011 0.042,0.011 0.047,0.016 0.045,0.015 0.047,0.014 0.049,0.016 0.041,0.015 0.045,0.019 0.045,0.019 0.047,0.019 0.041,0.019 0.045,0.022 0.043,0.019 0.045,0.023 0.041,0.024 0.041,0.025 0.043,0.022 0.041,0.028 0.043,0.025 0.037,0.027 0.041,0.027 0.037,0.026 0.043,0.03 0.037,0.031 0.039,0.03 0.037,0.026 0.033,0.034 0.037,0.031 0.035,0.035 0.04,0.029 0.033,0.034 0.033,0.039 0.031,0.034 0.035,0.033 0.034,0.038 0.031,0.035 0.029,0.037 0.029,0.038 0.032,0.037 0.025,0.043 0.031,0.037 0.028,0.039 0.025,0.041 0.027,0.042 0.026,0.041 0.023,0.041 0.026,0.042 0.023,0.042 0.022,0.042 0.019,0.041 0.023,0.047 0.02,0.044 0.018,0.042 0.019,0.044 0.02,0.046 0.017,0.046 0.016,0.045 0.015,0.046 0.014,0.045 0.016,0.046 0.012,0.049 0.011,0.045 0.012,0.045 0.01,0.049 0.013,0.046 0.006,0.049 0.008,0.045 0.008,0.05 0.008,0.049 0.004,0.045 0.007,0.05 0.004,0.049 0,0.046 0.004,0.049 0,0.049 0.002,0.049 0,0.049 -0.002,0.046 0,0.049 -0.004,0.049 -0.004,0.046 -0.004,0.049 -0.003,0.048 -0.008,0.046 -0.008,0.05 -0.008,0.05 -0.008,0.045 -0.006,0.049 -0.013,0.046 -0.01,0.048 -0.012,0.046 -0.013,0.045 -0.014,0.049 -0.014,0.046 -0.015,0.045 -0.016,0.046 -0.014,0.045 -0.019,0.045 -0.02,0.043 -0.019,0.044 -0.018,0.045 -0.023,0.045 -0.02,0.043 -0.021,0.041 -0.024,0.046 -0.023,0.041 -0.026,0.042 -0.023,0.042 -0.025,0.037 -0.028,0.042 -0.025,0.041 -0.031,0.038 -0.028,0.039 -0.029,0.042 -0.031,0.037 -0.03,0.035 -0.029,0.036 -0.031,0.039 -0.033,0.034 -0.035,0.037 -0.03,0.035 -0.039,0.034 -0.033,0.034 -0.033,0.029 -0.039,0.035 -0.033,0.031 -0.04,0.03 -0.037,0.03 -0.039,0.029 -0.037,0.032 -0.039,0.027 -0.041,0.029 -0.037,0.028 -0.041,0.026 -0.043,0.025 -0.045,-0.075 -0.045,-0.072 -0.049,-0.072 -0.048,-0.068 -0.049,-0.068 -0.055,-0.071 -0.053,-0.069 -0.052,-0.065 -0.057,-0.068 -0.057,-0.064 -0.056,-0.064 -0.059,-0.06 -0.061,-0.064 -0.058,-0.062 -0.061,-0.057 -0.064,-0.06 -0.061,-0.057 -0.068,-0.056 -0.064,-0.057 -0.065,-0.053 -0.068,-0.054 -0.069,-0.052 -0.072,-0.049 -0.068,-0.05 -0.073,-0.049 -0.07,-0.045 -0.072,-0.049 -0.072,-0.042 -0.077,-0.045 -0.074,-0.041 -0.076,-0.042 -0.076,-0.038 -0.076,-0.039 -0.079,-0.038 -0.08,-0.033 -0.075,-0.034 -0.08,-0.035 -0.079,-0.03 -0.083,-0.03 -0.079,-0.027 -0.084,-0.026 -0.08,-0.027 -0.083,-0.022 -0.084,-0.024 -0.084,-0.021 -0.082,-0.02 -0.083,-0.019 -0.088,-0.019 -0.082,-0.015 -0.083,-0.01 -0.087,-0.016 -0.083,-0.008 -0.088,-0.011 -0.083,-0.008 -0.088,-0.008 -0.083,-0.003 -0.087,-0.004 -0.087,-0.003 -0.086,0 -0.084,0 -0.087,0.003 -0.088,0.004 -0.082,0.003 -0.088,0.008 -0.082,0.008 -0.088,0.011 -0.083,0.012 -0.087,0.012 -0.084,0.014 -0.083,0.015 -0.086,0.019 -0.084,0.019 -0.082,0.02 -0.084,0.017 -0.084,0.028 -0.079,0.022 -8.383895,2.558968 -3.511956,0 -0.087,0 -0.087,-0.004 -0.083,-0.004 -0.088,-0.004 -0.087,-0.007 -0.087,-0.008 -0.083,-0.008 -0.087,-0.01 -0.083,-0.016 -0.087,-0.012 -0.087,-0.014 -0.083,-0.02 -0.083,-0.017 -0.087,-0.02 -0.084,-0.023 -0.084,-0.023 -0.083,-0.025 -0.079,-0.024 -0.084,-0.026 -0.083,-0.03 -0.079,-0.031 -0.079,-0.03 -0.084,-0.034 -0.075,-0.034 -0.08,-0.033 -0.079,-0.039 -0.076,-0.038 -0.08,-0.043 -0.076,-0.037 -0.075,-0.045 -0.075,-0.042 -0.072,-0.044 -0.073,-0.046 -0.072,-0.049 -0.075,-0.046 -0.069,-0.053 -0.071,-0.049 -0.069,-0.053 -0.068,-0.053 -0.064,-0.053 -0.068,-0.057 -0.064,-0.056 -0.065,-0.061 -0.064,-0.057 -0.061,-0.061 -0.06,-0.06 -0.061,-0.065 -0.06,-0.059 -0.057,-0.065 -0.056,-0.068 -0.058,-0.065 -0.053,-0.068 -0.053,-0.068 -0.053,-0.068 -0.048,-0.072 -0.05,-0.067 -0.049,-0.073 -0.05,-0.076 -0.045,-0.071 -0.042,-0.072 -0.044,-0.077 -0.043,-0.076 -0.041,-0.075 -0.038,-0.08 -0.037,-0.075 -0.038,-0.079 -0.035,-0.08 -0.034,-0.08 -0.033,-0.079 -0.031,-0.079 -0.031,-0.084 -1.880977,-5.267934 0.397995,-0.654992 0.408995,-0.646992 0.419995,-0.639992 0.430995,-0.631992 0.438994,-0.623992 z"
               style="fill:#ffffff;fill-opacity:1" />
            <path
               inkscape:connector-curvature="0"
               id="path3704"
               d="m 76.542312,62.699133 0.006,-0.064 0.004,-0.064 0.008,-0.065 0.004,-0.063 0,-0.065 0.004,-0.065 0,-0.064 0,-0.064 -0.004,-0.064 0,-0.065 -0.008,-0.064 -0.004,-0.065 -0.008,-0.064 -0.006,-0.065 -0.008,-0.063 -0.007,-0.065 -0.012,-0.065 -0.012,-0.064 -0.015,-0.06 -0.012,-0.064 -0.014,-0.06 -0.019,-0.066 -0.016,-0.06 -0.02,-0.064 -0.017,-0.061 -0.024,-0.06 -0.017,-0.061 -0.024,-0.061 -0.023,-0.06 -0.025,-0.061 -0.028,-0.056 -0.025,-0.061 -0.027,-0.057 -0.03,-0.056 -0.031,-0.058 -0.029,-0.059 -0.032,-0.054 -0.033,-0.056 -0.035,-0.057 -0.033,-0.053 -0.039,-0.053 -0.033,-0.054 -0.037,-0.052 -0.04,-0.053 -0.041,-0.05 -0.037,-0.053 -0.043,-0.048 -0.041,-0.05 -0.047,-0.045 -0.041,-0.049 -0.044,-0.046 -0.045,-0.049 -0.045,-0.046 -0.047,-0.041 -0.049,-0.047 -0.045,-0.041 -0.049,-0.041 -0.052,-0.042 -0.051,-0.041 -0.053,-0.038 -0.049,-0.038 -0.053,-0.038 -0.053,-0.038 -0.053,-0.033 -0.057,-0.035 -0.053,-0.033 -0.057,-0.035 -0.056,-0.03 -0.058,-0.03 -0.055,-0.03 -0.057,-0.031 -0.061,-0.026 -0.057,-0.027 -0.06,-0.026 -0.061,-0.027 -0.056,-0.023 -0.062,-0.022 -0.06,-0.019 -0.065,-0.023 -0.06,-0.019 -0.06,-0.018 -0.065,-0.016 -0.06,-0.014 -0.065,-0.02 -0.06,-0.011 -0.065,-0.014 -0.063,-0.013 -0.065,-0.011 -0.064,-0.008 -0.06,-0.007 -0.066,-0.008 -0.063,-0.008 -0.065,-0.004 -0.065,-0.003 -0.064,-0.004 -0.064,-0.004 -0.065,0 -0.064,0 -0.068,0.004 -0.061,0.004 -0.067,0.003 -0.062,0.004 -0.067,0.008 -0.06,0.008 -0.066,0.007 -0.063,0.008 -0.065,0.011 -0.064,0.013 -0.061,0.014 -0.064,0.011 -0.065,0.015 -0.06,0.019 -0.064,0.016 -0.061,0.018 -27.164661,8.291896 0.144999,-0.823989 0.158998,-0.82099 0.173997,-0.81799 0.184998,-0.81799 0.204997,-0.81199 0.211998,-0.811989 0.229997,-0.80299 0.245997,-0.80099 0.258997,-0.79399 0.267996,-0.794991 0.286997,-0.78799 0.298996,-0.77999 0.310996,-0.77899 0.324996,-0.771991 0.340996,-0.76499 0.350995,-0.76099 0.367996,-0.753991 0.378995,-0.744991 0.392995,-0.74099 0.400995,-0.730991 0.419995,-0.725991 0.427994,-0.719991 0.442995,-0.711991 0.453994,-0.701992 0.464994,-0.697991 0.480994,-0.684991 0.488994,-0.676992 0.502994,-0.673991 0.514994,-0.657992 0.525993,-0.654992 0.532993,-0.639992 0.549994,-0.635992 0.559993,-0.624992 0.566992,-0.612993 0.579993,-0.604992 0.588993,-0.593993 4.239947,11.872852 0.03,0.083 0.035,0.08 0.033,0.083 0.034,0.08 0.039,0.079 0.037,0.079 0.038,0.076 0.042,0.079 0.041,0.076 0.041,0.075 0.046,0.076 0.045,0.077 0.049,0.075 0.05,0.072 0.048,0.072 0.05,0.072 0.053,0.068 0.054,0.071 0.057,0.069 0.056,0.068 0.053,0.064 0.061,0.065 0.06,0.068 0.06,0.06 0.061,0.064 0.06,0.061 0.065,0.062 0.064,0.055 0.068,0.062 0.065,0.056 0.068,0.057 0.068,0.053 0.071,0.052 0.07,0.054 0.071,0.049 0.072,0.049 0.076,0.05 0.072,0.045 0.075,0.045 0.075,0.045 0.077,0.041 0.08,0.042 0.075,0.042 0.079,0.038 0.08,0.039 0.079,0.038 0.08,0.033 0.083,0.034 0.079,0.031 0.083,0.03 0.084,0.031 0.083,0.025 0.083,0.027 0.084,0.027 0.083,0.023 0.087,0.022 0.084,0.018 0.087,0.02 0.086,0.018 0.084,0.015 0.087,0.016 0.087,0.011 0.087,0.011 0.086,0.008 0.088,0.012 0.087,0.004 0.088,0.006 0.086,0.004 0.091,0 0.087,0.004 0.087,-0.004 0.086,0 0.088,-0.004 0.087,-0.006 0.088,-0.008 0.087,-0.008 0.087,-0.011 0.086,-0.011 0.087,-0.012 0.087,-0.015 0.088,-0.014 0.084,-0.02 0.086,-0.02 0.087,-0.018 0.083,-0.022 0.083,-0.023 0.084,-0.027 0.087,-0.026 0.079,-0.03 0.084,-0.027 0.083,-0.03 0.083,-0.034 0.08,-0.034 0.08,-0.035 0.079,-0.037 0.079,-0.038 0.079,-0.038 0.076,-0.041 0.079,-0.043 0.076,-0.041 0.076,-0.045 0.072,-0.046 0.076,-0.049 0.072,-0.046 0.072,-0.049 0.071,-0.053 0.073,-0.053 0.068,-0.052 0.068,-0.054 0.068,-0.056 0.068,-0.057 0.065,-0.061 0.063,-0.056 0.064,-0.062 0.062,-0.06 0.064,-0.064 0.057,-0.064 0.061,-0.064 0.056,-0.065 0.056,-0.068 10.769865,-12.859839 0.053,-0.069 0.056,-0.065 0.049,-0.067 0.053,-0.072 0.049,-0.068 0.051,-0.069 0.043,-0.072 0.046,-0.072 0.045,-0.075 0.045,-0.072 0.043,-0.076 0.041,-0.072 0.037,-0.076 0.037,-0.079 0.039,-0.076 0.038,-0.08 0.035,-0.075 0.033,-0.079 0.031,-0.08 0.031,-0.079 0.03,-0.081 0.027,-0.082 0.025,-0.079 0.024,-0.083 0.025,-0.084 0.024,-0.083 0.017,-0.08 0.02,-0.083 0.019,-0.083 0.016,-0.087 0.016,-0.084 0.013,-0.083 0.012,-0.087 0.008,-0.084 0.012,-0.086 0.005,-0.084 0.004,-0.087 0.008,-0.083 0.004,-0.087 0,-0.088 0.039,-2.875964 0,-0.045 -0.004,-0.042 0,-0.042 0,-0.045 -0.004,-0.042 -0.004,-0.045 -0.004,-0.041 -0.007,-0.046 -0.004,-0.041 -0.008,-0.046 -0.008,-0.041 -0.008,-0.043 -0.006,-0.041 -0.011,-0.045 -0.012,-0.042 -0.008,-0.041 -0.015,-0.042 -0.01,-0.041 -0.012,-0.042 -0.016,-0.042 -0.015,-0.042 -0.016,-0.041 -0.013,-0.039 -0.02,-0.041 -0.016,-0.038 -0.019,-0.041 -0.018,-0.038 -0.019,-0.039 -0.022,-0.037 -0.019,-0.038 -0.022,-0.037 -0.023,-0.039 -0.024,-0.037 -0.023,-0.038 -0.022,-0.034 -0.027,-0.037 -0.021,-0.035 -0.028,-0.034 -0.025,-0.034 -0.031,-0.038 -0.028,-0.03 -0.025,-0.035 -0.031,-0.033 -0.03,-0.03 -0.031,-0.031 -0.029,-0.034 -0.031,-0.03 -0.03,-0.027 -0.035,-0.03 -0.029,-0.031 -0.033,-0.026 -0.036,-0.031 -0.033,-0.026 -0.035,-0.026 -0.035,-0.027 -0.037,-0.022 -0.033,-0.027 -0.037,-0.022 -0.04,-0.024 -0.033,-0.021 -0.039,-0.024 -0.037,-0.023 -0.041,-0.018 -0.039,-0.018 -0.037,-0.02 -0.039,-0.023 -0.041,-0.015 -0.037,-0.019 -0.043,-0.015 -0.041,-0.014 -0.039,-0.016 -0.039,-0.015 -0.043,-0.016 -0.041,-0.011 -0.043,-0.015 -0.041,-0.011 -0.041,-0.011 -0.045,-0.008 -0.041,-0.012 -0.043,-0.007 -0.045,-0.008 -0.043,-0.008 -0.041,-0.006 -0.045,-0.004 -0.043,-0.004 -0.041,-0.004 -0.045,-0.004 -0.041,-0.005 -0.047,-0.002 -0.041,0 -0.045,0 -3.409957,0 -0.049,0 -0.051,0 -0.048,0.002 -0.049,0.005 -0.045,0.004 -0.049,0.004 -0.051,0.008 -0.045,0.002 -0.049,0.008 -0.046,0.008 -0.049,0.008 -0.049,0.011 -0.045,0.012 -0.049,0.011 -0.047,0.011 -0.045,0.015 -0.048,0.011 -0.045,0.016 -0.045,0.015 -0.047,0.016 -0.045,0.018 -0.045,0.015 -0.045,0.018 -0.047,0.02 -0.041,0.023 -0.045,0.018 -0.043,0.022 -0.041,0.024 -0.045,0.023 -0.041,0.022 -0.043,0.027 -0.041,0.022 -0.039,0.027 -0.041,0.026 -0.041,0.03 -0.039,0.027 -0.037,0.03 -0.041,0.027 -0.039,0.03 -0.037,0.031 -0.035,0.034 -0.037,0.03 -0.034,0.034 -0.033,0.034 -0.039,0.035 -0.033,0.033 -0.031,0.034 -0.033,0.038 -0.032,0.035 -0.034,0.037 -0.03,0.038 -0.03,0.038 -0.031,0.037 -0.026,0.039 -0.031,0.041 -0.026,0.038 -0.027,0.042 -0.026,0.041 -0.026,0.042 -0.023,0.041 -0.027,0.042 -0.019,0.041 -0.022,0.042 -0.023,0.045 -0.023,0.042 -0.019,0.046 -0.018,0.045 -0.019,0.042 -0.019,0.045 -0.016,0.045 -0.014,0.047 -0.015,0.048 -0.016,0.046 -0.014,0.045 -0.016,0.046 -0.012,0.048 -0.011,0.046 -0.007,0.05 -0.011,0.045 -0.008,0.049 -0.008,0.045 -0.008,0.05 -0.007,0.049 -0.004,0.045 -0.007,0.049 -0.004,0.05 0,0.049 -0.003,0.045 0,0.049 0,0.049 0,0.05 0,0.049 0.003,0.045 0,0.049 0.004,0.05 0.007,0.049 0.004,0.045 0.007,0.049 0.004,0.05 0.012,0.045 0.008,0.049 0.007,0.045 0.011,0.05 0.011,0.046 0.012,0.049 0.016,0.045 0.01,0.046 0.016,0.045 0.015,0.049 0.018,0.046 0.016,0.045 0.019,0.045 0.019,0.042 0.018,0.045 0.019,0.046 0.023,0.042 0.02,0.045 0.021,0.042 0.023,0.042 0.027,0.045 0.023,0.042 0.026,0.037 0.026,0.042 0.027,0.041 0.026,0.039 0.027,0.041 0.03,0.038 0.031,0.038 0.03,0.037 0.03,0.039 0.03,0.037 0.036,0.034 0.029,0.038 0.035,0.034 0.033,0.034 0.035,0.034 0.037,0.034 0.034,0.034 0.037,0.03 0.035,0.034 0.037,0.031 0.039,0.031 0.037,0.03 0.041,0.027 0.039,0.026 0.037,0.03 0.041,0.027 0.043,0.026 0.041,0.023 0.043,0.026 0.041,0.023 0.041,0.022 0.045,0.024 0.043,0.023 0.045,0.022 0.041,0.018 0.047,0.019 0.045,0.02 0.045,0.015 0.045,0.018 0.047,0.015 0.045,0.015 0.045,0.016 0.044,0.015 0.049,0.012 0.047,0.01 0.045,0.012 0.049,0.011 0.049,0.011 0.047,0.008 0.048,0.008 0.045,0.007 0.049,0.008 0.051,0.004 0.049,0.004 0.045,0.007 0.049,0 0.048,0.004 0.051,0 0.045,0 -9.700879,11.656854 -5.506931,-15.426807 -0.256997,-0.528994 -0.454994,-0.689991 -0.041,-0.049 -0.042,-0.049 -0.046,-0.046 -0.041,-0.049 -0.045,-0.045 -0.049,-0.046 -0.046,-0.041 -0.049,-0.045 -0.045,-0.042 -0.049,-0.041 -0.05,-0.042 -0.053,-0.041 -0.049,-0.039 -0.053,-0.038 -0.053,-0.038 -0.053,-0.037 -0.053,-0.035 -0.057,-0.034 -0.053,-0.034 -0.057,-0.034 -0.056,-0.03 -0.057,-0.031 -0.057,-0.029 -0.057,-0.031 -0.06,-0.026 -0.056,-0.026 -0.062,-0.027 -0.061,-0.023 -0.056,-0.027 -0.065,-0.018 -0.06,-0.023 -0.061,-0.023 -0.06,-0.019 -0.06,-0.015 -0.065,-0.018 -0.06,-0.015 -0.065,-0.016 -0.064,-0.016 -0.061,-0.01 -0.065,-0.012 -0.063,-0.011 -0.065,-0.012 -0.065,-0.006 -0.063,-0.008 -0.065,-0.004 -0.064,-0.008 -0.064,-0.004 -0.064,0 -0.065,-0.004 -0.064,0 -0.065,0 -0.064,0.004 -0.064,0.004 -0.066,0.004 -0.063,0.004 -0.065,0.008 -0.064,0.004 -0.064,0.01 -0.064,0.008 -0.065,0.011 -0.06,0.012 -0.064,0.014 -0.065,0.012 -0.06,0.016 -0.066,0.019 -0.059,0.014 -0.065,0.019 -0.061,0.019 -0.06,0.023 -0.061,0.019 -0.06,0.022 -0.061,0.026 -0.061,0.024 -0.056,0.026 -0.06,0.027 -0.057,0.03 -0.057,0.027 -0.061,0.029 -0.056,0.031 -0.053,0.034 -0.058,0.03 -0.057,0.034 -0.052,0.034 -0.053,0.038 -0.053,0.039 -0.053,0.033 -0.053,0.042 -0.049,0.037 -0.053,0.043 -0.049,0.041 -0.707991,0.605992 -0.699991,0.619992 -0.688992,0.631992 -0.676991,0.643992 -0.666992,0.654992 -0.653992,0.665992 -0.643992,0.680991 -0.631992,0.687992 -0.620992,0.696991 -0.604992,0.711991 -0.598993,0.718991 -0.582993,0.733991 -0.566993,0.737991 -0.556993,0.75399 -0.544993,0.755991 -0.529993,0.76899 -0.517994,0.778991 -0.502993,0.78799 -0.491994,0.79499 -0.476994,0.80599 -0.461994,0.80899 -0.449995,0.821989 -0.431994,0.82599 -0.423995,0.834989 -0.404995,0.84399 -0.389995,0.847989 -0.377996,0.85599 -0.358995,0.858989 -0.348996,0.869989 -0.328996,0.874989 -0.316996,0.877989 -0.303996,0.884989 -0.283996,0.890989 -0.272997,0.891989 -0.252997,0.901988 -0.240997,0.898989 -0.224997,0.908989 -0.206997,0.911988 -0.192998,0.911989 -0.177998,0.918989 -0.158998,0.920988 -0.147998,0.923989 -0.127998,0.926988 -0.114999,0.926988 -0.098,0.926989 -0.079,0.930988 -0.008,0.087 -0.004,0.087 -0.004,0.088 0,0.087 0,0.088 0,0.085 0.004,0.087 0.004,0.087 0.008,0.088 0.008,0.087 0.007,0.083 0.012,0.087 0.01,0.087 0.016,0.084 0.011,0.087 0.019,0.087 0.019,0.083 0.019,0.087 0.018,0.083 0.024,0.083 0.022,0.084 0.027,0.083 0.026,0.083 0.027,0.08 0.031,0.084 0.032,0.078 0.032,0.084 0.034,0.08 0.033,0.079 0.039,0.079 0.037,0.075 0.039,0.081 0.041,0.075 0.042,0.076 0.045,0.075 0.041,0.076 0.046,0.072 0.049,0.076 0.049,0.072 0.05,0.071 0.048,0.069 0.054,0.067 0.053,0.072 0.053,0.069 0.057,0.064 0.055,0.068 0.058,0.065 0.061,0.063 0.06,0.062 0.061,0.06 0.065,0.061 0.059,0.061 0.065,0.059 0.065,0.059 0.067,0.055 0.068,0.053 0.069,0.053 0.068,0.054 0.068,0.052 0.072,0.049 0.071,0.05 0.073,0.049 0.075,0.046 0.073,0.045 0.075,0.042 0.075,0.045 0.076,0.038 0.079,0.042 0.076,0.037 0.081,0.038 0.079,0.034 0.08,0.038 0.079,0.03 0.083,0.031 0.079,0.03 0.083,0.029 0.083,0.027 0.083,0.027 0.081,0.026 0.086,0.023 0.084,0.019 0.083,0.024 0.087,0.017 0.084,0.016 0.087,0.014 0.083,0.016 0.087,0.012 0.086,0.014 0.084,0.007 0.087,0.008 0.088,0.008 0.087,0.004 0.086,0.004 0.087,0.004 0.087,0 0.087,0 0.087,-0.004 0.087,-0.004 0.087,-0.004 0.087,-0.008 0.088,-0.008 0.083,-0.01 0.086,-0.011 0.088,-0.012 0.083,-0.016 0.087,-0.014 0.083,-0.02 0.088,-0.017 0.084,-0.02 0.082,-0.023 0.084,-0.023 0.086,-0.026 24.533693,-7.489906 -4.843939,21.085737 -0.016,0.064 -0.011,0.061 -0.011,0.063 -0.012,0.065 -0.011,0.06 -0.008,0.065 -0.008,0.065 -0.003,0.063 -0.007,0.065 -0.004,0.063 -0.004,0.066 0,0.064 0,0.064 0,0.064 0,0.065 0.004,0.064 0.004,0.065 0.007,0.061 0.003,0.064 0.008,0.064 0.008,0.064 0.011,0.065 0.012,0.064 0.011,0.06 0.011,0.064 0.016,0.065 0.015,0.06 0.014,0.061 0.015,0.064 0.02,0.061 0.019,0.061 0.023,0.061 0.018,0.061 0.023,0.059 0.023,0.061 0.026,0.06 0.023,0.058 0.026,0.06 0.03,0.056 0.027,0.058 0.031,0.056 0.03,0.057 0.031,0.057 0.034,0.056 0.033,0.053 0.034,0.058 0.034,0.052 0.038,0.054 0.034,0.053 0.038,0.05 0.042,0.052 0.038,0.048 0.041,0.05 0.042,0.049 0.041,0.049 0.046,0.049 0.041,0.045 0.046,0.046 0.045,0.045 0.046,0.045 0.049,0.043 0.046,0.045 0.049,0.042 0.049,0.042 0.049,0.038 0.053,0.04 0.049,0.039 0.053,0.037 0.054,0.035 0.052,0.038 0.057,0.034 0.053,0.034 0.052,0.034 0.058,0.03 0.056,0.031 0.057,0.03 0.057,0.029 0.057,0.028 0.061,0.03 0.056,0.021 0.06,0.028 0.061,0.023 0.061,0.022 0.061,0.023 0.06,0.022 0.061,0.02 0.06,0.018 0.06,0.016 0.065,0.019 0.06,0.014 0.065,0.017 0.06,0.01 0.065,0.011 0.064,0.011 0.061,0.013 0.064,0.007 0.065,0.008 0.064,0.007 0.064,0.008 0.064,0.003 0.064,0.004 0.065,0 0.064,0.003 0.065,0 0.064,-0.003 0.061,0 0.065,-0.004 0.064,-0.003 0.064,-0.008 0.064,-0.007 0.064,-0.008 0.065,-0.007 0.064,-0.013 0.06,-0.007 0.064,-0.015 0.065,-0.01 0.061,-0.017 0.06,-0.014 0.065,-0.016 0.06,-0.019 0.061,-0.018 0.065,-0.02 0.06,-0.022 0.06,-0.02 0.057,-0.025 0.061,-0.023 0.06,-0.024 0.056,-0.025 0.062,-0.027 0.056,-0.031 0.057,-0.025 0.057,-0.03 0.057,-0.035 0.057,-0.03 0.053,-0.034 0.057,-0.034 0.052,-0.034 0.053,-0.034 0.053,-0.039 0.053,-0.037 0.049,-0.039 0.053,-0.036 0.049,-0.042 0.05,-0.042 0.049,-0.042 0.049,-0.041 0.046,-0.047 0.046,-0.045 0.045,-0.042 0.045,-0.049 0.046,-0.045 0.041,-0.045 0.041,-0.049 0.042,-0.049 0.042,-0.05 0.041,-0.052 0.038,-0.05 0.038,-0.052 0.038,-0.053 0.033,-0.054 0.039,-0.052 0.034,-0.054 0.034,-0.057 0.031,-0.052 0.029,-0.057 0.031,-0.057 0.03,-0.057 0.031,-0.057 0.026,-0.06 0.027,-0.057 0.026,-0.061 0.023,-0.056 0.027,-0.061 0.019,-0.06 0.022,-0.061 0.019,-0.061 0.022,-0.06 0.016,-0.065 0.019,-0.06 0.014,-0.061 0.016,-0.064 6.277921,-27.317659 0.015,-0.066 0.012,-0.063 0.012,-0.061 0.012,-0.064 0.007,-0.065 z"
               style="fill:#ffffff;fill-opacity:1" />
            <path
               inkscape:connector-curvature="0"
               id="path3706"
               d="m 68.012394,20.189689 0.140998,0.017 0.138998,0.018 0.139999,0.023 0.139998,0.022 0.135998,0.027 0.139998,0.026 0.136999,0.031 0.135998,0.034 0.135998,0.033 0.136999,0.038 0.135998,0.039 0.132998,0.041 0.134999,0.045 0.132998,0.05 0.132998,0.049 0.128999,0.049 0.126998,0.057 0.132998,0.052 0.124999,0.061 0.128998,0.06 0.124999,0.061 0.128998,0.064 0.120999,0.069 0.123998,0.068 0.120999,0.072 0.117998,0.076 0.121999,0.072 0.115998,0.079 0.116999,0.079 0.113998,0.08 0.113999,0.087 0.112998,0.084 0.109999,0.085 0.109999,0.092 0.105998,0.091 0.105999,0.094 0.100999,0.095 0.102998,0.094 0.102999,0.099 0.098,0.101998 0.097,0.103999 0.096,0.100999 0.096,0.105998 0.09,0.104999 0.091,0.110999 0.086,0.108998 0.086,0.109999 0.084,0.112999 0.084,0.113998 0.08,0.117999 0.075,0.116998 0.076,0.116999 0.076,0.120998 0.072,0.120999 0.067,0.120998 0.068,0.124999 0.064,0.124998 0.065,0.124998 0.06,0.128999 0.061,0.128998 0.057,0.127999 0.054,0.127998 0.053,0.132998 0.049,0.128999 0.045,0.132998 0.045,0.134998 0.047,0.132999 0.037,0.136998 0.041,0.135998 0.033,0.135999 0.035,0.136998 0.031,0.135998 0.03,0.139998 0.027,0.135999 0.023,0.138998 0.018,0.136998 0.018,0.139999 0.019,0.139998 0.012,0.143998 0.015,0.139998 0.008,0.138999 0.006,0.140998 0.004,0.139998 0.006,0.139998 -0.006,0.139999 -0.004,0.142998 -0.004,0.140998 -0.006,0.139998 -0.011,0.139998 -0.012,0.139999 -0.016,0.139998 -0.017,0.140998 -0.02,0.138998 -0.021,0.139999 -0.028,0.135998 -0.027,0.140998 -0.029,0.135999 -0.036,0.135998 -0.033,0.135998 -0.033,0.135998 -0.043,0.136999 -0.041,0.132998 -0.041,0.134998 -0.051,0.132999 -0.049,0.132998 -0.048,0.130998 -0.053,0.129999 -0.057,0.128998 -0.056,0.127999 -0.061,0.128998 -0.062,0.124998 -0.063,0.128999 -0.068,0.120998 -0.069,0.123999 -0.072,0.121998 -0.07,0.120999 -0.076,0.116998 -0.077,0.117999 -0.08,0.116998 -0.08,0.116999 -0.082,0.113998 -0.088,0.109999 -0.086,0.112999 -0.087,0.104998 -0.092,0.110999 -0.094,0.105999 -0.094,0.105998 -0.095,0.101999 -0.099,0.098 -0.098,0.101999 -0.101999,0.095 -0.101999,0.098 -0.106998,0.095 -0.104999,0.091 -0.109999,0.091 -0.108998,0.086 -0.109999,0.088 -0.114999,0.083 -0.112998,0.083 -0.112999,0.083 -0.116998,0.076 -0.120999,0.08 -0.117998,0.072 -0.119999,0.072 -0.121998,0.071 -0.124999,0.068 -0.124998,0.065 -0.124999,0.065 -0.123998,0.063 -0.128998,0.057 -0.128999,0.057 -0.132998,0.057 -0.127999,0.053 -0.131998,0.049 -0.132998,0.05 -0.132999,0.045 -0.131998,0.042 -0.135998,0.041 -0.136998,0.038 -0.135999,0.037 -0.135998,0.035 -0.135998,0.03 -0.139999,0.03 -0.136998,0.027 -0.139998,0.026 -0.138998,0.02 -0.136999,0.018 -0.139998,0.019 -0.139998,0.016 -0.144998,0.011 -0.139999,0.011 -0.138998,0.007 -0.139998,0.005 -0.139998,0.004 -0.140999,0 -0.142998,-0.004 -0.139998,-0.005 -0.139998,-0.007 -0.139999,-0.011 -0.139998,-0.011 -0.140998,-0.016 -0.139998,-0.019 -0.138999,-0.018 -0.139998,-0.02 -0.135998,-0.026 -0.139998,-0.027 -0.135999,-0.03 -0.136998,-0.03 -0.139998,-0.035 -0.136999,-0.037 -0.131998,-0.038 -0.135998,-0.041 -0.132999,-0.042 -0.131998,-0.045 -0.135998,-0.05 -0.128999,-0.049 -0.132998,-0.053 -0.127998,-0.057 -0.127999,-0.057 -0.128998,-0.057 -0.125999,-0.063 -0.127998,-0.065 -0.120998,-0.065 -0.124999,-0.068 -0.120998,-0.071 -0.120999,-0.072 -0.121998,-0.072 -0.116999,-0.08 -0.116998,-0.076 -0.113999,-0.083 -0.112999,-0.083 -0.112998,-0.083 -0.113999,-0.088 -0.109998,-0.086 -0.106999,-0.091 -0.104999,-0.091 -0.105998,-0.095 -0.102999,-0.098 -0.100999,-0.095 -0.098,-0.101999 -0.099,-0.098 -0.099,-0.101999 -0.095,-0.105998 -0.091,-0.105999 -0.09,-0.110999 -0.091,-0.104998 -0.087,-0.112999 -0.083,-0.109999 -0.083,-0.113998 -0.079,-0.116999 -0.08,-0.116998 -0.08,-0.117999 -0.072,-0.116998 -0.076,-0.120999 -0.072,-0.121998 -0.068,-0.123999 -0.063,-0.120998 -0.065,-0.128999 -0.064,-0.124998 -0.06,-0.128998 -0.058,-0.127999 -0.053,-0.128998 -0.052,-0.129999 -0.054,-0.130998 -0.049,-0.132998 -0.045,-0.132999 -0.046,-0.134998 -0.042,-0.132998 -0.037,-0.136999 -0.038,-0.135998 -0.035,-0.135998 -0.03,-0.135998 -0.03,-0.135999 -0.027,-0.140998 -0.025,-0.135998 -0.023,-0.139999 -0.019,-0.138998 -0.02,-0.140998 -0.015,-0.139998 -0.014,-0.139999 -0.008,-0.139998 -0.008,-0.139998 -0.008,-0.140998 -0.002,-0.142998 0,-0.139999 0.002,-0.139998 0.004,-0.139998 0.008,-0.140998 0.008,-0.142999 0.011,-0.139998 0.015,-0.139998 0.015,-0.139998 0.019,-0.139999 0.023,-0.136998 0.023,-0.138998 0.026,-0.135999 0.031,-0.139998 0.03,-0.135998 0.033,-0.136998 0.034,-0.135999 0.039,-0.135998 0.041,-0.136998 0.042,-0.132999 0.046,-0.134998 0.049,-0.132998 0.049,-0.128999 0.053,-0.132998 0.053,-0.127998 0.056,-0.127999 0.057,-0.128998 0.064,-0.128999 0.062,-0.124998 0.067,-0.124998 0.065,-0.124999 0.071,-0.120998 0.073,-0.120999 0.071,-0.120998 0.076,-0.116999 0.08,-0.116998 0.079,-0.117999 0.083,-0.113998 0.083,-0.112999 0.087,-0.109999 0.088,-0.108998 0.091,-0.110999 0.09,-0.104999 0.095,-0.105998 0.094,-0.100999 0.099,-0.103999 0.099,-0.101998 0.098,-0.099 0.101998,-0.094 0.106999,-0.095 0.104999,-0.094 0.105998,-0.091 0.109999,-0.092 0.108999,-0.085 0.114998,-0.084 0.111999,-0.087 0.113998,-0.08 0.117999,-0.079 0.116998,-0.079 0.116999,-0.072 0.121998,-0.076 0.119999,-0.072 0.121998,-0.068 0.123999,-0.069 0.124998,-0.064 0.124999,-0.061 0.127998,-0.06 0.128999,-0.061 0.128998,-0.056 0.128998,-0.053 0.131999,-0.049 0.131998,-0.049 0.132998,-0.05 0.132999,-0.045 0.136998,-0.041 0.134998,-0.039 0.132999,-0.038 0.138998,-0.033 0.136998,-0.034 0.135998,-0.031 0.136999,-0.026 0.139998,-0.027 0.138998,-0.022 0.140998,-0.023 0.139999,-0.018 0.139998,-0.017 0.136998,-0.011 0.141998,-0.011 0.140999,-0.011 0.139998,-0.005 0.139998,-0.004 0.140998,-0.003 0.138999,0.003 0.143998,0.004 0.139998,0.005 0.139998,0.011 0.140999,0.011 z"
               style="fill:#ffffff;fill-opacity:1" />
          </g>
          <rect
             ry="5.7685242"
             rx="5.7685242"
             y="1079.5673"
             x="117.87408"
             height="34"
             width="39.358646"
             id="rect3708"
             style="opacity:1;fill:#ffffff;fill-opacity:1;stroke:none;stroke-width:2;stroke-linecap:round;stroke-linejoin:round;stroke-miterlimit:4;stroke-dasharray:none;stroke-dashoffset:0;stroke-opacity:1" />
        </g>
        <g
           id="g3691"
           transform="matrix(0.78328209,0,0,0.78328209,205.04542,200.82997)"
           style="fill:#cccccc">
          <g
             id="g5419"
             style="fill:#cccccc"
             transform="matrix(1.7707725,0,0,1.7707725,60.189075,945.86531)">
            <path
               style="fill:#cccccc;fill-opacity:1"
               d="m 55.486576,47.673321 0.464994,-0.611992 0.468994,-0.601993 0.481994,-0.594992 3.094961,8.663891 2.149973,0 0.068,0.088 0.068,0.087 0.069,0.087 0.068,0.084 0.071,0.083 0.073,0.079 0.075,0.079 0.076,0.08 0.076,0.08 0.079,0.075 0.08,0.075 0.082,0.073 0.083,0.072 0.084,0.071 0.083,0.067 0.088,0.069 0.087,0.064 0.087,0.068 0.09,0.061 0.091,0.061 0.091,0.06 0.09,0.06 0.096,0.058 0.094,0.053 0.095,0.053 0.098,0.054 0.099,0.047 0.094,0.05 0.102999,0.045 0.098,0.046 0.098,0.046 0.101999,0.041 0.102999,0.038 0.101998,0.037 0.105999,0.038 0.101999,0.034 0.106999,0.031 0.103998,0.033 0.102999,0.027 0.105999,0.027 0.106998,0.026 0.108999,0.023 0.105999,0.023 0.109998,0.018 0.105999,0.016 0.108999,0.019 0.105998,0.011 0.109999,0.016 0.109998,0.008 0.109999,0.007 0.108999,0.007 0.109998,0.003 0.109999,0.004 0.105999,0 0.109998,0 0.108999,-0.004 0.110999,-0.007 0.109998,-0.006 0.108999,-0.008 0.109998,-0.013 0.105999,-0.011 0.108999,-0.015 0.105998,-0.015 0.109999,-0.018 0.105999,-0.023 0.109998,-0.02 0.105999,-0.027 0.105999,-0.022 0.104998,-0.03 0.105999,-0.03 0.106999,-0.031 0.102998,-0.034 0.104999,-0.033 0.101999,-0.039 0.101999,-0.038 0.101998,-0.042 0.099,-0.041 0.101999,-0.042 0.098,-0.044 0.099,-0.049 0.098,-0.05 0.098,-0.049 0.095,-0.053 0.095,-0.053 0.094,-0.057 0.095,-0.057 0.091,-0.061 0.091,-0.061 0.09,-0.059 0.091,-0.065 0.088,-0.064 0.087,-0.069 0.083,-0.068 0.086,-0.067 0.08,-0.073 0.083,-0.071 0.08,-0.076 0.08,-0.075 0.08,-0.076 0.075,-0.08 0.075,-0.08 0.076,-0.08 0.072,-0.083 0.072,-0.083 0.257996,-0.309996 3.344959,0 0.049,0 0.05,0.004 0.049,0 0.045,0.004 0.049,0.004 0.049,0.003 0.051,0.004 0.045,0.007 0.048,0.009 0.045,0.008 0.049,0.007 0.047,0.01 0.049,0.012 0.045,0.012 0.051,0.011 0.042,0.011 0.047,0.016 0.045,0.015 0.047,0.014 0.049,0.016 0.041,0.015 0.045,0.019 0.045,0.019 0.047,0.019 0.041,0.019 0.045,0.022 0.043,0.019 0.045,0.023 0.041,0.024 0.041,0.025 0.043,0.022 0.041,0.028 0.043,0.025 0.037,0.027 0.041,0.027 0.037,0.026 0.043,0.03 0.037,0.031 0.039,0.03 0.037,0.026 0.033,0.034 0.037,0.031 0.035,0.035 0.04,0.029 0.033,0.034 0.033,0.039 0.031,0.034 0.035,0.033 0.034,0.038 0.031,0.035 0.029,0.037 0.029,0.038 0.032,0.037 0.025,0.043 0.031,0.037 0.028,0.039 0.025,0.041 0.027,0.042 0.026,0.041 0.023,0.041 0.026,0.042 0.023,0.042 0.022,0.042 0.019,0.041 0.023,0.047 0.02,0.044 0.018,0.042 0.019,0.044 0.02,0.046 0.017,0.046 0.016,0.045 0.015,0.046 0.014,0.045 0.016,0.046 0.012,0.049 0.011,0.045 0.012,0.045 0.01,0.049 0.013,0.046 0.006,0.049 0.008,0.045 0.008,0.05 0.008,0.049 0.004,0.045 0.007,0.05 0.004,0.049 0,0.046 0.004,0.049 0,0.049 0.002,0.049 0,0.049 -0.002,0.046 0,0.049 -0.004,0.049 -0.004,0.046 -0.004,0.049 -0.003,0.048 -0.008,0.046 -0.008,0.05 -0.008,0.05 -0.008,0.045 -0.006,0.049 -0.013,0.046 -0.01,0.048 -0.012,0.046 -0.013,0.045 -0.014,0.049 -0.014,0.046 -0.015,0.045 -0.016,0.046 -0.014,0.045 -0.019,0.045 -0.02,0.043 -0.019,0.044 -0.018,0.045 -0.023,0.045 -0.02,0.043 -0.021,0.041 -0.024,0.046 -0.023,0.041 -0.026,0.042 -0.023,0.042 -0.025,0.037 -0.028,0.042 -0.025,0.041 -0.031,0.038 -0.028,0.039 -0.029,0.042 -0.031,0.037 -0.03,0.035 -0.029,0.036 -0.031,0.039 -0.033,0.034 -0.035,0.037 -0.03,0.035 -0.039,0.034 -0.033,0.034 -0.033,0.029 -0.039,0.035 -0.033,0.031 -0.04,0.03 -0.037,0.03 -0.039,0.029 -0.037,0.032 -0.039,0.027 -0.041,0.029 -0.037,0.028 -0.041,0.026 -0.043,0.025 -0.045,-0.075 -0.045,-0.072 -0.049,-0.072 -0.048,-0.068 -0.049,-0.068 -0.055,-0.071 -0.053,-0.069 -0.052,-0.065 -0.057,-0.068 -0.057,-0.064 -0.056,-0.064 -0.059,-0.06 -0.061,-0.064 -0.058,-0.062 -0.061,-0.057 -0.064,-0.06 -0.061,-0.057 -0.068,-0.056 -0.064,-0.057 -0.065,-0.053 -0.068,-0.054 -0.069,-0.052 -0.072,-0.049 -0.068,-0.05 -0.073,-0.049 -0.07,-0.045 -0.072,-0.049 -0.072,-0.042 -0.077,-0.045 -0.074,-0.041 -0.076,-0.042 -0.076,-0.038 -0.076,-0.039 -0.079,-0.038 -0.08,-0.033 -0.075,-0.034 -0.08,-0.035 -0.079,-0.03 -0.083,-0.03 -0.079,-0.027 -0.084,-0.026 -0.08,-0.027 -0.083,-0.022 -0.084,-0.024 -0.084,-0.021 -0.082,-0.02 -0.083,-0.019 -0.088,-0.019 -0.082,-0.015 -0.083,-0.01 -0.087,-0.016 -0.083,-0.008 -0.088,-0.011 -0.083,-0.008 -0.088,-0.008 -0.083,-0.003 -0.087,-0.004 -0.087,-0.003 -0.086,0 -0.084,0 -0.087,0.003 -0.088,0.004 -0.082,0.003 -0.088,0.008 -0.082,0.008 -0.088,0.011 -0.083,0.012 -0.087,0.012 -0.084,0.014 -0.083,0.015 -0.086,0.019 -0.084,0.019 -0.082,0.02 -0.084,0.017 -0.084,0.028 -0.079,0.022 -8.383895,2.558968 -3.511956,0 -0.087,0 -0.087,-0.004 -0.083,-0.004 -0.088,-0.004 -0.087,-0.007 -0.087,-0.008 -0.083,-0.008 -0.087,-0.01 -0.083,-0.016 -0.087,-0.012 -0.087,-0.014 -0.083,-0.02 -0.083,-0.017 -0.087,-0.02 -0.084,-0.023 -0.084,-0.023 -0.083,-0.025 -0.079,-0.024 -0.084,-0.026 -0.083,-0.03 -0.079,-0.031 -0.079,-0.03 -0.084,-0.034 -0.075,-0.034 -0.08,-0.033 -0.079,-0.039 -0.076,-0.038 -0.08,-0.043 -0.076,-0.037 -0.075,-0.045 -0.075,-0.042 -0.072,-0.044 -0.073,-0.046 -0.072,-0.049 -0.075,-0.046 -0.069,-0.053 -0.071,-0.049 -0.069,-0.053 -0.068,-0.053 -0.064,-0.053 -0.068,-0.057 -0.064,-0.056 -0.065,-0.061 -0.064,-0.057 -0.061,-0.061 -0.06,-0.06 -0.061,-0.065 -0.06,-0.059 -0.057,-0.065 -0.056,-0.068 -0.058,-0.065 -0.053,-0.068 -0.053,-0.068 -0.053,-0.068 -0.048,-0.072 -0.05,-0.067 -0.049,-0.073 -0.05,-0.076 -0.045,-0.071 -0.042,-0.072 -0.044,-0.077 -0.043,-0.076 -0.041,-0.075 -0.038,-0.08 -0.037,-0.075 -0.038,-0.079 -0.035,-0.08 -0.034,-0.08 -0.033,-0.079 -0.031,-0.079 -0.031,-0.084 -1.880977,-5.267934 0.397995,-0.654992 0.408995,-0.646992 0.419995,-0.639992 0.430995,-0.631992 0.438994,-0.623992 z"
               id="polygon3581"
               inkscape:connector-curvature="0" />
            <path
               style="fill:#cccccc;fill-opacity:1"
               d="m 76.542312,62.699133 0.006,-0.064 0.004,-0.064 0.008,-0.065 0.004,-0.063 0,-0.065 0.004,-0.065 0,-0.064 0,-0.064 -0.004,-0.064 0,-0.065 -0.008,-0.064 -0.004,-0.065 -0.008,-0.064 -0.006,-0.065 -0.008,-0.063 -0.007,-0.065 -0.012,-0.065 -0.012,-0.064 -0.015,-0.06 -0.012,-0.064 -0.014,-0.06 -0.019,-0.066 -0.016,-0.06 -0.02,-0.064 -0.017,-0.061 -0.024,-0.06 -0.017,-0.061 -0.024,-0.061 -0.023,-0.06 -0.025,-0.061 -0.028,-0.056 -0.025,-0.061 -0.027,-0.057 -0.03,-0.056 -0.031,-0.058 -0.029,-0.059 -0.032,-0.054 -0.033,-0.056 -0.035,-0.057 -0.033,-0.053 -0.039,-0.053 -0.033,-0.054 -0.037,-0.052 -0.04,-0.053 -0.041,-0.05 -0.037,-0.053 -0.043,-0.048 -0.041,-0.05 -0.047,-0.045 -0.041,-0.049 -0.044,-0.046 -0.045,-0.049 -0.045,-0.046 -0.047,-0.041 -0.049,-0.047 -0.045,-0.041 -0.049,-0.041 -0.052,-0.042 -0.051,-0.041 -0.053,-0.038 -0.049,-0.038 -0.053,-0.038 -0.053,-0.038 -0.053,-0.033 -0.057,-0.035 -0.053,-0.033 -0.057,-0.035 -0.056,-0.03 -0.058,-0.03 -0.055,-0.03 -0.057,-0.031 -0.061,-0.026 -0.057,-0.027 -0.06,-0.026 -0.061,-0.027 -0.056,-0.023 -0.062,-0.022 -0.06,-0.019 -0.065,-0.023 -0.06,-0.019 -0.06,-0.018 -0.065,-0.016 -0.06,-0.014 -0.065,-0.02 -0.06,-0.011 -0.065,-0.014 -0.063,-0.013 -0.065,-0.011 -0.064,-0.008 -0.06,-0.007 -0.066,-0.008 -0.063,-0.008 -0.065,-0.004 -0.065,-0.003 -0.064,-0.004 -0.064,-0.004 -0.065,0 -0.064,0 -0.068,0.004 -0.061,0.004 -0.067,0.003 -0.062,0.004 -0.067,0.008 -0.06,0.008 -0.066,0.007 -0.063,0.008 -0.065,0.011 -0.064,0.013 -0.061,0.014 -0.064,0.011 -0.065,0.015 -0.06,0.019 -0.064,0.016 -0.061,0.018 -27.164661,8.291896 0.144999,-0.823989 0.158998,-0.82099 0.173997,-0.81799 0.184998,-0.81799 0.204997,-0.81199 0.211998,-0.811989 0.229997,-0.80299 0.245997,-0.80099 0.258997,-0.79399 0.267996,-0.794991 0.286997,-0.78799 0.298996,-0.77999 0.310996,-0.77899 0.324996,-0.771991 0.340996,-0.76499 0.350995,-0.76099 0.367996,-0.753991 0.378995,-0.744991 0.392995,-0.74099 0.400995,-0.730991 0.419995,-0.725991 0.427994,-0.719991 0.442995,-0.711991 0.453994,-0.701992 0.464994,-0.697991 0.480994,-0.684991 0.488994,-0.676992 0.502994,-0.673991 0.514994,-0.657992 0.525993,-0.654992 0.532993,-0.639992 0.549994,-0.635992 0.559993,-0.624992 0.566992,-0.612993 0.579993,-0.604992 0.588993,-0.593993 4.239947,11.872852 0.03,0.083 0.035,0.08 0.033,0.083 0.034,0.08 0.039,0.079 0.037,0.079 0.038,0.076 0.042,0.079 0.041,0.076 0.041,0.075 0.046,0.076 0.045,0.077 0.049,0.075 0.05,0.072 0.048,0.072 0.05,0.072 0.053,0.068 0.054,0.071 0.057,0.069 0.056,0.068 0.053,0.064 0.061,0.065 0.06,0.068 0.06,0.06 0.061,0.064 0.06,0.061 0.065,0.062 0.064,0.055 0.068,0.062 0.065,0.056 0.068,0.057 0.068,0.053 0.071,0.052 0.07,0.054 0.071,0.049 0.072,0.049 0.076,0.05 0.072,0.045 0.075,0.045 0.075,0.045 0.077,0.041 0.08,0.042 0.075,0.042 0.079,0.038 0.08,0.039 0.079,0.038 0.08,0.033 0.083,0.034 0.079,0.031 0.083,0.03 0.084,0.031 0.083,0.025 0.083,0.027 0.084,0.027 0.083,0.023 0.087,0.022 0.084,0.018 0.087,0.02 0.086,0.018 0.084,0.015 0.087,0.016 0.087,0.011 0.087,0.011 0.086,0.008 0.088,0.012 0.087,0.004 0.088,0.006 0.086,0.004 0.091,0 0.087,0.004 0.087,-0.004 0.086,0 0.088,-0.004 0.087,-0.006 0.088,-0.008 0.087,-0.008 0.087,-0.011 0.086,-0.011 0.087,-0.012 0.087,-0.015 0.088,-0.014 0.084,-0.02 0.086,-0.02 0.087,-0.018 0.083,-0.022 0.083,-0.023 0.084,-0.027 0.087,-0.026 0.079,-0.03 0.084,-0.027 0.083,-0.03 0.083,-0.034 0.08,-0.034 0.08,-0.035 0.079,-0.037 0.079,-0.038 0.079,-0.038 0.076,-0.041 0.079,-0.043 0.076,-0.041 0.076,-0.045 0.072,-0.046 0.076,-0.049 0.072,-0.046 0.072,-0.049 0.071,-0.053 0.073,-0.053 0.068,-0.052 0.068,-0.054 0.068,-0.056 0.068,-0.057 0.065,-0.061 0.063,-0.056 0.064,-0.062 0.062,-0.06 0.064,-0.064 0.057,-0.064 0.061,-0.064 0.056,-0.065 0.056,-0.068 10.769865,-12.859839 0.053,-0.069 0.056,-0.065 0.049,-0.067 0.053,-0.072 0.049,-0.068 0.051,-0.069 0.043,-0.072 0.046,-0.072 0.045,-0.075 0.045,-0.072 0.043,-0.076 0.041,-0.072 0.037,-0.076 0.037,-0.079 0.039,-0.076 0.038,-0.08 0.035,-0.075 0.033,-0.079 0.031,-0.08 0.031,-0.079 0.03,-0.081 0.027,-0.082 0.025,-0.079 0.024,-0.083 0.025,-0.084 0.024,-0.083 0.017,-0.08 0.02,-0.083 0.019,-0.083 0.016,-0.087 0.016,-0.084 0.013,-0.083 0.012,-0.087 0.008,-0.084 0.012,-0.086 0.005,-0.084 0.004,-0.087 0.008,-0.083 0.004,-0.087 0,-0.088 0.039,-2.875964 0,-0.045 -0.004,-0.042 0,-0.042 0,-0.045 -0.004,-0.042 -0.004,-0.045 -0.004,-0.041 -0.007,-0.046 -0.004,-0.041 -0.008,-0.046 -0.008,-0.041 -0.008,-0.043 -0.006,-0.041 -0.011,-0.045 -0.012,-0.042 -0.008,-0.041 -0.015,-0.042 -0.01,-0.041 -0.012,-0.042 -0.016,-0.042 -0.015,-0.042 -0.016,-0.041 -0.013,-0.039 -0.02,-0.041 -0.016,-0.038 -0.019,-0.041 -0.018,-0.038 -0.019,-0.039 -0.022,-0.037 -0.019,-0.038 -0.022,-0.037 -0.023,-0.039 -0.024,-0.037 -0.023,-0.038 -0.022,-0.034 -0.027,-0.037 -0.021,-0.035 -0.028,-0.034 -0.025,-0.034 -0.031,-0.038 -0.028,-0.03 -0.025,-0.035 -0.031,-0.033 -0.03,-0.03 -0.031,-0.031 -0.029,-0.034 -0.031,-0.03 -0.03,-0.027 -0.035,-0.03 -0.029,-0.031 -0.033,-0.026 -0.036,-0.031 -0.033,-0.026 -0.035,-0.026 -0.035,-0.027 -0.037,-0.022 -0.033,-0.027 -0.037,-0.022 -0.04,-0.024 -0.033,-0.021 -0.039,-0.024 -0.037,-0.023 -0.041,-0.018 -0.039,-0.018 -0.037,-0.02 -0.039,-0.023 -0.041,-0.015 -0.037,-0.019 -0.043,-0.015 -0.041,-0.014 -0.039,-0.016 -0.039,-0.015 -0.043,-0.016 -0.041,-0.011 -0.043,-0.015 -0.041,-0.011 -0.041,-0.011 -0.045,-0.008 -0.041,-0.012 -0.043,-0.007 -0.045,-0.008 -0.043,-0.008 -0.041,-0.006 -0.045,-0.004 -0.043,-0.004 -0.041,-0.004 -0.045,-0.004 -0.041,-0.005 -0.047,-0.002 -0.041,0 -0.045,0 -3.409957,0 -0.049,0 -0.051,0 -0.048,0.002 -0.049,0.005 -0.045,0.004 -0.049,0.004 -0.051,0.008 -0.045,0.002 -0.049,0.008 -0.046,0.008 -0.049,0.008 -0.049,0.011 -0.045,0.012 -0.049,0.011 -0.047,0.011 -0.045,0.015 -0.048,0.011 -0.045,0.016 -0.045,0.015 -0.047,0.016 -0.045,0.018 -0.045,0.015 -0.045,0.018 -0.047,0.02 -0.041,0.023 -0.045,0.018 -0.043,0.022 -0.041,0.024 -0.045,0.023 -0.041,0.022 -0.043,0.027 -0.041,0.022 -0.039,0.027 -0.041,0.026 -0.041,0.03 -0.039,0.027 -0.037,0.03 -0.041,0.027 -0.039,0.03 -0.037,0.031 -0.035,0.034 -0.037,0.03 -0.034,0.034 -0.033,0.034 -0.039,0.035 -0.033,0.033 -0.031,0.034 -0.033,0.038 -0.032,0.035 -0.034,0.037 -0.03,0.038 -0.03,0.038 -0.031,0.037 -0.026,0.039 -0.031,0.041 -0.026,0.038 -0.027,0.042 -0.026,0.041 -0.026,0.042 -0.023,0.041 -0.027,0.042 -0.019,0.041 -0.022,0.042 -0.023,0.045 -0.023,0.042 -0.019,0.046 -0.018,0.045 -0.019,0.042 -0.019,0.045 -0.016,0.045 -0.014,0.047 -0.015,0.048 -0.016,0.046 -0.014,0.045 -0.016,0.046 -0.012,0.048 -0.011,0.046 -0.007,0.05 -0.011,0.045 -0.008,0.049 -0.008,0.045 -0.008,0.05 -0.007,0.049 -0.004,0.045 -0.007,0.049 -0.004,0.05 0,0.049 -0.003,0.045 0,0.049 0,0.049 0,0.05 0,0.049 0.003,0.045 0,0.049 0.004,0.05 0.007,0.049 0.004,0.045 0.007,0.049 0.004,0.05 0.012,0.045 0.008,0.049 0.007,0.045 0.011,0.05 0.011,0.046 0.012,0.049 0.016,0.045 0.01,0.046 0.016,0.045 0.015,0.049 0.018,0.046 0.016,0.045 0.019,0.045 0.019,0.042 0.018,0.045 0.019,0.046 0.023,0.042 0.02,0.045 0.021,0.042 0.023,0.042 0.027,0.045 0.023,0.042 0.026,0.037 0.026,0.042 0.027,0.041 0.026,0.039 0.027,0.041 0.03,0.038 0.031,0.038 0.03,0.037 0.03,0.039 0.03,0.037 0.036,0.034 0.029,0.038 0.035,0.034 0.033,0.034 0.035,0.034 0.037,0.034 0.034,0.034 0.037,0.03 0.035,0.034 0.037,0.031 0.039,0.031 0.037,0.03 0.041,0.027 0.039,0.026 0.037,0.03 0.041,0.027 0.043,0.026 0.041,0.023 0.043,0.026 0.041,0.023 0.041,0.022 0.045,0.024 0.043,0.023 0.045,0.022 0.041,0.018 0.047,0.019 0.045,0.02 0.045,0.015 0.045,0.018 0.047,0.015 0.045,0.015 0.045,0.016 0.044,0.015 0.049,0.012 0.047,0.01 0.045,0.012 0.049,0.011 0.049,0.011 0.047,0.008 0.048,0.008 0.045,0.007 0.049,0.008 0.051,0.004 0.049,0.004 0.045,0.007 0.049,0 0.048,0.004 0.051,0 0.045,0 -9.700879,11.656854 -5.506931,-15.426807 -0.256997,-0.528994 -0.454994,-0.689991 -0.041,-0.049 -0.042,-0.049 -0.046,-0.046 -0.041,-0.049 -0.045,-0.045 -0.049,-0.046 -0.046,-0.041 -0.049,-0.045 -0.045,-0.042 -0.049,-0.041 -0.05,-0.042 -0.053,-0.041 -0.049,-0.039 -0.053,-0.038 -0.053,-0.038 -0.053,-0.037 -0.053,-0.035 -0.057,-0.034 -0.053,-0.034 -0.057,-0.034 -0.056,-0.03 -0.057,-0.031 -0.057,-0.029 -0.057,-0.031 -0.06,-0.026 -0.056,-0.026 -0.062,-0.027 -0.061,-0.023 -0.056,-0.027 -0.065,-0.018 -0.06,-0.023 -0.061,-0.023 -0.06,-0.019 -0.06,-0.015 -0.065,-0.018 -0.06,-0.015 -0.065,-0.016 -0.064,-0.016 -0.061,-0.01 -0.065,-0.012 -0.063,-0.011 -0.065,-0.012 -0.065,-0.006 -0.063,-0.008 -0.065,-0.004 -0.064,-0.008 -0.064,-0.004 -0.064,0 -0.065,-0.004 -0.064,0 -0.065,0 -0.064,0.004 -0.064,0.004 -0.066,0.004 -0.063,0.004 -0.065,0.008 -0.064,0.004 -0.064,0.01 -0.064,0.008 -0.065,0.011 -0.06,0.012 -0.064,0.014 -0.065,0.012 -0.06,0.016 -0.066,0.019 -0.059,0.014 -0.065,0.019 -0.061,0.019 -0.06,0.023 -0.061,0.019 -0.06,0.022 -0.061,0.026 -0.061,0.024 -0.056,0.026 -0.06,0.027 -0.057,0.03 -0.057,0.027 -0.061,0.029 -0.056,0.031 -0.053,0.034 -0.058,0.03 -0.057,0.034 -0.052,0.034 -0.053,0.038 -0.053,0.039 -0.053,0.033 -0.053,0.042 -0.049,0.037 -0.053,0.043 -0.049,0.041 -0.707991,0.605992 -0.699991,0.619992 -0.688992,0.631992 -0.676991,0.643992 -0.666992,0.654992 -0.653992,0.665992 -0.643992,0.680991 -0.631992,0.687992 -0.620992,0.696991 -0.604992,0.711991 -0.598993,0.718991 -0.582993,0.733991 -0.566993,0.737991 -0.556993,0.75399 -0.544993,0.755991 -0.529993,0.76899 -0.517994,0.778991 -0.502993,0.78799 -0.491994,0.79499 -0.476994,0.80599 -0.461994,0.80899 -0.449995,0.821989 -0.431994,0.82599 -0.423995,0.834989 -0.404995,0.84399 -0.389995,0.847989 -0.377996,0.85599 -0.358995,0.858989 -0.348996,0.869989 -0.328996,0.874989 -0.316996,0.877989 -0.303996,0.884989 -0.283996,0.890989 -0.272997,0.891989 -0.252997,0.901988 -0.240997,0.898989 -0.224997,0.908989 -0.206997,0.911988 -0.192998,0.911989 -0.177998,0.918989 -0.158998,0.920988 -0.147998,0.923989 -0.127998,0.926988 -0.114999,0.926988 -0.098,0.926989 -0.079,0.930988 -0.008,0.087 -0.004,0.087 -0.004,0.088 0,0.087 0,0.088 0,0.085 0.004,0.087 0.004,0.087 0.008,0.088 0.008,0.087 0.007,0.083 0.012,0.087 0.01,0.087 0.016,0.084 0.011,0.087 0.019,0.087 0.019,0.083 0.019,0.087 0.018,0.083 0.024,0.083 0.022,0.084 0.027,0.083 0.026,0.083 0.027,0.08 0.031,0.084 0.032,0.078 0.032,0.084 0.034,0.08 0.033,0.079 0.039,0.079 0.037,0.075 0.039,0.081 0.041,0.075 0.042,0.076 0.045,0.075 0.041,0.076 0.046,0.072 0.049,0.076 0.049,0.072 0.05,0.071 0.048,0.069 0.054,0.067 0.053,0.072 0.053,0.069 0.057,0.064 0.055,0.068 0.058,0.065 0.061,0.063 0.06,0.062 0.061,0.06 0.065,0.061 0.059,0.061 0.065,0.059 0.065,0.059 0.067,0.055 0.068,0.053 0.069,0.053 0.068,0.054 0.068,0.052 0.072,0.049 0.071,0.05 0.073,0.049 0.075,0.046 0.073,0.045 0.075,0.042 0.075,0.045 0.076,0.038 0.079,0.042 0.076,0.037 0.081,0.038 0.079,0.034 0.08,0.038 0.079,0.03 0.083,0.031 0.079,0.03 0.083,0.029 0.083,0.027 0.083,0.027 0.081,0.026 0.086,0.023 0.084,0.019 0.083,0.024 0.087,0.017 0.084,0.016 0.087,0.014 0.083,0.016 0.087,0.012 0.086,0.014 0.084,0.007 0.087,0.008 0.088,0.008 0.087,0.004 0.086,0.004 0.087,0.004 0.087,0 0.087,0 0.087,-0.004 0.087,-0.004 0.087,-0.004 0.087,-0.008 0.088,-0.008 0.083,-0.01 0.086,-0.011 0.088,-0.012 0.083,-0.016 0.087,-0.014 0.083,-0.02 0.088,-0.017 0.084,-0.02 0.082,-0.023 0.084,-0.023 0.086,-0.026 24.533693,-7.489906 -4.843939,21.085737 -0.016,0.064 -0.011,0.061 -0.011,0.063 -0.012,0.065 -0.011,0.06 -0.008,0.065 -0.008,0.065 -0.003,0.063 -0.007,0.065 -0.004,0.063 -0.004,0.066 0,0.064 0,0.064 0,0.064 0,0.065 0.004,0.064 0.004,0.065 0.007,0.061 0.003,0.064 0.008,0.064 0.008,0.064 0.011,0.065 0.012,0.064 0.011,0.06 0.011,0.064 0.016,0.065 0.015,0.06 0.014,0.061 0.015,0.064 0.02,0.061 0.019,0.061 0.023,0.061 0.018,0.061 0.023,0.059 0.023,0.061 0.026,0.06 0.023,0.058 0.026,0.06 0.03,0.056 0.027,0.058 0.031,0.056 0.03,0.057 0.031,0.057 0.034,0.056 0.033,0.053 0.034,0.058 0.034,0.052 0.038,0.054 0.034,0.053 0.038,0.05 0.042,0.052 0.038,0.048 0.041,0.05 0.042,0.049 0.041,0.049 0.046,0.049 0.041,0.045 0.046,0.046 0.045,0.045 0.046,0.045 0.049,0.043 0.046,0.045 0.049,0.042 0.049,0.042 0.049,0.038 0.053,0.04 0.049,0.039 0.053,0.037 0.054,0.035 0.052,0.038 0.057,0.034 0.053,0.034 0.052,0.034 0.058,0.03 0.056,0.031 0.057,0.03 0.057,0.029 0.057,0.028 0.061,0.03 0.056,0.021 0.06,0.028 0.061,0.023 0.061,0.022 0.061,0.023 0.06,0.022 0.061,0.02 0.06,0.018 0.06,0.016 0.065,0.019 0.06,0.014 0.065,0.017 0.06,0.01 0.065,0.011 0.064,0.011 0.061,0.013 0.064,0.007 0.065,0.008 0.064,0.007 0.064,0.008 0.064,0.003 0.064,0.004 0.065,0 0.064,0.003 0.065,0 0.064,-0.003 0.061,0 0.065,-0.004 0.064,-0.003 0.064,-0.008 0.064,-0.007 0.064,-0.008 0.065,-0.007 0.064,-0.013 0.06,-0.007 0.064,-0.015 0.065,-0.01 0.061,-0.017 0.06,-0.014 0.065,-0.016 0.06,-0.019 0.061,-0.018 0.065,-0.02 0.06,-0.022 0.06,-0.02 0.057,-0.025 0.061,-0.023 0.06,-0.024 0.056,-0.025 0.062,-0.027 0.056,-0.031 0.057,-0.025 0.057,-0.03 0.057,-0.035 0.057,-0.03 0.053,-0.034 0.057,-0.034 0.052,-0.034 0.053,-0.034 0.053,-0.039 0.053,-0.037 0.049,-0.039 0.053,-0.036 0.049,-0.042 0.05,-0.042 0.049,-0.042 0.049,-0.041 0.046,-0.047 0.046,-0.045 0.045,-0.042 0.045,-0.049 0.046,-0.045 0.041,-0.045 0.041,-0.049 0.042,-0.049 0.042,-0.05 0.041,-0.052 0.038,-0.05 0.038,-0.052 0.038,-0.053 0.033,-0.054 0.039,-0.052 0.034,-0.054 0.034,-0.057 0.031,-0.052 0.029,-0.057 0.031,-0.057 0.03,-0.057 0.031,-0.057 0.026,-0.06 0.027,-0.057 0.026,-0.061 0.023,-0.056 0.027,-0.061 0.019,-0.06 0.022,-0.061 0.019,-0.061 0.022,-0.06 0.016,-0.065 0.019,-0.06 0.014,-0.061 0.016,-0.064 6.277921,-27.317659 0.015,-0.066 0.012,-0.063 0.012,-0.061 0.012,-0.064 0.007,-0.065 z"
               id="polygon3563"
               inkscape:connector-curvature="0" />
            <path
               style="fill:#cccccc;fill-opacity:1"
               d="m 68.012394,20.189689 0.140998,0.017 0.138998,0.018 0.139999,0.023 0.139998,0.022 0.135998,0.027 0.139998,0.026 0.136999,0.031 0.135998,0.034 0.135998,0.033 0.136999,0.038 0.135998,0.039 0.132998,0.041 0.134999,0.045 0.132998,0.05 0.132998,0.049 0.128999,0.049 0.126998,0.057 0.132998,0.052 0.124999,0.061 0.128998,0.06 0.124999,0.061 0.128998,0.064 0.120999,0.069 0.123998,0.068 0.120999,0.072 0.117998,0.076 0.121999,0.072 0.115998,0.079 0.116999,0.079 0.113998,0.08 0.113999,0.087 0.112998,0.084 0.109999,0.085 0.109999,0.092 0.105998,0.091 0.105999,0.094 0.100999,0.095 0.102998,0.094 0.102999,0.099 0.098,0.101998 0.097,0.103999 0.096,0.100999 0.096,0.105998 0.09,0.104999 0.091,0.110999 0.086,0.108998 0.086,0.109999 0.084,0.112999 0.084,0.113998 0.08,0.117999 0.075,0.116998 0.076,0.116999 0.076,0.120998 0.072,0.120999 0.067,0.120998 0.068,0.124999 0.064,0.124998 0.065,0.124998 0.06,0.128999 0.061,0.128998 0.057,0.127999 0.054,0.127998 0.053,0.132998 0.049,0.128999 0.045,0.132998 0.045,0.134998 0.047,0.132999 0.037,0.136998 0.041,0.135998 0.033,0.135999 0.035,0.136998 0.031,0.135998 0.03,0.139998 0.027,0.135999 0.023,0.138998 0.018,0.136998 0.018,0.139999 0.019,0.139998 0.012,0.143998 0.015,0.139998 0.008,0.138999 0.006,0.140998 0.004,0.139998 0.006,0.139998 -0.006,0.139999 -0.004,0.142998 -0.004,0.140998 -0.006,0.139998 -0.011,0.139998 -0.012,0.139999 -0.016,0.139998 -0.017,0.140998 -0.02,0.138998 -0.021,0.139999 -0.028,0.135998 -0.027,0.140998 -0.029,0.135999 -0.036,0.135998 -0.033,0.135998 -0.033,0.135998 -0.043,0.136999 -0.041,0.132998 -0.041,0.134998 -0.051,0.132999 -0.049,0.132998 -0.048,0.130998 -0.053,0.129999 -0.057,0.128998 -0.056,0.127999 -0.061,0.128998 -0.062,0.124998 -0.063,0.128999 -0.068,0.120998 -0.069,0.123999 -0.072,0.121998 -0.07,0.120999 -0.076,0.116998 -0.077,0.117999 -0.08,0.116998 -0.08,0.116999 -0.082,0.113998 -0.088,0.109999 -0.086,0.112999 -0.087,0.104998 -0.092,0.110999 -0.094,0.105999 -0.094,0.105998 -0.095,0.101999 -0.099,0.098 -0.098,0.101999 -0.101999,0.095 -0.101999,0.098 -0.106998,0.095 -0.104999,0.091 -0.109999,0.091 -0.108998,0.086 -0.109999,0.088 -0.114999,0.083 -0.112998,0.083 -0.112999,0.083 -0.116998,0.076 -0.120999,0.08 -0.117998,0.072 -0.119999,0.072 -0.121998,0.071 -0.124999,0.068 -0.124998,0.065 -0.124999,0.065 -0.123998,0.063 -0.128998,0.057 -0.128999,0.057 -0.132998,0.057 -0.127999,0.053 -0.131998,0.049 -0.132998,0.05 -0.132999,0.045 -0.131998,0.042 -0.135998,0.041 -0.136998,0.038 -0.135999,0.037 -0.135998,0.035 -0.135998,0.03 -0.139999,0.03 -0.136998,0.027 -0.139998,0.026 -0.138998,0.02 -0.136999,0.018 -0.139998,0.019 -0.139998,0.016 -0.144998,0.011 -0.139999,0.011 -0.138998,0.007 -0.139998,0.005 -0.139998,0.004 -0.140999,0 -0.142998,-0.004 -0.139998,-0.005 -0.139998,-0.007 -0.139999,-0.011 -0.139998,-0.011 -0.140998,-0.016 -0.139998,-0.019 -0.138999,-0.018 -0.139998,-0.02 -0.135998,-0.026 -0.139998,-0.027 -0.135999,-0.03 -0.136998,-0.03 -0.139998,-0.035 -0.136999,-0.037 -0.131998,-0.038 -0.135998,-0.041 -0.132999,-0.042 -0.131998,-0.045 -0.135998,-0.05 -0.128999,-0.049 -0.132998,-0.053 -0.127998,-0.057 -0.127999,-0.057 -0.128998,-0.057 -0.125999,-0.063 -0.127998,-0.065 -0.120998,-0.065 -0.124999,-0.068 -0.120998,-0.071 -0.120999,-0.072 -0.121998,-0.072 -0.116999,-0.08 -0.116998,-0.076 -0.113999,-0.083 -0.112999,-0.083 -0.112998,-0.083 -0.113999,-0.088 -0.109998,-0.086 -0.106999,-0.091 -0.104999,-0.091 -0.105998,-0.095 -0.102999,-0.098 -0.100999,-0.095 -0.098,-0.101999 -0.099,-0.098 -0.099,-0.101999 -0.095,-0.105998 -0.091,-0.105999 -0.09,-0.110999 -0.091,-0.104998 -0.087,-0.112999 -0.083,-0.109999 -0.083,-0.113998 -0.079,-0.116999 -0.08,-0.116998 -0.08,-0.117999 -0.072,-0.116998 -0.076,-0.120999 -0.072,-0.121998 -0.068,-0.123999 -0.063,-0.120998 -0.065,-0.128999 -0.064,-0.124998 -0.06,-0.128998 -0.058,-0.127999 -0.053,-0.128998 -0.052,-0.129999 -0.054,-0.130998 -0.049,-0.132998 -0.045,-0.132999 -0.046,-0.134998 -0.042,-0.132998 -0.037,-0.136999 -0.038,-0.135998 -0.035,-0.135998 -0.03,-0.135998 -0.03,-0.135999 -0.027,-0.140998 -0.025,-0.135998 -0.023,-0.139999 -0.019,-0.138998 -0.02,-0.140998 -0.015,-0.139998 -0.014,-0.139999 -0.008,-0.139998 -0.008,-0.139998 -0.008,-0.140998 -0.002,-0.142998 0,-0.139999 0.002,-0.139998 0.004,-0.139998 0.008,-0.140998 0.008,-0.142999 0.011,-0.139998 0.015,-0.139998 0.015,-0.139998 0.019,-0.139999 0.023,-0.136998 0.023,-0.138998 0.026,-0.135999 0.031,-0.139998 0.03,-0.135998 0.033,-0.136998 0.034,-0.135999 0.039,-0.135998 0.041,-0.136998 0.042,-0.132999 0.046,-0.134998 0.049,-0.132998 0.049,-0.128999 0.053,-0.132998 0.053,-0.127998 0.056,-0.127999 0.057,-0.128998 0.064,-0.128999 0.062,-0.124998 0.067,-0.124998 0.065,-0.124999 0.071,-0.120998 0.073,-0.120999 0.071,-0.120998 0.076,-0.116999 0.08,-0.116998 0.079,-0.117999 0.083,-0.113998 0.083,-0.112999 0.087,-0.109999 0.088,-0.108998 0.091,-0.110999 0.09,-0.104999 0.095,-0.105998 0.094,-0.100999 0.099,-0.103999 0.099,-0.101998 0.098,-0.099 0.101998,-0.094 0.106999,-0.095 0.104999,-0.094 0.105998,-0.091 0.109999,-0.092 0.108999,-0.085 0.114998,-0.084 0.111999,-0.087 0.113998,-0.08 0.117999,-0.079 0.116998,-0.079 0.116999,-0.072 0.121998,-0.076 0.119999,-0.072 0.121998,-0.068 0.123999,-0.069 0.124998,-0.064 0.124999,-0.061 0.127998,-0.06 0.128999,-0.061 0.128998,-0.056 0.128998,-0.053 0.131999,-0.049 0.131998,-0.049 0.132998,-0.05 0.132999,-0.045 0.136998,-0.041 0.134998,-0.039 0.132999,-0.038 0.138998,-0.033 0.136998,-0.034 0.135998,-0.031 0.136999,-0.026 0.139998,-0.027 0.138998,-0.022 0.140998,-0.023 0.139999,-0.018 0.139998,-0.017 0.136998,-0.011 0.141998,-0.011 0.140999,-0.011 0.139998,-0.005 0.139998,-0.004 0.140998,-0.003 0.138999,0.003 0.143998,0.004 0.139998,0.005 0.139998,0.011 0.140999,0.011 z"
               id="polygon3583"
               inkscape:connector-curvature="0" />
          </g>
          <rect
             style="opacity:1;fill:#cccccc;fill-opacity:1;stroke:none;stroke-width:2;stroke-linecap:round;stroke-linejoin:round;stroke-miterlimit:4;stroke-dasharray:none;stroke-dashoffset:0;stroke-opacity:1"
             id="rect6678"
             width="39.358646"
             height="34"
             x="117.87408"
             y="1079.5673"
             rx="5.7685242"
             ry="5.7685242" />
        </g>
      </g>
    </g>
  </g>
</svg>
