<?xml version="1.0" encoding="UTF-8" standalone="no"?>
<!-- Created with Inkscape (http://www.inkscape.org/) -->

<svg
   xmlns:dc="http://purl.org/dc/elements/1.1/"
   xmlns:cc="http://creativecommons.org/ns#"
   xmlns:rdf="http://www.w3.org/1999/02/22-rdf-syntax-ns#"
   xmlns:svg="http://www.w3.org/2000/svg"
   xmlns="http://www.w3.org/2000/svg"
   xmlns:sodipodi="http://sodipodi.sourceforge.net/DTD/sodipodi-0.dtd"
   xmlns:inkscape="http://www.inkscape.org/namespaces/inkscape"
   version="1.1"
   id="svg46904"
   width="113.38583"
   height="112.43808"
   viewBox="0 0 113.38582 112.43809"
   sodipodi:docname="exercise.svg"
   inkscape:version="0.92pre2 r">
  <metadata
     id="metadata46910">
    <rdf:RDF>
      <cc:Work
         rdf:about="">
        <dc:format>image/svg+xml</dc:format>
        <dc:type
           rdf:resource="http://purl.org/dc/dcmitype/StillImage" />
        <dc:title></dc:title>
      </cc:Work>
    </rdf:RDF>
  </metadata>
  <defs
     id="defs46908">
    <filter
       inkscape:collect="always"
       style="color-interpolation-filters:sRGB"
       id="filter858"
       x="-0.062307693"
       width="1.1246154"
       y="-1.6200001"
       height="4.2400002">
      <feGaussianBlur
         inkscape:collect="always"
         stdDeviation="0.94663501"
         id="feGaussianBlur860" />
    </filter>
  </defs>
  <sodipodi:namedview
     pagecolor="#ffffff"
     bordercolor="#666666"
     borderopacity="1"
     objecttolerance="10"
     gridtolerance="10"
     guidetolerance="10"
     inkscape:pageopacity="0"
     inkscape:pageshadow="2"
     inkscape:window-width="1920"
     inkscape:window-height="1043"
     id="namedview46906"
     showgrid="false"
     fit-margin-top="0"
     fit-margin-left="0"
     fit-margin-right="0"
     fit-margin-bottom="0"
     inkscape:zoom="4.0336314"
     inkscape:cx="-15.671496"
     inkscape:cy="53.558659"
     inkscape:window-x="0"
     inkscape:window-y="0"
     inkscape:window-maximized="1"
     inkscape:current-layer="svg46904" />
  <g
     id="g840"
     inkscape:export-xdpi="96"
     inkscape:export-ydpi="96"
     transform="scale(1.1062526)">
    <path
       inkscape:export-ydpi="96"
       inkscape:export-xdpi="96"
       sodipodi:nodetypes="csscssscscscscccsccscsssssccccccsscscccsscccssssccssscsssccscscscsccscccssccccssssscssccsscsccscssccscccsssccscccccssssssssscscssscscsscsccssccc"
       inkscape:connector-curvature="0"
       id="path46918"
       d="M 87.141695,94.240553 C 86.839711,93.938506 68.909494,93.345783 52.858727,93.107075 43.549058,92.968807 32.324001,92.6118 27.914158,92.314099 23.504315,92.016462 18.426314,91.870919 16.629711,91.990824 8.8907784,92.507264 4.3086454,92.898791 2.2271935,93.2215 0.91932611,93.424271 0,93.323799 0,92.97813 c 0,-0.67855 5.1040386,-1.738801 10.642422,-2.210674 2.096798,-0.178583 3.922657,-0.435149 4.057471,-0.569952 0.134806,-0.134803 0.487125,-4.076309 0.782927,-8.758917 0.295801,-4.682576 0.792714,-10.117371 1.104248,-12.077305 0.311539,-1.959903 0.73868,-6.904305 0.9492,-10.98748 0.210519,-4.083175 0.48693,-8.086319 0.614243,-8.895893 0.509694,-3.241098 0.301823,-32.850253 -0.279461,-39.8053932 -0.34126,-4.083206 -0.626531,-7.598193 -0.633943,-7.811106 -0.0335,-0.96163702 8.263054,-1.26535302 50.615998,-1.85297402 3.956845,-0.0548 6.024231,0.15622 6.5331,0.667337 0.85249,0.85612502 0.760846,14.30142922 -0.15241,22.35990522 -0.451212,3.981475 -0.314235,64.722302 0.150898,66.91833 0.08362,0.394803 -0.315669,0.820094 -0.887319,0.945101 -0.966984,0.211338 -1.049208,-0.882077 -1.180773,-15.703568 -0.07776,-8.761972 -0.136976,-23.213793 -0.131559,-32.115135 0.0079,-12.74899 -0.151338,-16.184261 -0.749466,-16.184261 -0.417631,0 -0.759319,-0.229291 -0.759319,-0.509826 0,-0.280315 -2.994402,-0.651747 -6.65422,-0.825196 -7.643948,-0.36233 -7.923173,-0.257322 -11.384362,4.281317 -1.255324,1.646076 -2.657023,2.992879 -3.114893,2.992879 -0.457864,0 -1.684369,-1.384503 -2.725568,-3.076658 l -1.89309,-3.076657 -0.504642,1.740344 c -0.277542,0.957195 -0.665177,4.354073 -0.861384,7.548651 -0.333675,5.432591 -0.248094,6.078259 1.322937,9.980773 l 1.679688,4.172404 -1.5364,3.085476 c -2.814497,5.652149 -3.985472,9.005057 -3.855623,11.040047 0.07528,1.179494 -0.179307,2.123808 -0.613798,2.276689 -0.447725,0.15748 -0.742399,-0.256062 -0.742399,-1.041857 v -1.303147 l -1.13671,1.402108 c -1.621925,2.000627 -2.20486,0.936093 -0.977665,-1.785352 0.874081,-1.938359 0.941908,-2.820563 0.422841,-5.499803 -1.534036,-7.918067 -1.486792,-8.827263 0.690515,-13.288075 2.194029,-4.495049 2.560211,-5.839677 3.072994,-11.284078 0.184598,-1.959903 0.437244,-3.964405 0.561426,-4.454389 1.18935,-4.692686 1.266436,-4.647804 -2.257697,-1.314833 -1.800804,1.703148 -3.637828,3.096594 -4.082268,3.096594 -0.444447,0 -1.392395,-1.202675 -2.106552,-2.672626 -0.714156,-1.46995 -1.614971,-2.672626 -2.001814,-2.672626 -0.386841,0 -1.125289,-0.364913 -1.640994,-0.810896 -1.903953,-1.646581 -8.817785,-1.60488 -7.767703,0.04693 0.163329,0.257007 -0.250752,0.545448 -0.920175,0.641259 -1.181559,0.169133 -1.238129,0.74192 -1.935555,19.599311 -0.39514,10.683795 -0.820018,20.093262 -0.944176,20.90989 -1.037545,6.824305 -1.517004,11.374976 -1.822705,17.299661 l -0.356346,6.9061 6.701471,0.387936 c 11.299007,0.654047 20.375334,0.977101 34.318666,1.221447 39.134926,0.685763 49.777794,1.263999 42.967544,2.334359 -2.081748,0.327212 -13.108063,0.324189 -13.435924,-0.0031 z M 42.020188,55.566372 c 2.060848,-4.82941 2.206784,-6.25662 0.986723,-9.649529 -1.056086,-2.936877 -2.026548,-3.90727 -2.026548,-2.026422 0,0.52718 -0.578853,1.988438 -1.286348,3.247239 -1.229173,2.187021 -1.252612,2.515367 -0.527545,7.388966 0.417334,2.80513 0.900949,4.958103 1.074694,4.78434 0.173732,-0.173859 0.974307,-1.858801 1.779024,-3.744594 z m 9.59055,-27.107709 c 1.003507,-1.263873 1.679056,-2.533383 1.501223,-2.821099 -0.356286,-0.576503 -6.786336,-0.736975 -6.786336,-0.169448 0,0.793605 3.001847,5.752779 3.299708,5.451267 0.08847,-0.08945 0.981898,-1.196911 1.985405,-2.460783 z M 38.531504,24.4627 c -1.414052,-0.194961 -3.035883,-0.233071 -3.604055,-0.08441 -0.964692,0.252284 -0.954717,0.423685 0.15074,2.590579 l 1.183806,2.320438 2.420258,-2.235871 2.420258,-2.235871 z m 34.520441,-0.274331 c 0,-0.143936 -0.267275,-0.262046 -0.59392,-0.262046 -0.326652,0 -0.593914,0.283149 -0.593914,0.628975 0,0.345921 0.267275,0.463779 0.593914,0.261732 0.326658,-0.20189 0.59392,-0.484913 0.59392,-0.628944 z M 21.512082,22.887174 c 0.332944,-1.283714 -0.04763,-2.524153 -0.774434,-2.524153 -0.299436,0 -0.544427,0.801794 -0.544427,1.781761 0,1.931021 0.881838,2.427429 1.318861,0.742392 z m 48.867231,-0.148346 c 0.201889,-0.326645 0.843948,-0.59392 1.426807,-0.59392 0.957265,0 1.095891,-0.918235 1.433592,-9.496175 0.205606,-5.2229222 0.225669,-9.8824112 0.04453,-10.3544112 -0.282173,-0.735306 -3.830186,-0.818739 -24.779939,-0.58255 -13.447845,0.151496 -25.592165,0.418456 -26.987392,0.593007 l -2.536768,0.317417 0.311061,3.673695 c 0.246346,2.909382 0.638937,8.4860982 0.87534,12.4339982 0.01468,0.245039 0.694831,0.445448 1.511469,0.445448 0.974786,0 1.484795,0.33159 1.484795,0.965353 0,0.836471 0.675915,0.929857 5.06329,0.69959 3.738509,-0.19622 5.233798,-0.06016 5.71495,0.519432 0.425934,0.513259 2.082183,0.785196 4.781915,0.785196 h 4.130271 l -1.816593,-1.528565 c -0.999132,-0.840692 -2.123937,-2.554358 -2.499571,-3.80812 -0.593961,-1.982454 -0.517275,-2.621823 0.58845,-4.905946 2.018907,-4.1704822 3.699135,-5.4139772 7.207615,-5.3340402 4.754339,0.108347 8.307329,3.6454752 8.307329,8.2704142 0,1.88006 -3.018458,5.228213 -6.236142,6.917313 l -1.781755,0.935305 3.454074,0.0252 c 1.899742,0.0126 3.988114,-0.262047 4.640831,-0.611338 0.765958,-0.40992 1.436533,-0.432597 1.891188,-0.06394 1.123094,0.910708 2.73838,1.150613 8.241843,1.224062 2.879448,0.03843 5.32403,-0.193701 5.528792,-0.525039 z M 48.576481,19.832439 c 3.409661,-1.740218 5.863944,-5.321788 4.306407,-6.284401 -0.339946,-0.210078 -0.618078,-0.881353 -0.618078,-1.491683 0,-2.4688782 -5.683813,-4.9796462 -8.211015,-3.6271442 -1.765733,0.945007 -3.505664,3.6380422 -3.978347,6.1576602 -0.371912,1.982454 -0.205606,2.408879 1.671358,4.285853 2.370828,2.370831 3.699144,2.557476 6.829675,0.959715 z m 4.282246,21.897072 c 0,-0.33474 0.601341,-0.86655 1.336316,-1.181825 0.734975,-0.315275 1.937657,-1.009416 2.672633,-1.542549 1.185645,-0.860031 1.336316,-0.865542 1.336316,-0.04913 0,0.506109 -0.704204,1.47414 -1.564893,2.151146 -1.651163,1.298833 -3.780372,1.649321 -3.780372,0.62233 z m -1.387066,-2.164249 c -0.324459,-0.324441 3.9067,-3.166295 4.714236,-3.166295 0.906981,0 -0.09272,1.40592 -1.693897,2.38217 -2.116828,1.290675 -2.431987,1.372471 -3.020339,0.784125 z M 28.85783,37.541233 c -0.845675,-1.005038 -1.53759,-2.074075 -1.53759,-2.375681 0,-1.044156 1.164621,-0.541984 2.118156,0.91329 0.526734,0.803904 1.503629,1.634895 2.170878,1.846674 0.959416,0.304567 1.041479,0.493795 0.392308,0.904944 -1.240631,0.785731 -1.480562,0.687337 -3.143752,-1.289227 z m 2.125318,-2.295272 c -2.104549,-2.618862 -2.240687,-3.004437 -1.060768,-3.004437 0.878804,0 3.93096,3.658389 3.93096,4.71171 0,1.213762 -1.001529,0.618015 -2.870192,-1.707273 z M 78.991127,19.40151 c -64.95572,57.003856 -32.477859,28.501913 0,0 z"
       style="fill:#333333;stroke-width:0.59391826" />
    <ellipse
       cy="97.786987"
       cx="42.598576"
       id="path816"
       style="fill:#666666;fill-opacity:1;stroke:none;stroke-width:1;stroke-linecap:round;stroke-linejoin:round;stroke-miterlimit:4;stroke-dasharray:none;stroke-dashoffset:0;stroke-opacity:1;filter:url(#filter858)"
       ry="0.70121109"
       rx="18.231489"
       transform="matrix(1.5535145,0,0,1.148102,-21.913552,-14.044192)" />
  </g>
</svg>
