<?xml version="1.0" encoding="UTF-8" standalone="no"?>
<!-- Created with Inkscape (http://www.inkscape.org/) -->

<svg
   xmlns:dc="http://purl.org/dc/elements/1.1/"
   xmlns:cc="http://creativecommons.org/ns#"
   xmlns:rdf="http://www.w3.org/1999/02/22-rdf-syntax-ns#"
   xmlns:svg="http://www.w3.org/2000/svg"
   xmlns="http://www.w3.org/2000/svg"
   xmlns:sodipodi="http://sodipodi.sourceforge.net/DTD/sodipodi-0.dtd"
   xmlns:inkscape="http://www.inkscape.org/namespaces/inkscape"
   version="1.1"
   id="svg46697"
   width="151.18111"
   height="70.097076"
   viewBox="0 0 151.1811 70.097076"
   sodipodi:docname="playing.svg"
   inkscape:version="0.92pre2 r">
  <metadata
     id="metadata46703">
    <rdf:RDF>
      <cc:Work
         rdf:about="">
        <dc:format>image/svg+xml</dc:format>
        <dc:type
           rdf:resource="http://purl.org/dc/dcmitype/StillImage" />
        <dc:title></dc:title>
      </cc:Work>
    </rdf:RDF>
  </metadata>
  <defs
     id="defs46701" />
  <sodipodi:namedview
     pagecolor="#ffffff"
     bordercolor="#666666"
     borderopacity="1"
     objecttolerance="10"
     gridtolerance="10"
     guidetolerance="10"
     inkscape:pageopacity="0"
     inkscape:pageshadow="2"
     inkscape:window-width="1366"
     inkscape:window-height="708"
     id="namedview46699"
     showgrid="false"
     fit-margin-top="0"
     fit-margin-left="0"
     fit-margin-right="0"
     fit-margin-bottom="0"
     inkscape:zoom="3.8446681"
     inkscape:cx="123.51518"
     inkscape:cy="28.197158"
     inkscape:window-x="1920"
     inkscape:window-y="23"
     inkscape:window-maximized="1"
     inkscape:current-layer="svg46697" />
  <path
     style="fill:#333333;stroke-width:1;stroke-miterlimit:4;stroke-dasharray:none"
     d="M 8.8816551,69.073861 C 2.3416335,68.321392 0.3184034,65.2297 0.02043381,55.532991 -0.13451502,50.490711 0.57736733,47.76728 2.6493544,45.475523 4.669842,43.240752 5.371407,40.679539 5.0776165,36.610616 c -0.2991014,-4.142595 0.2183766,-5.96447 1.8746806,-6.600039 1.2582954,-0.482869 2.2878242,-1.756183 2.2878242,-2.829623 0,-3.347899 12.2335137,-10.558534 22.9535417,-13.529203 8.678715,-2.405001 10.514173,-2.533511 11.923948,-0.834834 1.408573,1.697225 2.241622,1.63072 5.38683,-0.430094 3.032865,-1.987213 3.591961,-2.044343 3.024753,-0.309041 -0.3827,1.170838 -2.606588,3.104331 -4.94198,4.296674 l -4.246161,2.167891 3.990535,0.467922 c 4.809247,0.563928 5.27939,2.792475 0.725552,3.439217 -1.79574,0.255032 -3.199683,1.279946 -3.119873,2.27758 0.07981,0.997633 0.24306,6.188956 0.362776,11.536273 0.1693,7.561859 0.604632,9.335427 1.95899,7.981068 2.721704,-2.72169 5.514193,-2.048131 5.514193,1.330053 0,2.476903 -0.688084,2.939834 -3.55503,2.391781 -2.776019,-0.530669 -3.650453,-0.01161 -3.990534,2.370262 -0.344042,2.40931 -1.301422,2.957769 -4.558453,2.611406 -2.602946,-0.276813 -3.775074,0.124358 -3.179339,1.088327 0.518973,0.839725 3.190556,1.526778 5.936828,1.526778 4.580625,0 4.993218,0.359729 4.993218,4.353311 0,4.231534 0.194578,4.35331 6.955429,4.35331 6.594953,0 7.027396,-0.244424 8.343838,-4.716086 l 1.388416,-4.716086 10.593013,-0.106802 c 5.826164,-0.05877 10.925426,0.430964 11.331693,1.088328 0.406267,0.657364 2.679628,1.195201 5.051883,1.195201 5.328139,0 7.330452,3.906008 3.455009,6.73981 -2.372788,1.735012 -1.659499,1.966812 6.052333,1.966812 4.80818,0 9.17398,-0.431863 9.70182,-0.959688 0.52782,-0.527824 -1.32234,-2.510366 -4.11147,-4.405623 -6.25301,-4.249034 -6.4715,-8.030305 -0.76513,-13.242247 3.03743,-2.774279 4.07298,-4.823947 3.51507,-6.957389 -0.84184,-3.2192 2.62072,-7.810434 5.89037,-7.810434 1.04243,0 2.70823,0.979496 3.70179,2.176656 1.13102,1.362789 4.31726,2.174623 8.52152,2.171228 l 6.71507,-0.0058 -4.67715,-2.851767 c -4.59145,-2.799527 -5.16734,-4.037957 -6.8995,-14.836952 -1.23651,-7.709017 2.21691,-15.0608142 8.26089,-17.5861552 5.97845,-2.497944 13.19687,-1.60219203 16.49982,2.047507 3.91489,4.325899 4.35781,15.6483222 0.89272,22.8202262 -1.61157,3.33558 -2.38339,6.064684 -1.71514,6.064684 1.82889,0 3.31595,14.861796 2.16733,21.66039 -0.55457,3.282454 -1.98085,6.940643 -3.16952,8.1293 -1.91422,1.914223 -2.58482,1.828012 -5.86769,-0.754299 -5.08003,-3.995947 -8.32056,-3.943272 -6.15663,0.100126 0.88763,1.658582 1.1886,4.107319 0.6688,5.441638 -0.82111,2.107772 -1.32988,1.954158 -3.8782,-1.170997 l -2.93312,-3.597053 -2.88454,3.95983 c -2.76529,3.796129 -6.81083,5.112166 -8.9964,2.92657 -0.56828,-0.568281 1.42941,-3.100761 4.43933,-5.627742 l 5.47257,-4.594498 -5.04396,-5.85825 c -5.68758,-6.605786 -7.27176,-7.088118 -12.35052,-3.760375 -4.75574,3.11607 -4.52891,4.502426 1.60944,9.837045 8.51551,7.400512 4.34138,11.037063 -12.668595,11.037063 -7.835059,0 -11.064045,-3.228081 -6.538822,-6.537003 3.38386,-2.474334 3.004048,-3.331355 -1.126418,-2.541766 -2.2807,0.435983 -4.059513,2.170096 -5.003375,4.877623 -1.412677,4.052409 -1.798118,4.201146 -10.886536,4.201146 -5.182113,0 -9.83747,-0.672193 -10.345226,-1.493765 -0.563028,-0.910988 -3.851664,-1.138811 -8.429481,-0.583953 -9.807356,1.1887 -39.374605,1.876538 -46.3189919,1.077531 z M 81.432508,64.919744 c 0.997641,-0.30746 1.813883,-1.845499 1.813883,-3.417856 0,-2.26899 -1.326029,-3.057693 -6.426931,-3.822614 -7.873722,-1.180747 -9.535207,-0.267322 -9.535207,5.242039 0,4.209042 0.109123,4.269553 6.167189,3.421136 3.391956,-0.475018 6.983432,-1.11523 7.981066,-1.422705 z M 10.179639,59.553549 c -0.2017626,-4.447182 0.09635,-4.741771 5.227673,-5.166465 6.62259,-0.548111 6.729725,-1.554698 0.581529,-5.463971 -8.7807727,-5.583164 -14.3434179,1.687851 -10.3530865,13.532643 1.3456227,3.994278 4.7578925,1.814837 4.5438845,-2.902207 z m 33.630586,2.386354 c -0.675968,-3.356605 -28.76569,-4.715302 -28.76569,-1.391376 0,1.738684 2.785524,2.258309 14.14826,2.63931 7.781542,0.260924 14.359394,0.61106 14.61743,0.778097 0.258049,0.167036 0.258049,-0.744678 0,-2.026031 z M 32.457778,54.111911 c 0,-0.798107 -1.795741,-1.441105 -3.990535,-1.428887 -3.109628,0.01727 -3.510045,0.332752 -1.813879,1.428887 2.839127,1.83479 5.804414,1.83479 5.804414,0 z M 145.23964,46.198812 c -0.46157,-2.592599 -0.75372,-2.431078 -2.29817,1.2706 -0.97317,2.332431 -1.35084,5.270915 -0.83927,6.529966 0.74174,1.825561 1.20719,1.568222 2.29817,-1.270601 0.75244,-1.957872 1.1301,-4.896356 0.83927,-6.529965 z m -10.20047,2.725999 c 0.59191,-1.778051 -9.48486,-5.281538 -11.53912,-4.011924 -1.76416,1.090301 6.28932,6.432074 8.96361,5.945447 1.13103,-0.205796 2.29001,-1.075877 2.57551,-1.933523 z M 41.164398,33.156555 c 0,-8.757308 -0.626121,-15.537909 -1.483709,-16.067938 -2.209015,-1.365242 -15.969511,3.573893 -21.37117,7.670881 -5.177625,3.927078 -5.897604,7.740142 -2.983237,15.799672 2.075441,5.73955 6.056543,7.476724 17.494271,7.633762 l 8.343845,0.114637 z m 99.764032,8.2582 c 0.37677,-1.13157 -0.77395,-1.813878 -3.05909,-1.813878 -4.05609,0 -6.33426,2.22933 -3.48059,3.405957 2.81205,1.159475 5.87153,0.414653 6.53968,-1.592079 z m -24.32887,-5.256534 c 0.0116,-0.696313 -0.9501,-0.459072 -2.13847,0.527185 -1.18836,0.986272 -1.75974,2.441932 -1.26971,3.234815 0.89932,1.455137 3.36436,-1.265827 3.40818,-3.762 z m 25.81658,-8.545245 c 3.76115,-4.003551 5.45304,-13.440845 3.37906,-18.8480492 -1.28779,-3.357432 -2.38151,-3.990534 -6.89393,-3.990534 -7.67788,0 -10.67068,3.299838 -10.67068,11.7654462 0,9.63328 2.37975,14.354417 7.2355,14.354417 2.14014,0 5.24422,-1.465513 6.95005,-3.28128 z M 48.419916,36.69867 c 0,-0.798108 1.671033,-1.451104 3.713403,-1.451104 2.106073,0 3.325203,0.628096 2.816562,1.451104 -0.493259,0.798106 -2.164292,1.451103 -3.713402,1.451103 -1.549111,0 -2.816563,-0.652997 -2.816563,-1.451103 z m -0.725552,-8.706622 c 0.493259,-0.798106 1.837793,-1.451103 2.987851,-1.451103 1.150058,0 2.091011,0.652997 2.091011,1.451103 0,0.798107 -1.344534,1.451104 -2.987851,1.451104 -1.643316,0 -2.58427,-0.652997 -2.091011,-1.451104 z"
     id="path46707"
     inkscape:connector-curvature="0"
     sodipodi:nodetypes="cscccsssccscscsscsscccssscccsscsccccscccsscccsscscsccccscsssssscscscccscsccscscscssccsccscccscccccscccccscscccccccsssscsscsssssss"
     inkscape:export-xdpi="96"
     inkscape:export-ydpi="96" />
</svg>
