<?xml version="1.0" encoding="UTF-8" standalone="no"?>
<!-- Created with Inkscape (http://www.inkscape.org/) -->

<svg
   xmlns:dc="http://purl.org/dc/elements/1.1/"
   xmlns:cc="http://creativecommons.org/ns#"
   xmlns:rdf="http://www.w3.org/1999/02/22-rdf-syntax-ns#"
   xmlns:svg="http://www.w3.org/2000/svg"
   xmlns="http://www.w3.org/2000/svg"
   xmlns:sodipodi="http://sodipodi.sourceforge.net/DTD/sodipodi-0.dtd"
   xmlns:inkscape="http://www.inkscape.org/namespaces/inkscape"
   width="147.66408"
   height="84.651833"
   viewBox="0 0 39.069456 22.397464"
   version="1.1"
   id="svg203"
   sodipodi:docname="with-my-girl.svg"
   inkscape:version="0.92pre2 r"
   inkscape:export-filename="/run/media/firebird/Management/5-Repositories/Websites/cosmobird.github.io/assets/pics/status/hacking-banging.png"
   inkscape:export-xdpi="96"
   inkscape:export-ydpi="96">
  <defs
     id="defs197">
    <filter
       inkscape:collect="always"
       style="color-interpolation-filters:sRGB"
       id="filter1023"
       x="-0.030598911"
       width="1.0611978"
       y="-1.5327287"
       height="4.0654573">
      <feGaussianBlur
         inkscape:collect="always"
         stdDeviation="0.46939208"
         id="feGaussianBlur1025" />
    </filter>
  </defs>
  <sodipodi:namedview
     id="base"
     pagecolor="#ffffff"
     bordercolor="#666666"
     borderopacity="1.0"
     inkscape:pageopacity="0.0"
     inkscape:pageshadow="2"
     inkscape:zoom="3.959798"
     inkscape:cx="76.305229"
     inkscape:cy="36.417571"
     inkscape:document-units="mm"
     inkscape:current-layer="layer1"
     showgrid="false"
     fit-margin-top="0"
     fit-margin-left="0"
     fit-margin-right="0"
     fit-margin-bottom="0"
     units="px"
     inkscape:window-width="1366"
     inkscape:window-height="768"
     inkscape:window-x="1920"
     inkscape:window-y="0"
     inkscape:window-maximized="0" />
  <metadata
     id="metadata200">
    <rdf:RDF>
      <cc:Work
         rdf:about="">
        <dc:format>image/svg+xml</dc:format>
        <dc:type
           rdf:resource="http://purl.org/dc/dcmitype/StillImage" />
        <dc:title></dc:title>
      </cc:Work>
    </rdf:RDF>
  </metadata>
  <g
     inkscape:label="Layer 1"
     inkscape:groupmode="layer"
     id="layer1"
     transform="translate(-226.3976,-114.34326)">
    <g
       id="g1031"
       inkscape:export-xdpi="96"
       inkscape:export-ydpi="96">
      <g
         transform="matrix(0.87499891,0,0,0.87499891,28.88123,16.776524)"
         inkscape:export-ydpi="96"
         inkscape:export-xdpi="96"
         id="g16">
        <g
           id="g11"
           inkscape:export-xdpi="96"
           inkscape:export-ydpi="96"
           style="fill:#333333">
          <path
             style="fill:#333333;stroke-width:0.29535148"
             d="m 228.05868,134.21102 h 1.22378 l -0.19589,-2.59744 c -0.22065,-2.92298 0.0653,-4.18438 1.23394,-5.44459 0.41079,-0.44295 1.15694,-0.93496 1.65807,-1.09332 1.24058,-0.39202 5.20819,-0.90712 6.98725,-0.90712 1.4969,0 1.93764,-0.39784 0.83015,-0.74934 -0.34389,-0.10919 -1.20136,-0.79973 -1.90553,-1.53462 l -1.28027,-1.33618 0.7185,-1.41789 c 0.39517,-0.77985 0.84415,-1.49556 0.99773,-1.59047 0.15357,-0.0949 0.20647,-0.87729 0.11757,-1.73863 -0.17432,-1.68895 0.2295,-2.84286 1.34963,-3.85655 1.17829,-1.06635 3.59502,-0.10451 4.82687,1.92115 0.53336,0.87706 0.53253,0.91925 -0.0362,1.8394 -1.31463,2.12712 -3.41112,3.15672 -4.87805,2.39566 -0.70541,-0.36598 -0.76435,-0.34733 -0.79583,0.2518 -0.1242,2.36363 0.66337,3.90353 2.46298,4.81546 0.87477,0.44329 1.35282,0.85473 1.22792,1.05682 -0.32927,0.53279 1.74925,0.013 2.1621,-0.54067 0.36562,-0.49032 1.26944,-0.36257 1.26944,0.17944 0,0.16754 0.1329,0.30462 0.29535,0.30462 0.16244,0 0.29536,-0.19937 0.29536,-0.44303 0,-0.24614 0.26253,-0.44303 0.5907,-0.44303 0.32489,0 0.59154,0.16614 0.59257,0.3692 0.002,0.3916 1.58107,1.40907 2.16337,1.39393 0.18988,-0.005 0.11262,-0.14446 -0.17162,-0.31003 -0.65778,-0.38312 -0.66745,-0.8624 -0.0174,-0.8624 0.43627,0 0.42692,-0.0561 -0.0738,-0.44322 -0.56301,-0.43525 -0.56098,-0.45367 0.11223,-1.0243 0.37709,-0.3196 1.12867,-0.66419 1.67016,-0.76578 0.86591,-0.16245 1.02352,-0.33948 1.30801,-1.4693 0.3953,-1.56979 0.39606,-1.61373 0.0281,-1.61373 -0.16245,0 -0.29534,0.18458 -0.29534,0.41016 0,0.52971 -1.88431,0.89005 -2.61353,0.4998 -1.10201,-0.58979 -2.40746,-2.38234 -2.40746,-3.30576 0,-1.91703 2.96978,-3.55836 4.55686,-2.51848 0.39306,0.25756 0.80693,0.77087 0.91969,1.14069 0.11275,0.36982 0.39364,0.88776 0.62421,1.15097 0.34282,0.39136 0.35291,0.6241 0.0554,1.27714 -0.26263,0.57642 -0.27617,0.93893 -0.0487,1.30323 0.51853,0.8303 0.74779,2.3445 0.54063,3.57069 -0.17984,1.06449 -0.28354,1.16778 -1.35396,1.34862 -1.15671,0.19544 -1.62201,0.73074 -0.64234,0.73897 0.28429,0.002 0.84914,0.17312 1.25524,0.37937 0.59757,0.3035 1.01823,0.30266 2.20569,-0.004 0.80699,-0.20866 1.7717,-0.37938 2.14379,-0.37938 0.59304,0 0.63284,-0.07 0.32259,-0.56672 -0.43697,-0.69971 -0.0585,-1.24136 1.3224,-1.89263 1.26768,-0.59788 5.13001,-0.88708 5.44096,-0.40741 0.127,0.19593 0.29741,-1.03927 0.37865,-2.74494 0.1135,-2.38486 0.0559,-3.17322 -0.24956,-3.41308 -0.65691,-0.51578 -0.29202,-1.70915 0.62026,-2.02868 1.15602,-0.40489 1.64171,0.12725 1.19539,1.30969 -0.22976,0.60871 -0.23695,0.93966 -0.0233,1.07172 0.21038,0.13003 0.25632,3.14938 0.1438,9.45253 l -0.16533,9.26145 h 1.30682 m -3.66587,-2.23127 c 0.16249,-3.21772 -0.16499,-6.63044 -0.66674,-6.94809 -0.71297,-0.45137 -6.79896,-0.31767 -8.49726,0.18667 -1.65649,0.49191 -5.83596,0.35005 -6.95664,-0.23614 -0.84541,-0.44221 -4.24247,-0.28057 -5.37242,0.25562 -0.99509,0.4722 -2.12732,0.46325 -7.68492,-0.0608 -1.45458,-0.13717 -2.03437,-0.0561 -2.95353,0.41302 -2.28635,1.1669 -2.84416,2.58243 -2.55006,6.47121 l 0.1626,2.14983 h 17.20314 17.20315 z m 1.79096,0.23769 c 0.0747,-1.09649 0.16261,-5.16326 0.1954,-9.03727 0.0468,-5.5141 -0.0204,-7.01701 -0.30854,-6.92092 -0.44834,0.14945 -0.7388,17.95182 -0.29288,17.95182 0.14863,0 0.33134,-0.89714 0.40602,-1.99363 z m -0.99918,-8.78671 c -0.004,-1.26619 -0.0402,-1.35824 -0.25408,-0.64565 -0.13722,0.4571 -0.39807,1.01013 -0.57966,1.22895 -0.22758,0.27422 -0.23396,0.45732 -0.0205,0.58925 0.17034,0.10527 0.31903,0.4826 0.33046,0.83851 0.044,1.37384 0.52857,-0.48635 0.5238,-2.01106 z m -17.67492,0.4256 c 0,-0.17204 -0.13292,-0.23063 -0.29536,-0.13024 -0.16245,0.10036 -0.29535,0.24114 -0.29535,0.31278 0,0.0716 0.1329,0.13025 0.29535,0.13025 0.16244,0 0.29536,-0.14076 0.29536,-0.31279 z m 16.69312,-0.35175 c 0.0742,-0.20305 0.16969,-0.70146 0.21224,-1.10759 0.0764,-0.72936 0.0515,-0.73789 -2.04345,-0.69923 -1.67438,0.0309 -2.31424,0.17686 -3.03961,0.69337 -0.73398,0.52264 -0.84964,0.73755 -0.57502,1.06843 0.45903,0.5531 5.24574,0.59266 5.44584,0.045 z m -10.6016,-2.29152 c 0.0279,-1.00274 0.007,-1.0742 -0.0903,-0.29281 -0.07,0.56855 -0.35233,1.21181 -0.62751,1.42945 -0.46,0.36383 -0.45272,0.38743 0.0903,0.29281 0.4808,-0.0837 0.59755,-0.34974 0.62752,-1.42945 z M 238.72062,120.768 c -0.0781,-0.40851 -0.25902,-0.81507 -0.40206,-0.90348 -0.30036,-0.18564 -0.35875,1.15376 -0.0632,1.44932 0.40508,0.40509 0.60272,0.17324 0.46525,-0.54584 z m 12.89432,-1.89082 c 0.30793,-0.19497 0.36409,-0.62088 0.22023,-1.6704 -0.22384,-1.63304 -0.42132,-1.94034 -0.80567,-1.25357 -0.15152,0.27074 -0.73964,0.64543 -1.30693,0.83266 -0.56729,0.18722 -1.03145,0.4376 -1.03145,0.55641 0,0.57778 1.4874,1.78116 2.21514,1.79214 0.16244,0.002 0.48134,-0.11325 0.70868,-0.25724 z m -9.59868,-1.32233 c 0.54191,-0.22644 1.35923,-0.90194 1.81626,-1.50112 0.79263,-1.0392 0.80941,-1.12576 0.36419,-1.87729 -0.62592,-1.05657 -2.20824,-2.11741 -3.15456,-2.11492 -0.97339,0.002 -2.09764,1.56252 -2.09764,2.9106 0,1.19368 0.71038,2.61046 1.39892,2.79004 0.28648,0.0747 0.55837,0.15126 0.60419,0.17011 0.0458,0.0189 0.52672,-0.151 1.06864,-0.37742 z m 8.41303,-2.06719 c 0.38744,-0.21476 0.58308,-0.46547 0.43477,-0.55713 -0.14832,-0.0917 -0.59822,0.0858 -0.9998,0.39437 -0.83566,0.64214 -0.48305,0.74371 0.56503,0.16276 z m 15.92961,-1.31001 c 0.0614,-0.41687 -0.0619,-0.6414 -0.35176,-0.6414 -0.57432,0 -0.87635,0.49474 -0.65468,1.07245 0.24052,0.62675 0.89184,0.3478 1.00644,-0.43105 z"
             id="path47433"
             inkscape:connector-curvature="0"
             sodipodi:nodetypes="csscscscccccsssccccssssccssccccssssccccccccccscscscccccccccsccscscccscccsccscccccscsssccccsccccccccccccccccccscccccccccccscccscc"
             inkscape:export-xdpi="96"
             inkscape:export-ydpi="96" />
        </g>
      </g>
      <ellipse
         ry="0.36749524"
         rx="18.408188"
         cy="135.77585"
         cx="245.93233"
         id="path997"
         style="fill:#999999;fill-opacity:1;stroke:none;stroke-width:0.44320247;stroke-linecap:round;stroke-linejoin:round;stroke-miterlimit:4;stroke-dasharray:none;stroke-dashoffset:0;stroke-opacity:1;filter:url(#filter1023)" />
    </g>
  </g>
</svg>
