<?xml version="1.0" encoding="UTF-8" standalone="no"?>
<svg
   xmlns:dc="http://purl.org/dc/elements/1.1/"
   xmlns:cc="http://creativecommons.org/ns#"
   xmlns:rdf="http://www.w3.org/1999/02/22-rdf-syntax-ns#"
   xmlns:svg="http://www.w3.org/2000/svg"
   xmlns="http://www.w3.org/2000/svg"
   xmlns:xlink="http://www.w3.org/1999/xlink"
   xmlns:sodipodi="http://sodipodi.sourceforge.net/DTD/sodipodi-0.dtd"
   xmlns:inkscape="http://www.inkscape.org/namespaces/inkscape"
   version="1.1"
   x="0px"
   y="0px"
   viewBox="0 0 400 300"
   enable-background="new 0 0 100 100"
   xml:space="preserve"
   id="svg3555"
   inkscape:version="0.91 r13725"
   sodipodi:docname="Community-caption.svg"
   width="400"
   height="300"><metadata
     id="metadata3593"><rdf:RDF><cc:Work
         rdf:about=""><dc:format>image/svg+xml</dc:format><dc:type
           rdf:resource="http://purl.org/dc/dcmitype/StillImage" /><dc:title /></cc:Work></rdf:RDF></metadata><defs
     id="defs3591"><linearGradient
       inkscape:collect="always"
       id="linearGradient20232"><stop
         style="stop-color:#00aad4;stop-opacity:1;"
         offset="0"
         id="stop20234" /><stop
         style="stop-color:#00aad4;stop-opacity:0;"
         offset="1"
         id="stop20236" /></linearGradient><linearGradient
       inkscape:collect="always"
       xlink:href="#linearGradient20232"
       id="linearGradient20238"
       x1="200"
       y1="149"
       x2="247"
       y2="196"
       gradientUnits="userSpaceOnUse" /></defs><sodipodi:namedview
     pagecolor="#ffffff"
     bordercolor="#666666"
     borderopacity="1"
     objecttolerance="10"
     gridtolerance="10"
     guidetolerance="10"
     inkscape:pageopacity="0"
     inkscape:pageshadow="2"
     inkscape:window-width="1366"
     inkscape:window-height="768"
     id="namedview3589"
     showgrid="false"
     showborder="false"
     inkscape:zoom="1"
     inkscape:cx="291.64897"
     inkscape:cy="94.478197"
     inkscape:window-x="0"
     inkscape:window-y="0"
     inkscape:window-maximized="0"
     inkscape:current-layer="svg3555"
     showguides="true"
     inkscape:guide-bbox="true"
     fit-margin-top="0"
     fit-margin-left="0"
     fit-margin-right="0"
     fit-margin-bottom="0"><sodipodi:guide
       position="535.98694,154.14928"
       orientation="0.70710678,0.70710678"
       id="guide3864"
       inkscape:label=""
       inkscape:color="rgb(0,0,255)" /><sodipodi:guide
       position="85.55992,-91.216774"
       orientation="0.70710678,0.70710678"
       id="guide4030"
       inkscape:label=""
       inkscape:color="rgb(0,0,255)" /><sodipodi:guide
       position="-128.69343,434.16356"
       orientation="1,0"
       id="guide4228" /><sodipodi:guide
       position="582.65599,-114.5513"
       orientation="0,1"
       id="guide4230" /></sodipodi:namedview><g
     id="g20240"
     inkscape:export-xdpi="90"
     inkscape:export-ydpi="90"><g
       inkscape:export-ydpi="90"
       inkscape:export-xdpi="90"
       transform="matrix(1.5,0,0,1.5,-627.60923,265.16342)"
       id="g5597" /><rect
       inkscape:export-ydpi="90"
       inkscape:export-xdpi="90"
       y="0"
       x="0"
       height="300"
       width="400"
       id="rect4420"
       style="opacity:1;fill:#e5ff80;fill-opacity:1;stroke:none;stroke-width:6.79094839;stroke-linecap:round;stroke-linejoin:round;stroke-miterlimit:4;stroke-dasharray:none;stroke-dashoffset:0;stroke-opacity:1" /><path
       style="fill:#80e5ff;fill-opacity:1"
       inkscape:connector-curvature="0"
       id="path16409"
       d="M 271.24642,111.83275 C 268.07937,94.83318 254.73191,81.834 238.0528,78.66494 225.37626,76.16886 212.52887,75 200.0211,75 c -12.84531,0 -25.69063,1.16886 -38.36508,3.66494 -17.01457,3.16906 -29.8578,16.33492 -33.02902,33.00112 -4.836,25.33164 -4.836,51.16748 0,76.33243 3.16914,17.16833 16.34574,30.00083 33.02902,33.16988 12.67445,2.66277 25.51977,3.83163 38.36508,3.83163 12.84322,0 25.51768,-1.16886 38.1963,-3.66702 17.01666,-3.33366 29.86197,-16.33284 33.02902,-33.16573 5.00477,-25.3358 5.00477,-51.16955 0,-76.3345 z" /><path
       inkscape:connector-curvature="0"
       id="path17084"
       d="m 250.52734,99.853516 -8.375,8.400394 -6.74218,6.66015 -5.32227,5.23633 6.81836,20.08594 1.39844,9.80273 -5.79492,20.03711 -5.75782,6.5625 -8.15039,6.25586 -18.22461,8.24219 -10.25781,-4.23047 -21.36328,-5.40625 -4.43359,4.45508 -5.91993,5.90039 -8.51953,8.5625 22.3418,22.61523 c 9.00171,1.31268 18.0642,1.93032 27.12891,1.95899 l 1.37109,0 c 12.60247,-0.042 25.0453,-1.20766 37.49219,-3.66016 17.01666,-3.33366 29.86224,-16.33117 33.02929,-33.16406 C 273.74848,175.50007 275,162.70658 275,149.93555 c 0,-9.14656 -0.65394,-18.28049 -1.9375,-27.35157 L 250.52734,99.853516 Z"
       style="fill:url(#linearGradient20238);fill-opacity:1" /><path
       style="fill:#ffffff"
       inkscape:connector-curvature="0"
       d="m 255.42996,121.70496 -0.48411,-0.53919 c 0,0 -0.0737,-0.0801 -0.21653,-0.22295 -1.16309,-1.16242 -7.4107,-6.86653 -18.22451,-7.11018 -0.20669,-2.74738 -1.33921,-12.44745 -7.27317,-18.380195 l -0.54056,-0.541654 -18.1999,18.198989 -0.58831,0.58992 0.63777,0.53435 c 0.003,0.002 0.25337,0.21548 0.66086,0.61992 2.07307,2.0729 6.8946,7.83296 6.89348,16.52135 l -0.001,0.88697 0.87616,-0.1303 c 0.0891,-0.0126 8.68368,-1.17789 17.40647,7.54493 l 0.54095,0.54018 18.00016,-17.99856 0.51221,-0.51353 z"
       id="path3774" /><circle
       transform="matrix(0.25881905,-0.96592582,0.96592582,0.25881905,0,0)"
       style="fill:#ffffff"
       cx="-36.778381"
       cy="264.84436"
       r="5.968667"
       id="circle3776" /><path
       style="fill:#ffffff"
       inkscape:connector-curvature="0"
       d="m 144.95651,178.51513 0.48745,0.53851 c 0,0 0.0717,0.0813 0.21427,0.22551 1.16309,1.16243 7.41109,6.86504 18.22451,7.11017 0.2048,2.74847 1.33733,12.44854 7.26685,18.3801 l 0.54055,0.54166 18.20281,-18.19639 0.58844,-0.59165 -0.63777,-0.53435 c -10e-4,-0.002 -0.25414,-0.21255 -0.66129,-0.61842 -2.07272,-2.07433 -6.89123,-7.83366 -6.88864,-16.52165 l 0.001,-0.88697 -0.87616,0.1303 c -0.0877,0.013 -8.68515,1.17751 -17.40497,-7.54452 l -0.54313,-0.54394 -17.99909,17.99588 -0.51448,0.51609 z"
       id="path3786" /><circle
       transform="matrix(0.25881905,-0.96592582,0.96592582,0.25881905,0,0)"
       style="fill:#ffffff"
       cx="-149.58586"
       cy="199.60193"
       r="5.968667"
       id="circle3788" /><circle
       transform="matrix(0.25881905,-0.96592582,0.96592582,0.25881905,0,0)"
       style="fill:#ffffff"
       cx="-93.362511"
       cy="232.10149"
       r="17.498177"
       id="circle3790" /><path
       style="fill:#ffffff"
       inkscape:connector-curvature="0"
       d="m 147.64908,116.5784 -0.22323,0.69097 c 0,0 -0.0337,0.10211 -0.0861,0.29756 -0.42617,1.59052 -2.24131,9.85157 2.95301,19.33843 -2.27839,1.55454 -10.11059,7.38588 -12.28156,15.48809 l -0.19802,0.73899 24.8605,6.66135 0.80455,0.21399 0.14467,-0.81836 c 0.002,-0.005 0.0584,-0.33038 0.20638,-0.88277 0.75911,-2.83304 3.33603,-9.88522 10.86059,-14.23079 l 0.768,-0.4434 -0.55215,-0.69394 c -0.0537,-0.0666 -5.36153,-6.93173 -2.16875,-18.84735 l 0.19722,-0.73603 -24.58356,-6.58715 -0.70197,-0.18809 z"
       id="path3766" /><circle
       transform="matrix(0.25881905,-0.96592582,0.96592582,0.25881905,0,0)"
       style="fill:#ffffff"
       cx="-93.317276"
       cy="166.77917"
       r="5.968667"
       id="circle3768" /><path
       style="fill:#ffffff"
       inkscape:connector-curvature="0"
       d="m 197.05297,212.05521 0.71067,-0.15243 c 0,0 0.10454,-0.0228 0.30357,-0.0726 1.58889,-0.42662 9.64866,-2.98436 15.27003,-12.22866 2.4824,1.19689 11.44901,5.06453 19.55207,2.89616 l 0.74045,-0.19842 -6.66128,-24.8637 -0.21483,-0.80358 -0.78095,0.28439 c -0.005,0.002 -0.31617,0.11369 -0.86872,0.26246 -2.83031,0.75904 -10.23023,2.05076 -17.75178,-2.29315 l -0.76833,-0.44396 -0.32591,0.82535 c -0.0304,0.0839 -3.32066,8.11001 -15.23435,11.30173 l -0.74341,0.19762 6.58557,24.58945 0.1872,0.69936 z"
       id="path3782" /><circle
       transform="matrix(0.25881905,-0.96592582,0.96592582,0.25881905,0,0)"
       style="fill:#ffffff"
       cx="-149.57397"
       cy="264.61871"
       r="5.968667"
       id="circle3784" /><path
       id="path3955"
       d="m 166.1582,98.069287 0.69097,-0.223237 c 0,0 0.10211,-0.03374 0.29756,-0.08608 1.59052,-0.426174 9.85157,-2.241313 19.33843,2.95301 1.55454,-2.278395 7.38588,-10.11059 15.48809,-12.281565 l 0.73899,-0.198015 6.66135,24.86049 0.21399,0.80455 -0.81836,0.14467 c -0.005,0.002 -0.33038,0.0584 -0.88277,0.20638 -2.83304,0.75911 -9.88522,3.33603 -14.23079,10.86059 l -0.4434,0.768 -0.69394,-0.55215 c -0.0666,-0.0537 -6.93173,-5.36153 -18.84735,-2.16875 l -0.73603,0.19722 -6.58715,-24.583554 -0.18809,-0.701968 z"
       inkscape:connector-curvature="0"
       style="fill:#ffffff" /><circle
       id="circle3957"
       r="5.968667"
       cy="131.72096"
       cx="-154.03987"
       style="fill:#ffffff"
       transform="matrix(-0.96592582,0.25881905,0.25881905,0.96592582,0,0)" /><path
       id="path3961"
       d="m 262.17619,146.92859 -0.15243,0.71067 c 0,0 -0.0228,0.10454 -0.0726,0.30357 -0.42662,1.58889 -2.98436,9.64866 -12.22866,15.27003 1.19689,2.4824 5.06453,11.44901 2.89616,19.55207 l -0.19842,0.74045 -24.8637,-6.66128 -0.80358,-0.21483 0.28439,-0.78095 c 0.002,-0.005 0.11369,-0.31617 0.26246,-0.86872 0.75904,-2.83031 2.05076,-10.23023 -2.29315,-17.75178 l -0.44396,-0.76833 0.82535,-0.32591 c 0.0839,-0.0304 8.11001,-3.32066 11.30173,-15.23435 l 0.19762,-0.74341 24.58945,6.58557 0.69936,0.1872 z"
       inkscape:connector-curvature="0"
       style="fill:#ffffff" /><circle
       id="circle3963"
       r="5.968667"
       cy="229.17453"
       cx="-210.96027"
       style="fill:#ffffff"
       transform="matrix(-0.96592582,0.25881905,0.25881905,0.96592582,0,0)" /><path
       inkscape:transform-center-y="0.98593419"
       inkscape:transform-center-x="-0.95098945"
       d="m 106.5374,247.76024 a 5.968667,5.968667 0 0 1 -5.95732,5.96865 5.968667,5.968667 0 0 1 -5.979971,-5.94595 l 5.968621,-0.0227 z"
       sodipodi:end="3.1377891"
       sodipodi:start="0"
       sodipodi:ry="5.968667"
       sodipodi:rx="5.968667"
       sodipodi:cy="247.76024"
       sodipodi:cx="100.56873"
       sodipodi:type="arc"
       id="circle4225"
       style="fill:#ececec"
       transform="matrix(0.70710679,-0.70710677,0.70710677,0.70710679,0,0)" /><path
       sodipodi:open="true"
       transform="matrix(0.70710679,-0.70710677,0.70710677,0.70710679,0,0)"
       style="fill:#ececec"
       id="path4232"
       sodipodi:type="arc"
       sodipodi:cx="-29.753082"
       sodipodi:cy="247.66492"
       sodipodi:rx="5.968667"
       sodipodi:ry="5.968667"
       sodipodi:start="0"
       sodipodi:end="3.1364329"
       d="m -23.784415,247.66492 a 5.968667,5.968667 0 0 1 -5.953269,5.96864 5.968667,5.968667 0 0 1 -5.983986,-5.93785"
       inkscape:transform-center-x="-0.95098945"
       inkscape:transform-center-y="0.98593419" /></g></svg>