<?xml version="1.0" encoding="UTF-8" standalone="no"?>
<svg
   xmlns:dc="http://purl.org/dc/elements/1.1/"
   xmlns:cc="http://creativecommons.org/ns#"
   xmlns:rdf="http://www.w3.org/1999/02/22-rdf-syntax-ns#"
   xmlns:svg="http://www.w3.org/2000/svg"
   xmlns="http://www.w3.org/2000/svg"
   xmlns:sodipodi="http://sodipodi.sourceforge.net/DTD/sodipodi-0.dtd"
   xmlns:inkscape="http://www.inkscape.org/namespaces/inkscape"
   version="1.1"
   x="0px"
   y="0px"
   viewBox="0.0 0.0 160.0 160.0"
   enable-background="new 0 0 100 100"
   xml:space="preserve"
   id="svg3555"
   inkscape:version="0.92+devel unknown"
   sodipodi:docname="Community-category.svg"
   width="160.0"
   height="160.0"><sodipodi:namedview
     pagecolor="#ffffff"
     bordercolor="#666666"
     borderopacity="1"
     objecttolerance="10"
     gridtolerance="10"
     guidetolerance="10"
     inkscape:pageopacity="0"
     inkscape:pageshadow="2"
     inkscape:window-width="1366"
     inkscape:window-height="708"
     id="namedview3589"
     showgrid="false"
     showborder="false"
     inkscape:zoom="3.7133333"
     inkscape:cx="75"
     inkscape:cy="75"
     inkscape:window-x="0"
     inkscape:window-y="23"
     inkscape:window-maximized="1"
     inkscape:current-layer="svg3555"
     showguides="true"
     inkscape:guide-bbox="true"
     fit-margin-top="0"
     fit-margin-left="0"
     fit-margin-right="0"
     fit-margin-bottom="0"
     inkscape:document-rotation="0"
     inkscape:document-units="px"><sodipodi:guide
       inkscape:locked="false"
       inkscape:color="rgb(0,0,255)"
       inkscape:label=""
       id="guide3864"
       orientation="0.70710678,0.70710678"
       position="438.38609,84.425909" /><sodipodi:guide
       inkscape:locked="false"
       inkscape:color="rgb(0,0,255)"
       inkscape:label=""
       id="guide4030"
       orientation="0.70710678,0.70710678"
       position="-42.069394,-177.29788" /><sodipodi:guide
       inkscape:locked="false"
       id="guide4228"
       orientation="1,0"
       position="-270.6063,383.10781" /><sodipodi:guide
       inkscape:locked="false"
       id="guide4230"
       orientation="0,1"
       position="488.16641,-202.18804" /></sodipodi:namedview><metadata
     id="metadata3593"><rdf:RDF><cc:Work
         rdf:about=""><dc:format>image/svg+xml</dc:format><dc:type
           rdf:resource="http://purl.org/dc/dcmitype/StillImage" /><dc:title /></cc:Work></rdf:RDF></metadata><defs
     id="defs3591" /><g
     transform="matrix(1.600000,0.000000,0.000000,1.600000,-802.783157,202.840971)"
     id="g5597" /><g
     inkscape:export-ydpi="90"
     inkscape:export-xdpi="90"
     transform="matrix(1.066667,0.000000,0.000000,1.066667,-133.333312,-80.000009)"
     id="g4291"><rect
       y="75.000008"
       x="124.99998"
       height="150"
       width="150"
       id="rect5453"
       style="opacity:1;fill:#80e5ff;fill-opacity:1;stroke:none;stroke-width:6.79094839;stroke-linecap:round;stroke-linejoin:round;stroke-miterlimit:4;stroke-dasharray:none;stroke-dashoffset:0;stroke-opacity:1"
       rx="17.745853"
       ry="17.745853" /><path
       style="fill:#00aad4;fill-opacity:1;fill-rule:evenodd;stroke:none;stroke-width:1px;stroke-linecap:butt;stroke-linejoin:miter;stroke-opacity:1"
       d="m 250.52806,99.853388 24.47187,24.684072 0,83.33255 c 0,0 0.0645,6.78339 -4.8227,11.65989 -5.47882,5.47882 -11.60993,5.44471 -11.60993,5.44471 l -84.39969,0.0254 -24.28454,-24.58256 8.51884,-8.56166 5.92041,-5.90147 4.4337,-4.45511 21.36324,5.40752 10.25808,4.23057 18.22405,-8.24212 8.1515,-6.25599 5.75728,-6.56253 5.79474,-20.03769 -1.39912,-9.80171 -6.81763,-20.08732 5.32295,-5.23649 6.74212,-6.65868 z"
       id="path4445"
       inkscape:connector-curvature="0"
       sodipodi:nodetypes="ccccccccccccccccccccc" /><path
       id="path3774"
       d="m 255.42996,121.70496 -0.48411,-0.53919 c 0,0 -0.0737,-0.0801 -0.21653,-0.22295 -1.16309,-1.16242 -7.4107,-6.86653 -18.22451,-7.11018 -0.20669,-2.74738 -1.33921,-12.44745 -7.27317,-18.380195 l -0.54056,-0.541654 -18.1999,18.198989 -0.58831,0.58992 0.63777,0.53435 c 0.003,0.002 0.25337,0.21548 0.66086,0.61992 2.07307,2.0729 6.8946,7.83296 6.89348,16.52135 l -0.001,0.88697 0.87616,-0.1303 c 0.0891,-0.0126 8.68368,-1.17789 17.40647,7.54493 l 0.54095,0.54018 18.00016,-17.99856 0.51221,-0.51353 z"
       inkscape:connector-curvature="0"
       style="fill:#ffffff" /><circle
       id="circle3776"
       r="5.968667"
       cy="264.84436"
       cx="-36.778381"
       style="fill:#ffffff"
       transform="matrix(0.25881905,-0.96592582,0.96592582,0.25881905,0,0)" /><path
       id="path3786"
       d="m 144.95651,178.51513 0.48745,0.53851 c 0,0 0.0717,0.0813 0.21427,0.22551 1.16309,1.16243 7.41109,6.86504 18.22451,7.11017 0.2048,2.74847 1.33733,12.44854 7.26685,18.3801 l 0.54055,0.54166 18.20281,-18.19639 0.58844,-0.59165 -0.63777,-0.53435 c -10e-4,-0.002 -0.25414,-0.21255 -0.66129,-0.61842 -2.07272,-2.07433 -6.89123,-7.83366 -6.88864,-16.52165 l 0.001,-0.88697 -0.87616,0.1303 c -0.0877,0.013 -8.68515,1.17751 -17.40497,-7.54452 l -0.54313,-0.54394 -17.99909,17.99588 -0.51448,0.51609 z"
       inkscape:connector-curvature="0"
       style="fill:#ffffff" /><circle
       id="circle3788"
       r="5.968667"
       cy="199.60193"
       cx="-149.58586"
       style="fill:#ffffff"
       transform="matrix(0.25881905,-0.96592582,0.96592582,0.25881905,0,0)" /><circle
       id="circle3790"
       r="17.498177"
       cy="232.10149"
       cx="-93.362511"
       style="fill:#ffffff"
       transform="matrix(0.25881905,-0.96592582,0.96592582,0.25881905,0,0)" /><path
       id="path3766"
       d="m 147.64908,116.5784 -0.22323,0.69097 c 0,0 -0.0337,0.10211 -0.0861,0.29756 -0.42617,1.59052 -2.24131,9.85157 2.95301,19.33843 -2.27839,1.55454 -10.11059,7.38588 -12.28156,15.48809 l -0.19802,0.73899 24.8605,6.66135 0.80455,0.21399 0.14467,-0.81836 c 0.002,-0.005 0.0584,-0.33038 0.20638,-0.88277 0.75911,-2.83304 3.33603,-9.88522 10.86059,-14.23079 l 0.768,-0.4434 -0.55215,-0.69394 c -0.0537,-0.0666 -5.36153,-6.93173 -2.16875,-18.84735 l 0.19722,-0.73603 -24.58356,-6.58715 -0.70197,-0.18809 z"
       inkscape:connector-curvature="0"
       style="fill:#ffffff" /><circle
       id="circle3768"
       r="5.968667"
       cy="166.77917"
       cx="-93.317276"
       style="fill:#ffffff"
       transform="matrix(0.25881905,-0.96592582,0.96592582,0.25881905,0,0)" /><path
       id="path3782"
       d="m 197.05297,212.05521 0.71067,-0.15243 c 0,0 0.10454,-0.0228 0.30357,-0.0726 1.58889,-0.42662 9.64866,-2.98436 15.27003,-12.22866 2.4824,1.19689 11.44901,5.06453 19.55207,2.89616 l 0.74045,-0.19842 -6.66128,-24.8637 -0.21483,-0.80358 -0.78095,0.28439 c -0.005,0.002 -0.31617,0.11369 -0.86872,0.26246 -2.83031,0.75904 -10.23023,2.05076 -17.75178,-2.29315 l -0.76833,-0.44396 -0.32591,0.82535 c -0.0304,0.0839 -3.32066,8.11001 -15.23435,11.30173 l -0.74341,0.19762 6.58557,24.58945 0.1872,0.69936 z"
       inkscape:connector-curvature="0"
       style="fill:#ffffff" /><circle
       id="circle3784"
       r="5.968667"
       cy="264.61871"
       cx="-149.57397"
       style="fill:#ffffff"
       transform="matrix(0.25881905,-0.96592582,0.96592582,0.25881905,0,0)" /><path
       style="fill:#ffffff"
       inkscape:connector-curvature="0"
       d="m 166.1582,98.069287 0.69097,-0.223237 c 0,0 0.10211,-0.03374 0.29756,-0.08608 1.59052,-0.426174 9.85157,-2.241313 19.33843,2.95301 1.55454,-2.278395 7.38588,-10.11059 15.48809,-12.281565 l 0.73899,-0.198015 6.66135,24.86049 0.21399,0.80455 -0.81836,0.14467 c -0.005,0.002 -0.33038,0.0584 -0.88277,0.20638 -2.83304,0.75911 -9.88522,3.33603 -14.23079,10.86059 l -0.4434,0.768 -0.69394,-0.55215 c -0.0666,-0.0537 -6.93173,-5.36153 -18.84735,-2.16875 l -0.73603,0.19722 -6.58715,-24.583554 -0.18809,-0.701968 z"
       id="path3955" /><circle
       transform="matrix(-0.96592582,0.25881905,0.25881905,0.96592582,0,0)"
       style="fill:#ffffff"
       cx="-154.03987"
       cy="131.72096"
       r="5.968667"
       id="circle3957" /><path
       style="fill:#ffffff"
       inkscape:connector-curvature="0"
       d="m 262.17619,146.92859 -0.15243,0.71067 c 0,0 -0.0228,0.10454 -0.0726,0.30357 -0.42662,1.58889 -2.98436,9.64866 -12.22866,15.27003 1.19689,2.4824 5.06453,11.44901 2.89616,19.55207 l -0.19842,0.74045 -24.8637,-6.66128 -0.80358,-0.21483 0.28439,-0.78095 c 0.002,-0.005 0.11369,-0.31617 0.26246,-0.86872 0.75904,-2.83031 2.05076,-10.23023 -2.29315,-17.75178 l -0.44396,-0.76833 0.82535,-0.32591 c 0.0839,-0.0304 8.11001,-3.32066 11.30173,-15.23435 l 0.19762,-0.74341 24.58945,6.58557 0.69936,0.1872 z"
       id="path3961" /><circle
       transform="matrix(-0.96592582,0.25881905,0.25881905,0.96592582,0,0)"
       style="fill:#ffffff"
       cx="-210.96027"
       cy="229.17453"
       r="5.968667"
       id="circle3963" /><path
       transform="matrix(0.70710679,-0.70710677,0.70710677,0.70710679,0,0)"
       style="fill:#ececec"
       id="circle4225"
       sodipodi:type="arc"
       sodipodi:cx="100.56873"
       sodipodi:cy="247.76024"
       sodipodi:rx="5.968667"
       sodipodi:ry="5.968667"
       sodipodi:start="0"
       sodipodi:end="3.1377891"
       d="m 106.5374,247.76024 a 5.968667,5.968667 0 0 1 -5.95732,5.96865 5.968667,5.968667 0 0 1 -5.979971,-5.94595 l 5.968621,-0.0227 z"
       inkscape:transform-center-x="-0.95098945"
       inkscape:transform-center-y="0.98593419" /><path
       inkscape:transform-center-y="0.98593419"
       inkscape:transform-center-x="-0.95098945"
       d="m -23.784415,247.66492 a 5.968667,5.968667 0 0 1 -5.953269,5.96864 5.968667,5.968667 0 0 1 -5.983986,-5.93785"
       sodipodi:end="3.1364329"
       sodipodi:start="0"
       sodipodi:ry="5.968667"
       sodipodi:rx="5.968667"
       sodipodi:cy="247.66492"
       sodipodi:cx="-29.753082"
       sodipodi:type="arc"
       id="path4232"
       style="fill:#ececec"
       transform="matrix(0.70710679,-0.70710677,0.70710677,0.70710679,0,0)"
       sodipodi:open="true" /></g></svg>