<?xml version="1.0" encoding="UTF-8" standalone="no"?>
<svg
   xmlns:dc="http://purl.org/dc/elements/1.1/"
   xmlns:cc="http://creativecommons.org/ns#"
   xmlns:rdf="http://www.w3.org/1999/02/22-rdf-syntax-ns#"
   xmlns:svg="http://www.w3.org/2000/svg"
   xmlns="http://www.w3.org/2000/svg"
   xmlns:sodipodi="http://sodipodi.sourceforge.net/DTD/sodipodi-0.dtd"
   xmlns:inkscape="http://www.inkscape.org/namespaces/inkscape"
   version="1.1"
   x="0px"
   y="0px"
   viewBox="0 0 150 150"
   enable-background="new 0 0 100 100"
   xml:space="preserve"
   id="svg3555"
   inkscape:version="0.91 r13725"
   sodipodi:docname="Presentations-category.svg"
   width="150"
   height="150"><metadata
     id="metadata3593"><rdf:RDF><cc:Work
         rdf:about=""><dc:format>image/svg+xml</dc:format><dc:type
           rdf:resource="http://purl.org/dc/dcmitype/StillImage" /><dc:title></dc:title></cc:Work></rdf:RDF></metadata><defs
     id="defs3591" /><sodipodi:namedview
     pagecolor="#ffffff"
     bordercolor="#666666"
     borderopacity="1"
     objecttolerance="10"
     gridtolerance="10"
     guidetolerance="10"
     inkscape:pageopacity="0"
     inkscape:pageshadow="2"
     inkscape:window-width="1366"
     inkscape:window-height="704"
     id="namedview3589"
     showgrid="false"
     showborder="false"
     inkscape:zoom="1"
     inkscape:cx="167.1473"
     inkscape:cy="177.4221"
     inkscape:window-x="0"
     inkscape:window-y="27"
     inkscape:window-maximized="1"
     inkscape:current-layer="svg3555"
     showguides="true"
     inkscape:guide-bbox="true"
     fit-margin-top="0"
     fit-margin-left="0"
     fit-margin-right="0"
     fit-margin-bottom="0"><sodipodi:guide
       position="62.736873,156.93103"
       orientation="-0.70710678,0.70710678"
       id="guide6034" /><sodipodi:guide
       position="80.768093,156.22392"
       orientation="1,0"
       id="guide6036" /><sodipodi:guide
       position="-42.622037,74.90665"
       orientation="0,1"
       id="guide6038" /><sodipodi:guide
       position="88.546273,111.23426"
       orientation="0.70710678,0.70710678"
       id="guide6040"
       inkscape:label=""
       inkscape:color="rgb(0,0,255)" /><sodipodi:guide
       position="28.795743,43.4404"
       orientation="0.70710678,0.70710678"
       id="guide3622"
       inkscape:label=""
       inkscape:color="rgb(0,0,255)" /></sodipodi:namedview><g
     id="g3629"
     inkscape:export-xdpi="90"
     inkscape:export-ydpi="90"><g
       inkscape:export-ydpi="90"
       inkscape:export-xdpi="90"
       transform="matrix(0.9999875,0,0,0.9999875,-151.98181,95.416412)"
       id="g3567"
       style="fill:#00a99d;fill-opacity:1" /><g
       inkscape:export-ydpi="90"
       inkscape:export-xdpi="90"
       transform="translate(-124.99998,-75.000008)"
       id="g6453"><rect
         y="75.000008"
         x="124.99998"
         height="150"
         width="150"
         id="rect5453"
         style="opacity:1;fill:#ff80e5;fill-opacity:1;stroke:none;stroke-width:6.79094839;stroke-linecap:round;stroke-linejoin:round;stroke-miterlimit:4;stroke-dasharray:none;stroke-dashoffset:0;stroke-opacity:1"
         rx="0"
         ry="0" /><path
         style="fill:#c837ab;fill-opacity:1;fill-rule:evenodd;stroke:none;stroke-width:1px;stroke-linecap:butt;stroke-linejoin:miter;stroke-opacity:1"
         d="m 274.99998,175.19692 -0.008,32.67309 0.006,17.12434 -16.43881,-0.0197 -61.26905,0.0254 -30.97196,-30.90338 33.81497,0.0843 -0.0413,-42.69567 -0.0413,-31.02841 8.52886,-11.58297 z"
         id="path4445"
         inkscape:connector-curvature="0"
         sodipodi:nodetypes="ccccccccccc" /><g
         id="g5918"
         transform="matrix(1.2437922,0,0,1.2437922,136.4521,87.350817)"
         style="fill:#ffffff"><g
           id="Captions"
           style="fill:#ffffff" /><g
           id="Your_Icon"
           style="fill:#ffffff"><path
             id="path5898"
             d="m 79,77.17 0,0.01 c -0.05,-0.02 -0.1,-0.029 -0.15,-0.06 0.05,0.02 0.1,0.04 0.15,0.05 z"
             inkscape:connector-curvature="0"
             style="fill:#ffffff" /><g
             id="g5900"
             style="fill:#ffffff"><ellipse
               id="ellipse5902"
               ry="10.846"
               rx="9.9110003"
               cy="25.684999"
               cx="51.755001"
               style="fill:#ffffff" /><path
               id="path5904"
               d="m 69.38,46 -36.43,0 c 3.93,-5.23 11.24,-8.42 18.22,-8.42 6.97,0 14.28,3.19 18.21,8.42 z"
               inkscape:connector-curvature="0"
               style="fill:#ffffff" /><path
               id="path5906"
               d="m 81.53,75.04 c -0.61,0.79 -1.96,1.66 -3.53,1.13 -0.05,-0.01 -0.1,-0.03 -0.15,-0.05 -0.1,-0.03 -0.189,-0.08 -0.29,-0.13 -0.3,-0.141 -0.6,-0.34 -0.899,-0.601 -2.12,-1.8 -3.11,-4.26 -1.78,-7 0.311,-0.63 0.7,-1.08 1.11,-1.399 0.069,-0.05 0.13,-0.101 0.2,-0.141 0.06,-0.05 0.13,-0.09 0.189,-0.119 0.29,-0.181 0.58,-0.311 0.86,-0.41 0.069,-0.03 0.14,-0.061 0.2,-0.08 0.199,-0.07 0.38,-0.141 0.56,-0.2 0.59,-0.22 1.01,-0.44 1,-1.021 l 0,-4.38 c 0,0 3.24,2.801 3.86,6.95 0.63,4.151 -0.55,6.441 -1.33,7.451 z"
               inkscape:connector-curvature="0"
               style="fill:#ffffff" /><path
               id="path5908"
               d="M 25.68,75.39 C 23.56,77.191 21.59,76.05 20.8,75.04 20.02,74.03 18.685,71.74 19.305,67.59 19.935,63.44 23,60.64 23,60.64 l 0,4.38 c 0,1.49 2.965,0.631 4.295,3.37 1.33,2.74 0.495,5.2 -1.615,7 z"
               inkscape:connector-curvature="0"
               style="fill:#ffffff" /></g><path
             id="path5910"
             d="m 77.475,65.1 c 0.209,-0.08 0.48,-0.17 0.619,-0.25 l 0,-17.95 -54,0 0,17.95 c 0,0.08 0.541,0.17 0.75,0.25 0.99,0.34 2.611,0.871 3.52,2.75 1.422,2.91 0.602,5.9 -2.109,8.201 -0.629,0.539 -1.16,0.898 -2.16,1.068 l 0,8.781 54,0 0,-8.781 C 77.406,76.949 76.736,76.59 76.105,76.051 73.396,73.75 72.656,70.76 74.076,67.85 74.984,65.971 76.484,65.439 77.475,65.1 Z M 60.146,59.625 62.369,58.34 c 0.301,-0.174 0.686,-0.07 0.859,0.23 0.173,0.3 0.07,0.686 -0.23,0.859 l -2.223,1.283 c -0.1,0.059 -0.207,0.084 -0.314,0.084 -0.217,0 -0.428,-0.111 -0.545,-0.314 -0.174,-0.298 -0.07,-0.685 0.23,-0.857 z m -4.154,-3.695 1.283,-2.223 c 0.174,-0.301 0.561,-0.404 0.859,-0.23 0.301,0.174 0.404,0.559 0.23,0.859 l -1.285,2.223 c -0.115,0.201 -0.326,0.314 -0.545,0.314 -0.105,0 -0.215,-0.027 -0.312,-0.084 -0.3,-0.174 -0.404,-0.559 -0.23,-0.859 z m -5.445,-3.69 c 0,-0.348 0.281,-0.629 0.629,-0.629 0.348,0 0.629,0.281 0.629,0.629 l 0,2.568 c 0,0.346 -0.281,0.627 -0.629,0.627 -0.348,0 -0.629,-0.281 -0.629,-0.627 l 0,-2.568 z m -6.33,1.237 c 0.301,-0.174 0.686,-0.072 0.859,0.229 l 1.285,2.225 c 0.172,0.301 0.07,0.686 -0.23,0.859 -0.1,0.057 -0.207,0.084 -0.314,0.084 -0.217,0 -0.428,-0.113 -0.545,-0.314 l -1.283,-2.225 c -0.175,-0.302 -0.073,-0.687 0.228,-0.858 z m -6.959,12.052 c 0,-0.348 0.283,-0.629 0.629,-0.629 l 2.568,0 c 0.348,0 0.629,0.281 0.629,0.629 0,0.346 -0.281,0.627 -0.629,0.627 l -2.568,0 c -0.346,0 -0.629,-0.281 -0.629,-0.627 z m 4.949,5.905 -2.225,1.283 c -0.1,0.057 -0.207,0.084 -0.314,0.084 -0.217,0 -0.428,-0.113 -0.545,-0.314 -0.174,-0.301 -0.07,-0.686 0.23,-0.859 l 2.225,-1.283 c 0.299,-0.174 0.684,-0.07 0.857,0.23 0.173,0.3 0.073,0.685 -0.228,0.859 z m 0.229,-10.952 c -0.115,0.201 -0.326,0.314 -0.545,0.314 -0.105,0 -0.215,-0.027 -0.312,-0.084 l -2.225,-1.285 c -0.301,-0.172 -0.404,-0.557 -0.23,-0.857 0.174,-0.3 0.559,-0.404 0.859,-0.23 l 2.225,1.283 c 0.3,0.174 0.401,0.559 0.228,0.859 z m 11.71,20.873 -3.113,0.791 c -0.051,0.014 -0.104,0.02 -0.154,0.02 -0.281,0 -0.537,-0.189 -0.609,-0.475 -0.086,-0.336 0.119,-0.678 0.455,-0.764 l 3.111,-0.791 c 0.336,-0.084 0.68,0.117 0.764,0.455 0.086,0.337 -0.118,0.679 -0.454,0.764 z m 0.002,-1.748 -5.541,1.438 c -0.053,0.016 -0.105,0.021 -0.158,0.021 -0.279,0 -0.535,-0.188 -0.607,-0.471 -0.088,-0.336 0.113,-0.68 0.449,-0.768 l 5.541,-1.438 c 0.338,-0.09 0.68,0.115 0.768,0.449 0.086,0.34 -0.116,0.682 -0.452,0.769 z m 0,-1.793 -5.541,1.439 c -0.053,0.014 -0.105,0.02 -0.158,0.02 -0.279,0 -0.535,-0.188 -0.607,-0.471 -0.088,-0.336 0.113,-0.678 0.449,-0.766 l 5.541,-1.439 c 0.338,-0.088 0.68,0.115 0.768,0.451 0.086,0.337 -0.116,0.681 -0.452,0.766 z m 0,-1.791 -5.541,1.439 c -0.053,0.014 -0.105,0.02 -0.158,0.02 -0.279,0 -0.535,-0.188 -0.607,-0.471 -0.088,-0.336 0.113,-0.68 0.449,-0.766 l 5.541,-1.439 c 0.338,-0.09 0.68,0.115 0.768,0.451 0.086,0.337 -0.116,0.679 -0.452,0.766 z M 56.4,70.656 c -1.504,1.689 -2.266,2.699 -2.266,3.002 0,0.283 -0.189,0.533 -0.465,0.607 -4.842,1.311 -5.004,1.324 -5.109,1.324 -0.012,-0.002 -0.021,-0.002 -0.031,-0.002 -0.59,-0.027 -0.74,-0.58 -0.9,-1.168 -0.23,-0.844 -0.615,-2.256 -1.957,-3.764 -2.32,-2.609 -3.002,-6.316 -1.697,-9.223 1.168,-2.602 3.742,-4.092 7.062,-4.092 3.32,0 5.895,1.49 7.062,4.092 1.305,2.908 0.622,6.615 -1.699,9.224 z m 6.829,1.832 c -0.117,0.201 -0.328,0.314 -0.545,0.314 -0.107,0 -0.215,-0.027 -0.314,-0.086 l -2.223,-1.283 c -0.301,-0.174 -0.404,-0.559 -0.23,-0.859 0.174,-0.3 0.559,-0.404 0.859,-0.23 l 2.223,1.285 c 0.3,0.174 0.403,0.559 0.23,0.859 z m 1.236,-6.33 -2.568,0 c -0.348,0 -0.629,-0.281 -0.629,-0.629 0,-0.348 0.281,-0.629 0.629,-0.629 l 2.568,0 c 0.348,0 0.629,0.281 0.629,0.629 0,0.348 -0.282,0.629 -0.629,0.629 z"
             inkscape:connector-curvature="0"
             style="fill:#ffffff" /></g></g></g></g></svg>