<?xml version="1.0" encoding="UTF-8" standalone="no"?>
<svg
   xmlns:dc="http://purl.org/dc/elements/1.1/"
   xmlns:cc="http://creativecommons.org/ns#"
   xmlns:rdf="http://www.w3.org/1999/02/22-rdf-syntax-ns#"
   xmlns:svg="http://www.w3.org/2000/svg"
   xmlns="http://www.w3.org/2000/svg"
   xmlns:xlink="http://www.w3.org/1999/xlink"
   xmlns:sodipodi="http://sodipodi.sourceforge.net/DTD/sodipodi-0.dtd"
   xmlns:inkscape="http://www.inkscape.org/namespaces/inkscape"
   version="1.1"
   x="0px"
   y="0px"
   viewBox="0 0 400 300"
   enable-background="new 0 0 100 100"
   xml:space="preserve"
   id="svg3555"
   inkscape:version="0.91 r13725"
   sodipodi:docname="Research-caption.svg"
   width="400"
   height="300"><metadata
     id="metadata3593"><rdf:RDF><cc:Work
         rdf:about=""><dc:format>image/svg+xml</dc:format><dc:type
           rdf:resource="http://purl.org/dc/dcmitype/StillImage" /><dc:title /></cc:Work></rdf:RDF></metadata><defs
     id="defs3591"><linearGradient
       inkscape:collect="always"
       id="linearGradient24880"><stop
         style="stop-color:#ff9955;stop-opacity:1;"
         offset="0"
         id="stop24882" /><stop
         style="stop-color:#ff9955;stop-opacity:0;"
         offset="1"
         id="stop24884" /></linearGradient><linearGradient
       inkscape:collect="always"
       xlink:href="#linearGradient24880"
       id="linearGradient24886"
       x1="200.11122"
       y1="150.09335"
       x2="255.00894"
       y2="204.99106"
       gradientUnits="userSpaceOnUse" /></defs><sodipodi:namedview
     pagecolor="#ffffff"
     bordercolor="#666666"
     borderopacity="1"
     objecttolerance="10"
     gridtolerance="10"
     guidetolerance="10"
     inkscape:pageopacity="0"
     inkscape:pageshadow="2"
     inkscape:window-width="1366"
     inkscape:window-height="768"
     id="namedview3589"
     showgrid="false"
     showborder="false"
     inkscape:zoom="1"
     inkscape:cx="457.27609"
     inkscape:cy="135.66976"
     inkscape:window-x="0"
     inkscape:window-y="0"
     inkscape:window-maximized="0"
     inkscape:current-layer="svg3555"
     showguides="true"
     inkscape:guide-bbox="true"
     fit-margin-top="0"
     fit-margin-left="0"
     fit-margin-right="0"
     fit-margin-bottom="0"><sodipodi:guide
       position="235.113,184.90842"
       orientation="-0.70710678,0.70710678"
       id="guide6034" /><sodipodi:guide
       position="200.11122,161.92745"
       orientation="1,0"
       id="guide6036" /><sodipodi:guide
       position="532.4514,149.90664"
       orientation="0,1"
       id="guide6038" /><sodipodi:guide
       position="173.77149,97.757512"
       orientation="0.70710678,0.70710678"
       id="guide6040"
       inkscape:label=""
       inkscape:color="rgb(0,0,255)" /></sodipodi:namedview><g
     id="g24888"
     inkscape:export-xdpi="90"
     inkscape:export-ydpi="90"><g
       inkscape:export-ydpi="90"
       inkscape:export-xdpi="90"
       transform="matrix(0.9999875,0,0,0.9999875,-26.98183,170.41642)"
       id="g3567"
       style="fill:#00a99d;fill-opacity:1" /><rect
       inkscape:export-ydpi="90"
       inkscape:export-xdpi="90"
       y="0"
       x="0"
       height="300"
       width="400"
       id="rect4420"
       style="opacity:1;fill:#afe9c6;fill-opacity:1;stroke:none;stroke-width:6.79094839;stroke-linecap:round;stroke-linejoin:round;stroke-miterlimit:4;stroke-dasharray:none;stroke-dashoffset:0;stroke-opacity:1" /><path
       style="fill:#ffccaa;fill-opacity:1"
       inkscape:connector-curvature="0"
       id="path23295"
       d="M 271.24642,111.83272 C 268.07937,94.83316 254.73191,81.83397 238.0528,78.66491 c -12.67654,-2.49608 -25.52393,-3.66494 -38.0317,-3.66494 -12.84531,0 -25.69063,1.16886 -38.36508,3.66494 -17.01457,3.16906 -29.8578,16.33492 -33.02902,33.00111 -4.836,25.3316 -4.836,51.16751 0,76.3324 3.16914,17.16841 16.34574,30.0009 33.02902,33.16991 12.67445,2.6628 25.51977,3.8317 38.36508,3.8317 12.84322,0 25.51768,-1.1689 38.1963,-3.6671 17.01666,-3.3336 29.86197,-16.3328 33.02902,-33.1657 5.00477,-25.3358 5.00477,-51.1696 0,-76.3345 z" /><path
       inkscape:connector-curvature="0"
       id="path23426"
       d="m 224.74609,125.59766 -24.71484,24.75 -18.93945,10.32812 -20.32618,28.60352 35.91211,35.67187 7.92383,-0.004 c 11.28087,-0.24721 22.44613,-1.41447 33.61524,-3.61524 17.01666,-3.3336 29.86224,-16.33116 33.02929,-33.16406 0.89386,-4.52499 1.62075,-9.06708 2.19532,-13.61719 l -48.69532,-48.95312 z"
       style="fill:url(#linearGradient24886);fill-opacity:1" /><g
       style="fill:#ffffff"
       transform="translate(149.55495,100.70801)"
       id="g6207"><path
         style="fill:#ffffff"
         id="path6209"
         d="m 31.771,28.241 c 0,-3.732 3.022,-6.751 6.749,-6.751 3.727,0 6.752,3.02 6.752,6.751 0,3.727 -3.025,6.749 -6.752,6.749 -3.727,0 -6.749,-3.023 -6.749,-6.749 M 96.081,89.577 90.287,67.31 c 0,0 -5.167,-17.58 -27.114,-19.084 l -0.961,0.009 0,-2.519 c 0.812,-0.274 1.597,-0.596 2.357,-0.959 0.907,-0.4 1.828,-0.862 2.756,-1.405 l -0.13,-0.089 c 5.144,-3.441 8.496,-9.022 8.496,-15.328 0,-10.453 -9.199,-18.928 -20.547,-18.928 -4.957,0 -9.502,1.614 -13.049,4.308 6.888,1.66 12.008,7.858 12.008,15.256 0,4.964 -2.312,9.378 -5.909,12.254 -1.527,1.175 -3.269,2.084 -5.161,2.648 0.544,0.417 2.752,1.727 6.032,2.578 l 0,2.249 -1.85,0.011 c -15.39,0.184 -23.413,9.523 -23.413,9.523 l 6.177,-16.392 c -1.412,-0.912 -2.671,-1.91 -3.722,-3.024 l 3.894,-2.578 c 2.073,2.28 5.05,3.721 8.367,3.721 6.244,0 11.323,-5.08 11.323,-11.321 0,-6.244 -5.08,-11.324 -11.323,-11.324 -6.243,0 -11.322,5.08 -11.322,11.324 0,1.29 0.224,2.523 0.625,3.679 l -3.295,2.18 c -1.571,-1.584 -5.237,-1.2 -8.549,0.993 -3.314,2.195 -5.102,5.419 -4.256,7.482 l -3.308,2.191 0.013,0.019 c -0.895,0.731 -1.117,2.027 -0.466,3.012 0.652,0.983 1.934,1.288 2.956,0.75 L 10.93,48.564 16.142,45.115 6.084,74.57 c -1.508,3.349 -1.959,7.694 0.213,10.682 1.654,2.276 4.27,3.601 6.982,3.558 2.386,-0.041 5.271,-1.773 6.686,-3.85 l 10.664,-17.766 -1.811,22.383 48.826,0 0.854,-14.301 2.967,14.301 14.616,0 z"
         inkscape:connector-curvature="0" /></g></g></svg>